<svg width="44" height="44" viewBox="0 0 44 44" fill="none" xmlns="http://www.w3.org/2000/svg">
<path d="M11 2.75H9.625V4.125H11V2.75Z" fill="black"/>
<path d="M12.375 2.75H11V4.125H12.375V2.75Z" fill="black"/>
<path d="M13.75 2.75H12.375V4.125H13.75V2.75Z" fill="black"/>
<path d="M15.125 2.75H13.75V4.125H15.125V2.75Z" fill="black"/>
<path d="M8.25 4.125H6.875V5.5H8.25V4.125Z" fill="black"/>
<path d="M9.625 4.125H8.25V5.5H9.625V4.125Z" fill="black"/>
<path d="M11 4.125H9.625V5.5H11V4.125Z" fill="#F0EEEE"/>
<path d="M12.375 4.125H11V5.5H12.375V4.125Z" fill="#F0EEEE"/>
<path d="M13.75 4.125H12.375V5.5H13.75V4.125Z" fill="#F0EEEE"/>
<path d="M15.125 4.125H13.75V5.5H15.125V4.125Z" fill="#F0EEEE"/>
<path d="M16.5 4.125H15.125V5.5H16.5V4.125Z" fill="black"/>
<path d="M17.875 4.125H16.5V5.5H17.875V4.125Z" fill="black"/>
<path d="M6.875 5.5H5.5V6.875H6.875V5.5Z" fill="black"/>
<path d="M8.25 5.5H6.875V6.875H8.25V5.5Z" fill="#A2A2A2"/>
<path d="M9.625 5.5H8.25V6.875H9.625V5.5Z" fill="#F0EEEE"/>
<path d="M11 5.5H9.625V6.875H11V5.5Z" fill="#2C2C2C"/>
<path d="M12.375 5.5H11V6.875H12.375V5.5Z" fill="#2C2C2C"/>
<path d="M13.75 5.5H12.375V6.875H13.75V5.5Z" fill="white"/>
<path d="M15.125 5.5H13.75V6.875H15.125V5.5Z" fill="#2C2C2C"/>
<path d="M16.5 5.5H15.125V6.875H16.5V5.5Z" fill="#F0EEEE"/>
<path d="M17.875 5.5H16.5V6.875H17.875V5.5Z" fill="#F0EEEE"/>
<path d="M19.25 5.5H17.875V6.875H19.25V5.5Z" fill="black"/>
<path d="M5.5 6.875H4.125V8.25H5.5V6.875Z" fill="black"/>
<path d="M6.875 6.875H5.5V8.25H6.875V6.875Z" fill="#A2A2A2"/>
<path d="M8.25 6.875H6.875V8.25H8.25V6.875Z" fill="#191919"/>
<path d="M9.625 6.875H8.25V8.25H9.625V6.875Z" fill="white"/>
<path d="M11 6.875H9.625V8.25H11V6.875Z" fill="#DDDDDD"/>
<path d="M12.375 6.875H11V8.25H12.375V6.875Z" fill="#DDDDDD"/>
<path d="M13.75 6.875H12.375V8.25H13.75V6.875Z" fill="white"/>
<path d="M15.125 6.875H13.75V8.25H15.125V6.875Z" fill="#DDDDDD"/>
<path d="M16.5 6.875H15.125V8.25H16.5V6.875Z" fill="white"/>
<path d="M17.875 6.875H16.5V8.25H17.875V6.875Z" fill="#2C2C2C"/>
<path d="M19.25 6.875H17.875V8.25H19.25V6.875Z" fill="#F0EEEE"/>
<path d="M20.625 6.875H19.25V8.25H20.625V6.875Z" fill="black"/>
<path d="M4.125 8.25H2.75V9.625H4.125V8.25Z" fill="black"/>
<path d="M5.5 8.25H4.125V9.625H5.5V8.25Z" fill="#A2A2A2"/>
<path d="M6.875 8.25H5.5V9.625H6.875V8.25Z" fill="#8E8E8E"/>
<path d="M8.25 8.25H6.875V9.625H8.25V8.25Z" fill="#DDDDDD"/>
<path d="M9.625 8.25H8.25V9.625H9.625V8.25Z" fill="#191919"/>
<path d="M11 8.25H9.625V9.625H11V8.25Z" fill="#DDDDDD"/>
<path d="M12.375 8.25H11V9.625H12.375V8.25Z" fill="#2C2C2C"/>
<path d="M13.75 8.25H12.375V9.625H13.75V8.25Z" fill="#2C2C2C"/>
<path d="M15.125 8.25H13.75V9.625H15.125V8.25Z" fill="white"/>
<path d="M16.5 8.25H15.125V9.625H16.5V8.25Z" fill="#2C2C2C"/>
<path d="M17.875 8.25H16.5V9.625H17.875V8.25Z" fill="white"/>
<path d="M19.25 8.25H17.875V9.625H19.25V8.25Z" fill="#DDDDDD"/>
<path d="M20.625 8.25H19.25V9.625H20.625V8.25Z" fill="#F0EEEE"/>
<path d="M22 8.25H20.625V9.625H22V8.25Z" fill="black"/>
<path d="M4.125 9.625H2.75V11H4.125V9.625Z" fill="black"/>
<path d="M5.5 9.625H4.125V11H5.5V9.625Z" fill="#A2A2A2"/>
<path d="M6.875 9.625H5.5V11H6.875V9.625Z" fill="#191919"/>
<path d="M8.25 9.625H6.875V11H8.25V9.625Z" fill="#DDDDDD"/>
<path d="M9.625 9.625H8.25V11H9.625V9.625Z" fill="#191919"/>
<path d="M11 9.625H9.625V11H11V9.625Z" fill="#DDDDDD"/>
<path d="M12.375 9.625H11V11H12.375V9.625Z" fill="#191919"/>
<path d="M13.75 9.625H12.375V11H13.75V9.625Z" fill="#2C2C2C"/>
<path d="M15.125 9.625H13.75V11H15.125V9.625Z" fill="white"/>
<path d="M16.5 9.625H15.125V11H16.5V9.625Z" fill="#2C2C2C"/>
<path d="M17.875 9.625H16.5V11H17.875V9.625Z" fill="white"/>
<path d="M19.25 9.625H17.875V11H19.25V9.625Z" fill="#2C2C2C"/>
<path d="M20.625 9.625H19.25V11H20.625V9.625Z" fill="#F0EEEE"/>
<path d="M22 9.625H20.625V11H22V9.625Z" fill="black"/>
<path d="M2.75 11H1.375V12.375H2.75V11Z" fill="black"/>
<path d="M4.125 11H2.75V12.375H4.125V11Z" fill="#A2A2A2"/>
<path d="M5.5 11H4.125V12.375H5.5V11Z" fill="#191919"/>
<path d="M6.875 11H5.5V12.375H6.875V11Z" fill="#DDDDDD"/>
<path d="M8.25 11H6.875V12.375H8.25V11Z" fill="#8E8E8E"/>
<path d="M9.625 11H8.25V12.375H9.625V11Z" fill="#8E8E8E"/>
<path d="M11 11H9.625V12.375H11V11Z" fill="#DDDDDD"/>
<path d="M12.375 11H11V12.375H12.375V11Z" fill="#8E8E8E"/>
<path d="M13.75 11H12.375V12.375H13.75V11Z" fill="#DDDDDD"/>
<path d="M15.125 11H13.75V12.375H15.125V11Z" fill="white"/>
<path d="M16.5 11H15.125V12.375H16.5V11Z" fill="#DDDDDD"/>
<path d="M17.875 11H16.5V12.375H17.875V11Z" fill="#DDDDDD"/>
<path d="M19.25 11H17.875V12.375H19.25V11Z" fill="white"/>
<path d="M20.625 11H19.25V12.375H20.625V11Z" fill="#2C2C2C"/>
<path d="M22 11H20.625V12.375H22V11Z" fill="#F0EEEE"/>
<path d="M23.375 11H22V12.375H23.375V11Z" fill="black"/>
<path d="M24.75 11H23.375V12.375H24.75V11Z" fill="black"/>
<path d="M26.125 11H24.75V12.375H26.125V11Z" fill="black"/>
<path d="M27.5 11H26.125V12.375H27.5V11Z" fill="black"/>
<path d="M28.875 11H27.5V12.375H28.875V11Z" fill="black"/>
<path d="M30.25 11H28.875V12.375H30.25V11Z" fill="black"/>
<path d="M31.625 11H30.25V12.375H31.625V11Z" fill="black"/>
<path d="M33 11H31.625V12.375H33V11Z" fill="black"/>
<path d="M34.375 11H33V12.375H34.375V11Z" fill="black"/>
<path d="M35.75 11H34.375V12.375H35.75V11Z" fill="black"/>
<path d="M37.125 11H35.75V12.375H37.125V11Z" fill="black"/>
<path d="M2.75 12.375H1.375V13.75H2.75V12.375Z" fill="black"/>
<path d="M4.125 12.375H2.75V13.75H4.125V12.375Z" fill="#A2A2A2"/>
<path d="M5.5 12.375H4.125V13.75H5.5V12.375Z" fill="#8E8E8E"/>
<path d="M6.875 12.375H5.5V13.75H6.875V12.375Z" fill="#DDDDDD"/>
<path d="M8.25 12.375H6.875V13.75H8.25V12.375Z" fill="#191919"/>
<path d="M9.625 12.375H8.25V13.75H9.625V12.375Z" fill="#191919"/>
<path d="M11 12.375H9.625V13.75H11V12.375Z" fill="#DDDDDD"/>
<path d="M12.375 12.375H11V13.75H12.375V12.375Z" fill="#191919"/>
<path d="M13.75 12.375H12.375V13.75H13.75V12.375Z" fill="#191919"/>
<path d="M15.125 12.375H13.75V13.75H15.125V12.375Z" fill="white"/>
<path d="M16.5 12.375H15.125V13.75H16.5V12.375Z" fill="#2C2C2C"/>
<path d="M17.875 12.375H16.5V13.75H17.875V12.375Z" fill="#2C2C2C"/>
<path d="M19.25 12.375H17.875V13.75H19.25V12.375Z" fill="white"/>
<path d="M20.625 12.375H19.25V13.75H20.625V12.375Z" fill="#DDDDDD"/>
<path d="M22 12.375H20.625V13.75H22V12.375Z" fill="#F0EEEE"/>
<path d="M23.375 12.375H22V13.75H23.375V12.375Z" fill="black"/>
<path d="M24.75 12.375H23.375V13.75H24.75V12.375Z" fill="#1FF000"/>
<path d="M26.125 12.375H24.75V13.75H26.125V12.375Z" fill="#1FF000"/>
<path d="M27.5 12.375H26.125V13.75H27.5V12.375Z" fill="#1FF000"/>
<path d="M28.875 12.375H27.5V13.75H28.875V12.375Z" fill="#1FF000"/>
<path d="M30.25 12.375H28.875V13.75H30.25V12.375Z" fill="#1FF000"/>
<path d="M31.625 12.375H30.25V13.75H31.625V12.375Z" fill="#1FF000"/>
<path d="M33 12.375H31.625V13.75H33V12.375Z" fill="#1FF000"/>
<path d="M34.375 12.375H33V13.75H34.375V12.375Z" fill="#1FF000"/>
<path d="M35.75 12.375H34.375V13.75H35.75V12.375Z" fill="#1FF000"/>
<path d="M37.125 12.375H35.75V13.75H37.125V12.375Z" fill="#1FF000"/>
<path d="M38.5 12.375H37.125V13.75H38.5V12.375Z" fill="black"/>
<path d="M2.75 13.75H1.375V15.125H2.75V13.75Z" fill="black"/>
<path d="M4.125 13.75H2.75V15.125H4.125V13.75Z" fill="#A2A2A2"/>
<path d="M5.5 13.75H4.125V15.125H5.5V13.75Z" fill="#191919"/>
<path d="M6.875 13.75H5.5V15.125H6.875V13.75Z" fill="#DDDDDD"/>
<path d="M8.25 13.75H6.875V15.125H8.25V13.75Z" fill="#8E8E8E"/>
<path d="M9.625 13.75H8.25V15.125H9.625V13.75Z" fill="#8E8E8E"/>
<path d="M11 13.75H9.625V15.125H11V13.75Z" fill="#DDDDDD"/>
<path d="M12.375 13.75H11V15.125H12.375V13.75Z" fill="#8E8E8E"/>
<path d="M13.75 13.75H12.375V15.125H13.75V13.75Z" fill="#8E8E8E"/>
<path d="M15.125 13.75H13.75V15.125H15.125V13.75Z" fill="white"/>
<path d="M16.5 13.75H15.125V15.125H16.5V13.75Z" fill="#DDDDDD"/>
<path d="M17.875 13.75H16.5V15.125H17.875V13.75Z" fill="#DDDDDD"/>
<path d="M19.25 13.75H17.875V15.125H19.25V13.75Z" fill="white"/>
<path d="M20.625 13.75H19.25V15.125H20.625V13.75Z" fill="#2C2C2C"/>
<path d="M22 13.75H20.625V15.125H22V13.75Z" fill="#F0EEEE"/>
<path d="M23.375 13.75H22V15.125H23.375V13.75Z" fill="black"/>
<path d="M24.75 13.75H23.375V15.125H24.75V13.75Z" fill="#19C600"/>
<path d="M26.125 13.75H24.75V15.125H26.125V13.75Z" fill="#19C600"/>
<path d="M27.5 13.75H26.125V15.125H27.5V13.75Z" fill="#1FF000"/>
<path d="M28.875 13.75H27.5V15.125H28.875V13.75Z" fill="#268400"/>
<path d="M30.25 13.75H28.875V15.125H30.25V13.75Z" fill="#1FF000"/>
<path d="M31.625 13.75H30.25V15.125H31.625V13.75Z" fill="#268400"/>
<path d="M33 13.75H31.625V15.125H33V13.75Z" fill="#1FF000"/>
<path d="M34.375 13.75H33V15.125H34.375V13.75Z" fill="#268400"/>
<path d="M35.75 13.75H34.375V15.125H35.75V13.75Z" fill="#268400"/>
<path d="M37.125 13.75H35.75V15.125H37.125V13.75Z" fill="#1FF000"/>
<path d="M38.5 13.75H37.125V15.125H38.5V13.75Z" fill="#1FF000"/>
<path d="M39.875 13.75H38.5V15.125H39.875V13.75Z" fill="black"/>
<path d="M2.75 15.125H1.375V16.5H2.75V15.125Z" fill="black"/>
<path d="M4.125 15.125H2.75V16.5H4.125V15.125Z" fill="#A2A2A2"/>
<path d="M5.5 15.125H4.125V16.5H5.5V15.125Z" fill="#191919"/>
<path d="M6.875 15.125H5.5V16.5H6.875V15.125Z" fill="#DDDDDD"/>
<path d="M8.25 15.125H6.875V16.5H8.25V15.125Z" fill="#191919"/>
<path d="M9.625 15.125H8.25V16.5H9.625V15.125Z" fill="#191919"/>
<path d="M11 15.125H9.625V16.5H11V15.125Z" fill="#DDDDDD"/>
<path d="M12.375 15.125H11V16.5H12.375V15.125Z" fill="#191919"/>
<path d="M13.75 15.125H12.375V16.5H13.75V15.125Z" fill="#191919"/>
<path d="M15.125 15.125H13.75V16.5H15.125V15.125Z" fill="white"/>
<path d="M16.5 15.125H15.125V16.5H16.5V15.125Z" fill="#2C2C2C"/>
<path d="M17.875 15.125H16.5V16.5H17.875V15.125Z" fill="#2C2C2C"/>
<path d="M19.25 15.125H17.875V16.5H19.25V15.125Z" fill="white"/>
<path d="M20.625 15.125H19.25V16.5H20.625V15.125Z" fill="#2C2C2C"/>
<path d="M22 15.125H20.625V16.5H22V15.125Z" fill="#F0EEEE"/>
<path d="M23.375 15.125H22V16.5H23.375V15.125Z" fill="black"/>
<path d="M24.75 15.125H23.375V16.5H24.75V15.125Z" fill="#19C600"/>
<path d="M26.125 15.125H24.75V16.5H26.125V15.125Z" fill="#19C600"/>
<path d="M27.5 15.125H26.125V16.5H27.5V15.125Z" fill="#1FF000"/>
<path d="M28.875 15.125H27.5V16.5H28.875V15.125Z" fill="#266A00"/>
<path d="M30.25 15.125H28.875V16.5H30.25V15.125Z" fill="#1FF000"/>
<path d="M31.625 15.125H30.25V16.5H31.625V15.125Z" fill="#266A00"/>
<path d="M33 15.125H31.625V16.5H33V15.125Z" fill="#1FF000"/>
<path d="M34.375 15.125H33V16.5H34.375V15.125Z" fill="#266A00"/>
<path d="M35.75 15.125H34.375V16.5H35.75V15.125Z" fill="#266A00"/>
<path d="M37.125 15.125H35.75V16.5H37.125V15.125Z" fill="#268400"/>
<path d="M38.5 15.125H37.125V16.5H38.5V15.125Z" fill="#1FF000"/>
<path d="M39.875 15.125H38.5V16.5H39.875V15.125Z" fill="black"/>
<path d="M4.125 16.5H2.75V17.875H4.125V16.5Z" fill="black"/>
<path d="M5.5 16.5H4.125V17.875H5.5V16.5Z" fill="#A2A2A2"/>
<path d="M6.875 16.5H5.5V17.875H6.875V16.5Z" fill="#191919"/>
<path d="M8.25 16.5H6.875V17.875H8.25V16.5Z" fill="#DDDDDD"/>
<path d="M9.625 16.5H8.25V17.875H9.625V16.5Z" fill="#8E8E8E"/>
<path d="M11 16.5H9.625V17.875H11V16.5Z" fill="#DDDDDD"/>
<path d="M12.375 16.5H11V17.875H12.375V16.5Z" fill="#8E8E8E"/>
<path d="M13.75 16.5H12.375V17.875H13.75V16.5Z" fill="#8E8E8E"/>
<path d="M15.125 16.5H13.75V17.875H15.125V16.5Z" fill="white"/>
<path d="M16.5 16.5H15.125V17.875H16.5V16.5Z" fill="#8E8E8E"/>
<path d="M17.875 16.5H16.5V17.875H17.875V16.5Z" fill="white"/>
<path d="M19.25 16.5H17.875V17.875H19.25V16.5Z" fill="#2C2C2C"/>
<path d="M20.625 16.5H19.25V17.875H20.625V16.5Z" fill="#F0EEEE"/>
<path d="M22 16.5H20.625V17.875H22V16.5Z" fill="black"/>
<path d="M23.375 16.5H22V17.875H23.375V16.5Z" fill="#20B700"/>
<path d="M24.75 16.5H23.375V17.875H24.75V16.5Z" fill="#20B700"/>
<path d="M26.125 16.5H24.75V17.875H26.125V16.5Z" fill="#20B700"/>
<path d="M27.5 16.5H26.125V17.875H27.5V16.5Z" fill="#20B700"/>
<path d="M28.875 16.5H27.5V17.875H28.875V16.5Z" fill="#20B700"/>
<path d="M30.25 16.5H28.875V17.875H30.25V16.5Z" fill="#20B700"/>
<path d="M31.625 16.5H30.25V17.875H31.625V16.5Z" fill="#20B700"/>
<path d="M33 16.5H31.625V17.875H33V16.5Z" fill="#20B700"/>
<path d="M34.375 16.5H33V17.875H34.375V16.5Z" fill="#20B700"/>
<path d="M35.75 16.5H34.375V17.875H35.75V16.5Z" fill="#20B700"/>
<path d="M37.125 16.5H35.75V17.875H37.125V16.5Z" fill="#20B700"/>
<path d="M38.5 16.5H37.125V17.875H38.5V16.5Z" fill="#20B700"/>
<path d="M39.875 16.5H38.5V17.875H39.875V16.5Z" fill="black"/>
<path d="M4.125 17.875H2.75V19.25H4.125V17.875Z" fill="black"/>
<path d="M5.5 17.875H4.125V19.25H5.5V17.875Z" fill="#A2A2A2"/>
<path d="M6.875 17.875H5.5V19.25H6.875V17.875Z" fill="#8E8E8E"/>
<path d="M8.25 17.875H6.875V19.25H8.25V17.875Z" fill="#DDDDDD"/>
<path d="M9.625 17.875H8.25V19.25H9.625V17.875Z" fill="#191919"/>
<path d="M11 17.875H9.625V19.25H11V17.875Z" fill="#DDDDDD"/>
<path d="M12.375 17.875H11V19.25H12.375V17.875Z" fill="#191919"/>
<path d="M13.75 17.875H12.375V19.25H13.75V17.875Z" fill="#191919"/>
<path d="M15.125 17.875H13.75V19.25H15.125V17.875Z" fill="#DDDDDD"/>
<path d="M16.5 17.875H15.125V19.25H16.5V17.875Z" fill="#191919"/>
<path d="M17.875 17.875H16.5V19.25H17.875V17.875Z" fill="white"/>
<path d="M19.25 17.875H17.875V19.25H19.25V17.875Z" fill="#DDDDDD"/>
<path d="M20.625 17.875H19.25V19.25H20.625V17.875Z" fill="#F0EEEE"/>
<path d="M22 17.875H20.625V19.25H22V17.875Z" fill="black"/>
<path d="M23.375 17.875H22V19.25H23.375V17.875Z" fill="black"/>
<path d="M24.75 17.875H23.375V19.25H24.75V17.875Z" fill="black"/>
<path d="M26.125 17.875H24.75V19.25H26.125V17.875Z" fill="black"/>
<path d="M27.5 17.875H26.125V19.25H27.5V17.875Z" fill="black"/>
<path d="M28.875 17.875H27.5V19.25H28.875V17.875Z" fill="black"/>
<path d="M30.25 17.875H28.875V19.25H30.25V17.875Z" fill="black"/>
<path d="M31.625 17.875H30.25V19.25H31.625V17.875Z" fill="black"/>
<path d="M33 17.875H31.625V19.25H33V17.875Z" fill="black"/>
<path d="M34.375 17.875H33V19.25H34.375V17.875Z" fill="black"/>
<path d="M35.75 17.875H34.375V19.25H35.75V17.875Z" fill="black"/>
<path d="M37.125 17.875H35.75V19.25H37.125V17.875Z" fill="black"/>
<path d="M38.5 17.875H37.125V19.25H38.5V17.875Z" fill="black"/>
<path d="M39.875 17.875H38.5V19.25H39.875V17.875Z" fill="black"/>
<path d="M5.5 19.25H4.125V20.625H5.5V19.25Z" fill="black"/>
<path d="M6.875 19.25H5.5V20.625H6.875V19.25Z" fill="#A2A2A2"/>
<path d="M8.25 19.25H6.875V20.625H8.25V19.25Z" fill="#191919"/>
<path d="M9.625 19.25H8.25V20.625H9.625V19.25Z" fill="#8E8E8E"/>
<path d="M11 19.25H9.625V20.625H11V19.25Z" fill="#DDDDDD"/>
<path d="M12.375 19.25H11V20.625H12.375V19.25Z" fill="#8E8E8E"/>
<path d="M13.75 19.25H12.375V20.625H13.75V19.25Z" fill="#8E8E8E"/>
<path d="M15.125 19.25H13.75V20.625H15.125V19.25Z" fill="#DDDDDD"/>
<path d="M16.5 19.25H15.125V20.625H16.5V19.25Z" fill="white"/>
<path d="M17.875 19.25H16.5V20.625H17.875V19.25Z" fill="#191919"/>
<path d="M19.25 19.25H17.875V20.625H19.25V19.25Z" fill="#F0EEEE"/>
<path d="M20.625 19.25H19.25V20.625H20.625V19.25Z" fill="black"/>
<path d="M22 19.25H20.625V20.625H22V19.25Z" fill="#191919"/>
<path d="M23.375 19.25H22V20.625H23.375V19.25Z" fill="#222222"/>
<path d="M24.75 19.25H23.375V20.625H24.75V19.25Z" fill="#191919"/>
<path d="M26.125 19.25H24.75V20.625H26.125V19.25Z" fill="#2C2C2C"/>
<path d="M27.5 19.25H26.125V20.625H27.5V19.25Z" fill="#191919"/>
<path d="M28.875 19.25H27.5V20.625H28.875V19.25Z" fill="#222222"/>
<path d="M30.25 19.25H28.875V20.625H30.25V19.25Z" fill="#191919"/>
<path d="M31.625 19.25H30.25V20.625H31.625V19.25Z" fill="#2C2C2C"/>
<path d="M33 19.25H31.625V20.625H33V19.25Z" fill="#191919"/>
<path d="M34.375 19.25H33V20.625H34.375V19.25Z" fill="#222222"/>
<path d="M35.75 19.25H34.375V20.625H35.75V19.25Z" fill="#191919"/>
<path d="M37.125 19.25H35.75V20.625H37.125V19.25Z" fill="#2C2C2C"/>
<path d="M38.5 19.25H37.125V20.625H38.5V19.25Z" fill="#191919"/>
<path d="M39.875 19.25H38.5V20.625H39.875V19.25Z" fill="black"/>
<path d="M6.875 20.625H5.5V22H6.875V20.625Z" fill="black"/>
<path d="M8.25 20.625H6.875V22H8.25V20.625Z" fill="#A2A2A2"/>
<path d="M9.625 20.625H8.25V22H9.625V20.625Z" fill="#A2A2A2"/>
<path d="M11 20.625H9.625V22H11V20.625Z" fill="#191919"/>
<path d="M12.375 20.625H11V22H12.375V20.625Z" fill="#191919"/>
<path d="M13.75 20.625H12.375V22H13.75V20.625Z" fill="#DDDDDD"/>
<path d="M15.125 20.625H13.75V22H15.125V20.625Z" fill="#191919"/>
<path d="M16.5 20.625H15.125V22H16.5V20.625Z" fill="#A2A2A2"/>
<path d="M17.875 20.625H16.5V22H17.875V20.625Z" fill="#F0EEEE"/>
<path d="M19.25 20.625H17.875V22H19.25V20.625Z" fill="black"/>
<path d="M20.625 20.625H19.25V22H20.625V20.625Z" fill="#191919"/>
<path d="M22 20.625H20.625V22H22V20.625Z" fill="#2C2C2C"/>
<path d="M23.375 20.625H22V22H23.375V20.625Z" fill="#1FF000"/>
<path d="M24.75 20.625H23.375V22H24.75V20.625Z" fill="#43FF1F"/>
<path d="M26.125 20.625H24.75V22H26.125V20.625Z" fill="#2C2C2C"/>
<path d="M27.5 20.625H26.125V22H27.5V20.625Z" fill="#2C2C2C"/>
<path d="M28.875 20.625H27.5V22H28.875V20.625Z" fill="#1FF000"/>
<path d="M30.25 20.625H28.875V22H30.25V20.625Z" fill="#43FF1F"/>
<path d="M31.625 20.625H30.25V22H31.625V20.625Z" fill="#2C2C2C"/>
<path d="M33 20.625H31.625V22H33V20.625Z" fill="#2C2C2C"/>
<path d="M34.375 20.625H33V22H34.375V20.625Z" fill="#43FF1F"/>
<path d="M35.75 20.625H34.375V22H35.75V20.625Z" fill="#1FF000"/>
<path d="M37.125 20.625H35.75V22H37.125V20.625Z" fill="#2C2C2C"/>
<path d="M38.5 20.625H37.125V22H38.5V20.625Z" fill="#191919"/>
<path d="M39.875 20.625H38.5V22H39.875V20.625Z" fill="black"/>
<path d="M8.25 22H6.875V23.375H8.25V22Z" fill="black"/>
<path d="M9.625 22H8.25V23.375H9.625V22Z" fill="black"/>
<path d="M11 22H9.625V23.375H11V22Z" fill="#A2A2A2"/>
<path d="M12.375 22H11V23.375H12.375V22Z" fill="#A2A2A2"/>
<path d="M13.75 22H12.375V23.375H13.75V22Z" fill="#A2A2A2"/>
<path d="M15.125 22H13.75V23.375H15.125V22Z" fill="#A2A2A2"/>
<path d="M16.5 22H15.125V23.375H16.5V22Z" fill="black"/>
<path d="M17.875 22H16.5V23.375H17.875V22Z" fill="black"/>
<path d="M19.25 22H17.875V23.375H19.25V22Z" fill="#191919"/>
<path d="M20.625 22H19.25V23.375H20.625V22Z" fill="#2C2C2C"/>
<path d="M22 22H20.625V23.375H22V22Z" fill="#2C2C2C"/>
<path d="M23.375 22H22V23.375H23.375V22Z" fill="#2C2C2C"/>
<path d="M24.75 22H23.375V23.375H24.75V22Z" fill="#2C2C2C"/>
<path d="M26.125 22H24.75V23.375H26.125V22Z" fill="#2C2C2C"/>
<path d="M27.5 22H26.125V23.375H27.5V22Z" fill="#2C2C2C"/>
<path d="M28.875 22H27.5V23.375H28.875V22Z" fill="#2C2C2C"/>
<path d="M30.25 22H28.875V23.375H30.25V22Z" fill="#2C2C2C"/>
<path d="M31.625 22H30.25V23.375H31.625V22Z" fill="#2C2C2C"/>
<path d="M33 22H31.625V23.375H33V22Z" fill="#2C2C2C"/>
<path d="M34.375 22H33V23.375H34.375V22Z" fill="#2C2C2C"/>
<path d="M35.75 22H34.375V23.375H35.75V22Z" fill="#2C2C2C"/>
<path d="M37.125 22H35.75V23.375H37.125V22Z" fill="#2C2C2C"/>
<path d="M38.5 22H37.125V23.375H38.5V22Z" fill="#191919"/>
<path d="M39.875 22H38.5V23.375H39.875V22Z" fill="black"/>
<path d="M9.625 23.375H8.25V24.75H9.625V23.375Z" fill="black"/>
<path d="M11 23.375H9.625V24.75H11V23.375Z" fill="black"/>
<path d="M12.375 23.375H11V24.75H12.375V23.375Z" fill="black"/>
<path d="M13.75 23.375H12.375V24.75H13.75V23.375Z" fill="black"/>
<path d="M15.125 23.375H13.75V24.75H15.125V23.375Z" fill="black"/>
<path d="M16.5 23.375H15.125V24.75H16.5V23.375Z" fill="#191919"/>
<path d="M17.875 23.375H16.5V24.75H17.875V23.375Z" fill="#191919"/>
<path d="M19.25 23.375H17.875V24.75H19.25V23.375Z" fill="#2C2C2C"/>
<path d="M20.625 23.375H19.25V24.75H20.625V23.375Z" fill="#1FF000"/>
<path d="M22 23.375H20.625V24.75H22V23.375Z" fill="#43FF1F"/>
<path d="M23.375 23.375H22V24.75H23.375V23.375Z" fill="#1FF000"/>
<path d="M24.75 23.375H23.375V24.75H24.75V23.375Z" fill="#43FF1F"/>
<path d="M26.125 23.375H24.75V24.75H26.125V23.375Z" fill="#2C2C2C"/>
<path d="M27.5 23.375H26.125V24.75H27.5V23.375Z" fill="#2C2C2C"/>
<path d="M28.875 23.375H27.5V24.75H28.875V23.375Z" fill="#1FF000"/>
<path d="M30.25 23.375H28.875V24.75H30.25V23.375Z" fill="#43FF1F"/>
<path d="M31.625 23.375H30.25V24.75H31.625V23.375Z" fill="#1FF000"/>
<path d="M33 23.375H31.625V24.75H33V23.375Z" fill="#43FF1F"/>
<path d="M34.375 23.375H33V24.75H34.375V23.375Z" fill="#1FF000"/>
<path d="M35.75 23.375H34.375V24.75H35.75V23.375Z" fill="#43FF1F"/>
<path d="M37.125 23.375H35.75V24.75H37.125V23.375Z" fill="#2C2C2C"/>
<path d="M38.5 23.375H37.125V24.75H38.5V23.375Z" fill="#191919"/>
<path d="M39.875 23.375H38.5V24.75H39.875V23.375Z" fill="black"/>
<path d="M9.625 24.75H8.25V26.125H9.625V24.75Z" fill="black"/>
<path d="M11 24.75H9.625V26.125H11V24.75Z" fill="#191919"/>
<path d="M12.375 24.75H11V26.125H12.375V24.75Z" fill="#191919"/>
<path d="M13.75 24.75H12.375V26.125H13.75V24.75Z" fill="#191919"/>
<path d="M15.125 24.75H13.75V26.125H15.125V24.75Z" fill="#191919"/>
<path d="M16.5 24.75H15.125V26.125H16.5V24.75Z" fill="#2C2C2C"/>
<path d="M17.875 24.75H16.5V26.125H17.875V24.75Z" fill="#2C2C2C"/>
<path d="M19.25 24.75H17.875V26.125H19.25V24.75Z" fill="#2C2C2C"/>
<path d="M20.625 24.75H19.25V26.125H20.625V24.75Z" fill="#2C2C2C"/>
<path d="M22 24.75H20.625V26.125H22V24.75Z" fill="#2C2C2C"/>
<path d="M23.375 24.75H22V26.125H23.375V24.75Z" fill="#2C2C2C"/>
<path d="M24.75 24.75H23.375V26.125H24.75V24.75Z" fill="#2C2C2C"/>
<path d="M26.125 24.75H24.75V26.125H26.125V24.75Z" fill="#2C2C2C"/>
<path d="M27.5 24.75H26.125V26.125H27.5V24.75Z" fill="#2C2C2C"/>
<path d="M28.875 24.75H27.5V26.125H28.875V24.75Z" fill="#2C2C2C"/>
<path d="M30.25 24.75H28.875V26.125H30.25V24.75Z" fill="#2C2C2C"/>
<path d="M31.625 24.75H30.25V26.125H31.625V24.75Z" fill="#2C2C2C"/>
<path d="M33 24.75H31.625V26.125H33V24.75Z" fill="#2C2C2C"/>
<path d="M34.375 24.75H33V26.125H34.375V24.75Z" fill="#2C2C2C"/>
<path d="M35.75 24.75H34.375V26.125H35.75V24.75Z" fill="#2C2C2C"/>
<path d="M37.125 24.75H35.75V26.125H37.125V24.75Z" fill="#2C2C2C"/>
<path d="M38.5 24.75H37.125V26.125H38.5V24.75Z" fill="#191919"/>
<path d="M39.875 24.75H38.5V26.125H39.875V24.75Z" fill="black"/>
<path d="M9.625 26.125H8.25V27.5H9.625V26.125Z" fill="black"/>
<path d="M11 26.125H9.625V27.5H11V26.125Z" fill="#191919"/>
<path d="M12.375 26.125H11V27.5H12.375V26.125Z" fill="#2C2C2C"/>
<path d="M13.75 26.125H12.375V27.5H13.75V26.125Z" fill="#2C2C2C"/>
<path d="M15.125 26.125H13.75V27.5H15.125V26.125Z" fill="#2C2C2C"/>
<path d="M16.5 26.125H15.125V27.5H16.5V26.125Z" fill="#2C2C2C"/>
<path d="M17.875 26.125H16.5V27.5H17.875V26.125Z" fill="#43FF1F"/>
<path d="M19.25 26.125H17.875V27.5H19.25V26.125Z" fill="#1FF000"/>
<path d="M20.625 26.125H19.25V27.5H20.625V26.125Z" fill="#43FF1F"/>
<path d="M22 26.125H20.625V27.5H22V26.125Z" fill="#2C2C2C"/>
<path d="M23.375 26.125H22V27.5H23.375V26.125Z" fill="#2C2C2C"/>
<path d="M24.75 26.125H23.375V27.5H24.75V26.125Z" fill="#1FF000"/>
<path d="M26.125 26.125H24.75V27.5H26.125V26.125Z" fill="#43FF1F"/>
<path d="M27.5 26.125H26.125V27.5H27.5V26.125Z" fill="#1FF000"/>
<path d="M28.875 26.125H27.5V27.5H28.875V26.125Z" fill="#43FF1F"/>
<path d="M30.25 26.125H28.875V27.5H30.25V26.125Z" fill="#2C2C2C"/>
<path d="M31.625 26.125H30.25V27.5H31.625V26.125Z" fill="#2C2C2C"/>
<path d="M33 26.125H31.625V27.5H33V26.125Z" fill="#1FF000"/>
<path d="M34.375 26.125H33V27.5H34.375V26.125Z" fill="#43FF1F"/>
<path d="M35.75 26.125H34.375V27.5H35.75V26.125Z" fill="#1FF000"/>
<path d="M37.125 26.125H35.75V27.5H37.125V26.125Z" fill="#2C2C2C"/>
<path d="M38.5 26.125H37.125V27.5H38.5V26.125Z" fill="#191919"/>
<path d="M39.875 26.125H38.5V27.5H39.875V26.125Z" fill="black"/>
<path d="M9.625 27.5H8.25V28.875H9.625V27.5Z" fill="black"/>
<path d="M11 27.5H9.625V28.875H11V27.5Z" fill="#191919"/>
<path d="M12.375 27.5H11V28.875H12.375V27.5Z" fill="#2C2C2C"/>
<path d="M13.75 27.5H12.375V28.875H13.75V27.5Z" fill="#2C2C2C"/>
<path d="M15.125 27.5H13.75V28.875H15.125V27.5Z" fill="#2C2C2C"/>
<path d="M16.5 27.5H15.125V28.875H16.5V27.5Z" fill="#2C2C2C"/>
<path d="M17.875 27.5H16.5V28.875H17.875V27.5Z" fill="#2C2C2C"/>
<path d="M19.25 27.5H17.875V28.875H19.25V27.5Z" fill="#2C2C2C"/>
<path d="M20.625 27.5H19.25V28.875H20.625V27.5Z" fill="#2C2C2C"/>
<path d="M22 27.5H20.625V28.875H22V27.5Z" fill="#2C2C2C"/>
<path d="M23.375 27.5H22V28.875H23.375V27.5Z" fill="#2C2C2C"/>
<path d="M24.75 27.5H23.375V28.875H24.75V27.5Z" fill="#2C2C2C"/>
<path d="M26.125 27.5H24.75V28.875H26.125V27.5Z" fill="#2C2C2C"/>
<path d="M27.5 27.5H26.125V28.875H27.5V27.5Z" fill="#2C2C2C"/>
<path d="M28.875 27.5H27.5V28.875H28.875V27.5Z" fill="#2C2C2C"/>
<path d="M30.25 27.5H28.875V28.875H30.25V27.5Z" fill="#2C2C2C"/>
<path d="M31.625 27.5H30.25V28.875H31.625V27.5Z" fill="#2C2C2C"/>
<path d="M33 27.5H31.625V28.875H33V27.5Z" fill="#2C2C2C"/>
<path d="M34.375 27.5H33V28.875H34.375V27.5Z" fill="#2C2C2C"/>
<path d="M35.75 27.5H34.375V28.875H35.75V27.5Z" fill="#2C2C2C"/>
<path d="M37.125 27.5H35.75V28.875H37.125V27.5Z" fill="#2C2C2C"/>
<path d="M38.5 27.5H37.125V28.875H38.5V27.5Z" fill="#191919"/>
<path d="M39.875 27.5H38.5V28.875H39.875V27.5Z" fill="black"/>
<path d="M9.625 28.875H8.25V30.25H9.625V28.875Z" fill="black"/>
<path d="M11 28.875H9.625V30.25H11V28.875Z" fill="#191919"/>
<path d="M12.375 28.875H11V30.25H12.375V28.875Z" fill="#2C2C2C"/>
<path d="M13.75 28.875H12.375V30.25H13.75V28.875Z" fill="#43FF1F"/>
<path d="M15.125 28.875H13.75V30.25H15.125V28.875Z" fill="#1FF000"/>
<path d="M16.5 28.875H15.125V30.25H16.5V28.875Z" fill="#2C2C2C"/>
<path d="M17.875 28.875H16.5V30.25H17.875V28.875Z" fill="#2C2C2C"/>
<path d="M19.25 28.875H17.875V30.25H19.25V28.875Z" fill="#1FF000"/>
<path d="M20.625 28.875H19.25V30.25H20.625V28.875Z" fill="#43FF1F"/>
<path d="M22 28.875H20.625V30.25H22V28.875Z" fill="#1FF000"/>
<path d="M23.375 28.875H22V30.25H23.375V28.875Z" fill="#1FF000"/>
<path d="M24.75 28.875H23.375V30.25H24.75V28.875Z" fill="#43FF1F"/>
<path d="M26.125 28.875H24.75V30.25H26.125V28.875Z" fill="#1FF000"/>
<path d="M27.5 28.875H26.125V30.25H27.5V28.875Z" fill="#43FF1F"/>
<path d="M28.875 28.875H27.5V30.25H28.875V28.875Z" fill="#2C2C2C"/>
<path d="M30.25 28.875H28.875V30.25H30.25V28.875Z" fill="#2C2C2C"/>
<path d="M31.625 28.875H30.25V30.25H31.625V28.875Z" fill="#1FF000"/>
<path d="M33 28.875H31.625V30.25H33V28.875Z" fill="#43FF1F"/>
<path d="M34.375 28.875H33V30.25H34.375V28.875Z" fill="#1FF000"/>
<path d="M35.75 28.875H34.375V30.25H35.75V28.875Z" fill="#43FF1F"/>
<path d="M37.125 28.875H35.75V30.25H37.125V28.875Z" fill="#2C2C2C"/>
<path d="M38.5 28.875H37.125V30.25H38.5V28.875Z" fill="#191919"/>
<path d="M39.875 28.875H38.5V30.25H39.875V28.875Z" fill="black"/>
<path d="M9.625 30.25H8.25V31.625H9.625V30.25Z" fill="black"/>
<path d="M11 30.25H9.625V31.625H11V30.25Z" fill="#191919"/>
<path d="M12.375 30.25H11V31.625H12.375V30.25Z" fill="#2C2C2C"/>
<path d="M13.75 30.25H12.375V31.625H13.75V30.25Z" fill="#2C2C2C"/>
<path d="M15.125 30.25H13.75V31.625H15.125V30.25Z" fill="#2C2C2C"/>
<path d="M16.5 30.25H15.125V31.625H16.5V30.25Z" fill="#2C2C2C"/>
<path d="M17.875 30.25H16.5V31.625H17.875V30.25Z" fill="#2C2C2C"/>
<path d="M19.25 30.25H17.875V31.625H19.25V30.25Z" fill="#2C2C2C"/>
<path d="M20.625 30.25H19.25V31.625H20.625V30.25Z" fill="#2C2C2C"/>
<path d="M22 30.25H20.625V31.625H22V30.25Z" fill="#2C2C2C"/>
<path d="M23.375 30.25H22V31.625H23.375V30.25Z" fill="#2C2C2C"/>
<path d="M24.75 30.25H23.375V31.625H24.75V30.25Z" fill="#2C2C2C"/>
<path d="M26.125 30.25H24.75V31.625H26.125V30.25Z" fill="#2C2C2C"/>
<path d="M27.5 30.25H26.125V31.625H27.5V30.25Z" fill="#2C2C2C"/>
<path d="M28.875 30.25H27.5V31.625H28.875V30.25Z" fill="#2C2C2C"/>
<path d="M30.25 30.25H28.875V31.625H30.25V30.25Z" fill="#2C2C2C"/>
<path d="M31.625 30.25H30.25V31.625H31.625V30.25Z" fill="#2C2C2C"/>
<path d="M33 30.25H31.625V31.625H33V30.25Z" fill="#2C2C2C"/>
<path d="M34.375 30.25H33V31.625H34.375V30.25Z" fill="#2C2C2C"/>
<path d="M35.75 30.25H34.375V31.625H35.75V30.25Z" fill="#2C2C2C"/>
<path d="M37.125 30.25H35.75V31.625H37.125V30.25Z" fill="#2C2C2C"/>
<path d="M38.5 30.25H37.125V31.625H38.5V30.25Z" fill="#191919"/>
<path d="M39.875 30.25H38.5V31.625H39.875V30.25Z" fill="black"/>
<path d="M9.625 31.625H8.25V33H9.625V31.625Z" fill="black"/>
<path d="M11 31.625H9.625V33H11V31.625Z" fill="#191919"/>
<path d="M12.375 31.625H11V33H12.375V31.625Z" fill="#2C2C2C"/>
<path d="M13.75 31.625H12.375V33H13.75V31.625Z" fill="#43FF1F"/>
<path d="M15.125 31.625H13.75V33H15.125V31.625Z" fill="#1FF000"/>
<path d="M16.5 31.625H15.125V33H16.5V31.625Z" fill="#43FF1F"/>
<path d="M17.875 31.625H16.5V33H17.875V31.625Z" fill="#1FF000"/>
<path d="M19.25 31.625H17.875V33H19.25V31.625Z" fill="#1FF000"/>
<path d="M20.625 31.625H19.25V33H20.625V31.625Z" fill="#43FF1F"/>
<path d="M22 31.625H20.625V33H22V31.625Z" fill="#2C2C2C"/>
<path d="M23.375 31.625H22V33H23.375V31.625Z" fill="#43FF1F"/>
<path d="M24.75 31.625H23.375V33H24.75V31.625Z" fill="#2C2C2C"/>
<path d="M26.125 31.625H24.75V33H26.125V31.625Z" fill="#1FF000"/>
<path d="M27.5 31.625H26.125V33H27.5V31.625Z" fill="#2C2C2C"/>
<path d="M28.875 31.625H27.5V33H28.875V31.625Z" fill="#43FF1F"/>
<path d="M30.25 31.625H28.875V33H30.25V31.625Z" fill="#2C2C2C"/>
<path d="M31.625 31.625H30.25V33H31.625V31.625Z" fill="#2C2C2C"/>
<path d="M33 31.625H31.625V33H33V31.625Z" fill="#2C2C2C"/>
<path d="M34.375 31.625H33V33H34.375V31.625Z" fill="#2C2C2C"/>
<path d="M35.75 31.625H34.375V33H35.75V31.625Z" fill="#2C2C2C"/>
<path d="M37.125 31.625H35.75V33H37.125V31.625Z" fill="#2C2C2C"/>
<path d="M38.5 31.625H37.125V33H38.5V31.625Z" fill="#191919"/>
<path d="M39.875 31.625H38.5V33H39.875V31.625Z" fill="black"/>
<path d="M9.625 33H8.25V34.375H9.625V33Z" fill="black"/>
<path d="M11 33H9.625V34.375H11V33Z" fill="#191919"/>
<path d="M12.375 33H11V34.375H12.375V33Z" fill="#2C2C2C"/>
<path d="M13.75 33H12.375V34.375H13.75V33Z" fill="#2C2C2C"/>
<path d="M15.125 33H13.75V34.375H15.125V33Z" fill="#2C2C2C"/>
<path d="M16.5 33H15.125V34.375H16.5V33Z" fill="#2C2C2C"/>
<path d="M17.875 33H16.5V34.375H17.875V33Z" fill="#2C2C2C"/>
<path d="M19.25 33H17.875V34.375H19.25V33Z" fill="#2C2C2C"/>
<path d="M20.625 33H19.25V34.375H20.625V33Z" fill="#2C2C2C"/>
<path d="M22 33H20.625V34.375H22V33Z" fill="#2C2C2C"/>
<path d="M23.375 33H22V34.375H23.375V33Z" fill="#2C2C2C"/>
<path d="M24.75 33H23.375V34.375H24.75V33Z" fill="#2C2C2C"/>
<path d="M26.125 33H24.75V34.375H26.125V33Z" fill="#2C2C2C"/>
<path d="M27.5 33H26.125V34.375H27.5V33Z" fill="#2C2C2C"/>
<path d="M28.875 33H27.5V34.375H28.875V33Z" fill="#2C2C2C"/>
<path d="M30.25 33H28.875V34.375H30.25V33Z" fill="#2C2C2C"/>
<path d="M31.625 33H30.25V34.375H31.625V33Z" fill="#2C2C2C"/>
<path d="M33 33H31.625V34.375H33V33Z" fill="#2C2C2C"/>
<path d="M34.375 33H33V34.375H34.375V33Z" fill="#2C2C2C"/>
<path d="M35.75 33H34.375V34.375H35.75V33Z" fill="#2C2C2C"/>
<path d="M37.125 33H35.75V34.375H37.125V33Z" fill="#2C2C2C"/>
<path d="M38.5 33H37.125V34.375H38.5V33Z" fill="#191919"/>
<path d="M39.875 33H38.5V34.375H39.875V33Z" fill="black"/>
<path d="M9.625 34.375H8.25V35.75H9.625V34.375Z" fill="black"/>
<path d="M11 34.375H9.625V35.75H11V34.375Z" fill="#191919"/>
<path d="M12.375 34.375H11V35.75H12.375V34.375Z" fill="#2C2C2C"/>
<path d="M13.75 34.375H12.375V35.75H13.75V34.375Z" fill="#191919"/>
<path d="M15.125 34.375H13.75V35.75H15.125V34.375Z" fill="#2C2C2C"/>
<path d="M16.5 34.375H15.125V35.75H16.5V34.375Z" fill="#191919"/>
<path d="M17.875 34.375H16.5V35.75H17.875V34.375Z" fill="#2C2C2C"/>
<path d="M19.25 34.375H17.875V35.75H19.25V34.375Z" fill="#191919"/>
<path d="M20.625 34.375H19.25V35.75H20.625V34.375Z" fill="#2C2C2C"/>
<path d="M22 34.375H20.625V35.75H22V34.375Z" fill="#191919"/>
<path d="M23.375 34.375H22V35.75H23.375V34.375Z" fill="#2C2C2C"/>
<path d="M24.75 34.375H23.375V35.75H24.75V34.375Z" fill="#191919"/>
<path d="M26.125 34.375H24.75V35.75H26.125V34.375Z" fill="#2C2C2C"/>
<path d="M27.5 34.375H26.125V35.75H27.5V34.375Z" fill="#191919"/>
<path d="M28.875 34.375H27.5V35.75H28.875V34.375Z" fill="#2C2C2C"/>
<path d="M30.25 34.375H28.875V35.75H30.25V34.375Z" fill="#191919"/>
<path d="M31.625 34.375H30.25V35.75H31.625V34.375Z" fill="#2C2C2C"/>
<path d="M33 34.375H31.625V35.75H33V34.375Z" fill="#191919"/>
<path d="M34.375 34.375H33V35.75H34.375V34.375Z" fill="#2C2C2C"/>
<path d="M35.75 34.375H34.375V35.75H35.75V34.375Z" fill="#191919"/>
<path d="M37.125 34.375H35.75V35.75H37.125V34.375Z" fill="#2C2C2C"/>
<path d="M38.5 34.375H37.125V35.75H38.5V34.375Z" fill="#191919"/>
<path d="M39.875 34.375H38.5V35.75H39.875V34.375Z" fill="black"/>
<path d="M11 35.75H9.625V37.125H11V35.75Z" fill="black"/>
<path d="M12.375 35.75H11V37.125H12.375V35.75Z" fill="#191919"/>
<path d="M13.75 35.75H12.375V37.125H13.75V35.75Z" fill="#191919"/>
<path d="M15.125 35.75H13.75V37.125H15.125V35.75Z" fill="#191919"/>
<path d="M16.5 35.75H15.125V37.125H16.5V35.75Z" fill="#191919"/>
<path d="M17.875 35.75H16.5V37.125H17.875V35.75Z" fill="#191919"/>
<path d="M19.25 35.75H17.875V37.125H19.25V35.75Z" fill="#191919"/>
<path d="M20.625 35.75H19.25V37.125H20.625V35.75Z" fill="#191919"/>
<path d="M22 35.75H20.625V37.125H22V35.75Z" fill="#191919"/>
<path d="M23.375 35.75H22V37.125H23.375V35.75Z" fill="#191919"/>
<path d="M24.75 35.75H23.375V37.125H24.75V35.75Z" fill="#191919"/>
<path d="M26.125 35.75H24.75V37.125H26.125V35.75Z" fill="#191919"/>
<path d="M27.5 35.75H26.125V37.125H27.5V35.75Z" fill="#191919"/>
<path d="M28.875 35.75H27.5V37.125H28.875V35.75Z" fill="#191919"/>
<path d="M30.25 35.75H28.875V37.125H30.25V35.75Z" fill="#191919"/>
<path d="M31.625 35.75H30.25V37.125H31.625V35.75Z" fill="#191919"/>
<path d="M33 35.75H31.625V37.125H33V35.75Z" fill="#191919"/>
<path d="M34.375 35.75H33V37.125H34.375V35.75Z" fill="#191919"/>
<path d="M35.75 35.75H34.375V37.125H35.75V35.75Z" fill="#191919"/>
<path d="M37.125 35.75H35.75V37.125H37.125V35.75Z" fill="#191919"/>
<path d="M38.5 35.75H37.125V37.125H38.5V35.75Z" fill="black"/>
<path d="M12.375 37.125H11V38.5H12.375V37.125Z" fill="black"/>
<path d="M13.75 37.125H12.375V38.5H13.75V37.125Z" fill="black"/>
<path d="M15.125 37.125H13.75V38.5H15.125V37.125Z" fill="black"/>
<path d="M16.5 37.125H15.125V38.5H16.5V37.125Z" fill="black"/>
<path d="M17.875 37.125H16.5V38.5H17.875V37.125Z" fill="black"/>
<path d="M19.25 37.125H17.875V38.5H19.25V37.125Z" fill="black"/>
<path d="M20.625 37.125H19.25V38.5H20.625V37.125Z" fill="black"/>
<path d="M22 37.125H20.625V38.5H22V37.125Z" fill="black"/>
<path d="M23.375 37.125H22V38.5H23.375V37.125Z" fill="black"/>
<path d="M24.75 37.125H23.375V38.5H24.75V37.125Z" fill="black"/>
<path d="M26.125 37.125H24.75V38.5H26.125V37.125Z" fill="black"/>
<path d="M27.5 37.125H26.125V38.5H27.5V37.125Z" fill="black"/>
<path d="M28.875 37.125H27.5V38.5H28.875V37.125Z" fill="black"/>
<path d="M30.25 37.125H28.875V38.5H30.25V37.125Z" fill="black"/>
<path d="M31.625 37.125H30.25V38.5H31.625V37.125Z" fill="black"/>
<path d="M33 37.125H31.625V38.5H33V37.125Z" fill="black"/>
<path d="M34.375 37.125H33V38.5H34.375V37.125Z" fill="black"/>
<path d="M35.75 37.125H34.375V38.5H35.75V37.125Z" fill="black"/>
<path d="M37.125 37.125H35.75V38.5H37.125V37.125Z" fill="black"/>
</svg>
