<svg width="46" height="46" viewBox="0 0 46 46" fill="none" xmlns="http://www.w3.org/2000/svg">
<g clip-path="url(#clip0_41_170219)">
<path d="M10.0625 2.875H8.625V4.3125H10.0625V2.875Z" fill="black"/>
<path d="M11.5 2.875H10.0625V4.3125H11.5V2.875Z" fill="black"/>
<path d="M12.9375 2.875H11.5V4.3125H12.9375V2.875Z" fill="black"/>
<path d="M14.375 2.875H12.9375V4.3125H14.375V2.875Z" fill="black"/>
<path d="M15.8125 2.875H14.375V4.3125H15.8125V2.875Z" fill="black"/>
<path d="M17.25 2.875H15.8125V4.3125H17.25V2.875Z" fill="black"/>
<path d="M18.6875 2.875H17.25V4.3125H18.6875V2.875Z" fill="black"/>
<path d="M20.125 2.875H18.6875V4.3125H20.125V2.875Z" fill="black"/>
<path d="M21.5625 2.875H20.125V4.3125H21.5625V2.875Z" fill="black"/>
<path d="M23 2.875H21.5625V4.3125H23V2.875Z" fill="black"/>
<path d="M24.4375 2.875H23V4.3125H24.4375V2.875Z" fill="black"/>
<path d="M25.875 2.875H24.4375V4.3125H25.875V2.875Z" fill="black"/>
<path d="M27.3125 2.875H25.875V4.3125H27.3125V2.875Z" fill="black"/>
<path d="M28.75 2.875H27.3125V4.3125H28.75V2.875Z" fill="black"/>
<path d="M30.1875 2.875H28.75V4.3125H30.1875V2.875Z" fill="black"/>
<path d="M31.625 2.875H30.1875V4.3125H31.625V2.875Z" fill="black"/>
<path d="M33.0625 2.875H31.625V4.3125H33.0625V2.875Z" fill="black"/>
<path d="M34.5 2.875H33.0625V4.3125H34.5V2.875Z" fill="black"/>
<path d="M35.9375 2.875H34.5V4.3125H35.9375V2.875Z" fill="black"/>
<path d="M37.375 2.875H35.9375V4.3125H37.375V2.875Z" fill="black"/>
<path d="M7.1875 4.3125H5.75V5.75H7.1875V4.3125Z" fill="black"/>
<path d="M8.625 4.3125H7.1875V5.75H8.625V4.3125Z" fill="black"/>
<path d="M10.0625 4.3125H8.625V5.75H10.0625V4.3125Z" fill="#FFB6E5"/>
<path d="M11.5 4.3125H10.0625V5.75H11.5V4.3125Z" fill="#FFB6E5"/>
<path d="M12.9375 4.3125H11.5V5.75H12.9375V4.3125Z" fill="#FFB6E5"/>
<path d="M14.375 4.3125H12.9375V5.75H14.375V4.3125Z" fill="#FFB6E5"/>
<path d="M15.8125 4.3125H14.375V5.75H15.8125V4.3125Z" fill="#FFB6E5"/>
<path d="M17.25 4.3125H15.8125V5.75H17.25V4.3125Z" fill="#FFB6E5"/>
<path d="M18.6875 4.3125H17.25V5.75H18.6875V4.3125Z" fill="#FFB6E5"/>
<path d="M20.125 4.3125H18.6875V5.75H20.125V4.3125Z" fill="#FFB6E5"/>
<path d="M21.5625 4.3125H20.125V5.75H21.5625V4.3125Z" fill="#FFB6E5"/>
<path d="M23 4.3125H21.5625V5.75H23V4.3125Z" fill="#FFB6E5"/>
<path d="M24.4375 4.3125H23V5.75H24.4375V4.3125Z" fill="#FFB6E5"/>
<path d="M25.875 4.3125H24.4375V5.75H25.875V4.3125Z" fill="#FFB6E5"/>
<path d="M27.3125 4.3125H25.875V5.75H27.3125V4.3125Z" fill="#FFB6E5"/>
<path d="M28.75 4.3125H27.3125V5.75H28.75V4.3125Z" fill="#FFB6E5"/>
<path d="M30.1875 4.3125H28.75V5.75H30.1875V4.3125Z" fill="#FFB6E5"/>
<path d="M31.625 4.3125H30.1875V5.75H31.625V4.3125Z" fill="#FFB6E5"/>
<path d="M33.0625 4.3125H31.625V5.75H33.0625V4.3125Z" fill="#FFB6E5"/>
<path d="M34.5 4.3125H33.0625V5.75H34.5V4.3125Z" fill="#FFB6E5"/>
<path d="M35.9375 4.3125H34.5V5.75H35.9375V4.3125Z" fill="#FFB6E5"/>
<path d="M37.375 4.3125H35.9375V5.75H37.375V4.3125Z" fill="#FFB6E5"/>
<path d="M38.8125 4.3125H37.375V5.75H38.8125V4.3125Z" fill="black"/>
<path d="M40.25 4.3125H38.8125V5.75H40.25V4.3125Z" fill="black"/>
<path d="M5.75 5.75H4.3125V7.1875H5.75V5.75Z" fill="black"/>
<path d="M7.1875 5.75H5.75V7.1875H7.1875V5.75Z" fill="#FFB6E5"/>
<path d="M8.625 5.75H7.1875V7.1875H8.625V5.75Z" fill="#FFB6E5"/>
<path d="M10.0625 5.75H8.625V7.1875H10.0625V5.75Z" fill="#DD49C2"/>
<path d="M11.5 5.75H10.0625V7.1875H11.5V5.75Z" fill="#DD49C2"/>
<path d="M12.9375 5.75H11.5V7.1875H12.9375V5.75Z" fill="#DD49C2"/>
<path d="M14.375 5.75H12.9375V7.1875H14.375V5.75Z" fill="#DD49C2"/>
<path d="M15.8125 5.75H14.375V7.1875H15.8125V5.75Z" fill="#DD49C2"/>
<path d="M17.25 5.75H15.8125V7.1875H17.25V5.75Z" fill="#DD49C2"/>
<path d="M18.6875 5.75H17.25V7.1875H18.6875V5.75Z" fill="#DD49C2"/>
<path d="M20.125 5.75H18.6875V7.1875H20.125V5.75Z" fill="#DD49C2"/>
<path d="M21.5625 5.75H20.125V7.1875H21.5625V5.75Z" fill="#DD49C2"/>
<path d="M23 5.75H21.5625V7.1875H23V5.75Z" fill="#DD49C2"/>
<path d="M24.4375 5.75H23V7.1875H24.4375V5.75Z" fill="#DD49C2"/>
<path d="M25.875 5.75H24.4375V7.1875H25.875V5.75Z" fill="#DD49C2"/>
<path d="M27.3125 5.75H25.875V7.1875H27.3125V5.75Z" fill="#DD49C2"/>
<path d="M28.75 5.75H27.3125V7.1875H28.75V5.75Z" fill="#DD49C2"/>
<path d="M30.1875 5.75H28.75V7.1875H30.1875V5.75Z" fill="#DD49C2"/>
<path d="M31.625 5.75H30.1875V7.1875H31.625V5.75Z" fill="#DD49C2"/>
<path d="M33.0625 5.75H31.625V7.1875H33.0625V5.75Z" fill="#DD49C2"/>
<path d="M34.5 5.75H33.0625V7.1875H34.5V5.75Z" fill="#DD49C2"/>
<path d="M35.9375 5.75H34.5V7.1875H35.9375V5.75Z" fill="#DD49C2"/>
<path d="M37.375 5.75H35.9375V7.1875H37.375V5.75Z" fill="#DD49C2"/>
<path d="M38.8125 5.75H37.375V7.1875H38.8125V5.75Z" fill="#AE38C2"/>
<path d="M40.25 5.75H38.8125V7.1875H40.25V5.75Z" fill="#AE38C2"/>
<path d="M41.6875 5.75H40.25V7.1875H41.6875V5.75Z" fill="black"/>
<path d="M4.3125 7.1875H2.875V8.625H4.3125V7.1875Z" fill="black"/>
<path d="M5.75 7.1875H4.3125V8.625H5.75V7.1875Z" fill="#FFB6E5"/>
<path d="M7.1875 7.1875H5.75V8.625H7.1875V7.1875Z" fill="#DD49C2"/>
<path d="M8.625 7.1875H7.1875V8.625H8.625V7.1875Z" fill="#DD49C2"/>
<path d="M10.0625 7.1875H8.625V8.625H10.0625V7.1875Z" fill="#DD49C2"/>
<path d="M11.5 7.1875H10.0625V8.625H11.5V7.1875Z" fill="#DD49C2"/>
<path d="M12.9375 7.1875H11.5V8.625H12.9375V7.1875Z" fill="#DD49C2"/>
<path d="M14.375 7.1875H12.9375V8.625H14.375V7.1875Z" fill="#DD49C2"/>
<path d="M15.8125 7.1875H14.375V8.625H15.8125V7.1875Z" fill="#DD49C2"/>
<path d="M17.25 7.1875H15.8125V8.625H17.25V7.1875Z" fill="#DD49C2"/>
<path d="M18.6875 7.1875H17.25V8.625H18.6875V7.1875Z" fill="#DD49C2"/>
<path d="M20.125 7.1875H18.6875V8.625H20.125V7.1875Z" fill="#DD49C2"/>
<path d="M21.5625 7.1875H20.125V8.625H21.5625V7.1875Z" fill="#DD49C2"/>
<path d="M23 7.1875H21.5625V8.625H23V7.1875Z" fill="#DD49C2"/>
<path d="M24.4375 7.1875H23V8.625H24.4375V7.1875Z" fill="#DD49C2"/>
<path d="M25.875 7.1875H24.4375V8.625H25.875V7.1875Z" fill="#DD49C2"/>
<path d="M27.3125 7.1875H25.875V8.625H27.3125V7.1875Z" fill="#DD49C2"/>
<path d="M28.75 7.1875H27.3125V8.625H28.75V7.1875Z" fill="#DD49C2"/>
<path d="M30.1875 7.1875H28.75V8.625H30.1875V7.1875Z" fill="#DD49C2"/>
<path d="M31.625 7.1875H30.1875V8.625H31.625V7.1875Z" fill="#DD49C2"/>
<path d="M33.0625 7.1875H31.625V8.625H33.0625V7.1875Z" fill="#DD49C2"/>
<path d="M34.5 7.1875H33.0625V8.625H34.5V7.1875Z" fill="#DD49C2"/>
<path d="M35.9375 7.1875H34.5V8.625H35.9375V7.1875Z" fill="#DD49C2"/>
<path d="M37.375 7.1875H35.9375V8.625H37.375V7.1875Z" fill="#DD49C2"/>
<path d="M38.8125 7.1875H37.375V8.625H38.8125V7.1875Z" fill="#DD49C2"/>
<path d="M40.25 7.1875H38.8125V8.625H40.25V7.1875Z" fill="#DD49C2"/>
<path d="M41.6875 7.1875H40.25V8.625H41.6875V7.1875Z" fill="#AE38C2"/>
<path d="M43.125 7.1875H41.6875V8.625H43.125V7.1875Z" fill="black"/>
<path d="M4.3125 8.625H2.875V10.0625H4.3125V8.625Z" fill="black"/>
<path d="M5.75 8.625H4.3125V10.0625H5.75V8.625Z" fill="#FFB6E5"/>
<path d="M7.1875 8.625H5.75V10.0625H7.1875V8.625Z" fill="#DD49C2"/>
<path d="M8.625 8.625H7.1875V10.0625H8.625V8.625Z" fill="#FF76CE"/>
<path d="M10.0625 8.625H8.625V10.0625H10.0625V8.625Z" fill="#FF76CE"/>
<path d="M11.5 8.625H10.0625V10.0625H11.5V8.625Z" fill="#DD49C2"/>
<path d="M12.9375 8.625H11.5V10.0625H12.9375V8.625Z" fill="#DD49C2"/>
<path d="M14.375 8.625H12.9375V10.0625H14.375V8.625Z" fill="#FF76CE"/>
<path d="M15.8125 8.625H14.375V10.0625H15.8125V8.625Z" fill="#FF76CE"/>
<path d="M17.25 8.625H15.8125V10.0625H17.25V8.625Z" fill="#FF76CE"/>
<path d="M18.6875 8.625H17.25V10.0625H18.6875V8.625Z" fill="#DD49C2"/>
<path d="M20.125 8.625H18.6875V10.0625H20.125V8.625Z" fill="#DD49C2"/>
<path d="M21.5625 8.625H20.125V10.0625H21.5625V8.625Z" fill="#FF76CE"/>
<path d="M23 8.625H21.5625V10.0625H23V8.625Z" fill="#FF76CE"/>
<path d="M24.4375 8.625H23V10.0625H24.4375V8.625Z" fill="#DD49C2"/>
<path d="M25.875 8.625H24.4375V10.0625H25.875V8.625Z" fill="#DD49C2"/>
<path d="M27.3125 8.625H25.875V10.0625H27.3125V8.625Z" fill="#FF76CE"/>
<path d="M28.75 8.625H27.3125V10.0625H28.75V8.625Z" fill="#DD49C2"/>
<path d="M30.1875 8.625H28.75V10.0625H30.1875V8.625Z" fill="#DD49C2"/>
<path d="M31.625 8.625H30.1875V10.0625H31.625V8.625Z" fill="#FF76CE"/>
<path d="M33.0625 8.625H31.625V10.0625H33.0625V8.625Z" fill="#FF76CE"/>
<path d="M34.5 8.625H33.0625V10.0625H34.5V8.625Z" fill="#FF76CE"/>
<path d="M35.9375 8.625H34.5V10.0625H35.9375V8.625Z" fill="#DD49C2"/>
<path d="M37.375 8.625H35.9375V10.0625H37.375V8.625Z" fill="#DD49C2"/>
<path d="M38.8125 8.625H37.375V10.0625H38.8125V8.625Z" fill="#FF76CE"/>
<path d="M40.25 8.625H38.8125V10.0625H40.25V8.625Z" fill="#DD49C2"/>
<path d="M41.6875 8.625H40.25V10.0625H41.6875V8.625Z" fill="#AE38C2"/>
<path d="M43.125 8.625H41.6875V10.0625H43.125V8.625Z" fill="black"/>
<path d="M2.875 10.0625H1.4375V11.5H2.875V10.0625Z" fill="black"/>
<path d="M4.3125 10.0625H2.875V11.5H4.3125V10.0625Z" fill="#FFB6E5"/>
<path d="M5.75 10.0625H4.3125V11.5H5.75V10.0625Z" fill="#DD49C2"/>
<path d="M7.1875 10.0625H5.75V11.5H7.1875V10.0625Z" fill="#FF76CE"/>
<path d="M8.625 10.0625H7.1875V11.5H8.625V10.0625Z" fill="#DD49C2"/>
<path d="M10.0625 10.0625H8.625V11.5H10.0625V10.0625Z" fill="#DD49C2"/>
<path d="M11.5 10.0625H10.0625V11.5H11.5V10.0625Z" fill="#FF76CE"/>
<path d="M12.9375 10.0625H11.5V11.5H12.9375V10.0625Z" fill="#DD49C2"/>
<path d="M14.375 10.0625H12.9375V11.5H14.375V10.0625Z" fill="#FF76CE"/>
<path d="M15.8125 10.0625H14.375V11.5H15.8125V10.0625Z" fill="#DD49C2"/>
<path d="M17.25 10.0625H15.8125V11.5H17.25V10.0625Z" fill="#FF76CE"/>
<path d="M18.6875 10.0625H17.25V11.5H18.6875V10.0625Z" fill="#DD49C2"/>
<path d="M20.125 10.0625H18.6875V11.5H20.125V10.0625Z" fill="#FF76CE"/>
<path d="M21.5625 10.0625H20.125V11.5H21.5625V10.0625Z" fill="#DD49C2"/>
<path d="M23 10.0625H21.5625V11.5H23V10.0625Z" fill="#FF76CE"/>
<path d="M24.4375 10.0625H23V11.5H24.4375V10.0625Z" fill="#DD49C2"/>
<path d="M25.875 10.0625H24.4375V11.5H25.875V10.0625Z" fill="#FF76CE"/>
<path d="M27.3125 10.0625H25.875V11.5H27.3125V10.0625Z" fill="#DD49C2"/>
<path d="M28.75 10.0625H27.3125V11.5H28.75V10.0625Z" fill="#FF76CE"/>
<path d="M30.1875 10.0625H28.75V11.5H30.1875V10.0625Z" fill="#DD49C2"/>
<path d="M31.625 10.0625H30.1875V11.5H31.625V10.0625Z" fill="#DD49C2"/>
<path d="M33.0625 10.0625H31.625V11.5H33.0625V10.0625Z" fill="#FF76CE"/>
<path d="M34.5 10.0625H33.0625V11.5H34.5V10.0625Z" fill="#DD49C2"/>
<path d="M35.9375 10.0625H34.5V11.5H35.9375V10.0625Z" fill="#DD49C2"/>
<path d="M37.375 10.0625H35.9375V11.5H37.375V10.0625Z" fill="#FF76CE"/>
<path d="M38.8125 10.0625H37.375V11.5H38.8125V10.0625Z" fill="#DD49C2"/>
<path d="M40.25 10.0625H38.8125V11.5H40.25V10.0625Z" fill="#FF76CE"/>
<path d="M41.6875 10.0625H40.25V11.5H41.6875V10.0625Z" fill="#DD49C2"/>
<path d="M43.125 10.0625H41.6875V11.5H43.125V10.0625Z" fill="#AE38C2"/>
<path d="M44.5625 10.0625H43.125V11.5H44.5625V10.0625Z" fill="black"/>
<path d="M2.875 11.5H1.4375V12.9375H2.875V11.5Z" fill="black"/>
<path d="M4.3125 11.5H2.875V12.9375H4.3125V11.5Z" fill="#FFB6E5"/>
<path d="M5.75 11.5H4.3125V12.9375H5.75V11.5Z" fill="#DD49C2"/>
<path d="M7.1875 11.5H5.75V12.9375H7.1875V11.5Z" fill="#FF76CE"/>
<path d="M8.625 11.5H7.1875V12.9375H8.625V11.5Z" fill="#DD49C2"/>
<path d="M10.0625 11.5H8.625V12.9375H10.0625V11.5Z" fill="#DD49C2"/>
<path d="M11.5 11.5H10.0625V12.9375H11.5V11.5Z" fill="#FF76CE"/>
<path d="M12.9375 11.5H11.5V12.9375H12.9375V11.5Z" fill="#DD49C2"/>
<path d="M14.375 11.5H12.9375V12.9375H14.375V11.5Z" fill="#FF76CE"/>
<path d="M15.8125 11.5H14.375V12.9375H15.8125V11.5Z" fill="#DD49C2"/>
<path d="M17.25 11.5H15.8125V12.9375H17.25V11.5Z" fill="#FF76CE"/>
<path d="M18.6875 11.5H17.25V12.9375H18.6875V11.5Z" fill="#DD49C2"/>
<path d="M20.125 11.5H18.6875V12.9375H20.125V11.5Z" fill="#FF76CE"/>
<path d="M21.5625 11.5H20.125V12.9375H21.5625V11.5Z" fill="#DD49C2"/>
<path d="M23 11.5H21.5625V12.9375H23V11.5Z" fill="#FF76CE"/>
<path d="M24.4375 11.5H23V12.9375H24.4375V11.5Z" fill="#DD49C2"/>
<path d="M25.875 11.5H24.4375V12.9375H25.875V11.5Z" fill="#FF76CE"/>
<path d="M27.3125 11.5H25.875V12.9375H27.3125V11.5Z" fill="#DD49C2"/>
<path d="M28.75 11.5H27.3125V12.9375H28.75V11.5Z" fill="#FF76CE"/>
<path d="M30.1875 11.5H28.75V12.9375H30.1875V11.5Z" fill="#DD49C2"/>
<path d="M31.625 11.5H30.1875V12.9375H31.625V11.5Z" fill="#DD49C2"/>
<path d="M33.0625 11.5H31.625V12.9375H33.0625V11.5Z" fill="#FF76CE"/>
<path d="M34.5 11.5H33.0625V12.9375H34.5V11.5Z" fill="#DD49C2"/>
<path d="M35.9375 11.5H34.5V12.9375H35.9375V11.5Z" fill="#DD49C2"/>
<path d="M37.375 11.5H35.9375V12.9375H37.375V11.5Z" fill="#FF76CE"/>
<path d="M38.8125 11.5H37.375V12.9375H38.8125V11.5Z" fill="#DD49C2"/>
<path d="M40.25 11.5H38.8125V12.9375H40.25V11.5Z" fill="#FF76CE"/>
<path d="M41.6875 11.5H40.25V12.9375H41.6875V11.5Z" fill="#DD49C2"/>
<path d="M43.125 11.5H41.6875V12.9375H43.125V11.5Z" fill="#AE38C2"/>
<path d="M44.5625 11.5H43.125V12.9375H44.5625V11.5Z" fill="black"/>
<path d="M2.875 12.9375H1.4375V14.375H2.875V12.9375Z" fill="black"/>
<path d="M4.3125 12.9375H2.875V14.375H4.3125V12.9375Z" fill="#FFB6E5"/>
<path d="M5.75 12.9375H4.3125V14.375H5.75V12.9375Z" fill="#DD49C2"/>
<path d="M7.1875 12.9375H5.75V14.375H7.1875V12.9375Z" fill="#FF76CE"/>
<path d="M8.625 12.9375H7.1875V14.375H8.625V12.9375Z" fill="#DD49C2"/>
<path d="M10.0625 12.9375H8.625V14.375H10.0625V12.9375Z" fill="#DD49C2"/>
<path d="M11.5 12.9375H10.0625V14.375H11.5V12.9375Z" fill="#FF76CE"/>
<path d="M12.9375 12.9375H11.5V14.375H12.9375V12.9375Z" fill="#DD49C2"/>
<path d="M14.375 12.9375H12.9375V14.375H14.375V12.9375Z" fill="#FF76CE"/>
<path d="M15.8125 12.9375H14.375V14.375H15.8125V12.9375Z" fill="#DD49C2"/>
<path d="M17.25 12.9375H15.8125V14.375H17.25V12.9375Z" fill="#FF76CE"/>
<path d="M18.6875 12.9375H17.25V14.375H18.6875V12.9375Z" fill="#DD49C2"/>
<path d="M20.125 12.9375H18.6875V14.375H20.125V12.9375Z" fill="#FF76CE"/>
<path d="M21.5625 12.9375H20.125V14.375H21.5625V12.9375Z" fill="#DD49C2"/>
<path d="M23 12.9375H21.5625V14.375H23V12.9375Z" fill="#FF76CE"/>
<path d="M24.4375 12.9375H23V14.375H24.4375V12.9375Z" fill="#DD49C2"/>
<path d="M25.875 12.9375H24.4375V14.375H25.875V12.9375Z" fill="#FF76CE"/>
<path d="M27.3125 12.9375H25.875V14.375H27.3125V12.9375Z" fill="#DD49C2"/>
<path d="M28.75 12.9375H27.3125V14.375H28.75V12.9375Z" fill="#FF76CE"/>
<path d="M30.1875 12.9375H28.75V14.375H30.1875V12.9375Z" fill="#DD49C2"/>
<path d="M31.625 12.9375H30.1875V14.375H31.625V12.9375Z" fill="#DD49C2"/>
<path d="M33.0625 12.9375H31.625V14.375H33.0625V12.9375Z" fill="#FF76CE"/>
<path d="M34.5 12.9375H33.0625V14.375H34.5V12.9375Z" fill="#DD49C2"/>
<path d="M35.9375 12.9375H34.5V14.375H35.9375V12.9375Z" fill="#DD49C2"/>
<path d="M37.375 12.9375H35.9375V14.375H37.375V12.9375Z" fill="#FF76CE"/>
<path d="M38.8125 12.9375H37.375V14.375H38.8125V12.9375Z" fill="#DD49C2"/>
<path d="M40.25 12.9375H38.8125V14.375H40.25V12.9375Z" fill="#FF76CE"/>
<path d="M41.6875 12.9375H40.25V14.375H41.6875V12.9375Z" fill="#DD49C2"/>
<path d="M43.125 12.9375H41.6875V14.375H43.125V12.9375Z" fill="#AE38C2"/>
<path d="M44.5625 12.9375H43.125V14.375H44.5625V12.9375Z" fill="black"/>
<path d="M2.875 14.375H1.4375V15.8125H2.875V14.375Z" fill="black"/>
<path d="M4.3125 14.375H2.875V15.8125H4.3125V14.375Z" fill="#FFB6E5"/>
<path d="M5.75 14.375H4.3125V15.8125H5.75V14.375Z" fill="#DD49C2"/>
<path d="M7.1875 14.375H5.75V15.8125H7.1875V14.375Z" fill="#FF76CE"/>
<path d="M8.625 14.375H7.1875V15.8125H8.625V14.375Z" fill="#DD49C2"/>
<path d="M10.0625 14.375H8.625V15.8125H10.0625V14.375Z" fill="#DD49C2"/>
<path d="M11.5 14.375H10.0625V15.8125H11.5V14.375Z" fill="#FF76CE"/>
<path d="M12.9375 14.375H11.5V15.8125H12.9375V14.375Z" fill="#DD49C2"/>
<path d="M14.375 14.375H12.9375V15.8125H14.375V14.375Z" fill="#FF76CE"/>
<path d="M15.8125 14.375H14.375V15.8125H15.8125V14.375Z" fill="#DD49C2"/>
<path d="M17.25 14.375H15.8125V15.8125H17.25V14.375Z" fill="#FF76CE"/>
<path d="M18.6875 14.375H17.25V15.8125H18.6875V14.375Z" fill="#DD49C2"/>
<path d="M20.125 14.375H18.6875V15.8125H20.125V14.375Z" fill="#FF76CE"/>
<path d="M21.5625 14.375H20.125V15.8125H21.5625V14.375Z" fill="#DD49C2"/>
<path d="M23 14.375H21.5625V15.8125H23V14.375Z" fill="#FF76CE"/>
<path d="M24.4375 14.375H23V15.8125H24.4375V14.375Z" fill="#DD49C2"/>
<path d="M25.875 14.375H24.4375V15.8125H25.875V14.375Z" fill="#FF76CE"/>
<path d="M27.3125 14.375H25.875V15.8125H27.3125V14.375Z" fill="#FF76CE"/>
<path d="M28.75 14.375H27.3125V15.8125H28.75V14.375Z" fill="#FF76CE"/>
<path d="M30.1875 14.375H28.75V15.8125H30.1875V14.375Z" fill="#DD49C2"/>
<path d="M31.625 14.375H30.1875V15.8125H31.625V14.375Z" fill="#DD49C2"/>
<path d="M33.0625 14.375H31.625V15.8125H33.0625V14.375Z" fill="#FF76CE"/>
<path d="M34.5 14.375H33.0625V15.8125H34.5V14.375Z" fill="#DD49C2"/>
<path d="M35.9375 14.375H34.5V15.8125H35.9375V14.375Z" fill="#DD49C2"/>
<path d="M37.375 14.375H35.9375V15.8125H37.375V14.375Z" fill="#FF76CE"/>
<path d="M38.8125 14.375H37.375V15.8125H38.8125V14.375Z" fill="#FF76CE"/>
<path d="M40.25 14.375H38.8125V15.8125H40.25V14.375Z" fill="#FF76CE"/>
<path d="M41.6875 14.375H40.25V15.8125H41.6875V14.375Z" fill="#DD49C2"/>
<path d="M43.125 14.375H41.6875V15.8125H43.125V14.375Z" fill="#AE38C2"/>
<path d="M44.5625 14.375H43.125V15.8125H44.5625V14.375Z" fill="black"/>
<path d="M2.875 15.8125H1.4375V17.25H2.875V15.8125Z" fill="black"/>
<path d="M4.3125 15.8125H2.875V17.25H4.3125V15.8125Z" fill="#FFB6E5"/>
<path d="M5.75 15.8125H4.3125V17.25H5.75V15.8125Z" fill="#DD49C2"/>
<path d="M7.1875 15.8125H5.75V17.25H7.1875V15.8125Z" fill="#FF76CE"/>
<path d="M8.625 15.8125H7.1875V17.25H8.625V15.8125Z" fill="#DD49C2"/>
<path d="M10.0625 15.8125H8.625V17.25H10.0625V15.8125Z" fill="#DD49C2"/>
<path d="M11.5 15.8125H10.0625V17.25H11.5V15.8125Z" fill="#FF76CE"/>
<path d="M12.9375 15.8125H11.5V17.25H12.9375V15.8125Z" fill="#DD49C2"/>
<path d="M14.375 15.8125H12.9375V17.25H14.375V15.8125Z" fill="#FF76CE"/>
<path d="M15.8125 15.8125H14.375V17.25H15.8125V15.8125Z" fill="#DD49C2"/>
<path d="M17.25 15.8125H15.8125V17.25H17.25V15.8125Z" fill="#FF76CE"/>
<path d="M18.6875 15.8125H17.25V17.25H18.6875V15.8125Z" fill="#DD49C2"/>
<path d="M20.125 15.8125H18.6875V17.25H20.125V15.8125Z" fill="#FF76CE"/>
<path d="M21.5625 15.8125H20.125V17.25H21.5625V15.8125Z" fill="#DD49C2"/>
<path d="M23 15.8125H21.5625V17.25H23V15.8125Z" fill="#FF76CE"/>
<path d="M24.4375 15.8125H23V17.25H24.4375V15.8125Z" fill="#DD49C2"/>
<path d="M25.875 15.8125H24.4375V17.25H25.875V15.8125Z" fill="#FF76CE"/>
<path d="M27.3125 15.8125H25.875V17.25H27.3125V15.8125Z" fill="black"/>
<path d="M28.75 15.8125H27.3125V17.25H28.75V15.8125Z" fill="#FF76CE"/>
<path d="M30.1875 15.8125H28.75V17.25H30.1875V15.8125Z" fill="#DD49C2"/>
<path d="M31.625 15.8125H30.1875V17.25H31.625V15.8125Z" fill="#DD49C2"/>
<path d="M33.0625 15.8125H31.625V17.25H33.0625V15.8125Z" fill="#FF76CE"/>
<path d="M34.5 15.8125H33.0625V17.25H34.5V15.8125Z" fill="#DD49C2"/>
<path d="M35.9375 15.8125H34.5V17.25H35.9375V15.8125Z" fill="#DD49C2"/>
<path d="M37.375 15.8125H35.9375V17.25H37.375V15.8125Z" fill="#FF76CE"/>
<path d="M38.8125 15.8125H37.375V17.25H38.8125V15.8125Z" fill="#DD49C2"/>
<path d="M40.25 15.8125H38.8125V17.25H40.25V15.8125Z" fill="#FF76CE"/>
<path d="M41.6875 15.8125H40.25V17.25H41.6875V15.8125Z" fill="#DD49C2"/>
<path d="M43.125 15.8125H41.6875V17.25H43.125V15.8125Z" fill="#AE38C2"/>
<path d="M44.5625 15.8125H43.125V17.25H44.5625V15.8125Z" fill="black"/>
<path d="M4.3125 17.25H2.875V18.6875H4.3125V17.25Z" fill="black"/>
<path d="M5.75 17.25H4.3125V18.6875H5.75V17.25Z" fill="#FFB6E5"/>
<path d="M7.1875 17.25H5.75V18.6875H7.1875V17.25Z" fill="#DD49C2"/>
<path d="M8.625 17.25H7.1875V18.6875H8.625V17.25Z" fill="#FF76CE"/>
<path d="M10.0625 17.25H8.625V18.6875H10.0625V17.25Z" fill="#FF76CE"/>
<path d="M11.5 17.25H10.0625V18.6875H11.5V17.25Z" fill="#DD49C2"/>
<path d="M12.9375 17.25H11.5V18.6875H12.9375V17.25Z" fill="#DD49C2"/>
<path d="M14.375 17.25H12.9375V18.6875H14.375V17.25Z" fill="#FF76CE"/>
<path d="M15.8125 17.25H14.375V18.6875H15.8125V17.25Z" fill="#DD49C2"/>
<path d="M17.25 17.25H15.8125V18.6875H17.25V17.25Z" fill="#FF76CE"/>
<path d="M18.6875 17.25H17.25V18.6875H18.6875V17.25Z" fill="#DD49C2"/>
<path d="M20.125 17.25H18.6875V18.6875H20.125V17.25Z" fill="#FF76CE"/>
<path d="M21.5625 17.25H20.125V18.6875H21.5625V17.25Z" fill="#DD49C2"/>
<path d="M23 17.25H21.5625V18.6875H23V17.25Z" fill="#FF76CE"/>
<path d="M24.4375 17.25H23V18.6875H24.4375V17.25Z" fill="#DD49C2"/>
<path d="M25.875 17.25H24.4375V18.6875H25.875V17.25Z" fill="black"/>
<path d="M27.3125 17.25H25.875V18.6875H27.3125V17.25Z" fill="white"/>
<path d="M28.75 17.25H27.3125V18.6875H28.75V17.25Z" fill="black"/>
<path d="M30.1875 17.25H28.75V18.6875H30.1875V17.25Z" fill="#DD49C2"/>
<path d="M31.625 17.25H30.1875V18.6875H31.625V17.25Z" fill="#DD49C2"/>
<path d="M33.0625 17.25H31.625V18.6875H33.0625V17.25Z" fill="#FF76CE"/>
<path d="M34.5 17.25H33.0625V18.6875H34.5V17.25Z" fill="#DD49C2"/>
<path d="M35.9375 17.25H34.5V18.6875H35.9375V17.25Z" fill="#DD49C2"/>
<path d="M37.375 17.25H35.9375V18.6875H37.375V17.25Z" fill="#FF76CE"/>
<path d="M38.8125 17.25H37.375V18.6875H38.8125V17.25Z" fill="#DD49C2"/>
<path d="M40.25 17.25H38.8125V18.6875H40.25V17.25Z" fill="#FF76CE"/>
<path d="M41.6875 17.25H40.25V18.6875H41.6875V17.25Z" fill="#AE38C2"/>
<path d="M43.125 17.25H41.6875V18.6875H43.125V17.25Z" fill="black"/>
<path d="M4.3125 18.6875H2.875V20.125H4.3125V18.6875Z" fill="black"/>
<path d="M5.75 18.6875H4.3125V20.125H5.75V18.6875Z" fill="#FFB6E5"/>
<path d="M7.1875 18.6875H5.75V20.125H7.1875V18.6875Z" fill="#DD49C2"/>
<path d="M8.625 18.6875H7.1875V20.125H8.625V18.6875Z" fill="#DD49C2"/>
<path d="M10.0625 18.6875H8.625V20.125H10.0625V18.6875Z" fill="#DD49C2"/>
<path d="M11.5 18.6875H10.0625V20.125H11.5V18.6875Z" fill="#DD49C2"/>
<path d="M12.9375 18.6875H11.5V20.125H12.9375V18.6875Z" fill="#DD49C2"/>
<path d="M14.375 18.6875H12.9375V20.125H14.375V18.6875Z" fill="#DD49C2"/>
<path d="M15.8125 18.6875H14.375V20.125H15.8125V18.6875Z" fill="#DD49C2"/>
<path d="M17.25 18.6875H15.8125V20.125H17.25V18.6875Z" fill="#DD49C2"/>
<path d="M18.6875 18.6875H17.25V20.125H18.6875V18.6875Z" fill="#DD49C2"/>
<path d="M20.125 18.6875H18.6875V20.125H20.125V18.6875Z" fill="#DD49C2"/>
<path d="M21.5625 18.6875H20.125V20.125H21.5625V18.6875Z" fill="#DD49C2"/>
<path d="M23 18.6875H21.5625V20.125H23V18.6875Z" fill="#DD49C2"/>
<path d="M24.4375 18.6875H23V20.125H24.4375V18.6875Z" fill="#DD49C2"/>
<path d="M25.875 18.6875H24.4375V20.125H25.875V18.6875Z" fill="black"/>
<path d="M27.3125 18.6875H25.875V20.125H27.3125V18.6875Z" fill="white"/>
<path d="M28.75 18.6875H27.3125V20.125H28.75V18.6875Z" fill="#A2A2A2"/>
<path d="M30.1875 18.6875H28.75V20.125H30.1875V18.6875Z" fill="black"/>
<path d="M31.625 18.6875H30.1875V20.125H31.625V18.6875Z" fill="#DD49C2"/>
<path d="M33.0625 18.6875H31.625V20.125H33.0625V18.6875Z" fill="#DD49C2"/>
<path d="M34.5 18.6875H33.0625V20.125H34.5V18.6875Z" fill="#DD49C2"/>
<path d="M35.9375 18.6875H34.5V20.125H35.9375V18.6875Z" fill="#DD49C2"/>
<path d="M37.375 18.6875H35.9375V20.125H37.375V18.6875Z" fill="#DD49C2"/>
<path d="M38.8125 18.6875H37.375V20.125H38.8125V18.6875Z" fill="#DD49C2"/>
<path d="M40.25 18.6875H38.8125V20.125H40.25V18.6875Z" fill="#DD49C2"/>
<path d="M41.6875 18.6875H40.25V20.125H41.6875V18.6875Z" fill="#AE38C2"/>
<path d="M43.125 18.6875H41.6875V20.125H43.125V18.6875Z" fill="black"/>
<path d="M5.75 20.125H4.3125V21.5625H5.75V20.125Z" fill="black"/>
<path d="M7.1875 20.125H5.75V21.5625H7.1875V20.125Z" fill="#FFB6E5"/>
<path d="M8.625 20.125H7.1875V21.5625H8.625V20.125Z" fill="#FFB6E5"/>
<path d="M10.0625 20.125H8.625V21.5625H10.0625V20.125Z" fill="#DD49C2"/>
<path d="M11.5 20.125H10.0625V21.5625H11.5V20.125Z" fill="#DD49C2"/>
<path d="M12.9375 20.125H11.5V21.5625H12.9375V20.125Z" fill="#DD49C2"/>
<path d="M14.375 20.125H12.9375V21.5625H14.375V20.125Z" fill="#DD49C2"/>
<path d="M15.8125 20.125H14.375V21.5625H15.8125V20.125Z" fill="#DD49C2"/>
<path d="M17.25 20.125H15.8125V21.5625H17.25V20.125Z" fill="#DD49C2"/>
<path d="M18.6875 20.125H17.25V21.5625H18.6875V20.125Z" fill="#DD49C2"/>
<path d="M20.125 20.125H18.6875V21.5625H20.125V20.125Z" fill="#DD49C2"/>
<path d="M21.5625 20.125H20.125V21.5625H21.5625V20.125Z" fill="#DD49C2"/>
<path d="M23 20.125H21.5625V21.5625H23V20.125Z" fill="#DD49C2"/>
<path d="M24.4375 20.125H23V21.5625H24.4375V20.125Z" fill="#DD49C2"/>
<path d="M25.875 20.125H24.4375V21.5625H25.875V20.125Z" fill="black"/>
<path d="M27.3125 20.125H25.875V21.5625H27.3125V20.125Z" fill="white"/>
<path d="M28.75 20.125H27.3125V21.5625H28.75V20.125Z" fill="#DDDDDD"/>
<path d="M30.1875 20.125H28.75V21.5625H30.1875V20.125Z" fill="#A2A2A2"/>
<path d="M31.625 20.125H30.1875V21.5625H31.625V20.125Z" fill="black"/>
<path d="M33.0625 20.125H31.625V21.5625H33.0625V20.125Z" fill="#DD49C2"/>
<path d="M34.5 20.125H33.0625V21.5625H34.5V20.125Z" fill="#DD49C2"/>
<path d="M35.9375 20.125H34.5V21.5625H35.9375V20.125Z" fill="#DD49C2"/>
<path d="M37.375 20.125H35.9375V21.5625H37.375V20.125Z" fill="#DD49C2"/>
<path d="M38.8125 20.125H37.375V21.5625H38.8125V20.125Z" fill="#AE38C2"/>
<path d="M40.25 20.125H38.8125V21.5625H40.25V20.125Z" fill="#AE38C2"/>
<path d="M41.6875 20.125H40.25V21.5625H41.6875V20.125Z" fill="black"/>
<path d="M7.1875 21.5625H5.75V23H7.1875V21.5625Z" fill="black"/>
<path d="M8.625 21.5625H7.1875V23H8.625V21.5625Z" fill="black"/>
<path d="M10.0625 21.5625H8.625V23H10.0625V21.5625Z" fill="#AE38C2"/>
<path d="M11.5 21.5625H10.0625V23H11.5V21.5625Z" fill="#AE38C2"/>
<path d="M12.9375 21.5625H11.5V23H12.9375V21.5625Z" fill="#AE38C2"/>
<path d="M14.375 21.5625H12.9375V23H14.375V21.5625Z" fill="#AE38C2"/>
<path d="M15.8125 21.5625H14.375V23H15.8125V21.5625Z" fill="#AE38C2"/>
<path d="M17.25 21.5625H15.8125V23H17.25V21.5625Z" fill="#AE38C2"/>
<path d="M18.6875 21.5625H17.25V23H18.6875V21.5625Z" fill="#AE38C2"/>
<path d="M20.125 21.5625H18.6875V23H20.125V21.5625Z" fill="#AE38C2"/>
<path d="M21.5625 21.5625H20.125V23H21.5625V21.5625Z" fill="#AE38C2"/>
<path d="M23 21.5625H21.5625V23H23V21.5625Z" fill="#AE38C2"/>
<path d="M24.4375 21.5625H23V23H24.4375V21.5625Z" fill="#AE38C2"/>
<path d="M25.875 21.5625H24.4375V23H25.875V21.5625Z" fill="black"/>
<path d="M27.3125 21.5625H25.875V23H27.3125V21.5625Z" fill="white"/>
<path d="M28.75 21.5625H27.3125V23H28.75V21.5625Z" fill="#DDDDDD"/>
<path d="M30.1875 21.5625H28.75V23H30.1875V21.5625Z" fill="#DDDDDD"/>
<path d="M31.625 21.5625H30.1875V23H31.625V21.5625Z" fill="#A2A2A2"/>
<path d="M33.0625 21.5625H31.625V23H33.0625V21.5625Z" fill="black"/>
<path d="M34.5 21.5625H33.0625V23H34.5V21.5625Z" fill="#AE38C2"/>
<path d="M35.9375 21.5625H34.5V23H35.9375V21.5625Z" fill="#AE38C2"/>
<path d="M37.375 21.5625H35.9375V23H37.375V21.5625Z" fill="#AE38C2"/>
<path d="M38.8125 21.5625H37.375V23H38.8125V21.5625Z" fill="black"/>
<path d="M40.25 21.5625H38.8125V23H40.25V21.5625Z" fill="black"/>
<path d="M10.0625 23H8.625V24.4375H10.0625V23Z" fill="black"/>
<path d="M11.5 23H10.0625V24.4375H11.5V23Z" fill="black"/>
<path d="M12.9375 23H11.5V24.4375H12.9375V23Z" fill="black"/>
<path d="M14.375 23H12.9375V24.4375H14.375V23Z" fill="black"/>
<path d="M15.8125 23H14.375V24.4375H15.8125V23Z" fill="black"/>
<path d="M17.25 23H15.8125V24.4375H17.25V23Z" fill="black"/>
<path d="M18.6875 23H17.25V24.4375H18.6875V23Z" fill="black"/>
<path d="M20.125 23H18.6875V24.4375H20.125V23Z" fill="black"/>
<path d="M21.5625 23H20.125V24.4375H21.5625V23Z" fill="black"/>
<path d="M23 23H21.5625V24.4375H23V23Z" fill="black"/>
<path d="M24.4375 23H23V24.4375H24.4375V23Z" fill="black"/>
<path d="M25.875 23H24.4375V24.4375H25.875V23Z" fill="black"/>
<path d="M27.3125 23H25.875V24.4375H27.3125V23Z" fill="white"/>
<path d="M28.75 23H27.3125V24.4375H28.75V23Z" fill="#DDDDDD"/>
<path d="M30.1875 23H28.75V24.4375H30.1875V23Z" fill="#DDDDDD"/>
<path d="M31.625 23H30.1875V24.4375H31.625V23Z" fill="#DDDDDD"/>
<path d="M33.0625 23H31.625V24.4375H33.0625V23Z" fill="#A2A2A2"/>
<path d="M34.5 23H33.0625V24.4375H34.5V23Z" fill="black"/>
<path d="M35.9375 23H34.5V24.4375H35.9375V23Z" fill="black"/>
<path d="M37.375 23H35.9375V24.4375H37.375V23Z" fill="black"/>
<path d="M25.875 24.4375H24.4375V25.875H25.875V24.4375Z" fill="black"/>
<path d="M27.3125 24.4375H25.875V25.875H27.3125V24.4375Z" fill="white"/>
<path d="M28.75 24.4375H27.3125V25.875H28.75V24.4375Z" fill="#DDDDDD"/>
<path d="M30.1875 24.4375H28.75V25.875H30.1875V24.4375Z" fill="#DDDDDD"/>
<path d="M31.625 24.4375H30.1875V25.875H31.625V24.4375Z" fill="#DDDDDD"/>
<path d="M33.0625 24.4375H31.625V25.875H33.0625V24.4375Z" fill="#DDDDDD"/>
<path d="M34.5 24.4375H33.0625V25.875H34.5V24.4375Z" fill="#A2A2A2"/>
<path d="M35.9375 24.4375H34.5V25.875H35.9375V24.4375Z" fill="black"/>
<path d="M25.875 25.875H24.4375V27.3125H25.875V25.875Z" fill="black"/>
<path d="M27.3125 25.875H25.875V27.3125H27.3125V25.875Z" fill="white"/>
<path d="M28.75 25.875H27.3125V27.3125H28.75V25.875Z" fill="#DDDDDD"/>
<path d="M30.1875 25.875H28.75V27.3125H30.1875V25.875Z" fill="#DDDDDD"/>
<path d="M31.625 25.875H30.1875V27.3125H31.625V25.875Z" fill="#DDDDDD"/>
<path d="M33.0625 25.875H31.625V27.3125H33.0625V25.875Z" fill="#DDDDDD"/>
<path d="M34.5 25.875H33.0625V27.3125H34.5V25.875Z" fill="#DDDDDD"/>
<path d="M35.9375 25.875H34.5V27.3125H35.9375V25.875Z" fill="#A2A2A2"/>
<path d="M37.375 25.875H35.9375V27.3125H37.375V25.875Z" fill="black"/>
<path d="M25.875 27.3125H24.4375V28.75H25.875V27.3125Z" fill="black"/>
<path d="M27.3125 27.3125H25.875V28.75H27.3125V27.3125Z" fill="white"/>
<path d="M28.75 27.3125H27.3125V28.75H28.75V27.3125Z" fill="#DDDDDD"/>
<path d="M30.1875 27.3125H28.75V28.75H30.1875V27.3125Z" fill="#DDDDDD"/>
<path d="M31.625 27.3125H30.1875V28.75H31.625V27.3125Z" fill="#DDDDDD"/>
<path d="M33.0625 27.3125H31.625V28.75H33.0625V27.3125Z" fill="#DDDDDD"/>
<path d="M34.5 27.3125H33.0625V28.75H34.5V27.3125Z" fill="#DDDDDD"/>
<path d="M35.9375 27.3125H34.5V28.75H35.9375V27.3125Z" fill="#DDDDDD"/>
<path d="M37.375 27.3125H35.9375V28.75H37.375V27.3125Z" fill="#A2A2A2"/>
<path d="M38.8125 27.3125H37.375V28.75H38.8125V27.3125Z" fill="black"/>
<path d="M25.875 28.75H24.4375V30.1875H25.875V28.75Z" fill="black"/>
<path d="M27.3125 28.75H25.875V30.1875H27.3125V28.75Z" fill="white"/>
<path d="M28.75 28.75H27.3125V30.1875H28.75V28.75Z" fill="#DDDDDD"/>
<path d="M30.1875 28.75H28.75V30.1875H30.1875V28.75Z" fill="#DDDDDD"/>
<path d="M31.625 28.75H30.1875V30.1875H31.625V28.75Z" fill="#DDDDDD"/>
<path d="M33.0625 28.75H31.625V30.1875H33.0625V28.75Z" fill="#DDDDDD"/>
<path d="M34.5 28.75H33.0625V30.1875H34.5V28.75Z" fill="#DDDDDD"/>
<path d="M35.9375 28.75H34.5V30.1875H35.9375V28.75Z" fill="#DDDDDD"/>
<path d="M37.375 28.75H35.9375V30.1875H37.375V28.75Z" fill="#DDDDDD"/>
<path d="M38.8125 28.75H37.375V30.1875H38.8125V28.75Z" fill="#A2A2A2"/>
<path d="M40.25 28.75H38.8125V30.1875H40.25V28.75Z" fill="black"/>
<path d="M25.875 30.1875H24.4375V31.625H25.875V30.1875Z" fill="black"/>
<path d="M27.3125 30.1875H25.875V31.625H27.3125V30.1875Z" fill="white"/>
<path d="M28.75 30.1875H27.3125V31.625H28.75V30.1875Z" fill="#DDDDDD"/>
<path d="M30.1875 30.1875H28.75V31.625H30.1875V30.1875Z" fill="#DDDDDD"/>
<path d="M31.625 30.1875H30.1875V31.625H31.625V30.1875Z" fill="#DDDDDD"/>
<path d="M33.0625 30.1875H31.625V31.625H33.0625V30.1875Z" fill="#DDDDDD"/>
<path d="M34.5 30.1875H33.0625V31.625H34.5V30.1875Z" fill="#DDDDDD"/>
<path d="M35.9375 30.1875H34.5V31.625H35.9375V30.1875Z" fill="#A2A2A2"/>
<path d="M37.375 30.1875H35.9375V31.625H37.375V30.1875Z" fill="#A2A2A2"/>
<path d="M38.8125 30.1875H37.375V31.625H38.8125V30.1875Z" fill="#A2A2A2"/>
<path d="M40.25 30.1875H38.8125V31.625H40.25V30.1875Z" fill="#A2A2A2"/>
<path d="M41.6875 30.1875H40.25V31.625H41.6875V30.1875Z" fill="black"/>
<path d="M25.875 31.625H24.4375V33.0625H25.875V31.625Z" fill="black"/>
<path d="M27.3125 31.625H25.875V33.0625H27.3125V31.625Z" fill="white"/>
<path d="M28.75 31.625H27.3125V33.0625H28.75V31.625Z" fill="#DDDDDD"/>
<path d="M30.1875 31.625H28.75V33.0625H30.1875V31.625Z" fill="#DDDDDD"/>
<path d="M31.625 31.625H30.1875V33.0625H31.625V31.625Z" fill="white"/>
<path d="M33.0625 31.625H31.625V33.0625H33.0625V31.625Z" fill="#DDDDDD"/>
<path d="M34.5 31.625H33.0625V33.0625H34.5V31.625Z" fill="#A2A2A2"/>
<path d="M35.9375 31.625H34.5V33.0625H35.9375V31.625Z" fill="black"/>
<path d="M37.375 31.625H35.9375V33.0625H37.375V31.625Z" fill="black"/>
<path d="M38.8125 31.625H37.375V33.0625H38.8125V31.625Z" fill="black"/>
<path d="M40.25 31.625H38.8125V33.0625H40.25V31.625Z" fill="black"/>
<path d="M41.6875 31.625H40.25V33.0625H41.6875V31.625Z" fill="black"/>
<path d="M25.875 33.0625H24.4375V34.5H25.875V33.0625Z" fill="black"/>
<path d="M27.3125 33.0625H25.875V34.5H27.3125V33.0625Z" fill="white"/>
<path d="M28.75 33.0625H27.3125V34.5H28.75V33.0625Z" fill="#DDDDDD"/>
<path d="M30.1875 33.0625H28.75V34.5H30.1875V33.0625Z" fill="#A2A2A2"/>
<path d="M31.625 33.0625H30.1875V34.5H31.625V33.0625Z" fill="black"/>
<path d="M33.0625 33.0625H31.625V34.5H33.0625V33.0625Z" fill="white"/>
<path d="M34.5 33.0625H33.0625V34.5H34.5V33.0625Z" fill="#A2A2A2"/>
<path d="M35.9375 33.0625H34.5V34.5H35.9375V33.0625Z" fill="black"/>
<path d="M25.875 34.5H24.4375V35.9375H25.875V34.5Z" fill="black"/>
<path d="M27.3125 34.5H25.875V35.9375H27.3125V34.5Z" fill="white"/>
<path d="M28.75 34.5H27.3125V35.9375H28.75V34.5Z" fill="#A2A2A2"/>
<path d="M30.1875 34.5H28.75V35.9375H30.1875V34.5Z" fill="black"/>
<path d="M33.0625 34.5H31.625V35.9375H33.0625V34.5Z" fill="black"/>
<path d="M34.5 34.5H33.0625V35.9375H34.5V34.5Z" fill="white"/>
<path d="M35.9375 34.5H34.5V35.9375H35.9375V34.5Z" fill="#A2A2A2"/>
<path d="M37.375 34.5H35.9375V35.9375H37.375V34.5Z" fill="black"/>
<path d="M25.875 35.9375H24.4375V37.375H25.875V35.9375Z" fill="black"/>
<path d="M27.3125 35.9375H25.875V37.375H27.3125V35.9375Z" fill="white"/>
<path d="M28.75 35.9375H27.3125V37.375H28.75V35.9375Z" fill="black"/>
<path d="M33.0625 35.9375H31.625V37.375H33.0625V35.9375Z" fill="black"/>
<path d="M34.5 35.9375H33.0625V37.375H34.5V35.9375Z" fill="white"/>
<path d="M35.9375 35.9375H34.5V37.375H35.9375V35.9375Z" fill="#A2A2A2"/>
<path d="M37.375 35.9375H35.9375V37.375H37.375V35.9375Z" fill="black"/>
<path d="M25.875 37.375H24.4375V38.8125H25.875V37.375Z" fill="black"/>
<path d="M27.3125 37.375H25.875V38.8125H27.3125V37.375Z" fill="black"/>
<path d="M34.5 37.375H33.0625V38.8125H34.5V37.375Z" fill="black"/>
<path d="M35.9375 37.375H34.5V38.8125H35.9375V37.375Z" fill="white"/>
<path d="M37.375 37.375H35.9375V38.8125H37.375V37.375Z" fill="#A2A2A2"/>
<path d="M38.8125 37.375H37.375V38.8125H38.8125V37.375Z" fill="black"/>
<path d="M34.5 38.8125H33.0625V40.25H34.5V38.8125Z" fill="black"/>
<path d="M35.9375 38.8125H34.5V40.25H35.9375V38.8125Z" fill="white"/>
<path d="M37.375 38.8125H35.9375V40.25H37.375V38.8125Z" fill="#A2A2A2"/>
<path d="M38.8125 38.8125H37.375V40.25H38.8125V38.8125Z" fill="black"/>
<path d="M35.9375 40.25H34.5V41.6875H35.9375V40.25Z" fill="black"/>
<path d="M37.375 40.25H35.9375V41.6875H37.375V40.25Z" fill="black"/>
</g>
<defs>
<clipPath id="clip0_41_170219">
<rect width="46" height="46" fill="white"/>
</clipPath>
</defs>
</svg>
