<svg width="382" height="186" viewBox="0 0 382 186" fill="none" xmlns="http://www.w3.org/2000/svg">
<path d="M160.585 0H157.439V3.14629H160.585V0Z" fill="white"/>
<path d="M163.731 0H160.585V3.14629H163.731V0Z" fill="white"/>
<path d="M166.878 0H163.731V3.14629H166.878V0Z" fill="white"/>
<path d="M170.024 0H166.878V3.14629H170.024V0Z" fill="white"/>
<path d="M173.171 0H170.024V3.14629H173.171V0Z" fill="white"/>
<path d="M176.317 0H173.17V3.14629H176.317V0Z" fill="white"/>
<path d="M179.463 0H176.316V3.14629H179.463V0Z" fill="white"/>
<path d="M182.609 0H179.463V3.14629H182.609V0Z" fill="white"/>
<path d="M185.755 0H182.609V3.14629H185.755V0Z" fill="white"/>
<path d="M188.902 0H185.755V3.14629H188.902V0Z" fill="white"/>
<path d="M192.048 0H188.902V3.14629H192.048V0Z" fill="white"/>
<path d="M195.195 0H192.048V3.14629H195.195V0Z" fill="white"/>
<path d="M157.439 3.146H154.292V6.29229H157.439V3.146Z" fill="white"/>
<path d="M160.585 3.146H157.439V6.29229H160.585V3.146Z" fill="black"/>
<path d="M163.731 3.146H160.585V6.29229H163.731V3.146Z" fill="black"/>
<path d="M166.878 3.146H163.731V6.29229H166.878V3.146Z" fill="black"/>
<path d="M170.024 3.146H166.878V6.29229H170.024V3.146Z" fill="black"/>
<path d="M173.171 3.146H170.024V6.29229H173.171V3.146Z" fill="black"/>
<path d="M176.317 3.146H173.17V6.29229H176.317V3.146Z" fill="black"/>
<path d="M179.463 3.146H176.316V6.29229H179.463V3.146Z" fill="black"/>
<path d="M182.609 3.146H179.463V6.29229H182.609V3.146Z" fill="black"/>
<path d="M185.755 3.146H182.609V6.29229H185.755V3.146Z" fill="black"/>
<path d="M188.902 3.146H185.755V6.29229H188.902V3.146Z" fill="black"/>
<path d="M192.048 3.146H188.902V6.29229H192.048V3.146Z" fill="black"/>
<path d="M195.195 3.146H192.048V6.29229H195.195V3.146Z" fill="black"/>
<path d="M198.341 3.146H195.194V6.29229H198.341V3.146Z" fill="white"/>
<path d="M154.293 6.29285H151.146V9.43914H154.293V6.29285Z" fill="white"/>
<path d="M157.439 6.29285H154.292V9.43914H157.439V6.29285Z" fill="black"/>
<path d="M160.585 6.29285H157.439V9.43914H160.585V6.29285Z" fill="#CCCCCC"/>
<path d="M163.731 6.29285H160.585V9.43914H163.731V6.29285Z" fill="#CCCCCC"/>
<path d="M166.878 6.29285H163.731V9.43914H166.878V6.29285Z" fill="white"/>
<path d="M170.024 6.29285H166.878V9.43914H170.024V6.29285Z" fill="white"/>
<path d="M173.171 6.29285H170.024V9.43914H173.171V6.29285Z" fill="#CCCCCC"/>
<path d="M176.317 6.29285H173.17V9.43914H176.317V6.29285Z" fill="white"/>
<path d="M179.463 6.29285H176.316V9.43914H179.463V6.29285Z" fill="white"/>
<path d="M182.609 6.29285H179.463V9.43914H182.609V6.29285Z" fill="white"/>
<path d="M185.755 6.29285H182.609V9.43914H185.755V6.29285Z" fill="white"/>
<path d="M188.902 6.29285H185.755V9.43914H188.902V6.29285Z" fill="#CCCCCC"/>
<path d="M192.048 6.29285H188.902V9.43914H192.048V6.29285Z" fill="#CCCCCC"/>
<path d="M195.195 6.29285H192.048V9.43914H195.195V6.29285Z" fill="white"/>
<path d="M198.341 6.29285H195.194V9.43914H198.341V6.29285Z" fill="black"/>
<path d="M201.487 6.29285H198.341V9.43914H201.487V6.29285Z" fill="white"/>
<path d="M151.146 9.43884H148V12.5851H151.146V9.43884Z" fill="white"/>
<path d="M154.293 9.43884H151.146V12.5851H154.293V9.43884Z" fill="black"/>
<path d="M157.439 9.43884H154.292V12.5851H157.439V9.43884Z" fill="#999999"/>
<path d="M160.585 9.43884H157.439V12.5851H160.585V9.43884Z" fill="#CCCCCC"/>
<path d="M163.731 9.43884H160.585V12.5851H163.731V9.43884Z" fill="#CCCCCC"/>
<path d="M166.878 9.43884H163.731V12.5851H166.878V9.43884Z" fill="#CCCCCC"/>
<path d="M170.024 9.43884H166.878V12.5851H170.024V9.43884Z" fill="#CCCCCC"/>
<path d="M173.171 9.43884H170.024V12.5851H173.171V9.43884Z" fill="#CCCCCC"/>
<path d="M176.317 9.43884H173.17V12.5851H176.317V9.43884Z" fill="#CCCCCC"/>
<path d="M179.463 9.43884H176.316V12.5851H179.463V9.43884Z" fill="#CCCCCC"/>
<path d="M182.609 9.43884H179.463V12.5851H182.609V9.43884Z" fill="#CCCCCC"/>
<path d="M185.755 9.43884H182.609V12.5851H185.755V9.43884Z" fill="#CCCCCC"/>
<path d="M188.902 9.43884H185.755V12.5851H188.902V9.43884Z" fill="#CCCCCC"/>
<path d="M192.048 9.43884H188.902V12.5851H192.048V9.43884Z" fill="#CCCCCC"/>
<path d="M195.195 9.43884H192.048V12.5851H195.195V9.43884Z" fill="#CCCCCC"/>
<path d="M198.341 9.43884H195.194V12.5851H198.341V9.43884Z" fill="#CCCCCC"/>
<path d="M201.487 9.43884H198.341V12.5851H201.487V9.43884Z" fill="black"/>
<path d="M204.633 9.43884H201.487V12.5851H204.633V9.43884Z" fill="white"/>
<path d="M151.146 12.585H148V15.7313H151.146V12.585Z" fill="white"/>
<path d="M154.293 12.585H151.146V15.7313H154.293V12.585Z" fill="black"/>
<path d="M157.439 12.585H154.292V15.7313H157.439V12.585Z" fill="#999999"/>
<path d="M160.585 12.585H157.439V15.7313H160.585V12.585Z" fill="#CCCCCC"/>
<path d="M163.731 12.585H160.585V15.7313H163.731V12.585Z" fill="#CCCCCC"/>
<path d="M166.878 12.585H163.731V15.7313H166.878V12.585Z" fill="#CCCCCC"/>
<path d="M170.024 12.585H166.878V15.7313H170.024V12.585Z" fill="#CCCCCC"/>
<path d="M173.171 12.585H170.024V15.7313H173.171V12.585Z" fill="#CCCCCC"/>
<path d="M176.317 12.585H173.17V15.7313H176.317V12.585Z" fill="#808080"/>
<path d="M179.463 12.585H176.316V15.7313H179.463V12.585Z" fill="#808080"/>
<path d="M182.609 12.585H179.463V15.7313H182.609V12.585Z" fill="#808080"/>
<path d="M185.755 12.585H182.609V15.7313H185.755V12.585Z" fill="#CCCCCC"/>
<path d="M188.902 12.585H185.755V15.7313H188.902V12.585Z" fill="#CCCCCC"/>
<path d="M192.048 12.585H188.902V15.7313H192.048V12.585Z" fill="#CCCCCC"/>
<path d="M195.195 12.585H192.048V15.7313H195.195V12.585Z" fill="#CCCCCC"/>
<path d="M198.341 12.585H195.194V15.7313H198.341V12.585Z" fill="#CCCCCC"/>
<path d="M201.487 12.585H198.341V15.7313H201.487V12.585Z" fill="black"/>
<path d="M204.633 12.585H201.487V15.7313H204.633V12.585Z" fill="white"/>
<path d="M151.146 15.7317H148V18.878H151.146V15.7317Z" fill="white"/>
<path d="M154.293 15.7317H151.146V18.878H154.293V15.7317Z" fill="black"/>
<path d="M157.439 15.7317H154.292V18.878H157.439V15.7317Z" fill="#999999"/>
<path d="M160.585 15.7317H157.439V18.878H160.585V15.7317Z" fill="#CCCCCC"/>
<path d="M163.731 15.7317H160.585V18.878H163.731V15.7317Z" fill="#CCCCCC"/>
<path d="M166.878 15.7317H163.731V18.878H166.878V15.7317Z" fill="#CCCCCC"/>
<path d="M170.024 15.7317H166.878V18.878H170.024V15.7317Z" fill="#CCCCCC"/>
<path d="M173.171 15.7317H170.024V18.878H173.171V15.7317Z" fill="#808080"/>
<path d="M176.317 15.7317H173.17V18.878H176.317V15.7317Z" fill="#CCCCCC"/>
<path d="M179.463 15.7317H176.316V18.878H179.463V15.7317Z" fill="#CCCCCC"/>
<path d="M182.609 15.7317H179.463V18.878H182.609V15.7317Z" fill="#CCCCCC"/>
<path d="M185.755 15.7317H182.609V18.878H185.755V15.7317Z" fill="#808080"/>
<path d="M188.902 15.7317H185.755V18.878H188.902V15.7317Z" fill="#CCCCCC"/>
<path d="M192.048 15.7317H188.902V18.878H192.048V15.7317Z" fill="#CCCCCC"/>
<path d="M195.195 15.7317H192.048V18.878H195.195V15.7317Z" fill="#CCCCCC"/>
<path d="M198.341 15.7317H195.194V18.878H198.341V15.7317Z" fill="#CCCCCC"/>
<path d="M201.487 15.7317H198.341V18.878H201.487V15.7317Z" fill="black"/>
<path d="M204.633 15.7317H201.487V18.878H204.633V15.7317Z" fill="white"/>
<path d="M151.146 18.8778H148V22.0241H151.146V18.8778Z" fill="white"/>
<path d="M154.293 18.8778H151.146V22.0241H154.293V18.8778Z" fill="black"/>
<path d="M157.439 18.8778H154.292V22.0241H157.439V18.8778Z" fill="#999999"/>
<path d="M160.585 18.8778H157.439V22.0241H160.585V18.8778Z" fill="#CCCCCC"/>
<path d="M163.731 18.8778H160.585V22.0241H163.731V18.8778Z" fill="#CCCCCC"/>
<path d="M166.878 18.8778H163.731V22.0241H166.878V18.8778Z" fill="#CCCCCC"/>
<path d="M170.024 18.8778H166.878V22.0241H170.024V18.8778Z" fill="#CCCCCC"/>
<path d="M173.171 18.8778H170.024V22.0241H173.171V18.8778Z" fill="#808080"/>
<path d="M176.317 18.8778H173.17V22.0241H176.317V18.8778Z" fill="#CCCCCC"/>
<path d="M179.463 18.8778H176.316V22.0241H179.463V18.8778Z" fill="#CCCCCC"/>
<path d="M182.609 18.8778H179.463V22.0241H182.609V18.8778Z" fill="#CCCCCC"/>
<path d="M185.755 18.8778H182.609V22.0241H185.755V18.8778Z" fill="#808080"/>
<path d="M188.902 18.8778H185.755V22.0241H188.902V18.8778Z" fill="#CCCCCC"/>
<path d="M192.048 18.8778H188.902V22.0241H192.048V18.8778Z" fill="#CCCCCC"/>
<path d="M195.195 18.8778H192.048V22.0241H195.195V18.8778Z" fill="#CCCCCC"/>
<path d="M198.341 18.8778H195.194V22.0241H198.341V18.8778Z" fill="#CCCCCC"/>
<path d="M201.487 18.8778H198.341V22.0241H201.487V18.8778Z" fill="black"/>
<path d="M204.633 18.8778H201.487V22.0241H204.633V18.8778Z" fill="white"/>
<path d="M151.146 22.0238H148V25.1701H151.146V22.0238Z" fill="white"/>
<path d="M154.293 22.0238H151.146V25.1701H154.293V22.0238Z" fill="black"/>
<path d="M157.439 22.0238H154.292V25.1701H157.439V22.0238Z" fill="#999999"/>
<path d="M160.585 22.0238H157.439V25.1701H160.585V22.0238Z" fill="#CCCCCC"/>
<path d="M163.731 22.0238H160.585V25.1701H163.731V22.0238Z" fill="#CCCCCC"/>
<path d="M166.878 22.0238H163.731V25.1701H166.878V22.0238Z" fill="#CCCCCC"/>
<path d="M170.024 22.0238H166.878V25.1701H170.024V22.0238Z" fill="#CCCCCC"/>
<path d="M173.171 22.0238H170.024V25.1701H173.171V22.0238Z" fill="#808080"/>
<path d="M176.317 22.0238H173.17V25.1701H176.317V22.0238Z" fill="#CCCCCC"/>
<path d="M179.463 22.0238H176.316V25.1701H179.463V22.0238Z" fill="#CCCCCC"/>
<path d="M182.609 22.0238H179.463V25.1701H182.609V22.0238Z" fill="#CCCCCC"/>
<path d="M185.755 22.0238H182.609V25.1701H185.755V22.0238Z" fill="#808080"/>
<path d="M188.902 22.0238H185.755V25.1701H188.902V22.0238Z" fill="#CCCCCC"/>
<path d="M192.048 22.0238H188.902V25.1701H192.048V22.0238Z" fill="#CCCCCC"/>
<path d="M195.195 22.0238H192.048V25.1701H195.195V22.0238Z" fill="#CCCCCC"/>
<path d="M198.341 22.0238H195.194V25.1701H198.341V22.0238Z" fill="#CCCCCC"/>
<path d="M201.487 22.0238H198.341V25.1701H201.487V22.0238Z" fill="black"/>
<path d="M204.633 22.0238H201.487V25.1701H204.633V22.0238Z" fill="white"/>
<path d="M151.146 25.1707H148V28.3169H151.146V25.1707Z" fill="white"/>
<path d="M154.293 25.1707H151.146V28.3169H154.293V25.1707Z" fill="black"/>
<path d="M157.439 25.1707H154.292V28.3169H157.439V25.1707Z" fill="#999999"/>
<path d="M160.585 25.1707H157.439V28.3169H160.585V25.1707Z" fill="#CCCCCC"/>
<path d="M163.731 25.1707H160.585V28.3169H163.731V25.1707Z" fill="#CCCCCC"/>
<path d="M166.878 25.1707H163.731V28.3169H166.878V25.1707Z" fill="#CCCCCC"/>
<path d="M170.024 25.1707H166.878V28.3169H170.024V25.1707Z" fill="#CCCCCC"/>
<path d="M173.171 25.1707H170.024V28.3169H173.171V25.1707Z" fill="#808080"/>
<path d="M176.317 25.1707H173.17V28.3169H176.317V25.1707Z" fill="#CCCCCC"/>
<path d="M179.463 25.1707H176.316V28.3169H179.463V25.1707Z" fill="#CCCCCC"/>
<path d="M182.609 25.1707H179.463V28.3169H182.609V25.1707Z" fill="#CCCCCC"/>
<path d="M185.755 25.1707H182.609V28.3169H185.755V25.1707Z" fill="#808080"/>
<path d="M188.902 25.1707H185.755V28.3169H188.902V25.1707Z" fill="#CCCCCC"/>
<path d="M192.048 25.1707H188.902V28.3169H192.048V25.1707Z" fill="#CCCCCC"/>
<path d="M195.195 25.1707H192.048V28.3169H195.195V25.1707Z" fill="#CCCCCC"/>
<path d="M198.341 25.1707H195.194V28.3169H198.341V25.1707Z" fill="#CCCCCC"/>
<path d="M201.487 25.1707H198.341V28.3169H201.487V25.1707Z" fill="black"/>
<path d="M204.633 25.1707H201.487V28.3169H204.633V25.1707Z" fill="white"/>
<path d="M151.146 28.3167H148V31.4629H151.146V28.3167Z" fill="white"/>
<path d="M154.293 28.3167H151.146V31.4629H154.293V28.3167Z" fill="black"/>
<path d="M157.439 28.3167H154.292V31.4629H157.439V28.3167Z" fill="#999999"/>
<path d="M160.585 28.3167H157.439V31.4629H160.585V28.3167Z" fill="#CCCCCC"/>
<path d="M163.731 28.3167H160.585V31.4629H163.731V28.3167Z" fill="#CCCCCC"/>
<path d="M166.878 28.3167H163.731V31.4629H166.878V28.3167Z" fill="#CCCCCC"/>
<path d="M170.024 28.3167H166.878V31.4629H170.024V28.3167Z" fill="#CCCCCC"/>
<path d="M173.171 28.3167H170.024V31.4629H173.171V28.3167Z" fill="#808080"/>
<path d="M176.317 28.3167H173.17V31.4629H176.317V28.3167Z" fill="#CCCCCC"/>
<path d="M179.463 28.3167H176.316V31.4629H179.463V28.3167Z" fill="#CCCCCC"/>
<path d="M182.609 28.3167H179.463V31.4629H182.609V28.3167Z" fill="#CCCCCC"/>
<path d="M185.755 28.3167H182.609V31.4629H185.755V28.3167Z" fill="#808080"/>
<path d="M188.902 28.3167H185.755V31.4629H188.902V28.3167Z" fill="#CCCCCC"/>
<path d="M192.048 28.3167H188.902V31.4629H192.048V28.3167Z" fill="#CCCCCC"/>
<path d="M195.195 28.3167H192.048V31.4629H195.195V28.3167Z" fill="#CCCCCC"/>
<path d="M198.341 28.3167H195.194V31.4629H198.341V28.3167Z" fill="#CCCCCC"/>
<path d="M201.487 28.3167H198.341V31.4629H201.487V28.3167Z" fill="black"/>
<path d="M204.633 28.3167H201.487V31.4629H204.633V28.3167Z" fill="white"/>
<path d="M151.146 31.4626H148V34.6089H151.146V31.4626Z" fill="white"/>
<path d="M154.293 31.4626H151.146V34.6089H154.293V31.4626Z" fill="black"/>
<path d="M157.439 31.4626H154.292V34.6089H157.439V31.4626Z" fill="#999999"/>
<path d="M160.585 31.4626H157.439V34.6089H160.585V31.4626Z" fill="#CCCCCC"/>
<path d="M163.731 31.4626H160.585V34.6089H163.731V31.4626Z" fill="#CCCCCC"/>
<path d="M166.878 31.4626H163.731V34.6089H166.878V31.4626Z" fill="#CCCCCC"/>
<path d="M170.024 31.4626H166.878V34.6089H170.024V31.4626Z" fill="#CCCCCC"/>
<path d="M173.171 31.4626H170.024V34.6089H173.171V31.4626Z" fill="#CCCCCC"/>
<path d="M176.317 31.4626H173.17V34.6089H176.317V31.4626Z" fill="#808080"/>
<path d="M179.463 31.4626H176.316V34.6089H179.463V31.4626Z" fill="#808080"/>
<path d="M182.609 31.4626H179.463V34.6089H182.609V31.4626Z" fill="#808080"/>
<path d="M185.755 31.4626H182.609V34.6089H185.755V31.4626Z" fill="#CCCCCC"/>
<path d="M188.902 31.4626H185.755V34.6089H188.902V31.4626Z" fill="#CCCCCC"/>
<path d="M192.048 31.4626H188.902V34.6089H192.048V31.4626Z" fill="#CCCCCC"/>
<path d="M195.195 31.4626H192.048V34.6089H195.195V31.4626Z" fill="#CCCCCC"/>
<path d="M198.341 31.4626H195.194V34.6089H198.341V31.4626Z" fill="#CCCCCC"/>
<path d="M201.487 31.4626H198.341V34.6089H201.487V31.4626Z" fill="black"/>
<path d="M204.633 31.4626H201.487V34.6089H204.633V31.4626Z" fill="white"/>
<path d="M151.146 34.6095H148V37.7558H151.146V34.6095Z" fill="white"/>
<path d="M154.293 34.6095H151.146V37.7558H154.293V34.6095Z" fill="black"/>
<path d="M157.439 34.6095H154.292V37.7558H157.439V34.6095Z" fill="#999999"/>
<path d="M160.585 34.6095H157.439V37.7558H160.585V34.6095Z" fill="#CCCCCC"/>
<path d="M163.731 34.6095H160.585V37.7558H163.731V34.6095Z" fill="#CCCCCC"/>
<path d="M166.878 34.6095H163.731V37.7558H166.878V34.6095Z" fill="#CCCCCC"/>
<path d="M170.024 34.6095H166.878V37.7558H170.024V34.6095Z" fill="#CCCCCC"/>
<path d="M173.171 34.6095H170.024V37.7558H173.171V34.6095Z" fill="#CCCCCC"/>
<path d="M176.317 34.6095H173.17V37.7558H176.317V34.6095Z" fill="#CCCCCC"/>
<path d="M179.463 34.6095H176.316V37.7558H179.463V34.6095Z" fill="#CCCCCC"/>
<path d="M182.609 34.6095H179.463V37.7558H182.609V34.6095Z" fill="#CCCCCC"/>
<path d="M185.755 34.6095H182.609V37.7558H185.755V34.6095Z" fill="#808080"/>
<path d="M188.902 34.6095H185.755V37.7558H188.902V34.6095Z" fill="#808080"/>
<path d="M192.048 34.6095H188.902V37.7558H192.048V34.6095Z" fill="#CCCCCC"/>
<path d="M195.195 34.6095H192.048V37.7558H195.195V34.6095Z" fill="#CCCCCC"/>
<path d="M198.341 34.6095H195.194V37.7558H198.341V34.6095Z" fill="#CCCCCC"/>
<path d="M201.487 34.6095H198.341V37.7558H201.487V34.6095Z" fill="black"/>
<path d="M204.633 34.6095H201.487V37.7558H204.633V34.6095Z" fill="white"/>
<path d="M151.146 37.7555H148V40.9018H151.146V37.7555Z" fill="white"/>
<path d="M154.293 37.7555H151.146V40.9018H154.293V37.7555Z" fill="black"/>
<path d="M157.439 37.7555H154.292V40.9018H157.439V37.7555Z" fill="#999999"/>
<path d="M160.585 37.7555H157.439V40.9018H160.585V37.7555Z" fill="#E6E6E6"/>
<path d="M163.731 37.7555H160.585V40.9018H163.731V37.7555Z" fill="#CCCCCC"/>
<path d="M166.878 37.7555H163.731V40.9018H166.878V37.7555Z" fill="#CCCCCC"/>
<path d="M170.024 37.7555H166.878V40.9018H170.024V37.7555Z" fill="#CCCCCC"/>
<path d="M173.171 37.7555H170.024V40.9018H173.171V37.7555Z" fill="#CCCCCC"/>
<path d="M176.317 37.7555H173.17V40.9018H176.317V37.7555Z" fill="#CCCCCC"/>
<path d="M179.463 37.7555H176.316V40.9018H179.463V37.7555Z" fill="#CCCCCC"/>
<path d="M182.609 37.7555H179.463V40.9018H182.609V37.7555Z" fill="#CCCCCC"/>
<path d="M185.755 37.7555H182.609V40.9018H185.755V37.7555Z" fill="#CCCCCC"/>
<path d="M188.902 37.7555H185.755V40.9018H188.902V37.7555Z" fill="#CCCCCC"/>
<path d="M192.048 37.7555H188.902V40.9018H192.048V37.7555Z" fill="#CCCCCC"/>
<path d="M195.195 37.7555H192.048V40.9018H195.195V37.7555Z" fill="#CCCCCC"/>
<path d="M198.341 37.7555H195.194V40.9018H198.341V37.7555Z" fill="#E6E6E6"/>
<path d="M201.487 37.7555H198.341V40.9018H201.487V37.7555Z" fill="black"/>
<path d="M204.633 37.7555H201.487V40.9018H204.633V37.7555Z" fill="white"/>
<path d="M151.146 40.9015H148V44.0478H151.146V40.9015Z" fill="white"/>
<path d="M154.293 40.9015H151.146V44.0478H154.293V40.9015Z" fill="black"/>
<path d="M157.439 40.9015H154.292V44.0478H157.439V40.9015Z" fill="#999999"/>
<path d="M160.585 40.9015H157.439V44.0478H160.585V40.9015Z" fill="#808080"/>
<path d="M163.731 40.9015H160.585V44.0478H163.731V40.9015Z" fill="#E6E6E6"/>
<path d="M166.878 40.9015H163.731V44.0478H166.878V40.9015Z" fill="#E6E6E6"/>
<path d="M170.024 40.9015H166.878V44.0478H170.024V40.9015Z" fill="#E6E6E6"/>
<path d="M173.171 40.9015H170.024V44.0478H173.171V40.9015Z" fill="#E6E6E6"/>
<path d="M176.317 40.9015H173.17V44.0478H176.317V40.9015Z" fill="#E6E6E6"/>
<path d="M179.463 40.9015H176.316V44.0478H179.463V40.9015Z" fill="#E6E6E6"/>
<path d="M182.609 40.9015H179.463V44.0478H182.609V40.9015Z" fill="#E6E6E6"/>
<path d="M185.755 40.9015H182.609V44.0478H185.755V40.9015Z" fill="#E6E6E6"/>
<path d="M188.902 40.9015H185.755V44.0478H188.902V40.9015Z" fill="#E6E6E6"/>
<path d="M192.048 40.9015H188.902V44.0478H192.048V40.9015Z" fill="#E6E6E6"/>
<path d="M195.195 40.9015H192.048V44.0478H195.195V40.9015Z" fill="#E6E6E6"/>
<path d="M198.341 40.9015H195.194V44.0478H198.341V40.9015Z" fill="#808080"/>
<path d="M201.487 40.9015H198.341V44.0478H201.487V40.9015Z" fill="black"/>
<path d="M204.633 40.9015H201.487V44.0478H204.633V40.9015Z" fill="white"/>
<path d="M151.146 44.0483H148V47.1946H151.146V44.0483Z" fill="white"/>
<path d="M154.293 44.0483H151.146V47.1946H154.293V44.0483Z" fill="black"/>
<path d="M157.439 44.0483H154.292V47.1946H157.439V44.0483Z" fill="#999999"/>
<path d="M160.585 44.0483H157.439V47.1946H160.585V44.0483Z" fill="#999999"/>
<path d="M163.731 44.0483H160.585V47.1946H163.731V44.0483Z" fill="#808080"/>
<path d="M166.878 44.0483H163.731V47.1946H166.878V44.0483Z" fill="#808080"/>
<path d="M170.024 44.0483H166.878V47.1946H170.024V44.0483Z" fill="#808080"/>
<path d="M173.171 44.0483H170.024V47.1946H173.171V44.0483Z" fill="#808080"/>
<path d="M176.317 44.0483H173.17V47.1946H176.317V44.0483Z" fill="#808080"/>
<path d="M179.463 44.0483H176.316V47.1946H179.463V44.0483Z" fill="#808080"/>
<path d="M182.609 44.0483H179.463V47.1946H182.609V44.0483Z" fill="#808080"/>
<path d="M185.755 44.0483H182.609V47.1946H185.755V44.0483Z" fill="#808080"/>
<path d="M188.902 44.0483H185.755V47.1946H188.902V44.0483Z" fill="#808080"/>
<path d="M192.048 44.0483H188.902V47.1946H192.048V44.0483Z" fill="#808080"/>
<path d="M195.195 44.0483H192.048V47.1946H195.195V44.0483Z" fill="#808080"/>
<path d="M198.341 44.0483H195.194V47.1946H198.341V44.0483Z" fill="#999999"/>
<path d="M201.487 44.0483H198.341V47.1946H201.487V44.0483Z" fill="black"/>
<path d="M204.633 44.0483H201.487V47.1946H204.633V44.0483Z" fill="white"/>
<path d="M151.146 47.1945H148V50.3408H151.146V47.1945Z" fill="white"/>
<path d="M154.293 47.1945H151.146V50.3408H154.293V47.1945Z" fill="white"/>
<path d="M157.439 47.1945H154.292V50.3408H157.439V47.1945Z" fill="black"/>
<path d="M160.585 47.1945H157.439V50.3408H160.585V47.1945Z" fill="#999999"/>
<path d="M163.731 47.1945H160.585V50.3408H163.731V47.1945Z" fill="#999999"/>
<path d="M166.878 47.1945H163.731V50.3408H166.878V47.1945Z" fill="#999999"/>
<path d="M170.024 47.1945H166.878V50.3408H170.024V47.1945Z" fill="#999999"/>
<path d="M173.171 47.1945H170.024V50.3408H173.171V47.1945Z" fill="#999999"/>
<path d="M176.317 47.1945H173.17V50.3408H176.317V47.1945Z" fill="#999999"/>
<path d="M179.463 47.1945H176.316V50.3408H179.463V47.1945Z" fill="#999999"/>
<path d="M182.609 47.1945H179.463V50.3408H182.609V47.1945Z" fill="#999999"/>
<path d="M185.755 47.1945H182.609V50.3408H185.755V47.1945Z" fill="#999999"/>
<path d="M188.902 47.1945H185.755V50.3408H188.902V47.1945Z" fill="#999999"/>
<path d="M192.048 47.1945H188.902V50.3408H192.048V47.1945Z" fill="#999999"/>
<path d="M195.195 47.1945H192.048V50.3408H195.195V47.1945Z" fill="#999999"/>
<path d="M198.341 47.1945H195.194V50.3408H198.341V47.1945Z" fill="black"/>
<path d="M201.487 47.1945H198.341V50.3408H201.487V47.1945Z" fill="white"/>
<path d="M204.633 47.1945H201.487V50.3408H204.633V47.1945Z" fill="white"/>
<path d="M154.293 50.3403H151.146V53.4866H154.293V50.3403Z" fill="white"/>
<path d="M157.439 50.3403H154.292V53.4866H157.439V50.3403Z" fill="white"/>
<path d="M160.585 50.3403H157.439V53.4866H160.585V50.3403Z" fill="black"/>
<path d="M163.731 50.3403H160.585V53.4866H163.731V50.3403Z" fill="black"/>
<path d="M166.878 50.3403H163.731V53.4866H166.878V50.3403Z" fill="black"/>
<path d="M170.024 50.3403H166.878V53.4866H170.024V50.3403Z" fill="black"/>
<path d="M173.171 50.3403H170.024V53.4866H173.171V50.3403Z" fill="black"/>
<path d="M176.317 50.3403H173.17V53.4866H176.317V50.3403Z" fill="black"/>
<path d="M179.463 50.3403H176.316V53.4866H179.463V50.3403Z" fill="black"/>
<path d="M182.609 50.3403H179.463V53.4866H182.609V50.3403Z" fill="black"/>
<path d="M185.755 50.3403H182.609V53.4866H185.755V50.3403Z" fill="black"/>
<path d="M188.902 50.3403H185.755V53.4866H188.902V50.3403Z" fill="black"/>
<path d="M192.048 50.3403H188.902V53.4866H192.048V50.3403Z" fill="black"/>
<path d="M195.195 50.3403H192.048V53.4866H195.195V50.3403Z" fill="black"/>
<path d="M198.341 50.3403H195.194V53.4866H198.341V50.3403Z" fill="white"/>
<path d="M201.487 50.3403H198.341V53.4866H201.487V50.3403Z" fill="white"/>
<path d="M157.439 53.4873H154.292V56.6336H157.439V53.4873Z" fill="white"/>
<path d="M160.585 53.4873H157.439V56.6336H160.585V53.4873Z" fill="white"/>
<path d="M163.731 53.4873H160.585V56.6336H163.731V53.4873Z" fill="white"/>
<path d="M166.878 53.4873H163.731V56.6336H166.878V53.4873Z" fill="white"/>
<path d="M170.024 53.4873H166.878V56.6336H170.024V53.4873Z" fill="white"/>
<path d="M173.171 53.4873H170.024V56.6336H173.171V53.4873Z" fill="white"/>
<path d="M176.317 53.4873H173.17V56.6336H176.317V53.4873Z" fill="white"/>
<path d="M179.463 53.4873H176.316V56.6336H179.463V53.4873Z" fill="white"/>
<path d="M182.609 53.4873H179.463V56.6336H182.609V53.4873Z" fill="white"/>
<path d="M185.755 53.4873H182.609V56.6336H185.755V53.4873Z" fill="white"/>
<path d="M188.902 53.4873H185.755V56.6336H188.902V53.4873Z" fill="white"/>
<path d="M192.048 53.4873H188.902V56.6336H192.048V53.4873Z" fill="white"/>
<path d="M195.195 53.4873H192.048V56.6336H195.195V53.4873Z" fill="white"/>
<path d="M198.341 53.4873H195.194V56.6336H198.341V53.4873Z" fill="white"/>
<rect width="4.31334" height="8.62668" transform="matrix(0.188421 0.982088 0.982088 -0.188421 360.129 51.3251)" fill="white"/>
<rect width="4.31334" height="4.31334" transform="matrix(0.188421 0.982088 0.982088 -0.188421 359.316 47.0884)" fill="white"/>
<rect width="4.31334" height="4.31334" transform="matrix(0.188421 0.982088 0.982088 -0.188421 355.08 47.901)" fill="white"/>
<rect width="4.31334" height="4.31334" transform="matrix(0.188421 0.982088 0.982088 -0.188421 354.268 43.6652)" fill="white"/>
<rect width="4.31334" height="4.31334" transform="matrix(0.188421 0.982088 0.982088 -0.188421 355.893 52.1378)" fill="black"/>
<rect width="346.935" height="4.31334" transform="matrix(0.982088 -0.188421 -0.188421 -0.982088 14.3594 113.271)" fill="white"/>
<rect width="346.935" height="4.31334" transform="matrix(0.982088 -0.188421 -0.188421 -0.982088 15.9849 121.743)" fill="white"/>
<rect width="346.935" height="4.31334" transform="matrix(0.982088 -0.188421 -0.188421 -0.982088 15.1724 117.507)" fill="black"/>
<rect width="4.31334" height="8.62668" transform="matrix(0.982088 -0.188421 -0.188421 -0.982088 10.936 118.32)" fill="white"/>
<rect width="4.31334" height="4.31334" transform="matrix(0.982088 -0.188421 -0.188421 -0.982088 6.69873 119.133)" fill="white"/>
<rect width="4.31334" height="4.31334" transform="matrix(0.982088 -0.188421 -0.188421 -0.982088 7.51123 123.368)" fill="white"/>
<rect width="4.31334" height="4.31334" transform="matrix(0.982088 -0.188421 -0.188421 -0.982088 3.27393 124.181)" fill="white"/>
<rect width="4.31334" height="4.31334" transform="matrix(0.982088 -0.188421 -0.188421 -0.982088 11.7485 122.555)" fill="black"/>
<rect width="36.6266" height="4.31334" transform="matrix(0.188421 0.982088 0.982088 -0.188421 365.178 54.7485)" fill="white"/>
<rect width="36.6266" height="4.31334" transform="matrix(0.188421 0.982088 0.982088 -0.188421 356.708 56.3734)" fill="white"/>
<rect width="36.6266" height="4.31334" transform="matrix(0.188421 0.982088 0.982088 -0.188421 360.94 55.5614)" fill="black"/>
<rect width="346.94" height="36.6267" transform="translate(15.9824 121.744) rotate(-10.8606)" fill="white"/>
<path d="M47.0107 133.665L43.1609 134.403L43.8995 138.253L47.7493 137.514L48.4879 141.364L44.6381 142.103L45.3768 145.953L41.527 146.691L40.7884 142.841L36.9386 143.58L37.6772 147.43L33.8274 148.168L33.0888 144.319L29.239 145.057L28.5004 141.207L32.3502 140.469L31.6116 136.619L27.7618 137.358L27.0232 133.508L30.873 132.769L30.1343 128.919L33.9841 128.181L34.7227 132.031L38.5725 131.292L37.8339 127.442L41.6837 126.704L42.4223 130.553L46.2721 129.815L47.0107 133.665ZM40.0498 138.992L39.3111 135.142L35.4614 135.88L36.2 139.73L40.0498 138.992ZM60.9283 123.011L64.6214 142.26L53.072 144.476L50.1176 129.077L53.9674 128.338L56.1832 139.888L60.033 139.149L57.8172 127.6L53.9674 128.338L53.2288 124.489L60.9283 123.011ZM81.6427 127.02L83.1199 134.72L79.2701 135.458L78.5315 131.609L70.8319 133.086L71.5705 136.936L79.2701 135.458L80.0087 139.308L68.4594 141.524L64.7663 122.275L76.3157 120.059L77.0543 123.909L69.3547 125.386L70.0933 129.236L81.6427 127.02ZM90.0862 129.392L86.2364 130.13L84.0206 118.581L87.8704 117.842L90.0862 129.392ZM91.7202 117.104L95.57 116.365L97.7858 127.914L93.936 128.653L91.7202 117.104ZM90.0862 129.392L93.936 128.653L95.4132 136.353L91.5635 137.091L90.0862 129.392ZM107.108 114.152L110.957 113.413L114.65 132.662L110.801 133.4L109.323 125.701L101.624 127.178L99.4079 115.629L103.258 114.89L104.735 122.59L108.585 121.851L107.108 114.152ZM119.384 115.788L120.122 119.638L123.972 118.899L124.711 122.749L120.861 123.487L121.6 127.337L129.299 125.86L130.038 129.71L118.488 131.926L114.795 112.677L126.345 110.461L127.083 114.311L119.384 115.788ZM137.882 108.247L141.732 107.509L145.425 126.758L141.575 127.496L140.098 119.797L136.248 120.535L137.725 128.235L133.876 128.973L130.183 109.724L134.032 108.986L135.51 116.685L139.359 115.947L137.882 108.247ZM150.897 113.733L154.747 112.995L155.485 116.844L151.636 117.583L153.113 125.283L149.263 126.021L145.57 106.772L149.42 106.034L150.897 113.733ZM157.119 104.556L160.969 103.818L164.662 123.067L160.812 123.805L158.597 112.256L154.747 112.995L154.008 109.145L157.858 108.406L157.119 104.556ZM169.413 106.189L170.151 110.039L174.001 109.3L174.74 113.15L170.89 113.889L171.628 117.739L179.328 116.261L180.067 120.111L168.517 122.327L164.824 103.078L176.374 100.862L177.112 104.712L169.413 106.189ZM193.246 105.608L197.095 104.87L197.834 108.719L193.984 109.458L195.461 117.158L191.612 117.896L187.919 98.6473L191.768 97.9087L193.246 105.608ZM199.468 96.4315L203.318 95.6929L207.011 114.942L203.161 115.68L200.945 104.131L197.095 104.87L196.357 101.02L200.207 100.281L199.468 96.4315ZM226.429 91.2587L228.645 102.808L220.946 104.285L222.423 111.985L218.573 112.723L214.88 93.4746L226.429 91.2587ZM224.057 99.6969L223.318 95.8471L219.468 96.5857L220.207 100.436L224.057 99.6969ZM245.667 87.568L249.36 106.817L245.51 107.555L244.402 101.781L236.702 103.258L237.81 109.033L233.96 109.771L231.006 94.3722L234.856 93.6336L235.964 99.4082L243.663 97.931L242.555 92.1563L234.856 93.6336L234.117 89.7838L245.667 87.568ZM261.071 84.6125L262.548 92.3121L258.698 93.0507L257.96 89.2009L250.26 90.6781L249.522 86.8283L261.071 84.6125ZM250.999 94.5279L258.698 93.0507L259.437 96.9005L251.738 98.3777L250.999 94.5279ZM260.176 100.75L259.437 96.9005L263.287 96.1618L264.764 103.861L253.215 106.077L252.476 102.227L260.176 100.75ZM277.936 89.3599L278.674 93.2097L270.975 94.6869L271.713 98.5367L279.413 97.0595L280.151 100.909L268.602 103.125L264.909 83.8761L276.458 81.6603L277.197 85.5101L269.497 86.9873L270.236 90.8371L277.936 89.3599ZM281.785 88.6213L277.936 89.3599L277.197 85.5101L281.047 84.7715L281.785 88.6213ZM283.263 96.3208L279.413 97.0595L278.674 93.2097L282.524 92.4711L283.263 96.3208ZM289.49 87.143L293.34 86.4044L294.079 90.2542L290.229 90.9928L291.706 98.6924L287.856 99.431L284.163 80.1821L288.013 79.4434L289.49 87.143ZM295.713 77.9662L299.562 77.2276L303.256 96.4765L299.406 97.2152L297.19 85.6658L293.34 86.4044L292.601 82.5546L296.451 81.816L295.713 77.9662ZM314.967 74.2721L315.706 78.1219L311.856 78.8605L314.81 94.2597L310.96 94.9983L308.006 79.5992L304.156 80.3378L303.418 76.488L314.967 74.2721ZM324.132 80.4968L327.982 79.7582L328.72 83.6079L324.871 84.3466L326.348 92.0461L322.498 92.7847L318.805 73.5358L322.655 72.7972L324.132 80.4968ZM330.354 71.32L334.204 70.5814L337.897 89.8303L334.047 90.5689L331.832 79.0195L327.982 79.7582L327.243 75.9084L331.093 75.1698L330.354 71.32ZM342.648 72.9529L343.386 76.8027L347.236 76.0641L347.975 79.9139L344.125 80.6525L344.863 84.5023L352.563 83.025L353.302 86.8748L341.752 89.0907L338.059 69.8417L349.609 67.6259L350.347 71.4757L342.648 72.9529Z" fill="black"/>
<rect width="36.6266" height="4.31334" transform="matrix(0.188421 0.982088 0.982088 -0.188421 11.7466 122.557)" fill="white"/>
<rect width="36.6266" height="4.31334" transform="matrix(0.188421 0.982088 0.982088 -0.188421 3.2749 124.182)" fill="white"/>
<rect width="36.6266" height="4.31334" transform="matrix(0.188421 0.982088 0.982088 -0.188421 7.51074 123.37)" fill="black"/>
<rect x="27.9321" y="161.139" width="4.31334" height="17.2534" transform="rotate(-10.8606 27.9321 161.139)" fill="black"/>
<rect x="32.1694" y="160.326" width="4.31334" height="8.62668" transform="rotate(79.1394 32.1694 160.326)" fill="black"/>
<rect x="22.8818" y="157.715" width="4.31334" height="4.31334" transform="rotate(79.1394 22.8818 157.715)" fill="black"/>
<rect x="18.6475" y="158.528" width="4.31334" height="4.31334" transform="rotate(79.1394 18.6475 158.528)" fill="white"/>
<rect x="14.4116" y="159.34" width="4.31334" height="4.31334" transform="rotate(79.1394 14.4116 159.34)" fill="white"/>
<rect x="23.6948" y="161.952" width="4.31334" height="4.31334" transform="rotate(79.1394 23.6948 161.952)" fill="white"/>
<rect x="28.7451" y="165.375" width="4.31334" height="4.31334" transform="rotate(79.1394 28.7451 165.375)" fill="white"/>
<rect x="29.5576" y="169.611" width="4.31334" height="4.31334" transform="rotate(79.1394 29.5576 169.611)" fill="white"/>
<rect x="30.3701" y="173.847" width="4.31334" height="4.31334" transform="rotate(79.1394 30.3701 173.847)" fill="white"/>
<rect x="31.1831" y="178.083" width="4.31334" height="4.31334" transform="rotate(79.1394 31.1831 178.083)" fill="white"/>
<rect x="35.4204" y="177.27" width="4.31334" height="4.31334" transform="rotate(79.1394 35.4204 177.27)" fill="white"/>
<rect x="39.6577" y="176.457" width="4.31334" height="4.31334" transform="rotate(79.1394 39.6577 176.457)" fill="white"/>
<rect x="38.8452" y="172.221" width="4.31334" height="4.31334" transform="rotate(79.1394 38.8452 172.221)" fill="white"/>
<rect x="43.0811" y="171.408" width="4.31334" height="4.31334" transform="rotate(79.1394 43.0811 171.408)" fill="white"/>
<rect x="42.2681" y="167.172" width="4.31334" height="4.31334" transform="rotate(79.1394 42.2681 167.172)" fill="white"/>
<rect x="46.501" y="166.36" width="4.31334" height="4.31334" transform="rotate(79.1394 46.501 166.36)" fill="white"/>
<rect x="45.688" y="162.125" width="4.31334" height="4.31334" transform="rotate(79.1394 45.688 162.125)" fill="white"/>
<rect x="37.2197" y="163.749" width="4.31334" height="4.31334" transform="rotate(79.1394 37.2197 163.749)" fill="white"/>
<rect x="36.4067" y="159.513" width="4.31334" height="4.31334" transform="rotate(79.1394 36.4067 159.513)" fill="white"/>
<rect x="40.6426" y="158.7" width="4.31334" height="4.31334" transform="rotate(79.1394 40.6426 158.7)" fill="white"/>
<rect x="44.8755" y="157.888" width="4.31334" height="4.31334" transform="rotate(79.1394 44.8755 157.888)" fill="black"/>
<rect x="27.1191" y="156.902" width="4.31334" height="4.31334" transform="rotate(79.1394 27.1191 156.902)" fill="white"/>
<rect x="31.3569" y="156.089" width="4.31334" height="4.31334" transform="rotate(79.1394 31.3569 156.089)" fill="white"/>
<rect x="35.5942" y="155.276" width="4.31334" height="4.31334" transform="rotate(79.1394 35.5942 155.276)" fill="white"/>
<rect x="39.8301" y="154.464" width="4.31334" height="4.31334" transform="rotate(79.1394 39.8301 154.464)" fill="white"/>
<rect x="44.0625" y="153.651" width="4.31334" height="4.31334" transform="rotate(79.1394 44.0625 153.651)" fill="white"/>
<rect x="24.5078" y="166.188" width="4.31334" height="4.31334" transform="rotate(79.1394 24.5078 166.188)" fill="white"/>
<rect x="19.4604" y="162.764" width="4.31334" height="4.31334" transform="rotate(79.1394 19.4604 162.764)" fill="white"/>
<rect x="38.0322" y="167.985" width="4.31334" height="4.31334" transform="rotate(79.1394 38.0322 167.985)" fill="black"/>
<rect x="41.4556" y="162.937" width="4.31334" height="4.31334" transform="rotate(79.1394 41.4556 162.937)" fill="black"/>
<rect x="365.233" y="100.817" width="4.31334" height="325.372" transform="rotate(79.1394 365.233 100.817)" fill="white"/>
<rect x="363.607" y="92.3445" width="4.31334" height="325.372" transform="rotate(79.1394 363.607 92.3445)" fill="white"/>
<rect x="364.42" y="96.5803" width="4.31334" height="325.372" transform="rotate(79.1394 364.42 96.5803)" fill="black"/>
<rect x="368.656" y="95.7679" width="4.31334" height="8.62668" transform="rotate(-100.861 368.656 95.7679)" fill="white"/>
<rect x="369.469" y="100.005" width="4.31334" height="4.31334" transform="rotate(-100.861 369.469 100.005)" fill="white"/>
<rect x="365.233" y="100.818" width="4.31334" height="4.31334" transform="rotate(-100.861 365.233 100.818)" fill="white"/>
<rect x="366.045" y="105.054" width="4.31334" height="4.31334" transform="rotate(-100.861 366.045 105.054)" fill="white"/>
<rect x="364.42" y="96.5807" width="4.31334" height="4.31334" transform="rotate(-100.861 364.42 96.5807)" fill="black"/>
</svg>
