<svg width="455" height="165" viewBox="0 0 455 165" fill="none" xmlns="http://www.w3.org/2000/svg">
<path d="M79.0357 107H76.5776V109.462H79.0357V107Z" fill="white"/>
<path d="M76.5806 109.463H74.1226V111.926H76.5806V109.463Z" fill="white"/>
<path d="M79.0357 109.463H76.5776V111.926H79.0357V109.463Z" fill="black"/>
<path d="M81.4971 109.463H79.0391V111.926H81.4971V109.463Z" fill="white"/>
<path d="M74.125 111.924H71.667V114.386H74.125V111.924Z" fill="white"/>
<path d="M76.5806 111.924H74.1226V114.386H76.5806V111.924Z" fill="black"/>
<path d="M79.0357 111.924H76.5776V114.386H79.0357V111.924Z" fill="#CC4400"/>
<path d="M81.4971 111.924H79.0391V114.386H81.4971V111.924Z" fill="black"/>
<path d="M83.9527 111.924H81.4946V114.386H83.9527V111.924Z" fill="white"/>
<path d="M71.6636 114.387H69.2056V116.849H71.6636V114.387Z" fill="white"/>
<path d="M74.125 114.387H71.667V116.849H74.125V114.387Z" fill="black"/>
<path d="M76.5806 114.387H74.1226V116.849H76.5806V114.387Z" fill="#CC4400"/>
<path d="M79.0357 114.387H76.5776V116.849H79.0357V114.387Z" fill="#CC4400"/>
<path d="M81.4971 114.387H79.0391V116.849H81.4971V114.387Z" fill="black"/>
<path d="M83.9527 114.387H81.4946V116.849H83.9527V114.387Z" fill="white"/>
<path d="M69.2085 116.848H66.7505V119.31H69.2085V116.848Z" fill="white"/>
<path d="M71.6636 116.848H69.2056V119.31H71.6636V116.848Z" fill="black"/>
<path d="M74.125 116.848H71.667V119.31H74.125V116.848Z" fill="#CC4400"/>
<path d="M76.5806 116.848H74.1226V119.31H76.5806V116.848Z" fill="#FF8000"/>
<path d="M79.0357 116.848H76.5776V119.31H79.0357V116.848Z" fill="#CC4400"/>
<path d="M81.4971 116.848H79.0391V119.31H81.4971V116.848Z" fill="black"/>
<path d="M83.9527 116.848H81.4946V119.31H83.9527V116.848Z" fill="white"/>
<path d="M66.7466 119.311H64.2886V121.773H66.7466V119.311Z" fill="white"/>
<path d="M69.2085 119.311H66.7505V121.773H69.2085V119.311Z" fill="black"/>
<path d="M71.6636 119.311H69.2056V121.773H71.6636V119.311Z" fill="#CC4400"/>
<path d="M74.125 119.311H71.667V121.773H74.125V119.311Z" fill="#CC4400"/>
<path d="M76.5806 119.311H74.1226V121.773H76.5806V119.311Z" fill="#CC4400"/>
<path d="M79.0357 119.311H76.5776V121.773H79.0357V119.311Z" fill="black"/>
<path d="M81.4971 119.311H79.0391V121.773H81.4971V119.311Z" fill="white"/>
<path d="M66.7466 121.774H64.2886V124.236H66.7466V121.774Z" fill="white"/>
<path d="M69.2085 121.774H66.7505V124.236H69.2085V121.774Z" fill="black"/>
<path d="M71.6636 121.774H69.2056V124.236H71.6636V121.774Z" fill="#CC4400"/>
<path d="M74.125 121.774H71.667V124.236H74.125V121.774Z" fill="#FF8000"/>
<path d="M76.5806 121.774H74.1226V124.236H76.5806V121.774Z" fill="#CC4400"/>
<path d="M79.0357 121.774H76.5776V124.236H79.0357V121.774Z" fill="black"/>
<path d="M81.4971 121.774H79.0391V124.236H81.4971V121.774Z" fill="white"/>
<path d="M64.2915 124.238H61.8335V126.7H64.2915V124.238Z" fill="white"/>
<path d="M66.7466 124.238H64.2886V126.7H66.7466V124.238Z" fill="black"/>
<path d="M69.2085 124.238H66.7505V126.7H69.2085V124.238Z" fill="#CC4400"/>
<path d="M71.6636 124.238H69.2056V126.7H71.6636V124.238Z" fill="#CC4400"/>
<path d="M74.125 124.238H71.667V126.7H74.125V124.238Z" fill="#FF8000"/>
<path d="M76.5806 124.238H74.1226V126.7H76.5806V124.238Z" fill="#CC4400"/>
<path d="M79.0357 124.238H76.5776V126.7H79.0357V124.238Z" fill="#CC4400"/>
<path d="M81.4971 124.238H79.0391V126.7H81.4971V124.238Z" fill="black"/>
<path d="M83.9527 124.238H81.4946V126.7H83.9527V124.238Z" fill="white"/>
<path d="M64.2915 126.698H61.8335V129.16H64.2915V126.698Z" fill="white"/>
<path d="M66.7466 126.698H64.2886V129.16H66.7466V126.698Z" fill="black"/>
<path d="M69.2085 126.698H66.7505V129.16H69.2085V126.698Z" fill="#E65C17"/>
<path d="M71.6636 126.698H69.2056V129.16H71.6636V126.698Z" fill="#CC4400"/>
<path d="M74.125 126.698H71.667V129.16H74.125V126.698Z" fill="#E65C17"/>
<path d="M76.5806 126.698H74.1226V129.16H76.5806V126.698Z" fill="#CC4400"/>
<path d="M79.0357 126.698H76.5776V129.16H79.0357V126.698Z" fill="#E65C17"/>
<path d="M81.4971 126.698H79.0391V129.16H81.4971V126.698Z" fill="black"/>
<path d="M83.9527 126.698H81.4946V129.16H83.9527V126.698Z" fill="white"/>
<path d="M56.9136 129.161H54.4556V131.624H56.9136V129.161Z" fill="white"/>
<path d="M61.8301 129.161H59.3721V131.624H61.8301V129.161Z" fill="white"/>
<path d="M64.2915 129.161H61.8335V131.624H64.2915V129.161Z" fill="black"/>
<path d="M66.7466 129.161H64.2886V131.624H66.7466V129.161Z" fill="#CC4400"/>
<path d="M69.2085 129.161H66.7505V131.624H69.2085V129.161Z" fill="#E65C17"/>
<path d="M71.6636 129.161H69.2056V131.624H71.6636V129.161Z" fill="#E65C17"/>
<path d="M74.125 129.161H71.667V131.624H74.125V129.161Z" fill="#FF8000"/>
<path d="M76.5806 129.161H74.1226V131.623H76.5806V129.161Z" fill="#E65C17"/>
<path d="M79.0357 129.161H76.5776V131.624H79.0357V129.161Z" fill="#CC4400"/>
<path d="M81.4971 129.161H79.0391V131.624H81.4971V129.161Z" fill="#CC4400"/>
<path d="M83.9527 129.161H81.4946V131.624H83.9527V129.161Z" fill="black"/>
<path d="M86.4141 129.161H83.9561V131.624H86.4141V129.161Z" fill="white"/>
<path d="M88.8692 129.161H86.4111V131.624H88.8692V129.161Z" fill="white"/>
<path d="M54.458 131.625H52V134.087H54.458V131.625Z" fill="white"/>
<path d="M56.9136 131.625H54.4556V134.087H56.9136V131.625Z" fill="black"/>
<path d="M59.3745 131.625H56.9165V134.087H59.3745V131.625Z" fill="white"/>
<path d="M61.8301 131.625H59.3721V134.087H61.8301V131.625Z" fill="white"/>
<path d="M64.2915 131.625H61.8335V134.087H64.2915V131.625Z" fill="black"/>
<path d="M66.7466 131.625H64.2886V134.087H66.7466V131.625Z" fill="#E65C17"/>
<path d="M69.2085 131.625H66.7505V134.087H69.2085V131.625Z" fill="#CC4400"/>
<path d="M71.6636 131.625H69.2056V134.087H71.6636V131.625Z" fill="#E65C17"/>
<path d="M74.125 131.625H71.667V134.087H74.125V131.625Z" fill="#FFBB33"/>
<path d="M76.5806 131.625H74.1226V134.087H76.5806V131.625Z" fill="#FF8000"/>
<path d="M79.0357 131.625H76.5776V134.087H79.0357V131.625Z" fill="#E65C17"/>
<path d="M81.4971 131.625H79.0391V134.087H81.4971V131.625Z" fill="#CC4400"/>
<path d="M83.9527 131.625H81.4946V134.087H83.9527V131.625Z" fill="black"/>
<path d="M86.4141 131.625H83.9561V134.087H86.4141V131.625Z" fill="white"/>
<path d="M88.8692 131.625H86.4111V134.087H88.8692V131.625Z" fill="black"/>
<path d="M91.3306 131.625H88.8726V134.087H91.3306V131.625Z" fill="white"/>
<path d="M54.458 134.085H52V136.547H54.458V134.085Z" fill="white"/>
<path d="M56.9136 134.085H54.4556V136.547H56.9136V134.085Z" fill="black"/>
<path d="M59.3745 134.085H56.9165V136.547H59.3745V134.085Z" fill="black"/>
<path d="M61.8301 134.085H59.3721V136.547H61.8301V134.085Z" fill="white"/>
<path d="M64.2915 134.085H61.8335V136.547H64.2915V134.085Z" fill="black"/>
<path d="M66.7466 134.085H64.2886V136.547H66.7466V134.085Z" fill="#FF8000"/>
<path d="M69.2085 134.085H66.7505V136.547H69.2085V134.085Z" fill="#E65C17"/>
<path d="M71.6636 134.085H69.2056V136.547H71.6636V134.085Z" fill="#E65C17"/>
<path d="M74.125 134.085H71.667V136.547H74.125V134.085Z" fill="#E65C17"/>
<path d="M76.5806 134.085H74.1226V136.547H76.5806V134.085Z" fill="#FFBB33"/>
<path d="M79.0357 134.085H76.5776V136.547H79.0357V134.085Z" fill="#CC4400"/>
<path d="M81.4971 134.085H79.0391V136.547H81.4971V134.085Z" fill="#E65C17"/>
<path d="M83.9527 134.085H81.4946V136.547H83.9527V134.085Z" fill="black"/>
<path d="M86.4141 134.085H83.9561V136.547H86.4141V134.085Z" fill="white"/>
<path d="M88.8692 134.085H86.4111V136.547H88.8692V134.085Z" fill="black"/>
<path d="M91.3306 134.085H88.8726V136.547H91.3306V134.085Z" fill="white"/>
<path d="M54.458 136.548H52V139.011H54.458V136.548Z" fill="white"/>
<path d="M56.9136 136.548H54.4556V139.011H56.9136V136.548Z" fill="black"/>
<path d="M59.3745 136.548H56.9165V139.011H59.3745V136.548Z" fill="#CC4400"/>
<path d="M61.8301 136.548H59.3721V139.011H61.8301V136.548Z" fill="black"/>
<path d="M64.2915 136.548H61.8335V139.011H64.2915V136.548Z" fill="#CC4400"/>
<path d="M66.7466 136.548H64.2886V139.011H66.7466V136.548Z" fill="#E65C17"/>
<path d="M69.2085 136.548H66.7505V139.011H69.2085V136.548Z" fill="#E65C17"/>
<path d="M71.6636 136.548H69.2056V139.011H71.6636V136.548Z" fill="#E65C17"/>
<path d="M74.125 136.548H71.667V139.011H74.125V136.548Z" fill="#E65C17"/>
<path d="M76.5806 136.548H74.1226V139.011H76.5806V136.548Z" fill="#E65C17"/>
<path d="M79.0357 136.548H76.5776V139.011H79.0357V136.548Z" fill="#E65C17"/>
<path d="M81.4971 136.548H79.0391V139.011H81.4971V136.548Z" fill="#E65C17"/>
<path d="M83.9527 136.548H81.4946V139.011H83.9527V136.548Z" fill="#CC4400"/>
<path d="M86.4141 136.548H83.9561V139.011H86.4141V136.548Z" fill="black"/>
<path d="M88.8692 136.548H86.4111V139.011H88.8692V136.548Z" fill="#CC4400"/>
<path d="M91.3306 136.548H88.8726V139.011H91.3306V136.548Z" fill="black"/>
<path d="M93.7862 136.548H91.3281V139.011H93.7862V136.548Z" fill="white"/>
<path d="M54.458 139.009H52V141.471H54.458V139.009Z" fill="white"/>
<path d="M56.9136 139.009H54.4556V141.471H56.9136V139.009Z" fill="black"/>
<path d="M59.3745 139.009H56.9165V141.471H59.3745V139.009Z" fill="#E65C17"/>
<path d="M61.8301 139.009H59.3721V141.471H61.8301V139.009Z" fill="#E65C17"/>
<path d="M64.2915 139.009H61.8335V141.471H64.2915V139.009Z" fill="black"/>
<path d="M66.7466 139.009H64.2886V141.471H66.7466V139.009Z" fill="#E65C17"/>
<path d="M69.2085 139.009H66.7505V141.471H69.2085V139.009Z" fill="#FF8000"/>
<path d="M71.6636 139.009H69.2056V141.471H71.6636V139.009Z" fill="#E65C17"/>
<path d="M74.125 139.009H71.667V141.471H74.125V139.009Z" fill="#E65C17"/>
<path d="M76.5806 139.009H74.1226V141.471H76.5806V139.009Z" fill="#FF8000"/>
<path d="M79.0357 139.009H76.5776V141.471H79.0357V139.009Z" fill="#E65C17"/>
<path d="M81.4971 139.009H79.0391V141.471H81.4971V139.009Z" fill="#E65C17"/>
<path d="M83.9527 139.009H81.4946V141.471H83.9527V139.009Z" fill="black"/>
<path d="M86.4141 139.009H83.9561V141.471H86.4141V139.009Z" fill="#E65C17"/>
<path d="M88.8692 139.009H86.4111V141.471H88.8692V139.009Z" fill="#FF8000"/>
<path d="M91.3306 139.009H88.8726V141.471H91.3306V139.009Z" fill="black"/>
<path d="M93.7862 139.009H91.3281V141.471H93.7862V139.009Z" fill="white"/>
<path d="M54.458 141.472H52V143.934H54.458V141.472Z" fill="white"/>
<path d="M56.9136 141.472H54.4556V143.934H56.9136V141.472Z" fill="black"/>
<path d="M59.3745 141.472H56.9165V143.934H59.3745V141.472Z" fill="#E65C17"/>
<path d="M61.8301 141.472H59.3721V143.934H61.8301V141.472Z" fill="#FF8000"/>
<path d="M64.2915 141.472H61.8335V143.934H64.2915V141.472Z" fill="#E65C17"/>
<path d="M66.7466 141.472H64.2886V143.934H66.7466V141.472Z" fill="#E65C17"/>
<path d="M69.2085 141.472H66.7505V143.934H69.2085V141.472Z" fill="#FFBB33"/>
<path d="M71.6636 141.472H69.2056V143.934H71.6636V141.472Z" fill="#E65C17"/>
<path d="M74.125 141.472H71.667V143.934H74.125V141.472Z" fill="#E65C17"/>
<path d="M76.5806 141.472H74.1226V143.934H76.5806V141.472Z" fill="#FFBB33"/>
<path d="M79.0357 141.472H76.5776V143.934H79.0357V141.472Z" fill="#FF8000"/>
<path d="M81.4971 141.472H79.0391V143.934H81.4971V141.472Z" fill="#E65C17"/>
<path d="M83.9527 141.472H81.4946V143.934H83.9527V141.472Z" fill="#E65C17"/>
<path d="M86.4141 141.472H83.9561V143.934H86.4141V141.472Z" fill="#FF8000"/>
<path d="M88.8692 141.472H86.4111V143.934H88.8692V141.472Z" fill="#E65C17"/>
<path d="M91.3306 141.472H88.8726V143.934H91.3306V141.472Z" fill="#E65C17"/>
<path d="M93.7862 141.472H91.3281V143.934H93.7862V141.472Z" fill="black"/>
<path d="M96.2471 141.472H93.7891V143.934H96.2471V141.472Z" fill="white"/>
<path d="M54.458 143.935H52V146.398H54.458V143.935Z" fill="white"/>
<path d="M56.9136 143.935H54.4556V146.398H56.9136V143.935Z" fill="black"/>
<path d="M59.3745 143.935H56.9165V146.398H59.3745V143.935Z" fill="#E65C17"/>
<path d="M61.8301 143.935H59.3721V146.398H61.8301V143.935Z" fill="#FF8000"/>
<path d="M64.2915 143.935H61.8335V146.398H64.2915V143.935Z" fill="#E65C17"/>
<path d="M66.7466 143.935H64.2886V146.398H66.7466V143.935Z" fill="#E65C17"/>
<path d="M69.2085 143.935H66.7505V146.398H69.2085V143.935Z" fill="#E65C17"/>
<path d="M71.6636 143.935H69.2056V146.398H71.6636V143.935Z" fill="#E65C17"/>
<path d="M74.125 143.935H71.667V146.398H74.125V143.935Z" fill="#FF8000"/>
<path d="M76.5806 143.935H74.1226V146.398H76.5806V143.935Z" fill="#FFCC66"/>
<path d="M79.0357 143.935H76.5776V146.398H79.0357V143.935Z" fill="#FFBB33"/>
<path d="M81.4971 143.935H79.0391V146.398H81.4971V143.935Z" fill="#E65C17"/>
<path d="M83.9527 143.935H81.4946V146.398H83.9527V143.935Z" fill="#FF8000"/>
<path d="M86.4141 143.935H83.9561V146.398H86.4141V143.935Z" fill="#E65C17"/>
<path d="M88.8692 143.935H86.4111V146.398H88.8692V143.935Z" fill="#E65C17"/>
<path d="M91.3306 143.935H88.8726V146.398H91.3306V143.935Z" fill="#FF8000"/>
<path d="M93.7862 143.935H91.3281V146.398H93.7862V143.935Z" fill="black"/>
<path d="M96.2471 143.935H93.7891V146.398H96.2471V143.935Z" fill="white"/>
<path d="M54.458 146.396H52V148.858H54.458V146.396Z" fill="white"/>
<path d="M56.9136 146.396H54.4556V148.858H56.9136V146.396Z" fill="black"/>
<path d="M59.3745 146.396H56.9165V148.858H59.3745V146.396Z" fill="#E65C17"/>
<path d="M61.8301 146.396H59.3721V148.858H61.8301V146.396Z" fill="#E65C17"/>
<path d="M64.2915 146.396H61.8335V148.858H64.2915V146.396Z" fill="#FFBB33"/>
<path d="M66.7466 146.396H64.2886V148.858H66.7466V146.396Z" fill="#E65C17"/>
<path d="M69.2085 146.396H66.7505V148.858H69.2085V146.396Z" fill="#E65C17"/>
<path d="M71.6636 146.396H69.2056V148.858H71.6636V146.396Z" fill="#FF8000"/>
<path d="M74.125 146.396H71.667V148.858H74.125V146.396Z" fill="#FFCC66"/>
<path d="M76.5806 146.396H74.1226V148.858H76.5806V146.396Z" fill="#FFCC66"/>
<path d="M79.0357 146.396H76.5776V148.858H79.0357V146.396Z" fill="#FFCC66"/>
<path d="M81.4971 146.396H79.0391V148.858H81.4971V146.396Z" fill="#FFBB33"/>
<path d="M83.9527 146.396H81.4946V148.858H83.9527V146.396Z" fill="#FFCC66"/>
<path d="M86.4141 146.396H83.9561V148.858H86.4141V146.396Z" fill="#FFBB33"/>
<path d="M88.8692 146.396H86.4111V148.858H88.8692V146.396Z" fill="#FF8000"/>
<path d="M91.3306 146.396H88.8726V148.858H91.3306V146.396Z" fill="#E65C17"/>
<path d="M93.7862 146.396H91.3281V148.858H93.7862V146.396Z" fill="black"/>
<path d="M96.2471 146.396H93.7891V148.858H96.2471V146.396Z" fill="white"/>
<path d="M54.458 148.859H52V151.321H54.458V148.859Z" fill="white"/>
<path d="M56.9136 148.859H54.4556V151.321H56.9136V148.859Z" fill="black"/>
<path d="M59.3745 148.859H56.9165V151.321H59.3745V148.859Z" fill="#CC4400"/>
<path d="M61.8301 148.859H59.3721V151.321H61.8301V148.859Z" fill="#E65C17"/>
<path d="M64.2915 148.859H61.8335V151.321H64.2915V148.859Z" fill="#FF8000"/>
<path d="M66.7466 148.859H64.2886V151.321H66.7466V148.859Z" fill="#FFBB33"/>
<path d="M69.2085 148.859H66.7505V151.321H69.2085V148.859Z" fill="#FFBB33"/>
<path d="M71.6636 148.859H69.2056V151.321H71.6636V148.859Z" fill="#FFCC66"/>
<path d="M74.125 148.859H71.667V151.321H74.125V148.859Z" fill="white"/>
<path d="M76.5806 148.859H74.1226V151.321H76.5806V148.859Z" fill="white"/>
<path d="M79.0357 148.859H76.5776V151.321H79.0357V148.859Z" fill="white"/>
<path d="M81.4971 148.859H79.0391V151.321H81.4971V148.859Z" fill="#FFCC66"/>
<path d="M83.9527 148.859H81.4946V151.321H83.9527V148.859Z" fill="#FFBB33"/>
<path d="M86.4141 148.859H83.9561V151.321H86.4141V148.859Z" fill="#FF8000"/>
<path d="M88.8692 148.859H86.4111V151.321H88.8692V148.859Z" fill="#E65C17"/>
<path d="M91.3306 148.859H88.8726V151.321H91.3306V148.859Z" fill="#CC4400"/>
<path d="M93.7862 148.859H91.3281V151.321H93.7862V148.859Z" fill="black"/>
<path d="M96.2471 148.859H93.7891V151.321H96.2471V148.859Z" fill="white"/>
<path d="M56.9136 151.323H54.4556V153.785H56.9136V151.323Z" fill="white"/>
<path d="M59.3745 151.323H56.9165V153.785H59.3745V151.323Z" fill="black"/>
<path d="M61.8301 151.323H59.3721V153.785H61.8301V151.323Z" fill="#CC4400"/>
<path d="M64.2915 151.323H61.8335V153.785H64.2915V151.323Z" fill="#E65C17"/>
<path d="M66.7466 151.323H64.2886V153.785H66.7466V151.323Z" fill="#FF8000"/>
<path d="M69.2085 151.323H66.7505V153.785H69.2085V151.323Z" fill="#FFCC66"/>
<path d="M71.6636 151.323H69.2056V153.785H71.6636V151.323Z" fill="white"/>
<path d="M74.125 151.323H71.667V153.785H74.125V151.323Z" fill="white"/>
<path d="M76.5806 151.323H74.1226V153.785H76.5806V151.323Z" fill="white"/>
<path d="M79.0357 151.323H76.5776V153.785H79.0357V151.323Z" fill="white"/>
<path d="M81.4971 151.323H79.0391V153.785H81.4971V151.323Z" fill="white"/>
<path d="M83.9527 151.323H81.4946V153.785H83.9527V151.323Z" fill="#FFCC66"/>
<path d="M86.4141 151.323H83.9561V153.785H86.4141V151.323Z" fill="#FF8000"/>
<path d="M88.8692 151.323H86.4111V153.785H88.8692V151.323Z" fill="#E65C17"/>
<path d="M91.3306 151.323H88.8726V153.785H91.3306V151.323Z" fill="black"/>
<path d="M93.7862 151.323H91.3281V153.785H93.7862V151.323Z" fill="white"/>
<path d="M59.3745 153.786H56.9165V156.248H59.3745V153.786Z" fill="white"/>
<path d="M61.8301 153.786H59.3721V156.248H61.8301V153.786Z" fill="black"/>
<path d="M64.2915 153.786H61.8335V156.248H64.2915V153.786Z" fill="#CC4400"/>
<path d="M66.7466 153.786H64.2886V156.248H66.7466V153.786Z" fill="#FF8000"/>
<path d="M69.2085 153.786H66.7505V156.248H69.2085V153.786Z" fill="#FFBB33"/>
<path d="M71.6636 153.786H69.2056V156.248H71.6636V153.786Z" fill="white"/>
<path d="M74.125 153.786H71.667V156.248H74.125V153.786Z" fill="white"/>
<path d="M76.5806 153.786H74.1226V156.248H76.5806V153.786Z" fill="white"/>
<path d="M79.0357 153.786H76.5776V156.248H79.0357V153.786Z" fill="white"/>
<path d="M81.4971 153.786H79.0391V156.248H81.4971V153.786Z" fill="#FFCC66"/>
<path d="M83.9527 153.786H81.4946V156.248H83.9527V153.786Z" fill="#FF8000"/>
<path d="M86.4141 153.786H83.9561V156.248H86.4141V153.786Z" fill="#E65C17"/>
<path d="M88.8692 153.786H86.4111V156.248H88.8692V153.786Z" fill="#CC4400"/>
<path d="M91.3306 153.786H88.8726V156.248H91.3306V153.786Z" fill="black"/>
<path d="M93.7862 153.786H91.3281V156.248H93.7862V153.786Z" fill="white"/>
<path d="M61.8301 156.246H59.3721V158.708H61.8301V156.246Z" fill="white"/>
<path d="M64.2915 156.246H61.8335V158.708H64.2915V156.246Z" fill="black"/>
<path d="M66.7466 156.246H64.2886V158.708H66.7466V156.246Z" fill="black"/>
<path d="M69.2085 156.246H66.7505V158.708H69.2085V156.246Z" fill="#FFBB33"/>
<path d="M71.6636 156.246H69.2056V158.708H71.6636V156.246Z" fill="#FFCC66"/>
<path d="M74.125 156.246H71.667V158.708H74.125V156.246Z" fill="white"/>
<path d="M76.5806 156.246H74.1226V158.708H76.5806V156.246Z" fill="white"/>
<path d="M79.0357 156.246H76.5776V158.708H79.0357V156.246Z" fill="white"/>
<path d="M81.4971 156.246H79.0391V158.708H81.4971V156.246Z" fill="#FFCC66"/>
<path d="M83.9527 156.246H81.4946V158.708H83.9527V156.246Z" fill="#CC4400"/>
<path d="M86.4141 156.246H83.9561V158.708H86.4141V156.246Z" fill="#CC4400"/>
<path d="M88.8692 156.246H86.4111V158.708H88.8692V156.246Z" fill="black"/>
<path d="M91.3306 156.246H88.8726V158.708H91.3306V156.246Z" fill="white"/>
<path d="M93.7862 156.246H91.3281V158.708H93.7862V156.246Z" fill="white"/>
<path d="M64.2915 158.709H61.8335V161.172H64.2915V158.709Z" fill="white"/>
<path d="M66.7466 158.709H64.2886V161.172H66.7466V158.709Z" fill="white"/>
<path d="M69.2085 158.709H66.7505V161.172H69.2085V158.709Z" fill="black"/>
<path d="M71.6636 158.709H69.2056V161.172H71.6636V158.709Z" fill="black"/>
<path d="M74.125 158.709H71.667V161.172H74.125V158.709Z" fill="black"/>
<path d="M76.5806 158.709H74.1226V161.172H76.5806V158.709Z" fill="black"/>
<path d="M79.0357 158.709H76.5776V161.172H79.0357V158.709Z" fill="black"/>
<path d="M81.4971 158.709H79.0391V161.172H81.4971V158.709Z" fill="black"/>
<path d="M83.9527 158.709H81.4946V161.172H83.9527V158.709Z" fill="black"/>
<path d="M86.4141 158.709H83.9561V161.172H86.4141V158.709Z" fill="black"/>
<path d="M88.8692 158.709H86.4111V161.172H88.8692V158.709Z" fill="white"/>
<path d="M91.3306 158.709H88.8726V161.172H91.3306V158.709Z" fill="white"/>
<path d="M66.7466 161.17H64.2886V163.632H66.7466V161.17Z" fill="white"/>
<path d="M69.2085 161.17H66.7505V163.632H69.2085V161.17Z" fill="white"/>
<path d="M71.6636 161.17H69.2056V163.632H71.6636V161.17Z" fill="white"/>
<path d="M74.125 161.17H71.667V163.632H74.125V161.17Z" fill="white"/>
<path d="M76.5806 161.17H74.1226V163.632H76.5806V161.17Z" fill="white"/>
<path d="M79.0357 161.17H76.5776V163.632H79.0357V161.17Z" fill="white"/>
<path d="M81.4971 161.17H79.0391V163.632H81.4971V161.17Z" fill="white"/>
<path d="M83.9527 161.17H81.4946V163.632H83.9527V161.17Z" fill="white"/>
<path d="M86.4141 161.17H83.9561V163.632H86.4141V161.17Z" fill="white"/>
<path d="M88.8692 161.17H86.4111V163.632H88.8692V161.17Z" fill="white"/>
<rect width="4.31334" height="8.62668" transform="matrix(-0.184708 0.982793 0.982793 0.184709 444.47 89.4163)" fill="white"/>
<rect width="4.31334" height="4.31334" transform="matrix(-0.184708 0.982793 0.982793 0.184709 445.267 85.1764)" fill="white"/>
<rect width="4.31334" height="4.31334" transform="matrix(-0.184708 0.982793 0.982793 0.184709 441.028 84.3798)" fill="white"/>
<rect width="4.31334" height="4.31334" transform="matrix(-0.184708 0.982793 0.982793 0.184709 441.825 80.1409)" fill="white"/>
<rect width="4.31334" height="4.31334" transform="matrix(-0.184708 0.982793 0.982793 0.184709 440.231 88.6196)" fill="black"/>
<rect width="420.935" height="4.31334" transform="matrix(0.982793 0.184708 0.184708 -0.982793 27.3359 6.62976)" fill="white"/>
<rect width="420.935" height="4.31334" transform="matrix(0.982793 0.184708 0.184708 -0.982793 25.7427 15.1074)" fill="white"/>
<rect width="420.935" height="4.31334" transform="matrix(0.982793 0.184708 0.184708 -0.982793 26.5396 10.8685)" fill="black"/>
<rect width="4.31334" height="8.62668" transform="matrix(0.982793 0.184708 0.184708 -0.982793 22.3003 10.0721)" fill="white"/>
<rect width="4.31334" height="4.31334" transform="matrix(0.982793 0.184708 0.184708 -0.982793 18.0601 9.27515)" fill="white"/>
<rect width="4.31334" height="4.31334" transform="matrix(0.982793 0.184708 0.184708 -0.982793 17.2637 13.5135)" fill="white"/>
<rect width="4.31334" height="4.31334" transform="matrix(0.982793 0.184708 0.184708 -0.982793 13.0229 12.7167)" fill="white"/>
<rect width="4.31334" height="4.31334" transform="matrix(0.982793 0.184708 0.184708 -0.982793 21.5039 14.3105)" fill="black"/>
<rect width="44.6265" height="4.31334" transform="matrix(-0.184708 0.982793 0.982793 0.184708 447.913 94.4521)" fill="white"/>
<rect width="44.6265" height="4.31334" transform="matrix(-0.184708 0.982793 0.982793 0.184708 439.437 92.8591)" fill="white"/>
<rect width="44.6265" height="4.31334" transform="matrix(-0.184708 0.982793 0.982793 0.184708 443.672 93.6552)" fill="black"/>
<rect width="420.94" height="44.6267" transform="translate(25.7397 15.1079) rotate(10.6441)" fill="white"/>
<path d="M49.4998 41.5041L45.6472 40.78L44.9232 44.6326L48.7757 45.3566L48.0516 49.2092L44.1991 48.4851L43.475 52.3377L39.6225 51.6136L40.3465 47.7611L36.494 47.037L35.7699 50.8896L31.9174 50.1655L32.6414 46.3129L28.7889 45.5889L29.513 41.7363L33.3655 42.4604L34.0896 38.6078L30.237 37.8838L30.9611 34.0312L34.8136 34.7553L35.5377 30.9027L39.3902 31.6268L38.6662 35.4794L42.5187 36.2034L43.2428 32.3509L47.0953 33.0749L46.3713 36.9275L50.2238 37.6515L49.4998 41.5041ZM41.0706 43.9085L41.7947 40.056L37.9421 39.3319L37.2181 43.1845L41.0706 43.9085ZM66.3538 36.6944L62.7335 55.9571L58.8809 55.2331L60.3291 47.528L56.4765 46.8039L57.2006 42.9514L61.0531 43.6754L61.7772 39.8229L57.9246 39.0988L57.2006 42.9514L53.348 42.2273L54.7961 34.5222L66.3538 36.6944ZM52.624 46.0799L56.4765 46.8039L55.0284 54.509L51.1758 53.785L52.624 46.0799ZM81.7522 39.5884L79.58 51.1461L71.8749 49.6979L70.4268 57.403L66.5742 56.679L70.1945 37.4162L81.7522 39.5884ZM76.4515 46.5694L77.1755 42.7169L73.323 41.9928L72.5989 45.8454L76.4515 46.5694ZM87.9973 48.7394L91.8499 49.4635L91.1258 53.316L87.2733 52.5919L85.8251 60.297L81.9726 59.573L85.5929 40.3102L89.4454 41.0343L87.9973 48.7394ZM93.298 41.7584L97.1505 42.4824L95.7024 50.1875L91.8499 49.4635L93.298 41.7584ZM89.6777 61.0211L91.1258 53.316L94.9784 54.0401L93.5302 61.7452L89.6777 61.0211ZM116.401 46.1005L112.781 65.3632L108.929 64.6392L110.015 58.8603L102.31 57.4122L101.224 63.1911L97.371 62.467L100.267 47.0568L104.12 47.7809L103.034 53.5597L110.739 55.0078L111.825 49.229L104.12 47.7809L104.844 43.9283L116.401 46.1005ZM131.817 48.9977L128.197 68.2605L124.344 67.5364L125.792 59.8313L121.94 59.1073L122.664 55.2547L126.516 55.9788L127.24 52.1262L123.388 51.4022L122.664 55.2547L118.811 54.5306L120.259 46.8255L131.817 48.9977ZM118.087 58.3832L121.94 59.1073L120.492 66.8124L116.639 66.0883L118.087 58.3832ZM145.775 59.5982L149.627 60.3223L148.903 64.1748L145.051 63.4508L143.603 71.1559L139.75 70.4318L143.37 51.1691L147.223 51.8931L145.775 59.5982ZM154.928 53.3413L158.781 54.0653L155.16 73.3281L151.308 72.604L153.48 61.0464L149.627 60.3223L150.351 56.4697L154.204 57.1938L154.928 53.3413ZM182.865 74.5463L186.718 75.2704L185.994 79.1229L166.731 75.5027L167.455 71.6501L171.307 72.3742L173.48 60.8165L177.332 61.5406L175.16 73.0982L179.013 73.8223L181.185 62.2646L177.332 61.5406L178.056 57.688L185.761 59.1361L182.865 74.5463ZM205.02 62.7556L202.848 74.3133L195.143 72.8651L193.694 80.5702L189.842 79.8462L193.462 60.5834L205.02 62.7556ZM199.719 69.7367L200.443 65.8841L196.591 65.16L195.867 69.0126L199.719 69.7367ZM224.271 66.3737L220.65 85.6364L216.798 84.9124L217.884 79.1335L210.179 77.6854L209.093 83.4643L205.24 82.7402L208.136 67.33L211.989 68.0541L210.903 73.8329L218.608 75.281L219.694 69.5022L211.989 68.0541L212.713 64.2015L224.271 66.3737ZM238.484 65.0563L237.76 68.9089L233.907 68.1848L234.632 64.3323L238.484 65.0563ZM230.533 75.5279L234.386 76.252L233.662 80.1045L229.809 79.3805L228.361 87.0856L224.508 86.3615L228.129 67.0987L231.981 67.8228L230.533 75.5279ZM239.686 69.2709L243.539 69.995L239.919 89.2577L236.066 88.5337L238.238 76.976L234.386 76.252L235.11 72.3994L238.962 73.1235L239.686 69.2709ZM257.506 80.5973L256.782 84.4499L249.077 83.0018L248.353 86.8543L256.058 88.3024L255.334 92.155L243.776 89.9828L247.397 70.72L258.954 72.8922L258.23 76.7448L250.525 75.2967L249.801 79.1492L257.506 80.5973ZM261.359 81.3214L257.506 80.5973L258.23 76.7448L262.083 77.4688L261.359 81.3214ZM259.911 89.0265L256.058 88.3024L256.782 84.4499L260.635 85.1739L259.911 89.0265ZM278.223 76.5135L274.602 95.7763L263.045 93.6041L265.941 78.1939L269.793 78.9179L267.621 90.4756L271.474 91.1997L273.646 79.642L269.793 78.9179L270.517 75.0654L278.223 76.5135ZM292.173 87.1126L291.449 90.9652L283.744 89.5171L283.02 93.3696L290.725 94.8177L290.001 98.6703L278.443 96.4981L282.063 77.2353L293.621 79.4075L292.897 83.2601L285.192 81.812L284.468 85.6645L292.173 87.1126ZM296.025 87.8367L292.173 87.1126L292.897 83.2601L296.749 83.9841L296.025 87.8367ZM294.577 95.5418L290.725 94.8177L291.449 90.9652L295.301 91.6892L294.577 95.5418ZM316.742 83.7529L313.121 103.016L309.269 102.292L310.355 96.5127L302.65 95.0646L301.564 100.843L297.711 100.119L300.607 84.7092L304.46 85.4333L303.374 91.2121L311.079 92.6602L312.165 86.8814L304.46 85.4333L305.184 81.5807L316.742 83.7529ZM332.157 86.6501L328.537 105.913L324.684 105.189L326.132 97.4837L322.28 96.7596L323.004 92.9071L326.856 93.6312L327.581 89.7786L323.728 89.0545L323.004 92.9071L319.151 92.183L320.6 84.4779L332.157 86.6501ZM318.427 96.0356L322.28 96.7596L320.832 104.465L316.979 103.741L318.427 96.0356ZM354.544 94.8462L346.839 93.3981L347.563 89.5455L355.268 90.9936L354.544 94.8462ZM344.667 104.956L352.372 106.404L351.648 110.256L340.09 108.084L342.986 92.674L346.839 93.3981L344.667 104.956ZM370.667 93.8877L368.494 105.445L360.789 103.997L359.341 111.702L355.489 110.978L359.109 91.7155L370.667 93.8877ZM365.366 100.869L366.09 97.0162L362.237 96.2921L361.513 100.145L365.366 100.869ZM377.636 99.1861L376.912 103.039L380.764 103.763L380.04 107.615L376.188 106.891L375.464 110.744L383.169 112.192L382.445 116.044L370.887 113.872L374.507 94.6095L386.065 96.7817L385.341 100.634L377.636 99.1861ZM402.42 115.81L406.272 116.534L405.548 120.387L386.285 116.766L387.009 112.914L390.862 113.638L393.034 102.08L396.887 102.804L394.715 114.362L398.567 115.086L400.739 103.528L396.887 102.804L397.611 98.9516L405.316 100.4L402.42 115.81ZM428.427 104.743L424.807 124.006L420.954 123.282L422.04 117.503L414.335 116.055L413.249 121.834L409.396 121.11L412.293 105.7L416.145 106.424L415.059 112.202L422.764 113.651L423.85 107.872L416.145 106.424L416.869 102.571L428.427 104.743Z" fill="black"/>
<rect width="44.6266" height="4.31334" transform="matrix(-0.184708 0.982793 0.982793 0.184708 21.5005 14.3113)" fill="white"/>
<rect width="44.6266" height="4.31334" transform="matrix(-0.184708 0.982793 0.982793 0.184708 13.0229 12.7179)" fill="white"/>
<rect width="44.6266" height="4.31334" transform="matrix(-0.184708 0.982793 0.982793 0.184708 17.2622 13.5148)" fill="black"/>
<rect x="20.9385" y="64.0032" width="4.31334" height="17.2534" transform="rotate(10.6441 20.9385 64.0032)" fill="black"/>
<rect x="25.1792" y="64.8002" width="4.31334" height="8.62668" transform="rotate(100.644 25.1792 64.8002)" fill="black"/>
<rect x="17.4951" y="58.9664" width="4.31334" height="4.31334" transform="rotate(100.644 17.4951 58.9664)" fill="black"/>
<rect x="13.2578" y="58.17" width="4.31334" height="4.31334" transform="rotate(100.644 13.2578 58.17)" fill="white"/>
<rect x="9.01904" y="57.3734" width="4.31334" height="4.31334" transform="rotate(100.644 9.01904 57.3734)" fill="white"/>
<rect x="16.6982" y="63.2062" width="4.31334" height="4.31334" transform="rotate(100.644 16.6982 63.2062)" fill="white"/>
<rect x="20.1421" y="68.2426" width="4.31334" height="4.31334" transform="rotate(100.644 20.1421 68.2426)" fill="white"/>
<rect x="19.3452" y="72.4814" width="4.31334" height="4.31334" transform="rotate(100.644 19.3452 72.4814)" fill="white"/>
<rect x="18.5488" y="76.7202" width="4.31334" height="4.31334" transform="rotate(100.644 18.5488 76.7202)" fill="white"/>
<rect x="17.752" y="80.959" width="4.31334" height="4.31334" transform="rotate(100.644 17.752 80.959)" fill="white"/>
<rect x="21.9922" y="81.756" width="4.31334" height="4.31334" transform="rotate(100.644 21.9922 81.756)" fill="white"/>
<rect x="26.2329" y="82.553" width="4.31334" height="4.31334" transform="rotate(100.644 26.2329 82.553)" fill="white"/>
<rect x="27.0293" y="78.3141" width="4.31334" height="4.31334" transform="rotate(100.644 27.0293 78.3141)" fill="white"/>
<rect x="31.2681" y="79.1107" width="4.31334" height="4.31334" transform="rotate(100.644 31.2681 79.1107)" fill="white"/>
<rect x="32.0649" y="74.8719" width="4.31334" height="4.31334" transform="rotate(100.644 32.0649 74.8719)" fill="white"/>
<rect x="36.3008" y="75.6681" width="4.31334" height="4.31334" transform="rotate(100.644 36.3008 75.6681)" fill="white"/>
<rect x="37.0972" y="71.4292" width="4.31334" height="4.31334" transform="rotate(100.644 37.0972 71.4292)" fill="white"/>
<rect x="28.6226" y="69.8364" width="4.31334" height="4.31334" transform="rotate(100.644 28.6226 69.8364)" fill="white"/>
<rect x="29.4194" y="65.597" width="4.31334" height="4.31334" transform="rotate(100.644 29.4194 65.597)" fill="white"/>
<rect x="33.6582" y="66.3938" width="4.31334" height="4.31334" transform="rotate(100.644 33.6582 66.3938)" fill="white"/>
<rect x="37.894" y="67.1898" width="4.31334" height="4.31334" transform="rotate(100.644 37.894 67.1898)" fill="black"/>
<rect x="21.7354" y="59.7633" width="4.31334" height="4.31334" transform="rotate(100.644 21.7354 59.7633)" fill="white"/>
<rect x="25.9761" y="60.5603" width="4.31334" height="4.31334" transform="rotate(100.644 25.9761 60.5603)" fill="white"/>
<rect x="30.2163" y="61.3573" width="4.31334" height="4.31334" transform="rotate(100.644 30.2163 61.3573)" fill="white"/>
<rect x="34.4551" y="62.1539" width="4.31334" height="4.31334" transform="rotate(100.644 34.4551 62.1539)" fill="white"/>
<rect x="38.6909" y="62.95" width="4.31334" height="4.31334" transform="rotate(100.644 38.6909 62.95)" fill="white"/>
<rect x="15.9014" y="67.4456" width="4.31334" height="4.31334" transform="rotate(100.644 15.9014 67.4456)" fill="white"/>
<rect x="12.4609" y="62.4099" width="4.31334" height="4.31334" transform="rotate(100.644 12.4609 62.4099)" fill="white"/>
<rect x="27.8262" y="74.0753" width="4.31334" height="4.31334" transform="rotate(100.644 27.8262 74.0753)" fill="black"/>
<rect x="32.8618" y="70.6331" width="4.31334" height="4.31334" transform="rotate(100.644 32.8618 70.6331)" fill="black"/>
<rect x="429.598" y="145.196" width="4.31334" height="399.372" transform="rotate(100.644 429.598 145.196)" fill="white"/>
<rect x="431.191" y="136.718" width="4.31334" height="399.372" transform="rotate(100.644 431.191 136.718)" fill="white"/>
<rect x="430.395" y="140.956" width="4.31334" height="399.372" transform="rotate(100.644 430.395 140.956)" fill="black"/>
<rect x="434.634" y="141.753" width="4.31334" height="8.62668" transform="rotate(-79.3558 434.634 141.753)" fill="white"/>
<rect x="433.837" y="145.994" width="4.31334" height="4.31334" transform="rotate(-79.3558 433.837 145.994)" fill="white"/>
<rect x="429.598" y="145.197" width="4.31334" height="4.31334" transform="rotate(-79.3558 429.598 145.197)" fill="white"/>
<rect x="428.802" y="149.436" width="4.31334" height="4.31334" transform="rotate(-79.3558 428.802 149.436)" fill="white"/>
<rect x="430.395" y="140.957" width="4.31334" height="4.31334" transform="rotate(-79.3558 430.395 140.957)" fill="black"/>
</svg>
