<svg width="416" height="186" viewBox="0 0 416 186" fill="none" xmlns="http://www.w3.org/2000/svg">
<path d="M382.756 129H380.397V131.36H382.756V129Z" fill="white"/>
<path d="M385.118 129H382.758V131.36H385.118V129Z" fill="white"/>
<path d="M380.398 131.36H378.038V133.72H380.398V131.36Z" fill="white"/>
<path d="M382.756 131.36H380.397V133.72H382.756V131.36Z" fill="black"/>
<path d="M385.118 131.36H382.758V133.72H385.118V131.36Z" fill="black"/>
<path d="M387.474 131.36H385.115V133.72H387.474V131.36Z" fill="white"/>
<path d="M389.836 131.36H387.476V133.72H389.836V131.36Z" fill="white"/>
<path d="M378.038 133.72H375.679V136.079H378.038V133.72Z" fill="white"/>
<path d="M380.395 133.719H378.035V136.079H380.395V133.719Z" fill="black"/>
<path d="M382.756 133.719H380.397V136.079H382.756V133.719Z" fill="#333333"/>
<path d="M385.118 133.72H382.758V136.079H385.118V133.72Z" fill="#333333"/>
<path d="M387.474 133.719H385.115V136.079H387.474V133.719Z" fill="black"/>
<path d="M389.836 133.719H387.476V136.079H389.836V133.719Z" fill="black"/>
<path d="M392.195 133.72H389.835V136.079H392.195V133.72Z" fill="white"/>
<path d="M394.554 133.72H392.194V136.079H394.554V133.72Z" fill="white"/>
<path d="M375.677 136.078H373.317V138.438H375.677V136.078Z" fill="white"/>
<path d="M378.038 136.078H375.679V138.438H378.038V136.078Z" fill="black"/>
<path d="M380.395 136.078H378.035V138.438H380.395V136.078Z" fill="#333333"/>
<path d="M382.756 136.078H380.397V138.438H382.756V136.078Z" fill="#1A1A1A"/>
<path d="M385.118 136.078H382.758V138.438H385.118V136.078Z" fill="#1A1A1A"/>
<path d="M387.474 136.078H385.115V138.438H387.474V136.078Z" fill="#333333"/>
<path d="M389.836 136.078H387.476V138.438H389.836V136.078Z" fill="#333333"/>
<path d="M392.195 136.078H389.835V138.438H392.195V136.078Z" fill="black"/>
<path d="M394.554 136.078H392.194V138.438H394.554V136.078Z" fill="black"/>
<path d="M396.915 136.078H394.555V138.438H396.915V136.078Z" fill="white"/>
<path d="M399.274 136.078H396.914V138.438H399.274V136.078Z" fill="white"/>
<path d="M375.677 138.439H373.317V140.798H375.677V138.439Z" fill="white"/>
<path d="M378.038 138.439H375.679V140.798H378.038V138.439Z" fill="black"/>
<path d="M380.395 138.438H378.035V140.798H380.395V138.438Z" fill="#333333"/>
<path d="M382.756 138.438H380.397V140.798H382.756V138.438Z" fill="#1A1A1A"/>
<path d="M385.118 138.439H382.758V140.798H385.118V138.439Z" fill="#4D4D4D"/>
<path d="M387.474 138.439H385.115V140.798H387.474V138.439Z" fill="#1A1A1A"/>
<path d="M389.836 138.438H387.476V140.798H389.836V138.438Z" fill="#1A1A1A"/>
<path d="M392.195 138.439H389.835V140.798H392.195V138.439Z" fill="#333333"/>
<path d="M394.554 138.439H392.194V140.798H394.554V138.439Z" fill="#333333"/>
<path d="M396.915 138.439H394.555V140.798H396.915V138.439Z" fill="black"/>
<path d="M399.274 138.439H396.914V140.798H399.274V138.439Z" fill="black"/>
<path d="M401.633 138.439H399.273V140.798H401.633V138.439Z" fill="white"/>
<path d="M403.994 138.439H401.635V140.798H403.994V138.439Z" fill="white"/>
<path d="M373.318 140.798H370.958V143.158H373.318V140.798Z" fill="white"/>
<path d="M375.677 140.799H373.317V143.158H375.677V140.799Z" fill="black"/>
<path d="M378.038 140.798H375.679V143.158H378.038V140.798Z" fill="#333333"/>
<path d="M380.398 140.798H378.038V143.158H380.398V140.798Z" fill="#1A1A1A"/>
<path d="M382.756 140.799H380.397V143.158H382.756V140.799Z" fill="#4D4D4D"/>
<path d="M385.118 140.798H382.758V143.158H385.118V140.798Z" fill="#4D4D4D"/>
<path d="M387.474 140.798H385.115V143.158H387.474V140.798Z" fill="#4D4D4D"/>
<path d="M389.836 140.799H387.476V143.158H389.836V140.799Z" fill="#4D4D4D"/>
<path d="M392.195 140.798H389.835V143.158H392.195V140.798Z" fill="#1A1A1A"/>
<path d="M394.554 140.798H392.194V143.158H394.554V140.798Z" fill="#1A1A1A"/>
<path d="M396.915 140.799H394.555V143.158H396.915V140.799Z" fill="#333333"/>
<path d="M399.274 140.798H396.914V143.158H399.274V140.798Z" fill="#333333"/>
<path d="M401.633 140.798H399.273V143.158H401.633V140.798Z" fill="black"/>
<path d="M403.994 140.798H401.635V143.158H403.994V140.798Z" fill="black"/>
<path d="M406.353 140.798H403.993V143.158H406.353V140.798Z" fill="white"/>
<path d="M408.715 140.798H406.355V143.158H408.715V140.798Z" fill="white"/>
<path d="M373.318 143.158H370.958V145.517H373.318V143.158Z" fill="white"/>
<path d="M375.677 143.158H373.317V145.517H375.677V143.158Z" fill="black"/>
<path d="M378.038 143.158H375.679V145.517H378.038V143.158Z" fill="#333333"/>
<path d="M380.398 143.158H378.038V145.517H380.398V143.158Z" fill="#1A1A1A"/>
<path d="M382.756 143.158H380.397V145.517H382.756V143.158Z" fill="#4D4D4D"/>
<path d="M385.118 143.158H382.758V145.517H385.118V143.158Z" fill="#4D4D4D"/>
<path d="M387.474 143.158H385.115V145.517H387.474V143.158Z" fill="#4D4D4D"/>
<path d="M389.836 143.158H387.476V145.517H389.836V143.158Z" fill="#4D4D4D"/>
<path d="M392.195 143.158H389.835V145.517H392.195V143.158Z" fill="#4D4D4D"/>
<path d="M394.554 143.158H392.194V145.517H394.554V143.158Z" fill="#4D4D4D"/>
<path d="M396.915 143.158H394.555V145.517H396.915V143.158Z" fill="#1A1A1A"/>
<path d="M399.274 143.158H396.914V145.517H399.274V143.158Z" fill="#1A1A1A"/>
<path d="M401.633 143.158H399.273V145.517H401.633V143.158Z" fill="#333333"/>
<path d="M403.994 143.158H401.635V145.517H403.994V143.158Z" fill="#4D4D4D"/>
<path d="M406.353 143.158H403.993V145.517H406.353V143.158Z" fill="black"/>
<path d="M408.715 143.158H406.355V145.517H408.715V143.158Z" fill="black"/>
<path d="M411.074 143.158H408.714V145.517H411.074V143.158Z" fill="white"/>
<path d="M370.959 145.518H368.599V147.878H370.959V145.518Z" fill="white"/>
<path d="M373.318 145.518H370.958V147.878H373.318V145.518Z" fill="black"/>
<path d="M375.677 145.518H373.317V147.877H375.677V145.518Z" fill="#333333"/>
<path d="M378.038 145.518H375.679V147.878H378.038V145.518Z" fill="#1A1A1A"/>
<path d="M380.398 145.518H378.038V147.878H380.398V145.518Z" fill="#4D4D4D"/>
<path d="M382.756 145.518H380.397V147.877H382.756V145.518Z" fill="#4D4D4D"/>
<path d="M385.118 145.518H382.758V147.878H385.118V145.518Z" fill="#4D4D4D"/>
<path d="M387.474 145.518H385.115V147.878H387.474V145.518Z" fill="#4D4D4D"/>
<path d="M389.836 145.518H387.476V147.877H389.836V145.518Z" fill="#4D4D4D"/>
<path d="M392.195 145.518H389.835V147.878H392.195V145.518Z" fill="#4D4D4D"/>
<path d="M394.554 145.518H392.194V147.878H394.554V145.518Z" fill="#4D4D4D"/>
<path d="M396.915 145.518H394.555V147.877H396.915V145.518Z" fill="#4D4D4D"/>
<path d="M399.274 145.518H396.914V147.878H399.274V145.518Z" fill="#4D4D4D"/>
<path d="M401.633 145.518H399.273V147.878H401.633V145.518Z" fill="#1A1A1A"/>
<path d="M403.994 145.518H401.635V147.878H403.994V145.518Z" fill="#333333"/>
<path d="M406.353 145.518H403.993V147.878H406.353V145.518Z" fill="#666666"/>
<path d="M408.715 145.518H406.355V147.878H408.715V145.518Z" fill="#333333"/>
<path d="M411.074 145.518H408.714V147.878H411.074V145.518Z" fill="black"/>
<path d="M413.435 145.518H411.075V147.878H413.435V145.518Z" fill="white"/>
<path d="M370.959 147.878H368.599V150.238H370.959V147.878Z" fill="white"/>
<path d="M373.318 147.878H370.958V150.238H373.318V147.878Z" fill="black"/>
<path d="M375.677 147.878H373.317V150.238H375.677V147.878Z" fill="#333333"/>
<path d="M378.038 147.878H375.679V150.238H378.038V147.878Z" fill="#1A1A1A"/>
<path d="M380.395 147.878H378.035V150.238H380.395V147.878Z" fill="#4D4D4D"/>
<path d="M382.756 147.878H380.397V150.238H382.756V147.878Z" fill="#4D4D4D"/>
<path d="M385.118 147.878H382.758V150.238H385.118V147.878Z" fill="#4D4D4D"/>
<path d="M387.474 147.878H385.115V150.238H387.474V147.878Z" fill="#4D4D4D"/>
<path d="M389.836 147.878H387.476V150.238H389.836V147.878Z" fill="#4D4D4D"/>
<path d="M392.195 147.878H389.835V150.238H392.195V147.878Z" fill="#4D4D4D"/>
<path d="M394.554 147.878H392.194V150.238H394.554V147.878Z" fill="#4D4D4D"/>
<path d="M396.915 147.878H394.555V150.238H396.915V147.878Z" fill="#4D4D4D"/>
<path d="M399.274 147.878H396.914V150.238H399.274V147.878Z" fill="#4D4D4D"/>
<path d="M401.633 147.878H399.273V150.238H401.633V147.878Z" fill="#666666"/>
<path d="M403.994 147.878H401.635V150.238H403.994V147.878Z" fill="#808080"/>
<path d="M406.353 147.878H403.993V150.238H406.353V147.878Z" fill="#4D4D4D"/>
<path d="M408.715 147.878H406.355V150.238H408.715V147.878Z" fill="#4D4D4D"/>
<path d="M411.074 147.878H408.714V150.238H411.074V147.878Z" fill="#333333"/>
<path d="M413.435 147.878H411.075V150.238H413.435V147.878Z" fill="black"/>
<path d="M415.792 147.878H413.432V150.238H415.792V147.878Z" fill="white"/>
<path d="M368.598 150.238H366.238V152.598H368.598V150.238Z" fill="white"/>
<path d="M370.959 150.238H368.599V152.598H370.959V150.238Z" fill="black"/>
<path d="M373.318 150.238H370.958V152.598H373.318V150.238Z" fill="#333333"/>
<path d="M375.677 150.238H373.317V152.598H375.677V150.238Z" fill="#1A1A1A"/>
<path d="M378.038 150.238H375.679V152.598H378.038V150.238Z" fill="#4D4D4D"/>
<path d="M380.395 150.238H378.035V152.598H380.395V150.238Z" fill="#4D4D4D"/>
<path d="M382.756 150.238H380.397V152.598H382.756V150.238Z" fill="#4D4D4D"/>
<path d="M385.118 150.238H382.758V152.598H385.118V150.238Z" fill="#4D4D4D"/>
<path d="M387.474 150.238H385.115V152.598H387.474V150.238Z" fill="#4D4D4D"/>
<path d="M389.836 150.238H387.476V152.598H389.836V150.238Z" fill="#4D4D4D"/>
<path d="M392.195 150.238H389.835V152.598H392.195V150.238Z" fill="#4D4D4D"/>
<path d="M394.554 150.238H392.194V152.598H394.554V150.238Z" fill="#4D4D4D"/>
<path d="M396.915 150.238H394.555V152.598H396.915V150.238Z" fill="#4D4D4D"/>
<path d="M399.274 150.238H396.914V152.598H399.274V150.238Z" fill="#4D4D4D"/>
<path d="M401.633 150.238H399.273V152.598H401.633V150.238Z" fill="#666666"/>
<path d="M403.994 150.238H401.635V152.598H403.994V150.238Z" fill="#808080"/>
<path d="M406.353 150.238H403.993V152.598H406.353V150.238Z" fill="#666666"/>
<path d="M408.715 150.238H406.355V152.598H408.715V150.238Z" fill="#1A1A1A"/>
<path d="M411.074 150.238H408.714V152.598H411.074V150.238Z" fill="#333333"/>
<path d="M413.435 150.238H411.075V152.598H413.435V150.238Z" fill="black"/>
<path d="M415.792 150.238H413.432V152.598H415.792V150.238Z" fill="white"/>
<path d="M366.239 152.597H363.879V154.957H366.239V152.597Z" fill="white"/>
<path d="M368.598 152.597H366.238V154.957H368.598V152.597Z" fill="white"/>
<path d="M370.959 152.597H368.599V154.957H370.959V152.597Z" fill="black"/>
<path d="M373.318 152.597H370.958V154.957H373.318V152.597Z" fill="#333333"/>
<path d="M375.677 152.597H373.317V154.957H375.677V152.597Z" fill="#1A1A1A"/>
<path d="M378.038 152.597H375.679V154.957H378.038V152.597Z" fill="#1A1A1A"/>
<path d="M380.395 152.597H378.035V154.957H380.395V152.597Z" fill="#4D4D4D"/>
<path d="M382.756 152.597H380.397V154.957H382.756V152.597Z" fill="#4D4D4D"/>
<path d="M385.118 152.597H382.758V154.957H385.118V152.597Z" fill="#4D4D4D"/>
<path d="M387.474 152.597H385.115V154.957H387.474V152.597Z" fill="#4D4D4D"/>
<path d="M389.836 152.597H387.476V154.957H389.836V152.597Z" fill="#4D4D4D"/>
<path d="M392.195 152.597H389.835V154.957H392.195V152.597Z" fill="#4D4D4D"/>
<path d="M394.554 152.597H392.194V154.957H394.554V152.597Z" fill="#4D4D4D"/>
<path d="M396.915 152.597H394.555V154.957H396.915V152.597Z" fill="#4D4D4D"/>
<path d="M399.274 152.597H396.914V154.957H399.274V152.597Z" fill="#666666"/>
<path d="M401.633 152.597H399.273V154.957H401.633V152.597Z" fill="#808080"/>
<path d="M403.994 152.597H401.635V154.957H403.994V152.597Z" fill="#666666"/>
<path d="M406.353 152.597H403.993V154.957H406.353V152.597Z" fill="#1A1A1A"/>
<path d="M408.715 152.597H406.355V154.957H408.715V152.597Z" fill="#333333"/>
<path d="M411.074 152.597H408.714V154.957H411.074V152.597Z" fill="black"/>
<path d="M413.435 152.597H411.075V154.957H413.435V152.597Z" fill="white"/>
<path d="M361.518 154.957H359.159V157.317H361.518V154.957Z" fill="white"/>
<path d="M363.877 154.957H361.518V157.317H363.877V154.957Z" fill="white"/>
<path d="M366.239 154.957H363.879V157.317H366.239V154.957Z" fill="black"/>
<path d="M368.598 154.957H366.238V157.317H368.598V154.957Z" fill="black"/>
<path d="M370.959 154.957H368.599V157.317H370.959V154.957Z" fill="#1A1A1A"/>
<path d="M373.318 154.957H370.958V157.317H373.318V154.957Z" fill="#333333"/>
<path d="M375.677 154.957H373.317V157.317H375.677V154.957Z" fill="#333333"/>
<path d="M378.038 154.957H375.679V157.317H378.038V154.957Z" fill="#333333"/>
<path d="M380.395 154.957H378.035V157.317H380.395V154.957Z" fill="#1A1A1A"/>
<path d="M382.756 154.957H380.397V157.317H382.756V154.957Z" fill="#1A1A1A"/>
<path d="M385.118 154.957H382.758V157.317H385.118V154.957Z" fill="#4D4D4D"/>
<path d="M387.474 154.957H385.115V157.317H387.474V154.957Z" fill="#4D4D4D"/>
<path d="M389.836 154.957H387.476V157.317H389.836V154.957Z" fill="#4D4D4D"/>
<path d="M392.195 154.957H389.835V157.317H392.195V154.957Z" fill="#4D4D4D"/>
<path d="M394.554 154.957H392.194V157.317H394.554V154.957Z" fill="#4D4D4D"/>
<path d="M396.915 154.957H394.555V157.317H396.915V154.957Z" fill="#4D4D4D"/>
<path d="M399.274 154.957H396.914V157.317H399.274V154.957Z" fill="#666666"/>
<path d="M401.633 154.957H399.273V157.317H401.633V154.957Z" fill="#808080"/>
<path d="M403.994 154.957H401.635V157.317H403.994V154.957Z" fill="#666666"/>
<path d="M406.353 154.957H403.993V157.317H406.353V154.957Z" fill="#1A1A1A"/>
<path d="M408.715 154.957H406.355V157.317H408.715V154.957Z" fill="#333333"/>
<path d="M411.074 154.957H408.714V157.317H411.074V154.957Z" fill="black"/>
<path d="M413.435 154.957H411.075V157.317H413.435V154.957Z" fill="white"/>
<path d="M356.798 157.317H354.438V159.677H356.798V157.317Z" fill="white"/>
<path d="M359.157 157.317H356.797V159.677H359.157V157.317Z" fill="white"/>
<path d="M361.518 157.317H359.159V159.677H361.518V157.317Z" fill="black"/>
<path d="M363.877 157.317H361.518V159.677H363.877V157.317Z" fill="black"/>
<path d="M366.239 157.317H363.879V159.677H366.239V157.317Z" fill="#7A99B8"/>
<path d="M368.598 157.317H366.238V159.677H368.598V157.317Z" fill="#7A99B8"/>
<path d="M370.959 157.317H368.599V159.677H370.959V157.317Z" fill="#7A99B8"/>
<path d="M373.318 157.317H370.958V159.677H373.318V157.317Z" fill="#1A1A1A"/>
<path d="M375.677 157.317H373.317V159.677H375.677V157.317Z" fill="#1A1A1A"/>
<path d="M378.038 157.317H375.679V159.677H378.038V157.317Z" fill="#333333"/>
<path d="M380.398 157.317H378.038V159.677H380.398V157.317Z" fill="#333333"/>
<path d="M382.756 157.317H380.397V159.677H382.756V157.317Z" fill="#333333"/>
<path d="M385.118 157.317H382.758V159.677H385.118V157.317Z" fill="#1A1A1A"/>
<path d="M387.474 157.317H385.115V159.677H387.474V157.317Z" fill="#1A1A1A"/>
<path d="M389.836 157.317H387.476V159.677H389.836V157.317Z" fill="#4D4D4D"/>
<path d="M392.195 157.317H389.835V159.677H392.195V157.317Z" fill="#4D4D4D"/>
<path d="M394.554 157.317H392.194V159.677H394.554V157.317Z" fill="#4D4D4D"/>
<path d="M396.915 157.317H394.555V159.677H396.915V157.317Z" fill="#666666"/>
<path d="M399.274 157.317H396.914V159.677H399.274V157.317Z" fill="#808080"/>
<path d="M401.633 157.317H399.273V159.677H401.633V157.317Z" fill="#666666"/>
<path d="M403.994 157.317H401.635V159.677H403.994V157.317Z" fill="#1A1A1A"/>
<path d="M406.353 157.317H403.993V159.677H406.353V157.317Z" fill="#333333"/>
<path d="M408.715 157.317H406.355V159.677H408.715V157.317Z" fill="black"/>
<path d="M411.074 157.317H408.714V159.677H411.074V157.317Z" fill="white"/>
<path d="M352.078 159.676H349.718V162.036H352.078V159.676Z" fill="white"/>
<path d="M354.439 159.676H352.079V162.036H354.439V159.676Z" fill="white"/>
<path d="M356.798 159.676H354.438V162.036H356.798V159.676Z" fill="black"/>
<path d="M359.157 159.676H356.797V162.036H359.157V159.676Z" fill="black"/>
<path d="M361.518 159.676H359.159V162.036H361.518V159.676Z" fill="#7A99B8"/>
<path d="M363.877 159.676H361.518V162.036H363.877V159.676Z" fill="#7A99B8"/>
<path d="M366.239 159.676H363.879V162.036H366.239V159.676Z" fill="#5980A6"/>
<path d="M368.598 159.676H366.238V162.036H368.598V159.676Z" fill="#5980A6"/>
<path d="M370.959 159.676H368.599V162.036H370.959V159.676Z" fill="#5980A6"/>
<path d="M373.318 159.676H370.958V162.036H373.318V159.676Z" fill="#7A99B8"/>
<path d="M375.677 159.676H373.317V162.036H375.677V159.676Z" fill="#7A99B8"/>
<path d="M378.038 159.676H375.679V162.036H378.038V159.676Z" fill="#1A1A1A"/>
<path d="M380.398 159.676H378.038V162.036H380.398V159.676Z" fill="#1A1A1A"/>
<path d="M382.756 159.676H380.397V162.036H382.756V159.676Z" fill="#333333"/>
<path d="M385.118 159.676H382.758V162.036H385.118V159.676Z" fill="#333333"/>
<path d="M387.474 159.676H385.115V162.036H387.474V159.676Z" fill="#333333"/>
<path d="M389.836 159.676H387.476V162.036H389.836V159.676Z" fill="#1A1A1A"/>
<path d="M392.195 159.676H389.835V162.036H392.195V159.676Z" fill="#1A1A1A"/>
<path d="M394.554 159.676H392.194V162.036H394.554V159.676Z" fill="#333333"/>
<path d="M396.915 159.676H394.555V162.036H396.915V159.676Z" fill="#666666"/>
<path d="M399.274 159.676H396.914V162.036H399.274V159.676Z" fill="#808080"/>
<path d="M401.633 159.676H399.273V162.036H401.633V159.676Z" fill="#666666"/>
<path d="M403.994 159.676H401.635V162.036H403.994V159.676Z" fill="#1A1A1A"/>
<path d="M406.353 159.676H403.993V162.036H406.353V159.676Z" fill="#333333"/>
<path d="M408.715 159.676H406.355V162.036H408.715V159.676Z" fill="black"/>
<path d="M411.074 159.676H408.714V162.036H411.074V159.676Z" fill="white"/>
<path d="M349.721 162.036H347.362V164.395H349.721V162.036Z" fill="white"/>
<path d="M352.078 162.036H349.718V164.395H352.078V162.036Z" fill="black"/>
<path d="M354.439 162.036H352.079V164.395H354.439V162.036Z" fill="black"/>
<path d="M356.798 162.036H354.438V164.395H356.798V162.036Z" fill="#7A99B8"/>
<path d="M359.157 162.036H356.797V164.395H359.157V162.036Z" fill="#7A99B8"/>
<path d="M361.518 162.036H359.159V164.395H361.518V162.036Z" fill="#5980A6"/>
<path d="M363.877 162.036H361.518V164.395H363.877V162.036Z" fill="#5980A6"/>
<path d="M366.239 162.036H363.879V164.395H366.239V162.036Z" fill="#BDCCDB"/>
<path d="M368.598 162.036H366.238V164.395H368.598V162.036Z" fill="#7A99B8"/>
<path d="M370.959 162.036H368.599V164.395H370.959V162.036Z" fill="#BDCCDB"/>
<path d="M373.318 162.036H370.958V164.395H373.318V162.036Z" fill="#5980A6"/>
<path d="M375.677 162.036H373.317V164.395H375.677V162.036Z" fill="#5980A6"/>
<path d="M378.038 162.036H375.679V164.395H378.038V162.036Z" fill="#7A99B8"/>
<path d="M380.398 162.036H378.038V164.395H380.398V162.036Z" fill="#7A99B8"/>
<path d="M382.756 162.036H380.397V164.395H382.756V162.036Z" fill="#1A1A1A"/>
<path d="M385.118 162.036H382.758V164.395H385.118V162.036Z" fill="#1A1A1A"/>
<path d="M387.474 162.036H385.115V164.395H387.474V162.036Z" fill="#333333"/>
<path d="M389.836 162.036H387.476V164.395H389.836V162.036Z" fill="#333333"/>
<path d="M392.195 162.036H389.835V164.395H392.195V162.036Z" fill="#333333"/>
<path d="M394.554 162.036H392.194V164.395H394.554V162.036Z" fill="#4D4D4D"/>
<path d="M396.915 162.036H394.555V164.395H396.915V162.036Z" fill="#4D4D4D"/>
<path d="M399.274 162.036H396.914V164.395H399.274V162.036Z" fill="#666666"/>
<path d="M401.633 162.036H399.273V164.395H401.633V162.036Z" fill="#1A1A1A"/>
<path d="M403.994 162.036H401.635V164.395H403.994V162.036Z" fill="#333333"/>
<path d="M406.353 162.036H403.993V164.395H406.353V162.036Z" fill="black"/>
<path d="M408.715 162.036H406.355V164.395H408.715V162.036Z" fill="white"/>
<path d="M347.36 164.396H345V166.755H347.36V164.396Z" fill="white"/>
<path d="M349.721 164.396H347.362V166.755H349.721V164.396Z" fill="black"/>
<path d="M352.078 164.396H349.718V166.755H352.078V164.396Z" fill="#7A99B8"/>
<path d="M354.439 164.396H352.079V166.755H354.439V164.396Z" fill="#7A99B8"/>
<path d="M356.798 164.396H354.438V166.755H356.798V164.396Z" fill="#7A99B8"/>
<path d="M359.157 164.396H356.797V166.755H359.157V164.396Z" fill="#7A99B8"/>
<path d="M361.518 164.396H359.159V166.755H361.518V164.396Z" fill="#7A99B8"/>
<path d="M363.877 164.396H361.518V166.755H363.877V164.396Z" fill="#5980A6"/>
<path d="M366.239 164.396H363.879V166.755H366.239V164.396Z" fill="#5980A6"/>
<path d="M368.598 164.396H366.238V166.755H368.598V164.396Z" fill="#BDCCDB"/>
<path d="M370.959 164.396H368.599V166.755H370.959V164.396Z" fill="#7A99B8"/>
<path d="M373.318 164.396H370.958V166.755H373.318V164.396Z" fill="#BDCCDB"/>
<path d="M375.677 164.396H373.317V166.755H375.677V164.396Z" fill="#7A99B8"/>
<path d="M378.038 164.396H375.679V166.755H378.038V164.396Z" fill="#5980A6"/>
<path d="M380.395 164.396H378.035V166.755H380.395V164.396Z" fill="#5980A6"/>
<path d="M382.756 164.396H380.397V166.755H382.756V164.396Z" fill="#7A99B8"/>
<path d="M385.118 164.396H382.758V166.755H385.118V164.396Z" fill="#7A99B8"/>
<path d="M387.474 164.396H385.115V166.755H387.474V164.396Z" fill="#1A1A1A"/>
<path d="M389.836 164.396H387.476V166.755H389.836V164.396Z" fill="#1A1A1A"/>
<path d="M392.195 164.396H389.835V166.755H392.195V164.396Z" fill="#333333"/>
<path d="M394.554 164.396H392.194V166.755H394.554V164.396Z" fill="#4D4D4D"/>
<path d="M396.915 164.396H394.555V166.755H396.915V164.396Z" fill="#666666"/>
<path d="M399.274 164.396H396.914V166.755H399.274V164.396Z" fill="#333333"/>
<path d="M401.633 164.396H399.273V166.755H401.633V164.396Z" fill="#1A1A1A"/>
<path d="M403.994 164.396H401.635V166.755H403.994V164.396Z" fill="#333333"/>
<path d="M406.353 164.396H403.993V166.755H406.353V164.396Z" fill="black"/>
<path d="M408.715 164.396H406.355V166.755H408.715V164.396Z" fill="white"/>
<path d="M347.36 166.755H345V169.115H347.36V166.755Z" fill="white"/>
<path d="M349.721 166.756H347.362V169.116H349.721V166.756Z" fill="white"/>
<path d="M352.078 166.756H349.718V169.116H352.078V166.756Z" fill="black"/>
<path d="M354.439 166.756H352.079V169.116H354.439V166.756Z" fill="black"/>
<path d="M356.798 166.756H354.438V169.116H356.798V166.756Z" fill="#7A99B8"/>
<path d="M359.157 166.756H356.797V169.116H359.157V166.756Z" fill="#7A99B8"/>
<path d="M361.518 166.756H359.159V169.116H361.518V166.756Z" fill="#7A99B8"/>
<path d="M363.877 166.756H361.518V169.116H363.877V166.756Z" fill="#7A99B8"/>
<path d="M366.239 166.756H363.879V169.116H366.239V166.756Z" fill="#7A99B8"/>
<path d="M368.598 166.756H366.238V169.116H368.598V166.756Z" fill="#5980A6"/>
<path d="M370.959 166.756H368.599V169.116H370.959V166.756Z" fill="#5980A6"/>
<path d="M373.318 166.756H370.958V169.116H373.318V166.756Z" fill="#7A99B8"/>
<path d="M375.677 166.756H373.317V169.116H375.677V166.756Z" fill="#BDCCDB"/>
<path d="M378.038 166.756H375.679V169.116H378.038V166.756Z" fill="#7A99B8"/>
<path d="M380.395 166.755H378.035V169.115H380.395V166.755Z" fill="#BDCCDB"/>
<path d="M382.756 166.755H380.397V169.115H382.756V166.755Z" fill="#5980A6"/>
<path d="M385.118 166.756H382.758V169.116H385.118V166.756Z" fill="#5980A6"/>
<path d="M387.474 166.756H385.115V169.116H387.474V166.756Z" fill="#7A99B8"/>
<path d="M389.836 166.755H387.476V169.115H389.836V166.755Z" fill="#7A99B8"/>
<path d="M392.195 166.756H389.835V169.116H392.195V166.756Z" fill="#1A1A1A"/>
<path d="M394.554 166.756H392.194V169.116H394.554V166.756Z" fill="#1A1A1A"/>
<path d="M396.915 166.756H394.555V169.116H396.915V166.756Z" fill="#666666"/>
<path d="M399.274 166.756H396.914V169.116H399.274V166.756Z" fill="#4D4D4D"/>
<path d="M401.633 166.756H399.273V169.116H401.633V166.756Z" fill="#333333"/>
<path d="M403.994 166.756H401.635V169.116H403.994V166.756Z" fill="black"/>
<path d="M406.353 166.756H403.993V169.116H406.353V166.756Z" fill="white"/>
<path d="M349.721 169.115H347.362V171.475H349.721V169.115Z" fill="white"/>
<path d="M352.078 169.115H349.718V171.475H352.078V169.115Z" fill="white"/>
<path d="M354.439 169.115H352.079V171.475H354.439V169.115Z" fill="white"/>
<path d="M356.798 169.115H354.438V171.475H356.798V169.115Z" fill="black"/>
<path d="M359.157 169.115H356.797V171.475H359.157V169.115Z" fill="black"/>
<path d="M361.518 169.115H359.159V171.475H361.518V169.115Z" fill="#7A99B8"/>
<path d="M363.877 169.115H361.518V171.475H363.877V169.115Z" fill="#7A99B8"/>
<path d="M366.239 169.115H363.879V171.475H366.239V169.115Z" fill="#7A99B8"/>
<path d="M368.598 169.115H366.238V171.475H368.598V169.115Z" fill="#BDCCDB"/>
<path d="M370.959 169.115H368.599V171.475H370.959V169.115Z" fill="#BDCCDB"/>
<path d="M373.318 169.115H370.958V171.475H373.318V169.115Z" fill="#5980A6"/>
<path d="M375.677 169.115H373.317V171.475H375.677V169.115Z" fill="#5980A6"/>
<path d="M378.038 169.115H375.679V171.475H378.038V169.115Z" fill="#BDCCDB"/>
<path d="M380.398 169.115H378.038V171.475H380.398V169.115Z" fill="#7A99B8"/>
<path d="M382.756 169.115H380.397V171.475H382.756V169.115Z" fill="#BDCCDB"/>
<path d="M385.118 169.115H382.758V171.475H385.118V169.115Z" fill="#7A99B8"/>
<path d="M387.474 169.115H385.115V171.475H387.474V169.115Z" fill="#5980A6"/>
<path d="M389.836 169.115H387.476V171.475H389.836V169.115Z" fill="#5980A6"/>
<path d="M392.195 169.115H389.835V171.475H392.195V169.115Z" fill="#7A99B8"/>
<path d="M394.554 169.115H392.194V171.475H394.554V169.115Z" fill="#7A99B8"/>
<path d="M396.915 169.115H394.555V171.475H396.915V169.115Z" fill="#1A1A1A"/>
<path d="M399.274 169.115H396.914V171.475H399.274V169.115Z" fill="#1A1A1A"/>
<path d="M401.633 169.115H399.273V171.475H401.633V169.115Z" fill="#333333"/>
<path d="M403.994 169.115H401.635V171.475H403.994V169.115Z" fill="black"/>
<path d="M406.353 169.115H403.993V171.475H406.353V169.115Z" fill="white"/>
<path d="M354.439 171.474H352.079V173.833H354.439V171.474Z" fill="white"/>
<path d="M356.798 171.474H354.438V173.833H356.798V171.474Z" fill="white"/>
<path d="M359.157 171.474H356.797V173.833H359.157V171.474Z" fill="white"/>
<path d="M361.518 171.474H359.159V173.833H361.518V171.474Z" fill="black"/>
<path d="M363.877 171.474H361.518V173.833H363.877V171.474Z" fill="black"/>
<path d="M366.239 171.474H363.879V173.833H366.239V171.474Z" fill="#5980A6"/>
<path d="M368.598 171.474H366.238V173.833H368.598V171.474Z" fill="#7A99B8"/>
<path d="M370.959 171.474H368.599V173.833H370.959V171.474Z" fill="#BDCCDB"/>
<path d="M373.318 171.474H370.958V173.833H373.318V171.474Z" fill="#BDCCDB"/>
<path d="M375.677 171.474H373.317V173.833H375.677V171.474Z" fill="#BDCCDB"/>
<path d="M378.038 171.474H375.679V173.833H378.038V171.474Z" fill="#5980A6"/>
<path d="M380.398 171.474H378.038V173.833H380.398V171.474Z" fill="#5980A6"/>
<path d="M382.756 171.474H380.397V173.834H382.756V171.474Z" fill="#7A99B8"/>
<path d="M385.118 171.474H382.758V173.833H385.118V171.474Z" fill="#BDCCDB"/>
<path d="M387.474 171.474H385.115V173.833H387.474V171.474Z" fill="#7A99B8"/>
<path d="M389.836 171.474H387.476V173.834H389.836V171.474Z" fill="#BDCCDB"/>
<path d="M392.195 171.474H389.835V173.833H392.195V171.474Z" fill="#5980A6"/>
<path d="M394.554 171.474H392.194V173.833H394.554V171.474Z" fill="#5980A6"/>
<path d="M396.915 171.474H394.555V173.833H396.915V171.474Z" fill="#7A99B8"/>
<path d="M399.274 171.474H396.914V173.833H399.274V171.474Z" fill="#7A99B8"/>
<path d="M401.633 171.474H399.273V173.833H401.633V171.474Z" fill="black"/>
<path d="M403.994 171.474H401.635V173.833H403.994V171.474Z" fill="white"/>
<path d="M359.157 173.834H356.797V176.193H359.157V173.834Z" fill="white"/>
<path d="M361.518 173.834H359.159V176.194H361.518V173.834Z" fill="white"/>
<path d="M363.877 173.834H361.518V176.193H363.877V173.834Z" fill="white"/>
<path d="M366.239 173.834H363.879V176.193H366.239V173.834Z" fill="black"/>
<path d="M368.598 173.834H366.238V176.193H368.598V173.834Z" fill="black"/>
<path d="M370.959 173.834H368.599V176.193H370.959V173.834Z" fill="#7A99B8"/>
<path d="M373.318 173.834H370.958V176.193H373.318V173.834Z" fill="#5980A6"/>
<path d="M375.677 173.834H373.317V176.194H375.677V173.834Z" fill="#7A99B8"/>
<path d="M378.038 173.834H375.679V176.193H378.038V173.834Z" fill="#7A99B8"/>
<path d="M380.398 173.834H378.038V176.193H380.398V173.834Z" fill="#7A99B8"/>
<path d="M382.756 173.834H380.397V176.194H382.756V173.834Z" fill="#5980A6"/>
<path d="M385.118 173.834H382.758V176.193H385.118V173.834Z" fill="#5980A6"/>
<path d="M387.474 173.834H385.115V176.193H387.474V173.834Z" fill="#5980A6"/>
<path d="M389.836 173.834H387.476V176.194H389.836V173.834Z" fill="#5980A6"/>
<path d="M392.195 173.834H389.835V176.193H392.195V173.834Z" fill="#7A99B8"/>
<path d="M394.554 173.834H392.194V176.193H394.554V173.834Z" fill="#7A99B8"/>
<path d="M396.915 173.834H394.555V176.194H396.915V173.834Z" fill="black"/>
<path d="M399.274 173.834H396.914V176.193H399.274V173.834Z" fill="black"/>
<path d="M401.633 173.834H399.273V176.193H401.633V173.834Z" fill="white"/>
<path d="M363.877 176.194H361.518V178.553H363.877V176.194Z" fill="white"/>
<path d="M366.239 176.194H363.879V178.553H366.239V176.194Z" fill="white"/>
<path d="M368.598 176.194H366.238V178.553H368.598V176.194Z" fill="white"/>
<path d="M370.959 176.194H368.599V178.553H370.959V176.194Z" fill="black"/>
<path d="M373.318 176.194H370.958V178.553H373.318V176.194Z" fill="black"/>
<path d="M375.677 176.194H373.317V178.553H375.677V176.194Z" fill="#7A99B8"/>
<path d="M378.038 176.194H375.679V178.553H378.038V176.194Z" fill="#7A99B8"/>
<path d="M380.398 176.194H378.038V178.553H380.398V176.194Z" fill="#7A99B8"/>
<path d="M382.756 176.194H380.397V178.553H382.756V176.194Z" fill="#7A99B8"/>
<path d="M385.118 176.194H382.758V178.553H385.118V176.194Z" fill="#7A99B8"/>
<path d="M387.474 176.194H385.115V178.553H387.474V176.194Z" fill="#7A99B8"/>
<path d="M389.836 176.194H387.476V178.553H389.836V176.194Z" fill="#7A99B8"/>
<path d="M392.195 176.194H389.835V178.553H392.195V176.194Z" fill="black"/>
<path d="M394.554 176.194H392.194V178.553H394.554V176.194Z" fill="black"/>
<path d="M396.915 176.194H394.555V178.553H396.915V176.194Z" fill="white"/>
<path d="M399.274 176.194H396.914V178.553H399.274V176.194Z" fill="white"/>
<path d="M368.598 178.553H366.238V180.913H368.598V178.553Z" fill="white"/>
<path d="M370.959 178.553H368.599V180.913H370.959V178.553Z" fill="white"/>
<path d="M373.318 178.553H370.958V180.913H373.318V178.553Z" fill="white"/>
<path d="M375.677 178.553H373.317V180.913H375.677V178.553Z" fill="black"/>
<path d="M378.038 178.553H375.679V180.913H378.038V178.553Z" fill="black"/>
<path d="M380.395 178.553H378.035V180.913H380.395V178.553Z" fill="#7A99B8"/>
<path d="M382.756 178.553H380.397V180.913H382.756V178.553Z" fill="#7A99B8"/>
<path d="M385.118 178.553H382.758V180.913H385.118V178.553Z" fill="#7A99B8"/>
<path d="M387.474 178.553H385.115V180.913H387.474V178.553Z" fill="black"/>
<path d="M389.836 178.553H387.476V180.913H389.836V178.553Z" fill="black"/>
<path d="M392.195 178.553H389.835V180.913H392.195V178.553Z" fill="white"/>
<path d="M394.554 178.553H392.194V180.913H394.554V178.553Z" fill="white"/>
<path d="M373.318 180.913H370.958V183.273H373.318V180.913Z" fill="white"/>
<path d="M375.677 180.913H373.317V183.273H375.677V180.913Z" fill="white"/>
<path d="M378.038 180.913H375.679V183.273H378.038V180.913Z" fill="white"/>
<path d="M380.395 180.913H378.035V183.273H380.395V180.913Z" fill="black"/>
<path d="M382.756 180.913H380.397V183.273H382.756V180.913Z" fill="black"/>
<path d="M385.118 180.913H382.758V183.273H385.118V180.913Z" fill="black"/>
<path d="M387.474 180.913H385.115V183.273H387.474V180.913Z" fill="white"/>
<path d="M389.836 180.913H387.476V183.273H389.836V180.913Z" fill="white"/>
<path d="M378.038 183.274H375.679V185.633H378.038V183.274Z" fill="white"/>
<path d="M380.395 183.273H378.035V185.633H380.395V183.273Z" fill="white"/>
<path d="M382.756 183.273H380.397V185.633H382.756V183.273Z" fill="white"/>
<path d="M385.118 183.274H382.758V185.633H385.118V183.274Z" fill="white"/>
<path d="M387.474 183.273H385.115V185.633H387.474V183.273Z" fill="white"/>
<rect width="4.31334" height="8.62668" transform="matrix(-0.161131 0.986933 0.986933 0.161131 348.529 64.2474)" fill="white"/>
<rect width="4.31334" height="4.31334" transform="matrix(-0.161131 0.986933 0.986933 0.161131 349.224 59.9897)" fill="white"/>
<rect width="4.31334" height="4.31334" transform="matrix(-0.161131 0.986933 0.986933 0.161131 344.967 59.2948)" fill="white"/>
<rect width="4.31334" height="4.31334" transform="matrix(-0.161131 0.986933 0.986933 0.161131 345.662 55.0381)" fill="white"/>
<rect width="4.31334" height="4.31334" transform="matrix(-0.161131 0.986933 0.986933 0.161131 344.272 63.5525)" fill="black"/>
<rect width="322.935" height="4.31334" transform="matrix(0.986933 0.161131 0.161131 -0.986933 26.252 7.26013)" fill="white"/>
<rect width="322.935" height="4.31334" transform="matrix(0.986933 0.161131 0.161131 -0.986933 24.8618 15.7736)" fill="white"/>
<rect width="322.935" height="4.31334" transform="matrix(0.986933 0.161131 0.161131 -0.986933 25.5566 11.5168)" fill="black"/>
<rect width="4.31334" height="8.62668" transform="matrix(0.986933 0.161131 0.161131 -0.986933 21.2998 10.8221)" fill="white"/>
<rect width="4.31334" height="4.31334" transform="matrix(0.986933 0.161131 0.161131 -0.986933 17.0415 10.127)" fill="white"/>
<rect width="4.31334" height="4.31334" transform="matrix(0.986933 0.161131 0.161131 -0.986933 16.3467 14.3832)" fill="white"/>
<rect width="4.31334" height="4.31334" transform="matrix(0.986933 0.161131 0.161131 -0.986933 12.0884 13.6879)" fill="white"/>
<rect width="4.31334" height="4.31334" transform="matrix(0.986933 0.161131 0.161131 -0.986933 20.605 15.0784)" fill="black"/>
<rect width="44.6265" height="4.31334" transform="matrix(-0.161131 0.986933 0.986933 0.161131 352.09 69.1995)" fill="white"/>
<rect width="44.6265" height="4.31334" transform="matrix(-0.161131 0.986933 0.986933 0.161131 343.579 67.8098)" fill="white"/>
<rect width="44.6265" height="4.31334" transform="matrix(-0.161131 0.986933 0.986933 0.161131 347.832 68.5043)" fill="black"/>
<rect width="322.94" height="44.6267" transform="translate(24.8584 15.774) rotate(9.27255)" fill="white"/>
<path d="M49.2432 41.5939L45.3745 40.9623L44.7428 44.8311L48.6116 45.4627L47.98 49.3315L44.1112 48.6998L43.4796 52.5686L39.6108 51.937L40.2424 48.0682L36.3736 47.4366L35.742 51.3053L31.8732 50.6737L32.5049 46.8049L28.6361 46.1733L29.2677 42.3045L33.1365 42.9362L33.7681 39.0674L29.8993 38.4357L30.531 34.567L34.3998 35.1986L35.0314 31.3298L38.9002 31.9615L38.2685 35.8302L42.1373 36.4619L42.7689 32.5931L46.6377 33.2247L46.0061 37.0935L49.8749 37.7251L49.2432 41.5939ZM40.874 44.1994L41.5057 40.3306L37.6369 39.699L37.0053 43.5678L40.874 44.1994ZM65.3457 40.251L57.6081 38.9877L58.2397 35.1189L65.9773 36.3822L65.3457 40.251ZM55.7132 50.594L63.4508 51.8573L62.8191 55.7261L51.2128 53.8312L53.7393 38.3561L57.6081 38.9877L55.7132 50.594ZM81.4405 38.9068L78.2824 58.2507L66.676 56.3558L69.2026 40.8807L73.0713 41.5123L71.1764 53.1186L75.0452 53.7503L76.9401 42.1439L73.0713 41.5123L73.703 37.6435L81.4405 38.9068ZM95.6405 49.1689L95.0089 53.0377L87.2713 51.7744L86.6397 55.6432L94.3772 56.9065L93.7456 60.7753L82.1393 58.8804L85.2974 39.5365L96.9038 41.4314L96.2721 45.3002L88.5346 44.0369L87.9029 47.9057L95.6405 49.1689ZM99.5093 49.8006L95.6405 49.1689L96.2721 45.3002L100.141 45.9318L99.5093 49.8006ZM98.246 57.5381L94.3772 56.9065L95.0089 53.0377L98.8776 53.6693L98.246 57.5381ZM116.253 44.5904L114.358 56.1968L106.621 54.9335L105.357 62.6711L101.489 62.0394L104.647 42.6955L116.253 44.5904ZM111.121 51.6964L111.753 47.8276L107.884 47.1959L107.252 51.0647L111.121 51.6964ZM123.347 49.7205L122.715 53.5893L126.584 54.221L125.953 58.0897L122.084 57.4581L121.452 61.3269L129.19 62.5901L128.558 66.4589L116.952 64.564L120.11 45.2201L131.716 47.115L131.085 50.9838L123.347 49.7205ZM138.81 52.2451L142.679 52.8768L142.047 56.7455L138.179 56.1139L136.284 67.7202L132.415 67.0886L135.573 47.7447L139.442 48.3764L138.81 52.2451ZM151.048 50.2713L154.917 50.9029L151.759 70.2468L147.89 69.6151L149.785 58.0088L145.916 57.3772L146.548 53.5084L150.417 54.14L151.048 50.2713ZM141.416 60.6143L142.047 56.7455L145.916 57.3772L145.285 61.246L141.416 60.6143ZM162.019 56.0342L161.387 59.903L165.256 60.5346L164.624 64.4034L160.755 63.7718L160.124 67.6406L167.861 68.9038L167.23 72.7726L155.623 70.8777L158.782 51.5338L170.388 53.4287L169.756 57.2975L162.019 56.0342ZM181.982 55.3217L185.851 55.9533L182.693 75.2972L178.824 74.6656L180.087 66.928L176.219 66.2964L174.955 74.0339L171.087 73.4023L174.245 54.0584L178.114 54.6901L176.85 62.4276L180.719 63.0592L181.982 55.3217ZM197.446 57.8463L201.314 58.4779L198.156 77.8218L194.287 77.1902L195.551 69.4526L191.682 68.821L190.419 76.5585L186.55 75.9269L189.708 56.583L193.577 57.2147L192.314 64.9522L196.182 65.5838L197.446 57.8463ZM207.777 67.4768L215.514 68.7401L213.619 80.3464L202.013 78.4515L205.171 59.1076L209.04 59.7392L207.777 67.4768ZM220.646 61.6341L224.515 62.2658L221.357 81.6097L217.488 80.978L220.646 61.6341ZM210.382 75.846L211.014 71.9772L207.145 71.3456L206.513 75.2144L210.382 75.846ZM238.683 60.607L238.052 64.4758L234.183 63.8442L234.814 59.9754L238.683 60.607ZM230.985 71.2659L234.854 71.8975L234.222 75.7663L230.353 75.1347L229.09 82.8722L225.221 82.2406L228.38 62.8967L232.248 63.5283L230.985 71.2659ZM239.986 64.7916L243.855 65.4232L240.697 84.7671L236.828 84.1355L238.723 72.5292L234.854 71.8975L235.486 68.0288L239.354 68.6604L239.986 64.7916ZM267.08 69.2152L263.922 88.5591L252.316 86.6642L254.842 71.189L258.711 71.8207L256.816 83.427L260.685 84.0586L262.58 72.4523L258.711 71.8207L259.343 67.9519L267.08 69.2152ZM280.017 87.2149L283.886 87.8465L283.254 91.7153L271.648 89.8204L272.279 85.9516L276.148 86.5832L278.043 74.9769L274.174 74.3453L274.806 70.4765L286.412 72.3714L285.781 76.2402L281.912 75.6085L280.017 87.2149ZM272.279 85.9516L268.411 85.32L270.306 73.7136L274.174 74.3453L272.279 85.9516ZM285.781 76.2402L289.649 76.8718L287.755 88.4781L283.886 87.8465L285.781 76.2402ZM296.751 82.0031L300.62 82.6348L299.988 86.5036L296.119 85.8719L294.856 93.6095L290.987 92.9778L294.146 73.634L298.014 74.2656L296.751 82.0031ZM305.752 75.5289L309.621 76.1605L306.462 95.5044L302.594 94.8727L304.489 83.2664L300.62 82.6348L301.251 78.766L305.12 79.3976L305.752 75.5289ZM324.47 82.5567L316.732 81.2934L317.364 77.4246L325.101 78.6879L324.47 82.5567ZM314.837 92.8998L322.575 94.163L321.943 98.0318L310.337 96.1369L312.863 80.6618L316.732 81.2934L314.837 92.8998Z" fill="black"/>
<rect width="44.6266" height="4.31334" transform="matrix(-0.161131 0.986933 0.986933 0.161131 20.6016 15.0791)" fill="white"/>
<rect width="44.6266" height="4.31334" transform="matrix(-0.161131 0.986933 0.986933 0.161131 12.0879 13.6891)" fill="white"/>
<rect width="44.6266" height="4.31334" transform="matrix(-0.161131 0.986933 0.986933 0.161131 16.3452 14.3843)" fill="black"/>
<rect width="4.31334" height="17.2534" transform="matrix(-0.986933 -0.161131 -0.161131 0.986933 331.435 115.416)" fill="black"/>
<rect width="4.31334" height="8.62668" transform="matrix(-0.161131 0.986933 0.986933 0.161131 327.177 114.721)" fill="black"/>
<rect width="4.31334" height="4.31334" transform="matrix(-0.161131 0.986933 0.986933 0.161131 336.388 111.853)" fill="black"/>
<rect width="4.31334" height="4.31334" transform="matrix(-0.161131 0.986933 0.986933 0.161131 340.643 112.548)" fill="white"/>
<rect width="4.31334" height="4.31334" transform="matrix(-0.161131 0.986933 0.986933 0.161131 344.9 113.243)" fill="white"/>
<rect width="4.31334" height="4.31334" transform="matrix(-0.161131 0.986933 0.986933 0.161131 335.693 116.111)" fill="white"/>
<rect width="4.31334" height="4.31334" transform="matrix(-0.161131 0.986933 0.986933 0.161131 330.74 119.673)" fill="white"/>
<rect width="4.31334" height="4.31334" transform="matrix(-0.161131 0.986933 0.986933 0.161131 330.045 123.93)" fill="white"/>
<rect width="4.31334" height="4.31334" transform="matrix(-0.161131 0.986933 0.986933 0.161131 329.35 128.186)" fill="white"/>
<rect width="4.31334" height="4.31334" transform="matrix(-0.161131 0.986933 0.986933 0.161131 328.655 132.443)" fill="white"/>
<rect width="4.31334" height="4.31334" transform="matrix(-0.161131 0.986933 0.986933 0.161131 324.396 131.748)" fill="white"/>
<rect width="4.31334" height="4.31334" transform="matrix(-0.161131 0.986933 0.986933 0.161131 320.138 131.052)" fill="white"/>
<rect width="4.31334" height="4.31334" transform="matrix(-0.161131 0.986933 0.986933 0.161131 320.833 126.796)" fill="white"/>
<rect width="4.31334" height="4.31334" transform="matrix(-0.161131 0.986933 0.986933 0.161131 316.576 126.101)" fill="white"/>
<rect width="4.31334" height="4.31334" transform="matrix(-0.161131 0.986933 0.986933 0.161131 317.271 121.844)" fill="white"/>
<rect width="4.31334" height="4.31334" transform="matrix(-0.161131 0.986933 0.986933 0.161131 313.018 121.15)" fill="white"/>
<rect width="4.31334" height="4.31334" transform="matrix(-0.161131 0.986933 0.986933 0.161131 313.713 116.893)" fill="white"/>
<rect width="4.31334" height="4.31334" transform="matrix(-0.161131 0.986933 0.986933 0.161131 322.223 118.282)" fill="white"/>
<rect width="4.31334" height="4.31334" transform="matrix(-0.161131 0.986933 0.986933 0.161131 322.918 114.025)" fill="white"/>
<rect width="4.31334" height="4.31334" transform="matrix(-0.161131 0.986933 0.986933 0.161131 318.661 113.33)" fill="white"/>
<rect width="4.31334" height="4.31334" transform="matrix(-0.161131 0.986933 0.986933 0.161131 314.408 112.636)" fill="black"/>
<rect width="4.31334" height="4.31334" transform="matrix(-0.161131 0.986933 0.986933 0.161131 332.13 111.158)" fill="white"/>
<rect width="4.31334" height="4.31334" transform="matrix(-0.161131 0.986933 0.986933 0.161131 327.872 110.463)" fill="white"/>
<rect width="4.31334" height="4.31334" transform="matrix(-0.161131 0.986933 0.986933 0.161131 323.613 109.768)" fill="white"/>
<rect width="4.31334" height="4.31334" transform="matrix(-0.161131 0.986933 0.986933 0.161131 319.357 109.073)" fill="white"/>
<rect width="4.31334" height="4.31334" transform="matrix(-0.161131 0.986933 0.986933 0.161131 315.103 108.378)" fill="white"/>
<rect width="4.31334" height="4.31334" transform="matrix(-0.161131 0.986933 0.986933 0.161131 334.998 120.368)" fill="white"/>
<rect width="4.31334" height="4.31334" transform="matrix(-0.161131 0.986933 0.986933 0.161131 339.948 116.806)" fill="white"/>
<rect width="4.31334" height="4.31334" transform="matrix(-0.161131 0.986933 0.986933 0.161131 321.528 122.539)" fill="black"/>
<rect width="4.31334" height="4.31334" transform="matrix(-0.161131 0.986933 0.986933 0.161131 317.966 117.588)" fill="black"/>
<rect width="4.31334" height="301.372" transform="matrix(-0.161131 0.986933 0.986933 0.161131 16.2783 68.3319)" fill="white"/>
<rect width="4.31334" height="301.372" transform="matrix(-0.161131 0.986933 0.986933 0.161131 17.6685 59.8176)" fill="white"/>
<rect width="4.31334" height="301.372" transform="matrix(-0.161131 0.986933 0.986933 0.161131 16.9736 64.0745)" fill="black"/>
<rect width="4.31334" height="8.62668" transform="matrix(0.161131 -0.986933 -0.986933 -0.161131 12.7168 63.3796)" fill="white"/>
<rect width="4.31334" height="4.31334" transform="matrix(0.161131 -0.986933 -0.986933 -0.161131 12.0215 67.6378)" fill="white"/>
<rect width="4.31334" height="4.31334" transform="matrix(0.161131 -0.986933 -0.986933 -0.161131 16.2783 68.3328)" fill="white"/>
<rect width="4.31334" height="4.31334" transform="matrix(0.161131 -0.986933 -0.986933 -0.161131 15.583 72.5895)" fill="white"/>
<rect width="4.31334" height="4.31334" transform="matrix(0.161131 -0.986933 -0.986933 -0.161131 16.9731 64.0746)" fill="black"/>
</svg>
