<svg width="456" height="177" viewBox="0 0 456 177" fill="none" xmlns="http://www.w3.org/2000/svg">
<path d="M72.1252 103.478L69.9272 102.889L69.3382 105.088L71.5361 105.677L72.1252 103.478Z" fill="white"/>
<path d="M74.3229 104.067L72.125 103.478L71.5359 105.677L73.7338 106.266L74.3229 104.067Z" fill="white"/>
<path d="M76.5212 104.656L74.3232 104.067L73.7342 106.265L75.9321 106.854L76.5212 104.656Z" fill="white"/>
<path d="M78.7189 105.245L76.521 104.656L75.9319 106.855L78.1298 107.443L78.7189 105.245Z" fill="white"/>
<path d="M67.1408 104.498L64.9429 103.909L64.3538 106.108L66.5517 106.697L67.1408 104.498Z" fill="white"/>
<path d="M69.3385 105.087L67.1406 104.498L66.5516 106.696L68.7495 107.285L69.3385 105.087Z" fill="white"/>
<path d="M71.5368 105.676L69.3389 105.087L68.7498 107.286L70.9477 107.875L71.5368 105.676Z" fill="black"/>
<path d="M73.7345 106.265L71.5366 105.676L70.9475 107.874L73.1455 108.463L73.7345 106.265Z" fill="black"/>
<path d="M75.9318 106.854L73.7339 106.265L73.1448 108.463L75.3427 109.052L75.9318 106.854Z" fill="black"/>
<path d="M78.1296 107.443L75.9316 106.854L75.3426 109.053L77.5405 109.642L78.1296 107.443Z" fill="black"/>
<path d="M80.3283 108.031L78.1304 107.443L77.5413 109.641L79.7392 110.23L80.3283 108.031Z" fill="white"/>
<path d="M64.3532 106.109L62.1553 105.52L61.5662 107.719L63.7641 108.307L64.3532 106.109Z" fill="white"/>
<path d="M66.5514 106.697L64.3535 106.108L63.7644 108.307L65.9623 108.896L66.5514 106.697Z" fill="black"/>
<path d="M68.7492 107.287L66.5513 106.698L65.9622 108.896L68.1601 109.485L68.7492 107.287Z" fill="black"/>
<path d="M70.9474 107.875L68.7495 107.286L68.1604 109.485L70.3583 110.073L70.9474 107.875Z" fill="#F2E5D9"/>
<path d="M73.1452 108.464L70.9473 107.875L70.3582 110.074L72.5561 110.663L73.1452 108.464Z" fill="#F2E5D9"/>
<path d="M75.3424 109.054L73.1445 108.465L72.5555 110.663L74.7534 111.252L75.3424 109.054Z" fill="#F2E5D9"/>
<path d="M77.5407 109.642L75.3428 109.053L74.7537 111.251L76.9516 111.84L77.5407 109.642Z" fill="#F2E5D9"/>
<path d="M79.7389 110.231L77.541 109.642L76.9519 111.841L79.1498 112.43L79.7389 110.231Z" fill="black"/>
<path d="M81.9367 110.82L79.7388 110.232L79.1497 112.43L81.3476 113.019L81.9367 110.82Z" fill="white"/>
<path d="M61.5671 107.718L59.3691 107.129L58.7801 109.327L60.978 109.916L61.5671 107.718Z" fill="white"/>
<path d="M63.7648 108.306L61.5669 107.717L60.9778 109.916L63.1757 110.505L63.7648 108.306Z" fill="black"/>
<path d="M65.9621 108.895L63.7642 108.307L63.1751 110.505L65.373 111.094L65.9621 108.895Z" fill="#F2E5D9"/>
<path d="M68.1598 109.485L65.9619 108.896L65.3728 111.094L67.5708 111.683L68.1598 109.485Z" fill="#F2E5D9"/>
<path d="M70.3581 110.073L68.1602 109.484L67.5711 111.683L69.769 112.272L70.3581 110.073Z" fill="#E6CBB3"/>
<path d="M72.5558 110.662L70.3579 110.073L69.7688 112.272L71.9667 112.861L72.5558 110.662Z" fill="#E6CBB3"/>
<path d="M74.7541 111.252L72.5562 110.663L71.9671 112.861L74.165 113.45L74.7541 111.252Z" fill="black"/>
<path d="M76.9523 111.84L74.7544 111.251L74.1653 113.449L76.3632 114.038L76.9523 111.84Z" fill="#E6CBB3"/>
<path d="M79.1496 112.429L76.9517 111.84L76.3626 114.039L78.5605 114.628L79.1496 112.429Z" fill="black"/>
<path d="M81.3473 113.018L79.1494 112.429L78.5603 114.627L80.7583 115.216L81.3473 113.018Z" fill="white"/>
<path d="M58.7795 109.327L56.5815 108.739L55.9925 110.937L58.1904 111.526L58.7795 109.327Z" fill="white"/>
<path d="M60.9777 109.916L58.7798 109.327L58.1907 111.525L60.3886 112.114L60.9777 109.916Z" fill="black"/>
<path d="M63.1755 110.505L60.9775 109.916L60.3885 112.115L62.5864 112.704L63.1755 110.505Z" fill="#D8B18D"/>
<path d="M65.3727 111.094L63.1748 110.505L62.5857 112.704L64.7836 113.293L65.3727 111.094Z" fill="#E6CBB3"/>
<path d="M67.5705 111.683L65.3726 111.094L64.7835 113.292L66.9814 113.881L67.5705 111.683Z" fill="#E6CBB3"/>
<path d="M69.7687 112.272L67.5708 111.683L66.9817 113.882L69.1796 114.47L69.7687 112.272Z" fill="#E6CBB3"/>
<path d="M71.967 112.86L69.769 112.271L69.18 114.47L71.3779 115.059L71.967 112.86Z" fill="black"/>
<path d="M74.1647 113.45L71.9668 112.861L71.3777 115.059L73.5756 115.648L74.1647 113.45Z" fill="#D8B18D"/>
<path d="M76.363 114.039L74.165 113.45L73.576 115.648L75.7739 116.237L76.363 114.039Z" fill="#E6CBB3"/>
<path d="M78.5607 114.627L76.3628 114.038L75.7737 116.237L77.9716 116.826L78.5607 114.627Z" fill="#F2E5D9"/>
<path d="M80.758 115.217L78.5601 114.628L77.971 116.826L80.1689 117.415L80.758 115.217Z" fill="black"/>
<path d="M82.9562 115.806L80.7583 115.217L80.1692 117.415L82.3671 118.004L82.9562 115.806Z" fill="white"/>
<path d="M55.9923 110.937L53.7944 110.348L53.2054 112.547L55.4033 113.136L55.9923 110.937Z" fill="white"/>
<path d="M58.1901 111.525L55.9922 110.937L55.4031 113.135L57.601 113.724L58.1901 111.525Z" fill="black"/>
<path d="M60.3883 112.115L58.1904 111.526L57.6014 113.724L59.7993 114.313L60.3883 112.115Z" fill="#D8B18D"/>
<path d="M62.5861 112.704L60.3882 112.115L59.7991 114.314L61.997 114.902L62.5861 112.704Z" fill="#E6CBB3"/>
<path d="M64.7838 113.292L62.5859 112.703L61.9969 114.902L64.1948 115.491L64.7838 113.292Z" fill="#E6CBB3"/>
<path d="M66.9826 113.882L64.7847 113.293L64.1956 115.491L66.3935 116.08L66.9826 113.882Z" fill="#E6CBB3"/>
<path d="M69.1798 114.471L66.9819 113.882L66.3929 116.08L68.5908 116.669L69.1798 114.471Z" fill="#E6CBB3"/>
<path d="M71.3776 115.059L69.1797 114.47L68.5906 116.669L70.7885 117.258L71.3776 115.059Z" fill="black"/>
<path d="M73.5754 115.649L71.3774 115.06L70.7884 117.258L72.9863 117.847L73.5754 115.649Z" fill="#D8B18D"/>
<path d="M75.7736 116.237L73.5757 115.648L72.9866 117.846L75.1845 118.435L75.7736 116.237Z" fill="#F2E5D9"/>
<path d="M77.9713 116.826L75.7734 116.237L75.1844 118.436L77.3823 119.025L77.9713 116.826Z" fill="#F2E5D9"/>
<path d="M80.1691 117.416L77.9712 116.827L77.3821 119.025L79.58 119.614L80.1691 117.416Z" fill="black"/>
<path d="M82.3669 118.004L80.1689 117.415L79.5799 119.613L81.7778 120.202L82.3669 118.004Z" fill="white"/>
<path d="M55.4035 113.136L53.2056 112.547L52.6165 114.746L54.8144 115.334L55.4035 113.136Z" fill="white"/>
<path d="M57.6007 113.724L55.4028 113.135L54.8138 115.334L57.0117 115.923L57.6007 113.724Z" fill="black"/>
<path d="M59.799 114.314L57.6011 113.725L57.012 115.923L59.2099 116.512L59.799 114.314Z" fill="#D8B18D"/>
<path d="M61.9972 114.902L59.7993 114.313L59.2102 116.512L61.4082 117.1L61.9972 114.902Z" fill="#E6CBB3"/>
<path d="M64.195 115.491L61.9971 114.902L61.408 117.101L63.6059 117.69L64.195 115.491Z" fill="#E6CBB3"/>
<path d="M66.3932 116.081L64.1953 115.492L63.6062 117.69L65.8041 118.279L66.3932 116.081Z" fill="#E6CBB3"/>
<path d="M68.591 116.669L66.3931 116.08L65.804 118.279L68.0019 118.867L68.591 116.669Z" fill="#E6CBB3"/>
<path d="M70.7882 117.258L68.5903 116.669L68.0013 118.868L70.1992 119.457L70.7882 117.258Z" fill="#CD986A"/>
<path d="M72.986 117.847L70.7881 117.259L70.199 119.457L72.3969 120.046L72.986 117.847Z" fill="black"/>
<path d="M75.1847 118.436L72.9868 117.847L72.3977 120.045L74.5957 120.634L75.1847 118.436Z" fill="black"/>
<path d="M77.3825 119.025L75.1846 118.436L74.5955 120.635L76.7934 121.224L77.3825 119.025Z" fill="black"/>
<path d="M79.5807 119.614L77.3828 119.025L76.7937 121.223L78.9916 121.812L79.5807 119.614Z" fill="white"/>
<path d="M54.8141 115.334L52.6162 114.745L52.0271 116.944L54.225 117.533L54.8141 115.334Z" fill="white"/>
<path d="M57.0124 115.923L54.8145 115.334L54.2254 117.533L56.4233 118.122L57.0124 115.923Z" fill="black"/>
<path d="M59.2096 116.512L57.0117 115.923L56.4226 118.121L58.6206 118.71L59.2096 116.512Z" fill="#D8B18D"/>
<path d="M61.4079 117.101L59.21 116.512L58.6209 118.71L60.8188 119.299L61.4079 117.101Z" fill="#E6CBB3"/>
<path d="M63.6056 117.69L61.4077 117.101L60.8186 119.3L63.0165 119.889L63.6056 117.69Z" fill="#E6CBB3"/>
<path d="M65.8039 118.279L63.606 117.69L63.0169 119.888L65.2148 120.477L65.8039 118.279Z" fill="#E6CBB3"/>
<path d="M68.0016 118.868L65.8037 118.279L65.2146 120.477L67.4125 121.066L68.0016 118.868Z" fill="#D8B18D"/>
<path d="M70.1999 119.456L68.002 118.867L67.4129 121.066L69.6108 121.655L70.1999 119.456Z" fill="black"/>
<path d="M72.3971 120.046L70.1992 119.457L69.6101 121.655L71.8081 122.244L72.3971 120.046Z" fill="white"/>
<path d="M74.5954 120.635L72.3975 120.046L71.8084 122.244L74.0063 122.833L74.5954 120.635Z" fill="white"/>
<path d="M76.7931 121.223L74.5952 120.634L74.0061 122.833L76.204 123.422L76.7931 121.223Z" fill="white"/>
<path d="M54.2253 117.533L52.0273 116.944L51.4383 119.142L53.6362 119.731L54.2253 117.533Z" fill="white"/>
<path d="M56.4235 118.121L54.2256 117.532L53.6365 119.731L55.8344 120.32L56.4235 118.121Z" fill="black"/>
<path d="M58.6212 118.711L56.4233 118.122L55.8343 120.32L58.0322 120.909L58.6212 118.711Z" fill="#D8B18D"/>
<path d="M60.8185 119.3L58.6206 118.711L58.0315 120.909L60.2294 121.498L60.8185 119.3Z" fill="#E6CBB3"/>
<path d="M63.0163 119.888L60.8184 119.299L60.2293 121.498L62.4272 122.087L63.0163 119.888Z" fill="#E6CBB3"/>
<path d="M65.2145 120.478L63.0166 119.889L62.4275 122.087L64.6254 122.676L65.2145 120.478Z" fill="#F2E5D9"/>
<path d="M67.4128 121.067L65.2148 120.478L64.6258 122.676L66.8237 123.265L67.4128 121.067Z" fill="black"/>
<path d="M69.611 121.655L67.4131 121.066L66.824 123.265L69.0219 123.854L69.611 121.655Z" fill="white"/>
<path d="M53.6359 119.731L51.438 119.142L50.8489 121.341L53.0468 121.929L53.6359 119.731Z" fill="white"/>
<path d="M55.8341 120.319L53.6362 119.73L53.0472 121.929L55.2451 122.518L55.8341 120.319Z" fill="black"/>
<path d="M58.0319 120.909L55.834 120.32L55.2449 122.518L57.4428 123.107L58.0319 120.909Z" fill="#D8B18D"/>
<path d="M60.2301 121.497L58.0322 120.908L57.4432 123.107L59.6411 123.696L60.2301 121.497Z" fill="#E6CBB3"/>
<path d="M62.4279 122.086L60.23 121.497L59.6409 123.696L61.8388 124.285L62.4279 122.086Z" fill="#E6CBB3"/>
<path d="M64.6256 122.676L62.4277 122.087L61.8387 124.285L64.0366 124.874L64.6256 122.676Z" fill="black"/>
<path d="M66.8234 123.264L64.6255 122.675L64.0364 124.874L66.2343 125.462L66.8234 123.264Z" fill="white"/>
<path d="M50.8498 121.341L48.6519 120.752L48.0628 122.95L50.2607 123.539L50.8498 121.341Z" fill="white"/>
<path d="M53.0465 121.929L50.8486 121.34L50.2596 123.539L52.4575 124.128L53.0465 121.929Z" fill="black"/>
<path d="M55.2448 122.518L53.0469 121.929L52.4578 124.128L54.6557 124.717L55.2448 122.518Z" fill="#D8B18D"/>
<path d="M57.4425 123.107L55.2446 122.518L54.6556 124.716L56.8535 125.305L57.4425 123.107Z" fill="#E6CBB3"/>
<path d="M59.6408 123.696L57.4429 123.107L56.8538 125.306L59.0517 125.895L59.6408 123.696Z" fill="#E6CBB3"/>
<path d="M61.839 124.285L59.6411 123.696L59.052 125.895L61.2499 126.484L61.839 124.285Z" fill="#E6CBB3"/>
<path d="M64.0368 124.874L61.8389 124.285L61.2498 126.483L63.4477 127.072L64.0368 124.874Z" fill="black"/>
<path d="M66.234 125.463L64.0361 124.874L63.4471 127.072L65.645 127.661L66.234 125.463Z" fill="white"/>
<path d="M50.2604 123.539L48.0625 122.95L47.4734 125.148L49.6713 125.737L50.2604 123.539Z" fill="white"/>
<path d="M52.4582 124.128L50.2603 123.539L49.6712 125.738L51.8691 126.326L52.4582 124.128Z" fill="black"/>
<path d="M54.6554 124.716L52.4575 124.127L51.8684 126.326L54.0664 126.915L54.6554 124.716Z" fill="#D8B18D"/>
<path d="M56.8537 125.306L54.6558 124.717L54.0667 126.915L56.2646 127.504L56.8537 125.306Z" fill="#E6CBB3"/>
<path d="M59.0519 125.895L56.854 125.306L56.2649 127.504L58.4628 128.093L59.0519 125.895Z" fill="#E6CBB3"/>
<path d="M61.2497 126.483L59.0518 125.894L58.4627 128.093L60.6606 128.682L61.2497 126.483Z" fill="#E6CBB3"/>
<path d="M63.4474 127.073L61.2495 126.484L60.6604 128.682L62.8584 129.271L63.4474 127.073Z" fill="black"/>
<path d="M65.6457 127.661L63.4478 127.072L62.8587 129.27L65.0566 129.859L65.6457 127.661Z" fill="white"/>
<path d="M47.4728 125.148L45.2749 124.559L44.6858 126.757L46.8837 127.346L47.4728 125.148Z" fill="white"/>
<path d="M49.6711 125.737L47.4731 125.148L46.8841 127.346L49.082 127.935L49.6711 125.737Z" fill="black"/>
<path d="M51.8688 126.326L49.6709 125.737L49.0818 127.936L51.2797 128.525L51.8688 126.326Z" fill="#D8B18D"/>
<path d="M54.067 126.914L51.8691 126.326L51.2801 128.524L53.478 129.113L54.067 126.914Z" fill="#E6CBB3"/>
<path d="M56.2653 127.504L54.0674 126.915L53.4783 129.113L55.6762 129.702L56.2653 127.504Z" fill="#E6CBB3"/>
<path d="M58.463 128.092L56.2651 127.503L55.6761 129.702L57.874 130.291L58.463 128.092Z" fill="#E6CBB3"/>
<path d="M60.6603 128.681L58.4624 128.092L57.8733 130.291L60.0712 130.88L60.6603 128.681Z" fill="#E6CBB3"/>
<path d="M62.8581 129.271L60.6602 128.682L60.0711 130.88L62.269 131.469L62.8581 129.271Z" fill="black"/>
<path d="M65.0563 129.859L62.8584 129.27L62.2693 131.469L64.4672 132.057L65.0563 129.859Z" fill="white"/>
<path d="M46.8835 127.347L44.6855 126.758L44.0965 128.957L46.2944 129.546L46.8835 127.347Z" fill="white"/>
<path d="M49.0822 127.937L46.8843 127.348L46.2952 129.546L48.4931 130.135L49.0822 127.937Z" fill="black"/>
<path d="M51.2799 128.525L49.082 127.936L48.493 130.134L50.6909 130.723L51.2799 128.525Z" fill="#D8B18D"/>
<path d="M53.4777 129.114L51.2798 128.525L50.6907 130.724L52.8886 131.313L53.4777 129.114Z" fill="#E6CBB3"/>
<path d="M55.6759 129.703L53.478 129.114L52.889 131.312L55.0869 131.901L55.6759 129.703Z" fill="#E6CBB3"/>
<path d="M57.8732 130.292L55.6753 129.703L55.0862 131.901L57.2841 132.49L57.8732 130.292Z" fill="#E6CBB3"/>
<path d="M60.071 130.881L57.873 130.292L57.284 132.491L59.4819 133.08L60.071 130.881Z" fill="#E6CBB3"/>
<path d="M62.2687 131.47L60.0708 130.881L59.4817 133.079L61.6796 133.668L62.2687 131.47Z" fill="#E6CBB3"/>
<path d="M64.4674 132.059L62.2695 131.47L61.6805 133.668L63.8784 134.257L64.4674 132.059Z" fill="black"/>
<path d="M66.6652 132.647L64.4673 132.058L63.8782 134.257L66.0761 134.846L66.6652 132.647Z" fill="white"/>
<path d="M46.2956 129.545L44.0977 128.956L43.5086 131.155L45.7065 131.744L46.2956 129.545Z" fill="white"/>
<path d="M48.4928 130.134L46.2949 129.545L45.7058 131.743L47.9038 132.332L48.4928 130.134Z" fill="black"/>
<path d="M50.6906 130.723L48.4927 130.134L47.9036 132.333L50.1015 132.921L50.6906 130.723Z" fill="#D8B18D"/>
<path d="M52.8883 131.311L50.6904 130.722L50.1014 132.921L52.2993 133.51L52.8883 131.311Z" fill="#E6CBB3"/>
<path d="M55.0866 131.901L52.8887 131.312L52.2996 133.51L54.4975 134.099L55.0866 131.901Z" fill="white"/>
<path d="M57.2843 132.49L55.0864 131.901L54.4974 134.099L56.6953 134.688L57.2843 132.49Z" fill="#E6CBB3"/>
<path d="M59.4831 133.078L57.2852 132.489L56.6961 134.688L58.894 135.277L59.4831 133.078Z" fill="#E6CBB3"/>
<path d="M61.6808 133.668L59.4829 133.079L58.8938 135.277L61.0917 135.866L61.6808 133.668Z" fill="#E6CBB3"/>
<path d="M63.8781 134.257L61.6802 133.668L61.0911 135.866L63.289 136.455L63.8781 134.257Z" fill="black"/>
<path d="M66.0758 134.845L63.8779 134.256L63.2889 136.455L65.4868 137.044L66.0758 134.845Z" fill="white"/>
<path d="M77.0656 137.79L74.8677 137.201L74.2786 139.399L76.4765 139.988L77.0656 137.79Z" fill="white"/>
<path d="M79.2633 138.379L77.0654 137.79L76.4764 139.989L78.6743 140.577L79.2633 138.379Z" fill="white"/>
<path d="M81.4616 138.968L79.2637 138.379L78.6746 140.578L80.8725 141.167L81.4616 138.968Z" fill="white"/>
<path d="M83.6593 139.557L81.4614 138.968L80.8724 141.166L83.0703 141.755L83.6593 139.557Z" fill="white"/>
<path d="M85.8576 140.146L83.6597 139.557L83.0706 141.756L85.2685 142.344L85.8576 140.146Z" fill="white"/>
<path d="M88.0558 140.734L85.8579 140.145L85.2688 142.344L87.4667 142.933L88.0558 140.734Z" fill="white"/>
<path d="M45.7062 131.743L43.5083 131.154L42.9192 133.353L45.1171 133.942L45.7062 131.743Z" fill="white"/>
<path d="M47.904 132.333L45.7061 131.744L45.117 133.942L47.3149 134.531L47.904 132.333Z" fill="black"/>
<path d="M50.1012 132.922L47.9033 132.333L47.3142 134.531L49.5122 135.12L50.1012 132.922Z" fill="#D8B18D"/>
<path d="M52.299 133.51L50.1011 132.921L49.512 135.12L51.7099 135.709L52.299 133.51Z" fill="#E6CBB3"/>
<path d="M54.4972 134.1L52.2993 133.511L51.7102 135.709L53.9082 136.298L54.4972 134.1Z" fill="#E6CBB3"/>
<path d="M56.6955 134.688L54.4976 134.099L53.9085 136.298L56.1064 136.886L56.6955 134.688Z" fill="#E6CBB3"/>
<path d="M58.8937 135.277L56.6958 134.688L56.1067 136.887L58.3046 137.476L58.8937 135.277Z" fill="#E6CBB3"/>
<path d="M61.0915 135.866L58.8936 135.278L58.3045 137.476L60.5024 138.065L61.0915 135.866Z" fill="#E6CBB3"/>
<path d="M63.2887 136.455L61.0908 135.866L60.5017 138.064L62.6997 138.653L63.2887 136.455Z" fill="black"/>
<path d="M65.4865 137.044L63.2886 136.455L62.6995 138.654L64.8974 139.243L65.4865 137.044Z" fill="white"/>
<path d="M72.0812 138.811L69.8833 138.222L69.2942 140.421L71.4921 141.01L72.0812 138.811Z" fill="white"/>
<path d="M74.279 139.399L72.0811 138.811L71.492 141.009L73.6899 141.598L74.279 139.399Z" fill="white"/>
<path d="M76.4767 139.989L74.2788 139.4L73.6897 141.598L75.8876 142.187L76.4767 139.989Z" fill="black"/>
<path d="M78.674 140.578L76.4761 139.989L75.887 142.188L78.0849 142.776L78.674 140.578Z" fill="black"/>
<path d="M80.8722 141.166L78.6743 140.577L78.0852 142.776L80.2832 143.365L80.8722 141.166Z" fill="black"/>
<path d="M83.0705 141.756L80.8726 141.167L80.2835 143.365L82.4814 143.954L83.0705 141.756Z" fill="black"/>
<path d="M85.2682 142.344L83.0703 141.755L82.4812 143.954L84.6792 144.542L85.2682 142.344Z" fill="black"/>
<path d="M87.4665 142.933L85.2686 142.344L84.6795 144.543L86.8774 145.132L87.4665 142.933Z" fill="black"/>
<path d="M89.6637 143.523L87.4658 142.934L86.8767 145.132L89.0747 145.721L89.6637 143.523Z" fill="white"/>
<path d="M91.8615 144.111L89.6636 143.522L89.0745 145.72L91.2724 146.309L91.8615 144.111Z" fill="white"/>
<path d="M42.9186 133.353L40.7207 132.764L40.1316 134.963L42.3295 135.552L42.9186 133.353Z" fill="white"/>
<path d="M45.1169 133.942L42.9189 133.353L42.3299 135.552L44.5278 136.141L45.1169 133.942Z" fill="black"/>
<path d="M47.3146 134.532L45.1167 133.943L44.5276 136.141L46.7255 136.73L47.3146 134.532Z" fill="#D8B18D"/>
<path d="M49.5129 135.12L47.3149 134.531L46.7259 136.73L48.9238 137.318L49.5129 135.12Z" fill="#E6CBB3"/>
<path d="M51.7101 135.709L49.5122 135.12L48.9231 137.319L51.121 137.908L51.7101 135.709Z" fill="#E6CBB3"/>
<path d="M53.9084 136.298L51.7104 135.709L51.1214 137.907L53.3193 138.496L53.9084 136.298Z" fill="#E6CBB3"/>
<path d="M56.1061 136.887L53.9082 136.298L53.3191 138.496L55.517 139.085L56.1061 136.887Z" fill="#E6CBB3"/>
<path d="M58.3044 137.476L56.1064 136.887L55.5174 139.086L57.7153 139.675L58.3044 137.476Z" fill="#E6CBB3"/>
<path d="M60.5021 138.065L58.3042 137.476L57.7151 139.674L59.913 140.263L60.5021 138.065Z" fill="#E6CBB3"/>
<path d="M62.7003 138.654L60.5024 138.065L59.9134 140.263L62.1113 140.852L62.7003 138.654Z" fill="black"/>
<path d="M64.8976 139.243L62.6997 138.654L62.1106 140.853L64.3085 141.442L64.8976 139.243Z" fill="white"/>
<path d="M69.2936 140.421L67.0957 139.832L66.5066 142.03L68.7045 142.619L69.2936 140.421Z" fill="white"/>
<path d="M71.4919 141.009L69.2939 140.42L68.7049 142.619L70.9028 143.208L71.4919 141.009Z" fill="black"/>
<path d="M73.6896 141.598L71.4917 141.009L70.9026 143.208L73.1005 143.797L73.6896 141.598Z" fill="black"/>
<path d="M75.8874 142.188L73.6895 141.599L73.1004 143.797L75.2983 144.386L75.8874 142.188Z" fill="#F2E5D9"/>
<path d="M78.0856 142.776L75.8877 142.187L75.2986 144.386L77.4965 144.975L78.0856 142.776Z" fill="#F2E5D9"/>
<path d="M80.2834 143.365L78.0854 142.776L77.4964 144.975L79.6943 145.564L80.2834 143.365Z" fill="#F2E5D9"/>
<path d="M82.4811 143.954L80.2832 143.365L79.6941 145.563L81.892 146.152L82.4811 143.954Z" fill="#F2E5D9"/>
<path d="M84.6789 144.543L82.481 143.954L81.8919 146.152L84.0898 146.741L84.6789 144.543Z" fill="#F2E5D9"/>
<path d="M86.8771 145.132L84.6792 144.543L84.0901 146.742L86.288 147.331L86.8771 145.132Z" fill="#F2E5D9"/>
<path d="M89.0749 145.721L86.877 145.132L86.2879 147.33L88.4858 147.919L89.0749 145.721Z" fill="black"/>
<path d="M91.2731 146.31L89.0752 145.721L88.4861 147.919L90.684 148.508L91.2731 146.31Z" fill="black"/>
<path d="M93.4704 146.899L91.2725 146.31L90.6834 148.509L92.8813 149.098L93.4704 146.899Z" fill="white"/>
<path d="M42.3293 135.551L40.1313 134.962L39.5423 137.161L41.7402 137.75L42.3293 135.551Z" fill="white"/>
<path d="M44.5275 136.14L42.3296 135.551L41.7405 137.75L43.9384 138.339L44.5275 136.14Z" fill="black"/>
<path d="M46.7253 136.729L44.5273 136.14L43.9383 138.338L46.1362 138.927L46.7253 136.729Z" fill="#D8B18D"/>
<path d="M48.924 137.318L46.7261 136.729L46.137 138.928L48.3349 139.517L48.924 137.318Z" fill="#E6CBB3"/>
<path d="M51.1217 137.907L48.9238 137.318L48.3348 139.517L50.5327 140.106L51.1217 137.907Z" fill="white"/>
<path d="M53.32 138.496L51.1221 137.907L50.533 140.105L52.7309 140.694L53.32 138.496Z" fill="#E6CBB3"/>
<path d="M55.5177 139.085L53.3198 138.496L52.7308 140.694L54.9287 141.283L55.5177 139.085Z" fill="#E6CBB3"/>
<path d="M57.715 139.673L55.5171 139.084L54.928 141.283L57.1259 141.872L57.715 139.673Z" fill="#E6CBB3"/>
<path d="M59.9128 140.263L57.7148 139.674L57.1258 141.872L59.3237 142.461L59.9128 140.263Z" fill="#E6CBB3"/>
<path d="M62.1115 140.852L59.9136 140.263L59.3245 142.461L61.5224 143.05L62.1115 140.852Z" fill="black"/>
<path d="M64.3092 141.44L62.1113 140.851L61.5223 143.05L63.7202 143.639L64.3092 141.44Z" fill="white"/>
<path d="M66.507 142.029L64.3091 141.441L63.72 143.639L65.9179 144.228L66.507 142.029Z" fill="white"/>
<path d="M68.7052 142.618L66.5073 142.029L65.9183 144.227L68.1162 144.816L68.7052 142.618Z" fill="black"/>
<path d="M70.9025 143.207L68.7046 142.618L68.1155 144.817L70.3134 145.406L70.9025 143.207Z" fill="#F2E5D9"/>
<path d="M73.1003 143.796L70.9023 143.208L70.3133 145.406L72.5112 145.995L73.1003 143.796Z" fill="#F2E5D9"/>
<path d="M75.2985 144.385L73.1006 143.796L72.5115 145.994L74.7094 146.583L75.2985 144.385Z" fill="#E6CBB3"/>
<path d="M77.4967 144.974L75.2988 144.385L74.7098 146.584L76.9077 147.173L77.4967 144.974Z" fill="#E6CBB3"/>
<path d="M79.6945 145.563L77.4966 144.974L76.9075 147.173L79.1054 147.762L79.6945 145.563Z" fill="#E6CBB3"/>
<path d="M81.8927 146.152L79.6948 145.563L79.1058 147.761L81.3037 148.35L81.8927 146.152Z" fill="#E6CBB3"/>
<path d="M84.0905 146.741L81.8926 146.152L81.3035 148.35L83.5014 148.939L84.0905 146.741Z" fill="#E6CBB3"/>
<path d="M86.2878 147.329L84.0898 146.74L83.5008 148.939L85.6987 149.528L86.2878 147.329Z" fill="#E6CBB3"/>
<path d="M88.486 147.919L86.2881 147.33L85.699 149.528L87.8969 150.117L88.486 147.919Z" fill="#F2E5D9"/>
<path d="M90.6842 148.508L88.4863 147.919L87.8973 150.117L90.0952 150.706L90.6842 148.508Z" fill="#F2E5D9"/>
<path d="M92.882 149.096L90.6841 148.507L90.095 150.706L92.2929 151.295L92.882 149.096Z" fill="black"/>
<path d="M95.0802 149.686L92.8823 149.097L92.2933 151.295L94.4912 151.884L95.0802 149.686Z" fill="white"/>
<path d="M41.7409 137.75L39.543 137.161L38.9539 139.36L41.1518 139.948L41.7409 137.75Z" fill="white"/>
<path d="M43.9391 138.338L41.7412 137.75L41.1521 139.948L43.35 140.537L43.9391 138.338Z" fill="black"/>
<path d="M46.1364 138.928L43.9385 138.339L43.3494 140.537L45.5473 141.126L46.1364 138.928Z" fill="#D8B18D"/>
<path d="M48.3346 139.517L46.1367 138.928L45.5476 141.126L47.7456 141.715L48.3346 139.517Z" fill="#E6CBB3"/>
<path d="M50.5324 140.105L48.3345 139.516L47.7454 141.715L49.9433 142.304L50.5324 140.105Z" fill="white"/>
<path d="M52.7306 140.695L50.5327 140.106L49.9436 142.304L52.1416 142.893L52.7306 140.695Z" fill="#E6CBB3"/>
<path d="M54.9284 141.283L52.7305 140.694L52.1414 142.892L54.3393 143.481L54.9284 141.283Z" fill="#E6CBB3"/>
<path d="M57.1261 141.872L54.9282 141.283L54.3391 143.482L56.5371 144.071L57.1261 141.872Z" fill="#E6CBB3"/>
<path d="M59.3239 142.462L57.126 141.873L56.5369 144.071L58.7348 144.66L59.3239 142.462Z" fill="#E6CBB3"/>
<path d="M61.5221 143.05L59.3242 142.461L58.7351 144.659L60.9331 145.248L61.5221 143.05Z" fill="black"/>
<path d="M63.7199 143.639L61.522 143.05L60.9329 145.249L63.1308 145.838L63.7199 143.639Z" fill="white"/>
<path d="M65.9176 144.228L63.7197 143.639L63.1307 145.837L65.3286 146.426L65.9176 144.228Z" fill="black"/>
<path d="M68.1159 144.817L65.918 144.228L65.3289 146.426L67.5268 147.015L68.1159 144.817Z" fill="#F2E5D9"/>
<path d="M70.3136 145.406L68.1157 144.817L67.5266 147.016L69.7246 147.605L70.3136 145.406Z" fill="#E6CBB3"/>
<path d="M72.5124 145.994L70.3145 145.406L69.7254 147.604L71.9233 148.193L72.5124 145.994Z" fill="#E6CBB3"/>
<path d="M74.7091 146.584L72.5112 145.995L71.9222 148.193L74.1201 148.782L74.7091 146.584Z" fill="#E6CBB3"/>
<path d="M76.9074 147.173L74.7095 146.584L74.1204 148.783L76.3183 149.371L76.9074 147.173Z" fill="white"/>
<path d="M79.1051 147.761L76.9072 147.172L76.3182 149.371L78.5161 149.96L79.1051 147.761Z" fill="white"/>
<path d="M81.3034 148.351L79.1055 147.762L78.5164 149.96L80.7143 150.549L81.3034 148.351Z" fill="white"/>
<path d="M83.5002 148.939L81.3022 148.35L80.7132 150.549L82.9111 151.138L83.5002 148.939Z" fill="white"/>
<path d="M85.6989 149.528L83.501 148.939L82.9119 151.138L85.1098 151.727L85.6989 149.528Z" fill="#E6CBB3"/>
<path d="M87.8966 150.118L85.6987 149.529L85.1097 151.727L87.3076 152.316L87.8966 150.118Z" fill="#E6CBB3"/>
<path d="M90.0949 150.706L87.897 150.117L87.3079 152.315L89.5058 152.904L90.0949 150.706Z" fill="#E6CBB3"/>
<path d="M92.2926 151.295L90.0947 150.706L89.5057 152.905L91.7036 153.494L92.2926 151.295Z" fill="#F2E5D9"/>
<path d="M94.4909 151.885L92.293 151.296L91.7039 153.494L93.9018 154.083L94.4909 151.885Z" fill="black"/>
<path d="M96.6886 152.473L94.4907 151.884L93.9016 154.082L96.0996 154.671L96.6886 152.473Z" fill="white"/>
<path d="M41.152 139.948L38.9541 139.359L38.365 141.558L40.5629 142.147L41.152 139.948Z" fill="white"/>
<path d="M43.3498 140.537L41.1519 139.948L40.5628 142.147L42.7607 142.736L43.3498 140.537Z" fill="black"/>
<path d="M45.547 141.127L43.3491 140.538L42.76 142.736L44.958 143.325L45.547 141.127Z" fill="#D8B18D"/>
<path d="M47.7453 141.715L45.5474 141.126L44.9583 143.325L47.1562 143.913L47.7453 141.715Z" fill="#E6CBB3"/>
<path d="M49.943 142.304L47.7451 141.715L47.156 143.914L49.354 144.503L49.943 142.304Z" fill="#E6CBB3"/>
<path d="M52.1413 142.893L49.9434 142.304L49.3543 144.502L51.5522 145.091L52.1413 142.893Z" fill="#E6CBB3"/>
<path d="M54.3395 143.482L52.1416 142.893L51.5525 145.091L53.7504 145.68L54.3395 143.482Z" fill="#E6CBB3"/>
<path d="M56.5373 144.071L54.3394 143.482L53.7503 145.681L55.9482 146.27L56.5373 144.071Z" fill="#E6CBB3"/>
<path d="M58.7355 144.66L56.5376 144.071L55.9485 146.269L58.1464 146.858L58.7355 144.66Z" fill="#E6CBB3"/>
<path d="M60.9328 145.249L58.7349 144.66L58.1458 146.858L60.3437 147.447L60.9328 145.249Z" fill="#E6CBB3"/>
<path d="M63.1305 145.838L60.9326 145.249L60.3435 147.448L62.5415 148.037L63.1305 145.838Z" fill="black"/>
<path d="M65.3283 146.427L63.1304 145.838L62.5413 148.036L64.7392 148.625L65.3283 146.427Z" fill="#F2E5D9"/>
<path d="M67.527 147.016L65.3291 146.427L64.74 148.625L66.9379 149.214L67.527 147.016Z" fill="#E6CBB3"/>
<path d="M69.7248 147.604L67.5269 147.015L66.9378 149.214L69.1357 149.803L69.7248 147.604Z" fill="#E6CBB3"/>
<path d="M71.922 148.193L69.7241 147.604L69.135 149.803L71.333 150.392L71.922 148.193Z" fill="#E6CBB3"/>
<path d="M74.1198 148.783L71.9219 148.194L71.3328 150.392L73.5307 150.981L74.1198 148.783Z" fill="#E6CBB3"/>
<path d="M76.318 149.371L74.1201 148.782L73.531 150.981L75.729 151.569L76.318 149.371Z" fill="#E6CBB3"/>
<path d="M78.5158 149.96L76.3179 149.371L75.7288 151.57L77.9267 152.159L78.5158 149.96Z" fill="#E6CBB3"/>
<path d="M80.714 150.549L78.5161 149.96L77.927 152.158L80.125 152.747L80.714 150.549Z" fill="#E6CBB3"/>
<path d="M82.9123 151.138L80.7144 150.549L80.1253 152.748L82.3232 153.336L82.9123 151.138Z" fill="#E6CBB3"/>
<path d="M85.1105 151.727L82.9126 151.138L82.3235 153.337L84.5214 153.926L85.1105 151.727Z" fill="#E6CBB3"/>
<path d="M87.3073 152.316L85.1094 151.727L84.5203 153.925L86.7182 154.514L87.3073 152.316Z" fill="white"/>
<path d="M89.5055 152.905L87.3076 152.316L86.7185 154.514L88.9165 155.103L89.5055 152.905Z" fill="#E6CBB3"/>
<path d="M91.7033 153.494L89.5054 152.905L88.9163 155.104L91.1142 155.693L91.7033 153.494Z" fill="#E6CBB3"/>
<path d="M93.9015 154.083L91.7036 153.494L91.1145 155.692L93.3124 156.281L93.9015 154.083Z" fill="#D8B18D"/>
<path d="M96.0998 154.672L93.9019 154.083L93.3128 156.281L95.5107 156.87L96.0998 154.672Z" fill="black"/>
<path d="M98.2975 155.26L96.0996 154.671L95.5105 156.87L97.7084 157.459L98.2975 155.26Z" fill="white"/>
<path d="M38.3649 141.559L36.167 140.97L35.5779 143.168L37.7758 143.757L38.3649 141.559Z" fill="white"/>
<path d="M40.5627 142.147L38.3647 141.558L37.7757 143.756L39.9736 144.345L40.5627 142.147Z" fill="black"/>
<path d="M42.7604 142.736L40.5625 142.147L39.9734 144.346L42.1713 144.935L42.7604 142.736Z" fill="#D8B18D"/>
<path d="M44.9587 143.325L42.7607 142.736L42.1717 144.934L44.3696 145.523L44.9587 143.325Z" fill="#E6CBB3"/>
<path d="M47.1559 143.914L44.958 143.325L44.3689 145.523L46.5668 146.112L47.1559 143.914Z" fill="#E6CBB3"/>
<path d="M49.3537 144.503L47.1558 143.914L46.5667 146.113L48.7646 146.702L49.3537 144.503Z" fill="#E6CBB3"/>
<path d="M51.5519 145.092L49.354 144.503L48.7649 146.701L50.9628 147.29L51.5519 145.092Z" fill="#E6CBB3"/>
<path d="M53.7502 145.681L51.5522 145.092L50.9632 147.29L53.1611 147.879L53.7502 145.681Z" fill="#E6CBB3"/>
<path d="M55.9479 146.269L53.75 145.68L53.1609 147.879L55.3588 148.468L55.9479 146.269Z" fill="#E6CBB3"/>
<path d="M58.1462 146.858L55.9482 146.27L55.3592 148.468L57.5571 149.057L58.1462 146.858Z" fill="#E6CBB3"/>
<path d="M60.3434 147.448L58.1455 146.859L57.5564 149.057L59.7543 149.646L60.3434 147.448Z" fill="#E6CBB3"/>
<path d="M62.5412 148.036L60.3433 147.447L59.7542 149.646L61.9521 150.235L62.5412 148.036Z" fill="black"/>
<path d="M64.7394 148.625L62.5415 148.036L61.9524 150.235L64.1503 150.824L64.7394 148.625Z" fill="#E6CBB3"/>
<path d="M66.9377 149.214L64.7397 148.625L64.1507 150.823L66.3486 151.412L66.9377 149.214Z" fill="#E6CBB3"/>
<path d="M69.1354 149.803L66.9375 149.214L66.3484 151.413L68.5463 152.001L69.1354 149.803Z" fill="#E6CBB3"/>
<path d="M71.3337 150.392L69.1357 149.803L68.5467 152.002L70.7446 152.591L71.3337 150.392Z" fill="#E6CBB3"/>
<path d="M73.5314 150.981L71.3335 150.392L70.7444 152.59L72.9423 153.179L73.5314 150.981Z" fill="#E6CBB3"/>
<path d="M75.7287 151.57L73.5308 150.981L72.9417 153.179L75.1396 153.768L75.7287 151.57Z" fill="#E6CBB3"/>
<path d="M77.9269 152.159L75.729 151.57L75.1399 153.769L77.3378 154.358L77.9269 152.159Z" fill="#E6CBB3"/>
<path d="M80.1252 152.748L77.9272 152.159L77.3382 154.357L79.5361 154.946L80.1252 152.748Z" fill="#E6CBB3"/>
<path d="M82.3229 153.337L80.125 152.748L79.5359 154.946L81.7338 155.535L82.3229 153.337Z" fill="#E6CBB3"/>
<path d="M84.5212 153.925L82.3232 153.336L81.7342 155.535L83.9321 156.124L84.5212 153.925Z" fill="#E6CBB3"/>
<path d="M86.7179 154.515L84.52 153.926L83.9309 156.124L86.1289 156.713L86.7179 154.515Z" fill="#E6CBB3"/>
<path d="M88.9162 155.104L86.7183 154.515L86.1292 156.713L88.3271 157.302L88.9162 155.104Z" fill="#E6CBB3"/>
<path d="M91.1144 155.692L88.9165 155.103L88.3274 157.302L90.5253 157.891L91.1144 155.692Z" fill="#E6CBB3"/>
<path d="M93.3127 156.281L91.1147 155.692L90.5257 157.891L92.7236 158.48L93.3127 156.281Z" fill="#D8B18D"/>
<path d="M95.5104 156.871L93.3125 156.282L92.7234 158.48L94.9213 159.069L95.5104 156.871Z" fill="black"/>
<path d="M97.7082 157.459L95.5103 156.87L94.9212 159.069L97.1191 159.658L97.7082 157.459Z" fill="white"/>
<path d="M37.7755 143.757L35.5776 143.168L34.9886 145.366L37.1865 145.955L37.7755 143.757Z" fill="white"/>
<path d="M39.9733 144.346L37.7754 143.757L37.1863 145.955L39.3842 146.544L39.9733 144.346Z" fill="black"/>
<path d="M42.1711 144.934L39.9731 144.345L39.3841 146.544L41.582 147.133L42.1711 144.934Z" fill="#D8B18D"/>
<path d="M44.3693 145.524L42.1714 144.935L41.5823 147.133L43.7802 147.722L44.3693 145.524Z" fill="#E6CBB3"/>
<path d="M46.5675 146.113L44.3696 145.524L43.7806 147.722L45.9785 148.311L46.5675 146.113Z" fill="#E6CBB3"/>
<path d="M48.7648 146.701L46.5669 146.112L45.9778 148.311L48.1757 148.9L48.7648 146.701Z" fill="#E6CBB3"/>
<path d="M50.9626 147.29L48.7646 146.702L48.1756 148.9L50.3735 149.489L50.9626 147.29Z" fill="#E6CBB3"/>
<path d="M53.1608 147.879L50.9629 147.29L50.3738 149.488L52.5717 150.077L53.1608 147.879Z" fill="#E6CBB3"/>
<path d="M55.3586 148.468L53.1606 147.879L52.5716 150.078L54.7695 150.667L55.3586 148.468Z" fill="#E6CBB3"/>
<path d="M57.5568 149.057L55.3589 148.469L54.7698 150.667L56.9677 151.256L57.5568 149.057Z" fill="#E6CBB3"/>
<path d="M59.7545 149.646L57.5566 149.057L56.9676 151.255L59.1655 151.844L59.7545 149.646Z" fill="#E6CBB3"/>
<path d="M61.9533 150.235L59.7554 149.646L59.1663 151.845L61.3642 152.434L61.9533 150.235Z" fill="#E6CBB3"/>
<path d="M64.1501 150.823L61.9521 150.235L61.3631 152.433L63.561 153.022L64.1501 150.823Z" fill="#E6CBB3"/>
<path d="M66.3483 151.413L64.1504 150.824L63.5613 153.022L65.7592 153.611L66.3483 151.413Z" fill="#E6CBB3"/>
<path d="M68.5461 152.002L66.3481 151.413L65.7591 153.611L67.957 154.2L68.5461 152.002Z" fill="#E6CBB3"/>
<path d="M70.7443 152.59L68.5464 152.001L67.9573 154.2L70.1552 154.789L70.7443 152.59Z" fill="#E6CBB3"/>
<path d="M72.9421 153.18L70.7441 152.591L70.1551 154.789L72.353 155.378L72.9421 153.18Z" fill="#E6CBB3"/>
<path d="M75.1408 153.769L72.9429 153.18L72.3538 155.378L74.5517 155.967L75.1408 153.769Z" fill="#E6CBB3"/>
<path d="M77.3376 154.357L75.1396 153.768L74.5506 155.967L76.7485 156.556L77.3376 154.357Z" fill="#E6CBB3"/>
<path d="M79.5358 154.947L77.3379 154.358L76.7488 156.556L78.9467 157.145L79.5358 154.947Z" fill="#E6CBB3"/>
<path d="M81.7336 155.535L79.5356 154.946L78.9466 157.144L81.1445 157.733L81.7336 155.535Z" fill="#E6CBB3"/>
<path d="M83.9318 156.124L81.7339 155.535L81.1448 157.734L83.3427 158.323L83.9318 156.124Z" fill="#E6CBB3"/>
<path d="M86.1296 156.713L83.9316 156.125L83.3426 158.323L85.5405 158.912L86.1296 156.713Z" fill="#E6CBB3"/>
<path d="M88.3278 157.302L86.1299 156.713L85.5408 158.911L87.7387 159.5L88.3278 157.302Z" fill="#E6CBB3"/>
<path d="M90.5251 157.891L88.3271 157.302L87.7381 159.501L89.936 160.09L90.5251 157.891Z" fill="#E6CBB3"/>
<path d="M92.7233 158.48L90.5254 157.891L89.9363 160.09L92.1342 160.679L92.7233 158.48Z" fill="#D8B18D"/>
<path d="M94.9211 159.069L92.7231 158.48L92.1341 160.678L94.332 161.267L94.9211 159.069Z" fill="black"/>
<path d="M97.1188 159.658L94.9209 159.069L94.3318 161.268L96.5297 161.856L97.1188 159.658Z" fill="white"/>
<path d="M37.1862 145.956L34.9883 145.367L34.3992 147.565L36.5971 148.154L37.1862 145.956Z" fill="white"/>
<path d="M39.3839 146.544L37.186 145.955L36.597 148.153L38.7949 148.742L39.3839 146.544Z" fill="black"/>
<path d="M41.5817 147.133L39.3838 146.544L38.7947 148.743L40.9926 149.332L41.5817 147.133Z" fill="#D8B18D"/>
<path d="M43.7804 147.722L41.5825 147.134L40.9934 149.332L43.1914 149.921L43.7804 147.722Z" fill="#E6CBB3"/>
<path d="M45.9782 148.311L43.7803 147.722L43.1912 149.92L45.3891 150.509L45.9782 148.311Z" fill="#E6CBB3"/>
<path d="M48.1764 148.9L45.9785 148.311L45.3894 150.51L47.5874 151.099L48.1764 148.9Z" fill="#E6CBB3"/>
<path d="M50.3742 149.489L48.1763 148.9L47.5872 151.098L49.7851 151.687L50.3742 149.489Z" fill="#E6CBB3"/>
<path d="M52.5714 150.078L50.3735 149.489L49.7845 151.687L51.9824 152.276L52.5714 150.078Z" fill="#E6CBB3"/>
<path d="M54.7692 150.667L52.5713 150.078L51.9822 152.277L54.1801 152.866L54.7692 150.667Z" fill="#E6CBB3"/>
<path d="M56.9679 151.255L54.77 150.667L54.1809 152.865L56.3789 153.454L56.9679 151.255Z" fill="#E6CBB3"/>
<path d="M59.1657 151.845L56.9678 151.256L56.3787 153.454L58.5766 154.043L59.1657 151.845Z" fill="#E6CBB3"/>
<path d="M61.3639 152.434L59.166 151.845L58.5769 154.044L60.7749 154.632L61.3639 152.434Z" fill="#E6CBB3"/>
<path d="M63.5617 153.022L61.3638 152.433L60.7747 154.632L62.9726 155.221L63.5617 153.022Z" fill="#E6CBB3"/>
<path d="M65.7589 153.612L63.561 153.023L62.972 155.221L65.1699 155.81L65.7589 153.612Z" fill="#E6CBB3"/>
<path d="M67.9567 154.2L65.7588 153.611L65.1697 155.81L67.3676 156.398L67.9567 154.2Z" fill="#E6CBB3"/>
<path d="M70.1554 154.789L67.9575 154.2L67.3684 156.399L69.5664 156.988L70.1554 154.789Z" fill="#E6CBB3"/>
<path d="M72.3532 155.379L70.1553 154.79L69.5662 156.988L71.7641 157.577L72.3532 155.379Z" fill="#E6CBB3"/>
<path d="M74.5514 155.967L72.3535 155.378L71.7644 157.576L73.9624 158.165L74.5514 155.967Z" fill="#E6CBB3"/>
<path d="M76.7492 156.556L74.5513 155.967L73.9622 158.166L76.1601 158.755L76.7492 156.556Z" fill="#E6CBB3"/>
<path d="M78.9464 157.145L76.7485 156.556L76.1595 158.754L78.3574 159.343L78.9464 157.145Z" fill="#E6CBB3"/>
<path d="M81.1442 157.734L78.9463 157.145L78.3572 159.343L80.5551 159.932L81.1442 157.734Z" fill="#E6CBB3"/>
<path d="M83.3424 158.323L81.1445 157.734L80.5555 159.933L82.7534 160.522L83.3424 158.323Z" fill="#E6CBB3"/>
<path d="M85.5407 158.911L83.3428 158.323L82.7537 160.521L84.9516 161.11L85.5407 158.911Z" fill="#E6CBB3"/>
<path d="M87.7384 159.501L85.5405 158.912L84.9515 161.11L87.1494 161.699L87.7384 159.501Z" fill="#E6CBB3"/>
<path d="M89.9367 160.09L87.7388 159.501L87.1497 161.7L89.3476 162.288L89.9367 160.09Z" fill="#D8B18D"/>
<path d="M92.1339 160.678L89.936 160.089L89.347 162.288L91.5449 162.877L92.1339 160.678Z" fill="#CD986A"/>
<path d="M94.3317 161.268L92.1338 160.679L91.5447 162.877L93.7426 163.466L94.3317 161.268Z" fill="black"/>
<path d="M96.5299 161.856L94.332 161.267L93.743 163.466L95.9409 164.055L96.5299 161.856Z" fill="white"/>
<path d="M36.5973 148.153L34.3994 147.564L33.8103 149.762L36.0083 150.351L36.5973 148.153Z" fill="white"/>
<path d="M38.7956 148.742L36.5977 148.153L36.0086 150.352L38.2065 150.94L38.7956 148.742Z" fill="black"/>
<path d="M40.9938 149.331L38.7959 148.742L38.2068 150.941L40.4047 151.53L40.9938 149.331Z" fill="#D8B18D"/>
<path d="M43.1911 149.92L40.9932 149.331L40.4041 151.529L42.602 152.118L43.1911 149.92Z" fill="#E6CBB3"/>
<path d="M45.3888 150.509L43.1909 149.92L42.6018 152.118L44.7998 152.707L45.3888 150.509Z" fill="#E6CBB3"/>
<path d="M47.5871 151.098L45.3892 150.509L44.8001 152.708L46.998 153.297L47.5871 151.098Z" fill="#E6CBB3"/>
<path d="M49.7848 151.687L47.5869 151.098L46.9978 153.296L49.1957 153.885L49.7848 151.687Z" fill="#E6CBB3"/>
<path d="M51.9831 152.276L49.7852 151.687L49.1961 153.885L51.394 154.474L51.9831 152.276Z" fill="#E6CBB3"/>
<path d="M54.1803 152.864L51.9824 152.275L51.3933 154.474L53.5913 155.063L54.1803 152.864Z" fill="#E6CBB3"/>
<path d="M56.3786 153.453L54.1807 152.865L53.5916 155.063L55.7895 155.652L56.3786 153.453Z" fill="#E6CBB3"/>
<path d="M58.5763 154.043L56.3784 153.454L55.7893 155.652L57.9873 156.241L58.5763 154.043Z" fill="#E6CBB3"/>
<path d="M60.7746 154.631L58.5767 154.042L57.9876 156.241L60.1855 156.83L60.7746 154.631Z" fill="#E6CBB3"/>
<path d="M62.9723 155.22L60.7744 154.631L60.1853 156.83L62.3833 157.419L62.9723 155.22Z" fill="#E6CBB3"/>
<path d="M65.1706 155.81L62.9727 155.221L62.3836 157.419L64.5815 158.008L65.1706 155.81Z" fill="#E6CBB3"/>
<path d="M67.3688 156.398L65.1709 155.809L64.5818 158.008L66.7797 158.597L67.3688 156.398Z" fill="#E6CBB3"/>
<path d="M69.5661 156.987L67.3682 156.398L66.7791 158.597L68.977 159.186L69.5661 156.987Z" fill="#E6CBB3"/>
<path d="M71.7638 157.576L69.5659 156.987L68.9768 159.185L71.1748 159.774L71.7638 157.576Z" fill="#E6CBB3"/>
<path d="M73.9621 158.165L71.7642 157.576L71.1751 159.774L73.373 160.363L73.9621 158.165Z" fill="#E6CBB3"/>
<path d="M76.1598 158.754L73.9619 158.165L73.3728 160.364L75.5707 160.953L76.1598 158.754Z" fill="#E6CBB3"/>
<path d="M78.3576 159.343L76.1597 158.754L75.5706 160.952L77.7685 161.541L78.3576 159.343Z" fill="#E6CBB3"/>
<path d="M80.5563 159.932L78.3584 159.343L77.7693 161.541L79.9672 162.13L80.5563 159.932Z" fill="#E6CBB3"/>
<path d="M82.7531 160.52L80.5552 159.931L79.9661 162.13L82.164 162.719L82.7531 160.52Z" fill="#E6CBB3"/>
<path d="M84.9513 161.11L82.7534 160.521L82.1643 162.719L84.3623 163.308L84.9513 161.11Z" fill="#D8B18D"/>
<path d="M87.1491 161.699L84.9512 161.11L84.3621 163.308L86.56 163.897L87.1491 161.699Z" fill="#D8B18D"/>
<path d="M89.3473 162.287L87.1494 161.698L86.5603 163.897L88.7582 164.486L89.3473 162.287Z" fill="#CD986A"/>
<path d="M91.5451 162.876L89.3472 162.288L88.7581 164.486L90.956 165.075L91.5451 162.876Z" fill="black"/>
<path d="M93.7438 163.465L91.5459 162.876L90.9568 165.074L93.1547 165.663L93.7438 163.465Z" fill="white"/>
<path d="M95.9416 164.054L93.7437 163.465L93.1546 165.664L95.3525 166.253L95.9416 164.054Z" fill="white"/>
<path d="M36.0085 150.353L33.8105 149.764L33.2215 151.962L35.4194 152.551L36.0085 150.353Z" fill="white"/>
<path d="M38.2057 150.942L36.0078 150.353L35.4187 152.551L37.6166 153.14L38.2057 150.942Z" fill="black"/>
<path d="M40.4035 151.53L38.2056 150.941L37.6165 153.14L39.8144 153.729L40.4035 151.53Z" fill="#CD986A"/>
<path d="M42.6017 152.119L40.4038 151.531L39.8147 153.729L42.0126 154.318L42.6017 152.119Z" fill="#D8B18D"/>
<path d="M44.7995 152.709L42.6016 152.12L42.0125 154.318L44.2104 154.907L44.7995 152.709Z" fill="#D8B18D"/>
<path d="M46.9977 153.297L44.7998 152.708L44.2107 154.907L46.4086 155.496L46.9977 153.297Z" fill="#D8B18D"/>
<path d="M49.196 153.886L46.998 153.297L46.409 155.496L48.6069 156.085L49.196 153.886Z" fill="#D8B18D"/>
<path d="M51.3942 154.475L49.1963 153.886L48.6072 156.084L50.8051 156.673L51.3942 154.475Z" fill="#D8B18D"/>
<path d="M53.591 155.064L51.3931 154.475L50.804 156.674L53.0019 157.262L53.591 155.064Z" fill="#E6CBB3"/>
<path d="M55.7892 155.653L53.5913 155.064L53.0022 157.263L55.2001 157.852L55.7892 155.653Z" fill="#E6CBB3"/>
<path d="M57.987 156.242L55.7891 155.653L55.2 157.851L57.3979 158.44L57.987 156.242Z" fill="#E6CBB3"/>
<path d="M60.1852 156.831L57.9873 156.242L57.3982 158.44L59.5961 159.029L60.1852 156.831Z" fill="#E6CBB3"/>
<path d="M62.3835 157.419L60.1855 156.83L59.5965 159.029L61.7944 159.618L62.3835 157.419Z" fill="#E6CBB3"/>
<path d="M64.5812 158.009L62.3833 157.42L61.7942 159.618L63.9921 160.207L64.5812 158.009Z" fill="#E6CBB3"/>
<path d="M66.7785 158.598L64.5806 158.009L63.9915 160.207L66.1894 160.796L66.7785 158.598Z" fill="#E6CBB3"/>
<path d="M68.9767 159.186L66.7788 158.597L66.1897 160.796L68.3876 161.385L68.9767 159.186Z" fill="#E6CBB3"/>
<path d="M71.1745 159.776L68.9766 159.187L68.3875 161.385L70.5854 161.974L71.1745 159.776Z" fill="#D8B18D"/>
<path d="M73.3727 160.365L71.1748 159.776L70.5857 161.974L72.7836 162.563L73.3727 160.365Z" fill="#D8B18D"/>
<path d="M75.571 160.953L73.373 160.364L72.784 162.563L74.9819 163.152L75.571 160.953Z" fill="#D8B18D"/>
<path d="M77.7687 161.542L75.5708 160.953L74.9817 163.152L77.1796 163.741L77.7687 161.542Z" fill="#D8B18D"/>
<path d="M79.967 162.131L77.769 161.542L77.18 163.74L79.3779 164.329L79.967 162.131Z" fill="#D8B18D"/>
<path d="M82.1637 162.72L79.9658 162.131L79.3767 164.33L81.5747 164.919L82.1637 162.72Z" fill="#D8B18D"/>
<path d="M84.362 163.309L82.1641 162.72L81.575 164.919L83.7729 165.508L84.362 163.309Z" fill="#CD986A"/>
<path d="M86.5597 163.898L84.3618 163.309L83.7727 165.507L85.9706 166.096L86.5597 163.898Z" fill="#CD986A"/>
<path d="M88.7585 164.487L86.5605 163.898L85.9715 166.097L88.1694 166.685L88.7585 164.487Z" fill="black"/>
<path d="M90.9562 165.075L88.7583 164.486L88.1692 166.685L90.3671 167.274L90.9562 165.075Z" fill="white"/>
<path d="M93.1545 165.665L90.9565 165.076L90.3675 167.274L92.5654 167.863L93.1545 165.665Z" fill="white"/>
<path d="M35.4191 152.551L33.2212 151.962L32.6321 154.16L34.83 154.749L35.4191 152.551Z" fill="white"/>
<path d="M37.6173 153.139L35.4194 152.55L34.8304 154.749L37.0283 155.337L37.6173 153.139Z" fill="white"/>
<path d="M39.8151 153.728L37.6172 153.139L37.0281 155.338L39.226 155.927L39.8151 153.728Z" fill="black"/>
<path d="M42.0133 154.317L39.8154 153.729L39.2264 155.927L41.4243 156.516L42.0133 154.317Z" fill="#CD986A"/>
<path d="M44.2111 154.906L42.0132 154.317L41.4241 156.515L43.622 157.104L44.2111 154.906Z" fill="#CD986A"/>
<path d="M46.4088 155.495L44.2109 154.906L43.6219 157.105L45.8198 157.694L46.4088 155.495Z" fill="#CD986A"/>
<path d="M48.6066 156.084L46.4087 155.495L45.8196 157.693L48.0175 158.282L48.6066 156.084Z" fill="#CD986A"/>
<path d="M50.8048 156.673L48.6069 156.084L48.0179 158.282L50.2158 158.871L50.8048 156.673Z" fill="#CD986A"/>
<path d="M53.0026 157.262L50.8047 156.673L50.2156 158.872L52.4135 159.461L53.0026 157.262Z" fill="#D8B18D"/>
<path d="M55.2004 157.85L53.0024 157.262L52.4134 159.46L54.6113 160.049L55.2004 157.85Z" fill="#D8B18D"/>
<path d="M57.3986 158.44L55.2007 157.851L54.6116 160.049L56.8095 160.638L57.3986 158.44Z" fill="#D8B18D"/>
<path d="M59.5963 159.028L57.3984 158.439L56.8094 160.638L59.0073 161.227L59.5963 159.028Z" fill="#D8B18D"/>
<path d="M61.7941 159.617L59.5962 159.028L59.0071 161.227L61.205 161.816L61.7941 159.617Z" fill="#D8B18D"/>
<path d="M63.9919 160.207L61.7939 159.618L61.2049 161.816L63.4028 162.405L63.9919 160.207Z" fill="#D8B18D"/>
<path d="M66.1901 160.795L63.9922 160.206L63.4031 162.405L65.601 162.994L66.1901 160.795Z" fill="#D8B18D"/>
<path d="M68.3879 161.384L66.1899 160.795L65.6009 162.994L67.7988 163.583L68.3879 161.384Z" fill="#D8B18D"/>
<path d="M70.5861 161.974L68.3882 161.385L67.7991 163.583L69.997 164.172L70.5861 161.974Z" fill="#CD986A"/>
<path d="M72.7834 162.562L70.5854 161.973L69.9964 164.171L72.1943 164.76L72.7834 162.562Z" fill="#CD986A"/>
<path d="M74.9816 163.151L72.7837 162.562L72.1946 164.761L74.3925 165.35L74.9816 163.151Z" fill="#CD986A"/>
<path d="M77.1794 163.74L74.9814 163.151L74.3924 165.349L76.5903 165.938L77.1794 163.74Z" fill="#CD986A"/>
<path d="M79.3776 164.329L77.1797 163.74L76.5906 165.938L78.7885 166.527L79.3776 164.329Z" fill="#CD986A"/>
<path d="M81.5753 164.918L79.3774 164.329L78.7884 166.528L80.9863 167.117L81.5753 164.918Z" fill="#CD986A"/>
<path d="M83.7736 165.506L81.5757 164.918L80.9866 167.116L83.1845 167.705L83.7736 165.506Z" fill="black"/>
<path d="M85.9709 166.096L83.7729 165.507L83.1839 167.705L85.3818 168.294L85.9709 166.096Z" fill="black"/>
<path d="M88.1691 166.684L85.9712 166.095L85.3821 168.294L87.58 168.883L88.1691 166.684Z" fill="white"/>
<path d="M90.3668 167.273L88.1689 166.685L87.5799 168.883L89.7778 169.472L90.3668 167.273Z" fill="white"/>
<path d="M37.028 155.337L34.8301 154.748L34.241 156.947L36.4389 157.535L37.028 155.337Z" fill="white"/>
<path d="M39.2257 155.926L37.0278 155.337L36.4388 157.536L38.6367 158.125L39.2257 155.926Z" fill="white"/>
<path d="M41.424 156.515L39.2261 155.926L38.637 158.124L40.8349 158.713L41.424 156.515Z" fill="black"/>
<path d="M43.6222 157.104L41.4243 156.515L40.8352 158.713L43.0332 159.302L43.6222 157.104Z" fill="black"/>
<path d="M45.82 157.693L43.6221 157.104L43.033 159.303L45.2309 159.892L45.82 157.693Z" fill="black"/>
<path d="M48.0182 158.282L45.8203 157.693L45.2312 159.891L47.4291 160.48L48.0182 158.282Z" fill="black"/>
<path d="M50.2155 158.871L48.0176 158.282L47.4285 160.48L49.6264 161.069L50.2155 158.871Z" fill="black"/>
<path d="M52.4132 159.459L50.2153 158.87L49.6263 161.069L51.8242 161.658L52.4132 159.459Z" fill="#CD986A"/>
<path d="M54.6115 160.049L52.4136 159.46L51.8245 161.658L54.0224 162.247L54.6115 160.049Z" fill="#CD986A"/>
<path d="M56.8097 160.638L54.6118 160.049L54.0227 162.247L56.2207 162.836L56.8097 160.638Z" fill="#CD986A"/>
<path d="M59.0075 161.226L56.8096 160.637L56.2205 162.836L58.4184 163.425L59.0075 161.226Z" fill="#CD986A"/>
<path d="M61.2057 161.815L59.0078 161.227L58.4187 163.425L60.6167 164.014L61.2057 161.815Z" fill="#CD986A"/>
<path d="M63.4035 162.405L61.2056 161.816L60.6165 164.014L62.8144 164.603L63.4035 162.405Z" fill="#CD986A"/>
<path d="M65.6007 162.993L63.4028 162.404L62.8138 164.603L65.0117 165.192L65.6007 162.993Z" fill="#CD986A"/>
<path d="M67.7985 163.582L65.6006 162.993L65.0115 165.192L67.2094 165.781L67.7985 163.582Z" fill="#CD986A"/>
<path d="M69.9972 164.171L67.7993 163.582L67.2102 165.78L69.4082 166.369L69.9972 164.171Z" fill="black"/>
<path d="M72.195 164.76L69.9971 164.171L69.408 166.369L71.6059 166.958L72.195 164.76Z" fill="black"/>
<path d="M74.3932 165.349L72.1953 164.76L71.6062 166.959L73.8041 167.548L74.3932 165.349Z" fill="black"/>
<path d="M76.591 165.938L74.3931 165.349L73.804 167.547L76.0019 168.136L76.591 165.938Z" fill="black"/>
<path d="M78.7892 166.527L76.5913 165.938L76.0022 168.136L78.2001 168.725L78.7892 166.527Z" fill="black"/>
<path d="M80.986 167.115L78.7881 166.526L78.199 168.725L80.3969 169.314L80.986 167.115Z" fill="black"/>
<path d="M83.1842 167.705L80.9863 167.116L80.3973 169.314L82.5952 169.903L83.1842 167.705Z" fill="white"/>
<path d="M85.3825 168.294L83.1846 167.705L82.5955 169.903L84.7934 170.492L85.3825 168.294Z" fill="white"/>
<path d="M87.5807 168.882L85.3828 168.293L84.7937 170.492L86.9917 171.081L87.5807 168.882Z" fill="white"/>
<path d="M38.6369 158.125L36.439 157.536L35.8499 159.735L38.0478 160.324L38.6369 158.125Z" fill="white"/>
<path d="M40.8351 158.714L38.6372 158.125L38.0481 160.324L40.246 160.913L40.8351 158.714Z" fill="white"/>
<path d="M43.0329 159.304L40.835 158.715L40.2459 160.913L42.4438 161.502L43.0329 159.304Z" fill="white"/>
<path d="M45.2306 159.892L43.0327 159.303L42.4436 161.502L44.6415 162.091L45.2306 159.892Z" fill="white"/>
<path d="M47.4289 160.481L45.231 159.892L44.6419 162.091L46.8398 162.68L47.4289 160.481Z" fill="white"/>
<path d="M49.6261 161.07L47.4282 160.481L46.8391 162.679L49.0371 163.268L49.6261 161.07Z" fill="white"/>
<path d="M51.8244 161.659L49.6265 161.07L49.0374 163.269L51.2353 163.857L51.8244 161.659Z" fill="black"/>
<path d="M54.0221 162.248L51.8242 161.659L51.2351 163.858L53.4331 164.447L54.0221 162.248Z" fill="black"/>
<path d="M56.2204 162.837L54.0225 162.248L53.4334 164.446L55.6313 165.035L56.2204 162.837Z" fill="black"/>
<path d="M58.4181 163.426L56.2202 162.837L55.6311 165.035L57.8291 165.624L58.4181 163.426Z" fill="black"/>
<path d="M60.6164 164.014L58.4185 163.425L57.8294 165.624L60.0273 166.213L60.6164 164.014Z" fill="black"/>
<path d="M62.8141 164.604L60.6162 164.015L60.0271 166.213L62.225 166.802L62.8141 164.604Z" fill="black"/>
<path d="M65.0119 165.193L62.814 164.604L62.2249 166.802L64.4228 167.391L65.0119 165.193Z" fill="black"/>
<path d="M67.2096 165.781L65.0117 165.192L64.4226 167.391L66.6206 167.98L67.2096 165.781Z" fill="black"/>
<path d="M69.4079 166.37L67.21 165.782L66.6209 167.98L68.8188 168.569L69.4079 166.37Z" fill="white"/>
<path d="M71.6056 166.96L69.4077 166.371L68.8186 168.569L71.0166 169.158L71.6056 166.96Z" fill="white"/>
<path d="M73.8039 167.548L71.606 166.959L71.0169 169.158L73.2148 169.747L73.8039 167.548Z" fill="white"/>
<path d="M76.0006 168.137L73.8027 167.548L73.2137 169.747L75.4116 170.336L76.0006 168.137Z" fill="white"/>
<path d="M78.1994 168.726L76.0015 168.137L75.4124 170.335L77.6103 170.924L78.1994 168.726Z" fill="white"/>
<path d="M80.3971 169.315L78.1992 168.726L77.6101 170.925L79.8081 171.514L80.3971 169.315Z" fill="white"/>
<path d="M82.5954 169.904L80.3975 169.315L79.8084 171.514L82.0063 172.103L82.5954 169.904Z" fill="white"/>
<path d="M49.0378 163.268L46.8398 162.679L46.2508 164.877L48.4487 165.466L49.0378 163.268Z" fill="white"/>
<path d="M51.235 163.857L49.0371 163.268L48.448 165.467L50.6459 166.056L51.235 163.857Z" fill="white"/>
<path d="M53.4328 164.445L51.2349 163.857L50.6458 166.055L52.8437 166.644L53.4328 164.445Z" fill="white"/>
<path d="M55.631 165.035L53.4331 164.446L52.844 166.644L55.0419 167.233L55.631 165.035Z" fill="white"/>
<path d="M57.8288 165.624L55.6309 165.035L55.0418 167.234L57.2397 167.822L57.8288 165.624Z" fill="white"/>
<path d="M60.027 166.212L57.8291 165.623L57.24 167.822L59.4379 168.411L60.027 166.212Z" fill="white"/>
<path d="M62.2253 166.802L60.0273 166.213L59.4383 168.411L61.6362 169L62.2253 166.802Z" fill="white"/>
<path d="M64.4235 167.39L62.2256 166.801L61.6365 169L63.8344 169.588L64.4235 167.39Z" fill="white"/>
<path d="M66.6203 167.979L64.4224 167.39L63.8333 169.589L66.0312 170.178L66.6203 167.979Z" fill="white"/>
<path d="M68.8185 168.569L66.6206 167.98L66.0315 170.178L68.2294 170.767L68.8185 168.569Z" fill="white"/>
<rect width="4.31334" height="8.62668" transform="matrix(-0.0992632 0.995061 0.995061 0.0992633 445.645 52.3787)" fill="white"/>
<rect width="4.31334" height="4.31334" transform="matrix(-0.0992632 0.995061 0.995061 0.0992633 446.073 48.0858)" fill="white"/>
<rect width="4.31334" height="4.31334" transform="matrix(-0.0992632 0.995061 0.995061 0.0992633 441.781 47.6577)" fill="white"/>
<rect width="4.31334" height="4.31334" transform="matrix(-0.0992632 0.995061 0.995061 0.0992633 442.209 43.366)" fill="white"/>
<rect width="4.31334" height="4.31334" transform="matrix(-0.0992632 0.995061 0.995061 0.0992633 441.353 51.9504)" fill="black"/>
<rect width="423.935" height="4.31334" transform="matrix(0.995061 0.0992633 0.0992633 -0.995061 19.9395 5.5769)" fill="white"/>
<rect width="423.935" height="4.31334" transform="matrix(0.995061 0.0992633 0.0992633 -0.995061 19.0835 14.1603)" fill="white"/>
<rect width="423.935" height="4.31334" transform="matrix(0.995061 0.0992633 0.0992633 -0.995061 19.5112 9.86853)" fill="black"/>
<rect width="4.31334" height="8.62668" transform="matrix(0.995061 0.0992631 0.0992633 -0.995061 15.2197 9.44067)" fill="white"/>
<rect width="4.31334" height="4.31334" transform="matrix(0.995061 0.0992631 0.0992633 -0.995061 10.9263 9.01233)" fill="white"/>
<rect width="4.31334" height="4.31334" transform="matrix(0.995061 0.0992631 0.0992633 -0.995061 10.498 13.3036)" fill="white"/>
<rect width="4.31334" height="4.31334" transform="matrix(0.995061 0.0992631 0.0992633 -0.995061 6.20508 12.8754)" fill="white"/>
<rect width="4.31334" height="4.31334" transform="matrix(0.995061 0.0992631 0.0992633 -0.995061 14.7915 13.7319)" fill="black"/>
<rect width="36.6266" height="4.31334" transform="matrix(-0.0992633 0.995061 0.995061 0.0992633 449.508 57.0989)" fill="white"/>
<rect width="36.6266" height="4.31334" transform="matrix(-0.0992633 0.995061 0.995061 0.0992633 440.927 56.2428)" fill="white"/>
<rect width="36.6266" height="4.31334" transform="matrix(-0.0992633 0.995061 0.995061 0.0992633 445.215 56.6707)" fill="black"/>
<rect width="423.94" height="36.6267" transform="translate(19.0801 14.161) rotate(5.69675)" fill="white"/>
<path d="M45.4248 34.4295L41.5242 34.0404L41.135 37.941L45.0357 38.3301L44.6466 42.2308L40.7459 41.8417L40.3568 45.7423L36.4562 45.3532L36.8453 41.4526L32.9446 41.0634L32.5555 44.9641L28.6549 44.575L29.044 40.6743L25.1434 40.2852L25.5325 36.3846L29.4331 36.7737L29.8222 32.873L25.9216 32.4839L26.3107 28.5833L30.2113 28.9724L30.6005 25.0718L34.5011 25.4609L34.112 29.3615L38.0126 29.7506L38.4017 25.85L42.3024 26.2391L41.9133 30.1397L45.8139 30.5289L45.4248 34.4295ZM37.2344 37.5519L37.6235 33.6513L33.7229 33.2622L33.3338 37.1628L37.2344 37.5519ZM61.8012 28.1842L61.023 35.9855L57.1224 35.5964L57.5115 31.6958L49.7102 30.9175L50.0993 27.0169L61.8012 28.1842ZM49.3211 34.8182L57.1224 35.5964L56.7332 39.497L48.932 38.7188L49.3211 34.8182ZM56.3441 43.3977L56.7332 39.497L60.6339 39.8862L59.8557 47.6874L48.1537 46.5201L48.5429 42.6195L56.3441 43.3977ZM79.736 45.7312L83.6366 46.1203L83.2475 50.0209L63.7443 48.0754L64.1334 44.1747L68.0341 44.5638L69.2014 32.8619L73.1021 33.251L71.9347 44.9529L75.8354 45.342L77.0027 33.6401L73.1021 33.251L73.4912 29.3504L81.2925 30.1286L79.736 45.7312ZM100.791 32.0737L98.8457 51.5769L87.1438 50.4096L88.7003 34.807L92.6009 35.1961L91.4336 46.8981L95.3342 47.2872L96.5015 35.5853L92.6009 35.1961L92.99 31.2955L100.791 32.0737ZM116.382 33.629L115.215 45.3309L107.413 44.5527L106.635 52.354L102.734 51.9648L104.68 32.4616L116.382 33.629ZM111.703 41.0412L112.092 37.1405L108.191 36.7514L107.802 40.652L111.703 41.0412ZM131.972 35.1842L130.027 54.6874L118.325 53.5201L119.881 37.9175L123.782 38.3067L122.615 50.0086L126.515 50.3977L127.683 38.6958L123.782 38.3067L124.171 34.406L131.972 35.1842ZM146.785 44.5408L146.396 48.4414L138.594 47.6632L138.205 51.5638L146.007 52.3421L145.618 56.2427L133.916 55.0754L135.861 35.5722L147.563 36.7395L147.174 40.6401L139.373 39.8619L138.984 43.7625L146.785 44.5408ZM150.685 44.9299L146.785 44.5408L147.174 40.6401L151.075 41.0292L150.685 44.9299ZM149.907 52.7312L146.007 52.3421L146.396 48.4414L150.296 48.8305L149.907 52.7312ZM166.293 46.4869L165.126 58.1888L153.424 57.0215L155.37 37.5183L159.27 37.9074L158.492 45.7087L166.293 46.4869ZM161.615 53.899L162.004 49.9984L158.103 49.6093L157.714 53.5099L161.615 53.899ZM174.472 43.3633L174.083 47.2639L177.983 47.653L177.594 51.5537L173.694 51.1645L173.305 55.0652L181.106 55.8434L180.717 59.7441L169.015 58.5767L170.96 39.0735L182.662 40.2409L182.273 44.1415L174.472 43.3633ZM197.482 49.5981L201.383 49.9873L200.994 53.8879L197.093 53.4988L196.315 61.3001L192.414 60.911L194.36 41.4078L198.26 41.7969L197.482 49.5981ZM206.062 42.5751L209.962 42.9642L208.017 62.4674L204.116 62.0783L205.284 50.3764L201.383 49.9873L201.772 46.0866L205.673 46.4757L206.062 42.5751ZM236.502 53.4906L235.724 61.2919L231.823 60.9027L232.212 57.0021L224.411 56.2239L224.022 60.1245L231.823 60.9027L231.434 64.8034L219.732 63.636L221.677 44.1328L233.379 45.3002L232.99 49.2008L225.189 48.4226L224.8 52.3232L236.502 53.4906ZM256.789 47.6354L254.843 67.1386L250.942 66.7495L252.499 51.1469L248.598 50.7578L248.987 46.8572L256.789 47.6354ZM244.698 50.3687L248.598 50.7578L247.042 66.3604L239.24 65.5822L239.63 61.6815L243.53 62.0706L244.698 50.3687ZM276.297 49.5815L274.352 69.0847L270.451 68.6956L271.035 62.8446L263.233 62.0664L262.65 67.9174L258.749 67.5283L260.306 51.9257L264.206 52.3148L263.623 58.1658L271.424 58.944L272.007 53.093L264.206 52.3148L264.595 48.4142L276.297 49.5815ZM291.905 51.1385L291.516 55.0391L283.715 54.2609L282.158 69.8635L278.258 69.4744L280.203 49.9712L291.905 51.1385ZM307.496 52.6938L305.55 72.197L293.848 71.0296L295.405 55.4271L299.305 55.8162L298.138 67.5181L302.039 67.9072L303.206 56.2053L299.305 55.8162L299.695 51.9155L307.496 52.6938ZM323.086 54.249L321.141 73.7522L317.24 73.3631L318.797 57.7605L314.896 57.3714L313.34 72.974L309.439 72.5849L311.385 53.0817L323.086 54.249ZM338.677 55.8043L336.731 75.3075L325.03 74.1401L326.586 58.5376L330.487 58.9267L329.319 70.6286L333.22 71.0177L334.387 59.3158L330.487 58.9267L330.876 55.026L338.677 55.8043ZM358.168 57.7486L356.223 77.2518L352.322 76.8627L353.878 61.2602L349.978 60.871L350.367 56.9704L358.168 57.7486ZM346.077 60.4819L349.978 60.871L348.421 76.4736L340.62 75.6954L341.009 71.7947L344.91 72.1839L346.077 60.4819ZM369.876 58.9165L373.776 59.3056L372.22 74.9082L368.319 74.5191L368.708 70.6184L360.907 69.8402L362.074 58.1383L365.975 58.5274L365.197 66.3287L369.097 66.7178L369.876 58.9165ZM360.518 73.7408L368.319 74.5191L367.93 78.4197L360.129 77.6415L360.518 73.7408ZM385.466 60.4718L389.367 60.8609L387.421 80.3641L383.521 79.975L384.299 72.1737L376.498 71.3955L377.665 59.6935L381.566 60.0827L380.787 67.8839L384.688 68.273L385.466 60.4718ZM396.378 69.4392L400.279 69.8283L399.889 73.7289L395.989 73.3398L395.211 81.1411L391.31 80.752L393.255 61.2488L397.156 61.6379L396.378 69.4392ZM404.957 62.4161L408.858 62.8052L406.912 82.3084L403.012 81.9193L404.179 70.2174L400.279 69.8283L400.668 65.9277L404.568 66.3168L404.957 62.4161ZM416.276 67.4847L415.887 71.3853L419.787 71.7744L419.398 75.675L415.497 75.2859L415.108 79.1866L422.91 79.9648L422.52 83.8654L410.819 82.6981L412.764 63.1949L424.466 64.3622L424.077 68.2629L416.276 67.4847Z" fill="black"/>
<rect width="36.6266" height="4.31334" transform="matrix(-0.0992633 0.995061 0.995061 0.0992633 14.7881 13.7329)" fill="white"/>
<rect width="36.6266" height="4.31334" transform="matrix(-0.0992633 0.995061 0.995061 0.0992633 6.20459 12.8766)" fill="white"/>
<rect width="36.6266" height="4.31334" transform="matrix(-0.0992633 0.995061 0.995061 0.0992633 10.4966 13.3049)" fill="black"/>
<rect x="19.3081" y="55.3276" width="4.31334" height="17.2534" transform="rotate(5.69675 19.3081 55.3276)" fill="black"/>
<rect x="23.6016" y="55.756" width="4.31334" height="8.62668" transform="rotate(95.6968 23.6016 55.756)" fill="black"/>
<rect x="15.4429" y="50.6067" width="4.31334" height="4.31334" transform="rotate(95.6968 15.4429 50.6067)" fill="black"/>
<rect x="11.1528" y="50.1787" width="4.31334" height="4.31334" transform="rotate(95.6968 11.1528 50.1787)" fill="white"/>
<rect x="6.86084" y="49.7505" width="4.31334" height="4.31334" transform="rotate(95.6968 6.86084 49.7505)" fill="white"/>
<rect x="15.0146" y="54.8994" width="4.31334" height="4.31334" transform="rotate(95.6968 15.0146 54.8994)" fill="white"/>
<rect x="18.8799" y="59.62" width="4.31334" height="4.31334" transform="rotate(95.6968 18.8799 59.62)" fill="white"/>
<rect x="18.4517" y="63.9117" width="4.31334" height="4.31334" transform="rotate(95.6968 18.4517 63.9117)" fill="white"/>
<rect x="18.0234" y="68.2034" width="4.31334" height="4.31334" transform="rotate(95.6968 18.0234 68.2034)" fill="white"/>
<rect x="17.5952" y="72.4951" width="4.31334" height="4.31334" transform="rotate(95.6968 17.5952 72.4951)" fill="white"/>
<rect x="21.8887" y="72.9235" width="4.31334" height="4.31334" transform="rotate(95.6968 21.8887 72.9235)" fill="white"/>
<rect x="26.1821" y="73.3518" width="4.31334" height="4.31334" transform="rotate(95.6968 26.1821 73.3518)" fill="white"/>
<rect x="26.6104" y="69.0599" width="4.31334" height="4.31334" transform="rotate(95.6968 26.6104 69.0599)" fill="white"/>
<rect x="30.9019" y="69.4882" width="4.31334" height="4.31334" transform="rotate(95.6968 30.9019 69.4882)" fill="white"/>
<rect x="31.3301" y="65.1964" width="4.31334" height="4.31334" transform="rotate(95.6968 31.3301 65.1964)" fill="white"/>
<rect x="35.6187" y="65.6243" width="4.31334" height="4.31334" transform="rotate(95.6968 35.6187 65.6243)" fill="white"/>
<rect x="36.0469" y="61.3325" width="4.31334" height="4.31334" transform="rotate(95.6968 36.0469 61.3325)" fill="white"/>
<rect x="27.4663" y="60.4766" width="4.31334" height="4.31334" transform="rotate(95.6968 27.4663 60.4766)" fill="white"/>
<rect x="27.8945" y="56.1842" width="4.31334" height="4.31334" transform="rotate(95.6968 27.8945 56.1842)" fill="white"/>
<rect x="32.1865" y="56.6124" width="4.31334" height="4.31334" transform="rotate(95.6968 32.1865 56.6124)" fill="white"/>
<rect x="36.4751" y="57.0402" width="4.31334" height="4.31334" transform="rotate(95.6968 36.4751 57.0402)" fill="black"/>
<rect x="19.7363" y="51.0349" width="4.31334" height="4.31334" transform="rotate(95.6968 19.7363 51.0349)" fill="white"/>
<rect x="24.0298" y="51.4633" width="4.31334" height="4.31334" transform="rotate(95.6968 24.0298 51.4633)" fill="white"/>
<rect x="28.3228" y="51.8915" width="4.31334" height="4.31334" transform="rotate(95.6968 28.3228 51.8915)" fill="white"/>
<rect x="32.6147" y="52.3196" width="4.31334" height="4.31334" transform="rotate(95.6968 32.6147 52.3196)" fill="white"/>
<rect x="36.9033" y="52.7474" width="4.31334" height="4.31334" transform="rotate(95.6968 36.9033 52.7474)" fill="white"/>
<rect x="14.5864" y="59.1917" width="4.31334" height="4.31334" transform="rotate(95.6968 14.5864 59.1917)" fill="white"/>
<rect x="10.7246" y="54.4714" width="4.31334" height="4.31334" transform="rotate(95.6968 10.7246 54.4714)" fill="white"/>
<rect x="27.0386" y="64.7683" width="4.31334" height="4.31334" transform="rotate(95.6968 27.0386 64.7683)" fill="black"/>
<rect x="31.7583" y="60.9047" width="4.31334" height="4.31334" transform="rotate(95.6968 31.7583 60.9047)" fill="black"/>
<rect x="436.432" y="101.273" width="4.31334" height="402.372" transform="rotate(95.6968 436.432 101.273)" fill="white"/>
<rect x="437.289" y="92.6883" width="4.31334" height="402.372" transform="rotate(95.6968 437.289 92.6883)" fill="white"/>
<rect x="436.86" y="96.9801" width="4.31334" height="402.372" transform="rotate(95.6968 436.86 96.9801)" fill="black"/>
<rect x="441.152" y="97.4084" width="4.31334" height="8.62668" transform="rotate(-84.3032 441.152 97.4084)" fill="white"/>
<rect x="440.724" y="101.702" width="4.31334" height="4.31334" transform="rotate(-84.3032 440.724 101.702)" fill="white"/>
<rect x="436.432" y="101.274" width="4.31334" height="4.31334" transform="rotate(-84.3032 436.432 101.274)" fill="white"/>
<rect x="436.004" y="105.565" width="4.31334" height="4.31334" transform="rotate(-84.3032 436.004 105.565)" fill="white"/>
<rect x="436.86" y="96.9803" width="4.31334" height="4.31334" transform="rotate(-84.3032 436.86 96.9803)" fill="black"/>
</svg>
