<svg width="413" height="218" viewBox="0 0 413 218" fill="none" xmlns="http://www.w3.org/2000/svg">
<path d="M103.471 164H100.932V166.528H103.471V164Z" fill="white"/>
<path d="M100.932 166.528H98.3926V169.056H100.932V166.528Z" fill="white"/>
<path d="M103.471 166.528H100.932V169.056H103.471V166.528Z" fill="black"/>
<path d="M106.01 166.528H103.471V169.056H106.01V166.528Z" fill="white"/>
<path d="M98.3928 169.056H95.8535V171.584H98.3928V169.056Z" fill="white"/>
<path d="M100.932 169.056H98.3926V171.584H100.932V169.056Z" fill="black"/>
<path d="M103.471 169.056H100.932V171.584H103.471V169.056Z" fill="#E68E00"/>
<path d="M106.01 169.056H103.471V171.584H106.01V169.056Z" fill="black"/>
<path d="M108.55 169.056H106.01V171.584H108.55V169.056Z" fill="white"/>
<path d="M95.8532 171.585H93.314V174.114H95.8532V171.585Z" fill="white"/>
<path d="M98.3928 171.585H95.8535V174.114H98.3928V171.585Z" fill="black"/>
<path d="M100.932 171.585H98.3926V174.114H100.932V171.585Z" fill="#E68E00"/>
<path d="M103.471 171.585H100.932V174.114H103.471V171.585Z" fill="#FFAF19"/>
<path d="M106.01 171.585H103.471V174.114H106.01V171.585Z" fill="#FFAF19"/>
<path d="M108.55 171.585H106.01V174.114H108.55V171.585Z" fill="black"/>
<path d="M111.089 171.585H108.55V174.114H111.089V171.585Z" fill="white"/>
<path d="M95.8532 174.113H93.314V176.641H95.8532V174.113Z" fill="white"/>
<path d="M98.3928 174.113H95.8535V176.641H98.3928V174.113Z" fill="black"/>
<path d="M100.932 174.113H98.3926V176.641H100.932V174.113Z" fill="#E68E00"/>
<path d="M103.471 174.113H100.932V176.641H103.471V174.113Z" fill="#FFAF19"/>
<path d="M106.01 174.113H103.471V176.641H106.01V174.113Z" fill="#FFAF19"/>
<path d="M108.55 174.113H106.01V176.641H108.55V174.113Z" fill="black"/>
<path d="M111.089 174.113H108.55V176.641H111.089V174.113Z" fill="white"/>
<path d="M93.3142 176.641H90.7749V179.169H93.3142V176.641Z" fill="white"/>
<path d="M95.8532 176.641H93.314V179.169H95.8532V176.641Z" fill="black"/>
<path d="M98.3928 176.641H95.8535V179.169H98.3928V176.641Z" fill="#E68E00"/>
<path d="M100.932 176.641H98.3926V179.169H100.932V176.641Z" fill="#FFAF19"/>
<path d="M103.471 176.641H100.932V179.169H103.471V176.641Z" fill="#FFAF19"/>
<path d="M106.01 176.641H103.471V179.169H106.01V176.641Z" fill="#FFAF19"/>
<path d="M108.55 176.641H106.01V179.169H108.55V176.641Z" fill="#FFAF19"/>
<path d="M111.089 176.641H108.55V179.169H111.089V176.641Z" fill="black"/>
<path d="M113.628 176.641H111.089V179.169H113.628V176.641Z" fill="white"/>
<path d="M80.6179 179.171H78.0786V181.699H80.6179V179.171Z" fill="white"/>
<path d="M83.1574 179.171H80.6182V181.699H83.1574V179.171Z" fill="white"/>
<path d="M85.6965 179.171H83.1572V181.699H85.6965V179.171Z" fill="white"/>
<path d="M88.236 179.171H85.6968V181.699H88.236V179.171Z" fill="white"/>
<path d="M90.7746 179.171H88.2354V181.699H90.7746V179.171Z" fill="white"/>
<path d="M93.3142 179.171H90.7749V181.699H93.3142V179.171Z" fill="white"/>
<path d="M95.8532 179.171H93.314V181.699H95.8532V179.171Z" fill="black"/>
<path d="M98.3928 179.171H95.8535V181.699H98.3928V179.171Z" fill="#E68E00"/>
<path d="M100.932 179.171H98.3926V181.699H100.932V179.171Z" fill="#FFAF19"/>
<path d="M103.471 179.171H100.932V181.699H103.471V179.171Z" fill="#FFAF19"/>
<path d="M106.01 179.171H103.471V181.699H106.01V179.171Z" fill="white"/>
<path d="M108.55 179.171H106.01V181.699H108.55V179.171Z" fill="#FFAF19"/>
<path d="M111.089 179.171H108.55V181.699H111.089V179.171Z" fill="black"/>
<path d="M113.628 179.171H111.089V181.699H113.628V179.171Z" fill="white"/>
<path d="M116.168 179.171H113.628V181.699H116.168V179.171Z" fill="white"/>
<path d="M118.707 179.171H116.167V181.699H118.707V179.171Z" fill="white"/>
<path d="M121.246 179.171H118.707V181.699H121.246V179.171Z" fill="white"/>
<path d="M123.785 179.171H121.246V181.699H123.785V179.171Z" fill="white"/>
<path d="M126.324 179.171H123.785V181.699H126.324V179.171Z" fill="white"/>
<path d="M78.0788 181.697H75.5396V184.225H78.0788V181.697Z" fill="white"/>
<path d="M80.6179 181.697H78.0786V184.225H80.6179V181.697Z" fill="black"/>
<path d="M83.1574 181.697H80.6182V184.225H83.1574V181.697Z" fill="black"/>
<path d="M85.6965 181.697H83.1572V184.225H85.6965V181.697Z" fill="black"/>
<path d="M88.236 181.697H85.6968V184.225H88.236V181.697Z" fill="black"/>
<path d="M90.7746 181.697H88.2354V184.225H90.7746V181.697Z" fill="black"/>
<path d="M93.3142 181.697H90.7749V184.225H93.3142V181.697Z" fill="black"/>
<path d="M95.8532 181.697H93.314V184.225H95.8532V181.697Z" fill="#E68E00"/>
<path d="M98.3928 181.697H95.8535V184.225H98.3928V181.697Z" fill="#FFAF19"/>
<path d="M100.932 181.697H98.3926V184.225H100.932V181.697Z" fill="#FFAF19"/>
<path d="M103.471 181.697H100.932V184.225H103.471V181.697Z" fill="#FFAF19"/>
<path d="M106.01 181.697H103.471V184.225H106.01V181.697Z" fill="white"/>
<path d="M108.55 181.697H106.01V184.225H108.55V181.697Z" fill="#FFAF19"/>
<path d="M111.089 181.697H108.55V184.225H111.089V181.697Z" fill="#FFAF19"/>
<path d="M113.628 181.697H111.089V184.225H113.628V181.697Z" fill="black"/>
<path d="M116.168 181.697H113.628V184.225H116.168V181.697Z" fill="black"/>
<path d="M118.707 181.697H116.167V184.225H118.707V181.697Z" fill="black"/>
<path d="M121.246 181.697H118.707V184.225H121.246V181.697Z" fill="black"/>
<path d="M123.785 181.697H121.246V184.225H123.785V181.697Z" fill="black"/>
<path d="M126.324 181.697H123.785V184.225H126.324V181.697Z" fill="black"/>
<path d="M128.863 181.697H126.324V184.225H128.863V181.697Z" fill="white"/>
<path d="M75.5393 184.226H73V186.755H75.5393V184.226Z" fill="white"/>
<path d="M78.0788 184.226H75.5396V186.755H78.0788V184.226Z" fill="black"/>
<path d="M80.6179 184.226H78.0786V186.755H80.6179V184.226Z" fill="#994A00"/>
<path d="M83.1574 184.226H80.6182V186.755H83.1574V184.226Z" fill="#CC6600"/>
<path d="M85.6965 184.226H83.1572V186.755H85.6965V184.226Z" fill="#CC6600"/>
<path d="M88.236 184.226H85.6968V186.755H88.236V184.226Z" fill="#E68E00"/>
<path d="M90.7746 184.226H88.2354V186.755H90.7746V184.226Z" fill="#E68E00"/>
<path d="M93.3142 184.226H90.7749V186.755H93.3142V184.226Z" fill="#E68E00"/>
<path d="M95.8532 184.226H93.314V186.755H95.8532V184.226Z" fill="#FFAF19"/>
<path d="M98.3928 184.226H95.8535V186.755H98.3928V184.226Z" fill="#FFAF19"/>
<path d="M100.932 184.226H98.3926V186.755H100.932V184.226Z" fill="#FFAF19"/>
<path d="M103.471 184.226H100.932V186.755H103.471V184.226Z" fill="#FFAF19"/>
<path d="M106.01 184.226H103.471V186.755H106.01V184.226Z" fill="#FFAF19"/>
<path d="M108.55 184.226H106.01V186.755H108.55V184.226Z" fill="white"/>
<path d="M111.089 184.226H108.55V186.755H111.089V184.226Z" fill="#FFAF19"/>
<path d="M113.628 184.226H111.089V186.755H113.628V184.226Z" fill="#FFAF19"/>
<path d="M116.168 184.226H113.628V186.755H116.168V184.226Z" fill="#FFAF19"/>
<path d="M118.707 184.226H116.167V186.755H118.707V184.226Z" fill="#FFAF19"/>
<path d="M121.246 184.226H118.707V186.755H121.246V184.226Z" fill="#FFAF19"/>
<path d="M123.785 184.226H121.246V186.755H123.785V184.226Z" fill="#FFAF19"/>
<path d="M126.324 184.226H123.785V186.755H126.324V184.226Z" fill="#FFAF19"/>
<path d="M128.863 184.226H126.324V186.755H128.863V184.226Z" fill="black"/>
<path d="M131.403 184.226H128.864V186.755H131.403V184.226Z" fill="white"/>
<path d="M78.0788 186.754H75.5396V189.282H78.0788V186.754Z" fill="white"/>
<path d="M80.6179 186.754H78.0786V189.282H80.6179V186.754Z" fill="black"/>
<path d="M83.1574 186.754H80.6182V189.282H83.1574V186.754Z" fill="black"/>
<path d="M85.6965 186.754H83.1572V189.282H85.6965V186.754Z" fill="#994A00"/>
<path d="M88.236 186.754H85.6968V189.282H88.236V186.754Z" fill="#FFAF19"/>
<path d="M90.7746 186.754H88.2354V189.282H90.7746V186.754Z" fill="#FFAF19"/>
<path d="M93.3142 186.754H90.7749V189.282H93.3142V186.754Z" fill="#FFAF19"/>
<path d="M95.8532 186.754H93.314V189.282H95.8532V186.754Z" fill="#FFAF19"/>
<path d="M98.3928 186.754H95.8535V189.282H98.3928V186.754Z" fill="#FFAF19"/>
<path d="M100.932 186.754H98.3926V189.282H100.932V186.754Z" fill="#FFAF19"/>
<path d="M103.471 186.754H100.932V189.282H103.471V186.754Z" fill="#FFAF19"/>
<path d="M106.01 186.754H103.471V189.282H106.01V186.754Z" fill="#FFAF19"/>
<path d="M108.55 186.754H106.01V189.282H108.55V186.754Z" fill="#FFAF19"/>
<path d="M111.089 186.754H108.55V189.282H111.089V186.754Z" fill="white"/>
<path d="M113.628 186.754H111.089V189.282H113.628V186.754Z" fill="#FFAF19"/>
<path d="M116.168 186.754H113.628V189.282H116.168V186.754Z" fill="#FFAF19"/>
<path d="M118.707 186.754H116.167V189.282H118.707V186.754Z" fill="#FFAF19"/>
<path d="M121.246 186.754H118.707V189.282H121.246V186.754Z" fill="#FFAF19"/>
<path d="M123.785 186.754H121.246V189.282H123.785V186.754Z" fill="black"/>
<path d="M126.324 186.754H123.785V189.282H126.324V186.754Z" fill="black"/>
<path d="M128.863 186.754H126.324V189.282H128.863V186.754Z" fill="white"/>
<path d="M80.6179 189.282H78.0786V191.81H80.6179V189.282Z" fill="white"/>
<path d="M83.1574 189.282H80.6182V191.81H83.1574V189.282Z" fill="white"/>
<path d="M85.6965 189.282H83.1572V191.81H85.6965V189.282Z" fill="black"/>
<path d="M88.236 189.282H85.6968V191.81H88.236V189.282Z" fill="#994A00"/>
<path d="M90.7746 189.282H88.2354V191.81H90.7746V189.282Z" fill="#994A00"/>
<path d="M93.3142 189.282H90.7749V191.81H93.3142V189.282Z" fill="#FFAF19"/>
<path d="M95.8532 189.282H93.314V191.81H95.8532V189.282Z" fill="#FFAF19"/>
<path d="M98.3928 189.282H95.8535V191.81H98.3928V189.282Z" fill="#FFAF19"/>
<path d="M100.932 189.282H98.3926V191.81H100.932V189.282Z" fill="#FFAF19"/>
<path d="M103.471 189.282H100.932V191.81H103.471V189.282Z" fill="#FFAF19"/>
<path d="M106.01 189.282H103.471V191.81H106.01V189.282Z" fill="#FFAF19"/>
<path d="M108.55 189.282H106.01V191.81H108.55V189.282Z" fill="#FFAF19"/>
<path d="M111.089 189.282H108.55V191.81H111.089V189.282Z" fill="#FFAF19"/>
<path d="M113.628 189.282H111.089V191.81H113.628V189.282Z" fill="#FFAF19"/>
<path d="M116.168 189.282H113.628V191.81H116.168V189.282Z" fill="#FFAF19"/>
<path d="M118.707 189.282H116.167V191.81H118.707V189.282Z" fill="#FFAF19"/>
<path d="M121.246 189.282H118.707V191.81H121.246V189.282Z" fill="black"/>
<path d="M123.785 189.282H121.246V191.81H123.785V189.282Z" fill="white"/>
<path d="M126.324 189.282H123.785V191.81H126.324V189.282Z" fill="white"/>
<path d="M85.6965 191.812H83.1572V194.34H85.6965V191.812Z" fill="white"/>
<path d="M88.236 191.812H85.6968V194.34H88.236V191.812Z" fill="black"/>
<path d="M90.7746 191.812H88.2354V194.34H90.7746V191.812Z" fill="black"/>
<path d="M93.3142 191.812H90.7749V194.34H93.3142V191.812Z" fill="#994A00"/>
<path d="M95.8532 191.812H93.314V194.34H95.8532V191.812Z" fill="#FFAF19"/>
<path d="M98.3928 191.812H95.8535V194.34H98.3928V191.812Z" fill="#FFAF19"/>
<path d="M100.932 191.812H98.3926V194.34H100.932V191.812Z" fill="#FFAF19"/>
<path d="M103.471 191.812H100.932V194.34H103.471V191.812Z" fill="#FFAF19"/>
<path d="M106.01 191.812H103.471V194.34H106.01V191.812Z" fill="#FFAF19"/>
<path d="M108.55 191.812H106.01V194.34H108.55V191.812Z" fill="#FFAF19"/>
<path d="M111.089 191.812H108.55V194.34H111.089V191.812Z" fill="#FFAF19"/>
<path d="M113.628 191.812H111.089V194.34H113.628V191.812Z" fill="#FFAF19"/>
<path d="M116.168 191.812H113.628V194.34H116.168V191.812Z" fill="black"/>
<path d="M118.707 191.812H116.167V194.34H118.707V191.812Z" fill="black"/>
<path d="M121.246 191.812H118.707V194.34H121.246V191.812Z" fill="white"/>
<path d="M90.7746 194.34H88.2354V196.868H90.7746V194.34Z" fill="white"/>
<path d="M93.3142 194.34H90.7749V196.868H93.3142V194.34Z" fill="black"/>
<path d="M95.8532 194.34H93.314V196.868H95.8532V194.34Z" fill="#CC6600"/>
<path d="M98.3928 194.34H95.8535V196.868H98.3928V194.34Z" fill="#FFAF19"/>
<path d="M100.932 194.34H98.3926V196.868H100.932V194.34Z" fill="#FFAF19"/>
<path d="M103.471 194.34H100.932V196.868H103.471V194.34Z" fill="#FFAF19"/>
<path d="M106.01 194.34H103.471V196.868H106.01V194.34Z" fill="#FFAF19"/>
<path d="M108.55 194.34H106.01V196.868H108.55V194.34Z" fill="#FFAF19"/>
<path d="M111.089 194.34H108.55V196.868H111.089V194.34Z" fill="#FFAF19"/>
<path d="M113.628 194.34H111.089V196.868H113.628V194.34Z" fill="black"/>
<path d="M116.168 194.34H113.628V196.868H116.168V194.34Z" fill="white"/>
<path d="M88.236 196.867H85.6968V199.396H88.236V196.867Z" fill="white"/>
<path d="M90.7746 196.867H88.2354V199.396H90.7746V196.867Z" fill="black"/>
<path d="M93.3142 196.867H90.7749V199.396H93.3142V196.867Z" fill="#994A00"/>
<path d="M95.8532 196.867H93.314V199.396H95.8532V196.867Z" fill="#E68E00"/>
<path d="M98.3928 196.867H95.8535V199.396H98.3928V196.867Z" fill="#FFAF19"/>
<path d="M100.932 196.867H98.3926V199.396H100.932V196.867Z" fill="#FFAF19"/>
<path d="M103.471 196.867H100.932V199.396H103.471V196.867Z" fill="#FFAF19"/>
<path d="M106.01 196.867H103.471V199.396H106.01V196.867Z" fill="#FFAF19"/>
<path d="M108.55 196.867H106.01V199.396H108.55V196.867Z" fill="#FFAF19"/>
<path d="M111.089 196.867H108.55V199.396H111.089V196.867Z" fill="#FFAF19"/>
<path d="M113.628 196.867H111.089V199.396H113.628V196.867Z" fill="#FFAF19"/>
<path d="M116.168 196.867H113.628V199.396H116.168V196.867Z" fill="black"/>
<path d="M118.707 196.867H116.167V199.396H118.707V196.867Z" fill="white"/>
<path d="M88.236 199.397H85.6968V201.925H88.236V199.397Z" fill="white"/>
<path d="M90.7746 199.397H88.2354V201.925H90.7746V199.397Z" fill="black"/>
<path d="M93.3142 199.397H90.7749V201.925H93.3142V199.397Z" fill="#994A00"/>
<path d="M95.8532 199.397H93.314V201.925H95.8532V199.397Z" fill="#FFAF19"/>
<path d="M98.3928 199.397H95.8535V201.925H98.3928V199.397Z" fill="#FFAF19"/>
<path d="M100.932 199.397H98.3926V201.925H100.932V199.397Z" fill="#FFAF19"/>
<path d="M103.471 199.397H100.932V201.925H103.471V199.397Z" fill="#FFAF19"/>
<path d="M106.01 199.397H103.471V201.925H106.01V199.397Z" fill="#FFAF19"/>
<path d="M108.55 199.397H106.01V201.925H108.55V199.397Z" fill="#FFAF19"/>
<path d="M111.089 199.397H108.55V201.925H111.089V199.397Z" fill="#FFAF19"/>
<path d="M113.628 199.397H111.089V201.925H113.628V199.397Z" fill="#FFAF19"/>
<path d="M116.168 199.397H113.628V201.925H116.168V199.397Z" fill="black"/>
<path d="M118.707 199.397H116.167V201.925H118.707V199.397Z" fill="white"/>
<path d="M88.236 201.923H85.6968V204.451H88.236V201.923Z" fill="white"/>
<path d="M90.7746 201.923H88.2354V204.451H90.7746V201.923Z" fill="black"/>
<path d="M93.3142 201.923H90.7749V204.451H93.3142V201.923Z" fill="#994A00"/>
<path d="M95.8532 201.923H93.314V204.451H95.8532V201.923Z" fill="#FFAF19"/>
<path d="M98.3928 201.923H95.8535V204.451H98.3928V201.923Z" fill="#FFAF19"/>
<path d="M100.932 201.923H98.3926V204.451H100.932V201.923Z" fill="#E68E00"/>
<path d="M103.471 201.923H100.932V204.451H103.471V201.923Z" fill="#E68E00"/>
<path d="M106.01 201.923H103.471V204.451H106.01V201.923Z" fill="#E68E00"/>
<path d="M108.55 201.923H106.01V204.451H108.55V201.923Z" fill="#FFAF19"/>
<path d="M111.089 201.923H108.55V204.451H111.089V201.923Z" fill="#FFAF19"/>
<path d="M113.628 201.923H111.089V204.451H113.628V201.923Z" fill="#FFAF19"/>
<path d="M116.168 201.923H113.628V204.451H116.168V201.923Z" fill="black"/>
<path d="M118.707 201.923H116.167V204.451H118.707V201.923Z" fill="white"/>
<path d="M85.6965 204.453H83.1572V206.981H85.6965V204.453Z" fill="white"/>
<path d="M88.236 204.453H85.6968V206.981H88.236V204.453Z" fill="black"/>
<path d="M90.7746 204.453H88.2354V206.981H90.7746V204.453Z" fill="#994A00"/>
<path d="M93.3142 204.453H90.7749V206.981H93.3142V204.453Z" fill="#E68E00"/>
<path d="M95.8532 204.453H93.314V206.981H95.8532V204.453Z" fill="#FFAF19"/>
<path d="M98.3928 204.453H95.8535V206.981H98.3928V204.453Z" fill="#E68E00"/>
<path d="M100.932 204.453H98.3926V206.981H100.932V204.453Z" fill="#994A00"/>
<path d="M103.471 204.453H100.932V206.981H103.471V204.453Z" fill="black"/>
<path d="M106.01 204.453H103.471V206.981H106.01V204.453Z" fill="#CC6600"/>
<path d="M108.55 204.453H106.01V206.981H108.55V204.453Z" fill="#E68E00"/>
<path d="M111.089 204.453H108.55V206.981H111.089V204.453Z" fill="#FFAF19"/>
<path d="M113.628 204.453H111.089V206.981H113.628V204.453Z" fill="#FFAF19"/>
<path d="M116.168 204.453H113.628V206.981H116.168V204.453Z" fill="#FFAF19"/>
<path d="M118.707 204.453H116.167V206.981H118.707V204.453Z" fill="black"/>
<path d="M121.246 204.453H118.707V206.981H121.246V204.453Z" fill="white"/>
<path d="M85.6965 206.981H83.1572V209.509H85.6965V206.981Z" fill="white"/>
<path d="M88.236 206.981H85.6968V209.509H88.236V206.981Z" fill="black"/>
<path d="M90.7746 206.981H88.2354V209.509H90.7746V206.981Z" fill="#994A00"/>
<path d="M93.3142 206.981H90.7749V209.509H93.3142V206.981Z" fill="#E68E00"/>
<path d="M95.8532 206.981H93.314V209.509H95.8532V206.981Z" fill="#E68E00"/>
<path d="M98.3928 206.981H95.8535V209.509H98.3928V206.981Z" fill="#994A00"/>
<path d="M100.932 206.981H98.3926V209.509H100.932V206.981Z" fill="black"/>
<path d="M103.471 206.981H100.932V209.509H103.471V206.981Z" fill="white"/>
<path d="M106.01 206.981H103.471V209.509H106.01V206.981Z" fill="black"/>
<path d="M108.55 206.981H106.01V209.509H108.55V206.981Z" fill="#CC6600"/>
<path d="M111.089 206.981H108.55V209.509H111.089V206.981Z" fill="#E68E00"/>
<path d="M113.628 206.981H111.089V209.509H113.628V206.981Z" fill="#E68E00"/>
<path d="M116.168 206.981H113.628V209.509H116.168V206.981Z" fill="#FFAF19"/>
<path d="M118.707 206.981H116.167V209.509H118.707V206.981Z" fill="black"/>
<path d="M121.246 206.981H118.707V209.509H121.246V206.981Z" fill="white"/>
<path d="M83.1574 209.508H80.6182V212.037H83.1574V209.508Z" fill="white"/>
<path d="M85.6965 209.508H83.1572V212.037H85.6965V209.508Z" fill="black"/>
<path d="M88.236 209.508H85.6968V212.037H88.236V209.508Z" fill="#994A00"/>
<path d="M90.7746 209.508H88.2354V212.037H90.7746V209.508Z" fill="#CC6600"/>
<path d="M93.3142 209.508H90.7749V212.037H93.3142V209.508Z" fill="#CC6600"/>
<path d="M95.8532 209.508H93.314V212.037H95.8532V209.508Z" fill="black"/>
<path d="M98.3928 209.508H95.8535V212.037H98.3928V209.508Z" fill="black"/>
<path d="M100.932 209.508H98.3926V212.037H100.932V209.508Z" fill="white"/>
<path d="M106.01 209.508H103.471V212.037H106.01V209.508Z" fill="white"/>
<path d="M108.55 209.508H106.01V212.037H108.55V209.508Z" fill="black"/>
<path d="M111.089 209.508H108.55V212.037H111.089V209.508Z" fill="black"/>
<path d="M113.628 209.508H111.089V212.037H113.628V209.508Z" fill="#CC6600"/>
<path d="M116.168 209.508H113.628V212.037H116.168V209.508Z" fill="#E68E00"/>
<path d="M118.707 209.508H116.167V212.037H118.707V209.508Z" fill="#FFAF19"/>
<path d="M121.246 209.508H118.707V212.037H121.246V209.508Z" fill="black"/>
<path d="M123.785 209.508H121.246V212.037H123.785V209.508Z" fill="white"/>
<path d="M85.6965 212.038H83.1572V214.566H85.6965V212.038Z" fill="white"/>
<path d="M88.236 212.038H85.6968V214.566H88.236V212.038Z" fill="black"/>
<path d="M90.7746 212.038H88.2354V214.566H90.7746V212.038Z" fill="black"/>
<path d="M93.3142 212.038H90.7749V214.566H93.3142V212.038Z" fill="black"/>
<path d="M95.8532 212.038H93.314V214.566H95.8532V212.038Z" fill="white"/>
<path d="M98.3928 212.038H95.8535V214.566H98.3928V212.038Z" fill="white"/>
<path d="M108.55 212.038H106.01V214.566H108.55V212.038Z" fill="white"/>
<path d="M111.089 212.038H108.55V214.566H111.089V212.038Z" fill="white"/>
<path d="M113.628 212.038H111.089V214.566H113.628V212.038Z" fill="black"/>
<path d="M116.168 212.038H113.628V214.566H116.168V212.038Z" fill="black"/>
<path d="M118.707 212.038H116.167V214.566H118.707V212.038Z" fill="black"/>
<path d="M121.246 212.038H118.707V214.566H121.246V212.038Z" fill="white"/>
<path d="M88.236 214.566H85.6968V217.094H88.236V214.566Z" fill="white"/>
<path d="M90.7746 214.566H88.2354V217.094H90.7746V214.566Z" fill="white"/>
<path d="M93.3142 214.566H90.7749V217.094H93.3142V214.566Z" fill="white"/>
<path d="M113.628 214.566H111.089V217.094H113.628V214.566Z" fill="white"/>
<path d="M116.168 214.566H113.628V217.094H116.168V214.566Z" fill="white"/>
<path d="M118.707 214.566H116.167V217.094H118.707V214.566Z" fill="white"/>
<rect width="4.31334" height="8.62668" transform="matrix(0.210818 0.977525 0.977525 -0.210818 388.127 10.252)" fill="white"/>
<rect width="4.31334" height="4.31334" transform="matrix(0.210818 0.977525 0.977525 -0.210818 387.218 6.03479)" fill="white"/>
<rect width="4.31334" height="4.31334" transform="matrix(0.210818 0.977525 0.977525 -0.210818 383.001 6.94409)" fill="white"/>
<rect width="4.31334" height="4.31334" transform="matrix(0.210818 0.977525 0.977525 -0.210818 382.092 2.72791)" fill="white"/>
<rect width="4.31334" height="4.31334" transform="matrix(0.210818 0.977525 0.977525 -0.210818 383.911 11.1611)" fill="black"/>
<rect width="377.935" height="4.31334" transform="matrix(0.977525 -0.210818 -0.210818 -0.977525 13.5601 86.6199)" fill="white"/>
<rect width="377.935" height="4.31334" transform="matrix(0.977525 -0.210818 -0.210818 -0.977525 15.3789 95.0521)" fill="white"/>
<rect width="377.935" height="4.31334" transform="matrix(0.977525 -0.210818 -0.210818 -0.977525 14.4692 90.8359)" fill="black"/>
<rect width="4.31334" height="8.62668" transform="matrix(0.977525 -0.210818 -0.210818 -0.977525 10.2534 91.7456)" fill="white"/>
<rect width="4.31334" height="4.31334" transform="matrix(0.977525 -0.210818 -0.210818 -0.977525 6.03564 92.6552)" fill="white"/>
<rect width="4.31334" height="4.31334" transform="matrix(0.977525 -0.210818 -0.210818 -0.977525 6.94482 96.8708)" fill="white"/>
<rect width="4.31334" height="4.31334" transform="matrix(0.977525 -0.210818 -0.210818 -0.977525 2.72754 97.7805)" fill="white"/>
<rect width="4.31334" height="4.31334" transform="matrix(0.977525 -0.210818 -0.210818 -0.977525 11.1626 95.9612)" fill="black"/>
<rect width="44.6265" height="4.31334" transform="matrix(0.210818 0.977525 0.977525 -0.210818 393.253 13.5591)" fill="white"/>
<rect width="44.6265" height="4.31334" transform="matrix(0.210818 0.977525 0.977525 -0.210818 384.822 15.3771)" fill="white"/>
<rect width="44.6265" height="4.31334" transform="matrix(0.210818 0.977525 0.977525 -0.210818 389.035 14.4688)" fill="black"/>
<rect width="377.94" height="44.6267" transform="translate(15.376 95.0538) rotate(-12.1703)" fill="white"/>
<path d="M47.5123 110.172L43.6804 110.998L44.5068 114.83L48.3387 114.004L49.1651 117.836L45.3332 118.662L46.1596 122.494L42.3277 123.321L41.5013 119.489L37.6694 120.315L38.4958 124.147L34.6639 124.973L33.8375 121.141L30.0056 121.968L29.1792 118.136L33.0111 117.31L32.1847 113.478L28.3528 114.304L27.5264 110.472L31.3583 109.646L30.5319 105.814L34.3638 104.987L35.1902 108.819L39.0221 107.993L38.1956 104.161L42.0275 103.335L42.854 107.167L46.6859 106.34L47.5123 110.172ZM40.6749 115.657L39.8485 111.825L36.0166 112.651L36.843 116.483L40.6749 115.657ZM61.1828 99.2035L65.3148 118.363L53.8191 120.842L50.5135 105.515L54.3454 104.688L56.8246 116.184L60.6565 115.358L58.1773 103.862L54.3454 104.688L53.519 100.856L61.1828 99.2035ZM81.9833 102.738L83.6361 110.402L79.8042 111.228L78.9778 107.396L71.314 109.049L72.1404 112.881L79.8042 111.228L80.6306 115.06L69.1349 117.539L65.0029 98.3797L76.4986 95.9004L77.325 99.7323L69.6612 101.385L70.4876 105.217L81.9833 102.738ZM88.8261 97.252L89.6525 101.084L93.4844 100.257L94.3108 104.089L90.4789 104.916L91.3053 108.748L98.9691 107.095L99.7955 110.927L88.2998 113.406L84.1677 94.2465L95.6634 91.7673L96.4899 95.5992L88.8261 97.252ZM118.117 102.965L121.949 102.139L122.775 105.971L103.616 110.103L102.789 106.271L106.621 105.445L104.142 93.9489L107.974 93.1225L110.453 104.618L114.285 103.792L111.806 92.2961L107.974 93.1225L107.147 89.2906L114.811 87.6378L118.117 102.965ZM141.638 81.8522L143.29 89.516L139.459 90.3424L138.632 86.5105L130.968 88.1633L130.142 84.3314L141.638 81.8522ZM131.795 91.9952L139.459 90.3424L140.285 94.1743L132.621 95.8271L131.795 91.9952ZM141.111 98.0062L140.285 94.1743L144.117 93.3479L145.77 101.012L134.274 103.491L133.448 99.659L141.111 98.0062ZM160.785 77.7227L164.917 96.8822L161.086 97.7086L159.846 91.9608L152.182 93.6136L153.422 99.3614L149.59 100.188L146.284 84.8602L150.116 84.0338L151.356 89.7817L159.02 88.1289L157.78 82.381L150.116 84.0338L149.29 80.2019L160.785 77.7227ZM184.616 76.5934L176.952 78.2462L176.126 74.4143L183.79 72.7615L184.616 76.5934ZM179.431 89.7419L187.095 88.0891L187.922 91.921L176.426 94.4002L173.12 79.0726L176.952 78.2462L179.431 89.7419ZM195.274 70.2848L199.105 69.4584L203.238 88.6179L199.406 89.4443L197.753 81.7805L190.089 83.4333L187.61 71.9376L191.442 71.1112L193.094 78.775L196.926 77.9486L195.274 70.2848ZM207.584 71.64L208.41 75.4719L212.242 74.6455L213.069 78.4774L209.237 79.3038L210.063 83.1357L217.727 81.4829L218.553 85.3148L207.058 87.794L202.926 68.6345L214.421 66.1553L215.248 69.9872L207.584 71.64ZM229.737 62.8522L230.564 66.6841L226.732 67.5105L230.037 82.8381L226.205 83.6645L222.9 68.3369L219.068 69.1634L218.241 65.3315L229.737 62.8522ZM246.713 67.2113L250.545 66.3849L251.372 70.2168L247.54 71.0432L249.193 78.707L245.361 79.5334L241.229 60.3739L245.06 59.5475L246.713 67.2113ZM248.892 58.7211L252.724 57.8947L254.377 65.5585L250.545 66.3849L248.892 58.7211ZM253.024 77.8806L251.372 70.2168L255.203 69.3904L256.856 77.0542L253.024 77.8806ZM268.04 54.5916L272.172 73.7511L260.676 76.2303L257.371 60.9027L261.203 60.0763L263.682 71.572L267.514 70.7456L265.035 59.2499L261.203 60.0763L260.376 56.2444L268.04 54.5916ZM276.519 56.7732L280.35 55.9468L281.177 59.7787L277.345 60.6051L279.824 72.1008L275.992 72.9272L271.86 53.7677L275.692 52.9413L276.519 56.7732ZM287.188 50.4621L291.02 49.6357L295.152 68.7952L291.32 69.6216L288.841 58.1259L285.009 58.9523L284.182 55.1204L288.014 54.294L287.188 50.4621ZM282.003 63.6106L281.177 59.7787L285.009 58.9523L285.835 62.7842L282.003 63.6106ZM306.343 46.331L310.475 65.4905L306.643 66.3169L303.338 50.9893L299.506 51.8157L302.811 67.1433L298.979 67.9697L294.847 48.8102L306.343 46.331ZM325.491 42.2015L329.623 61.361L325.791 62.1874L324.551 56.4396L316.888 58.0924L318.127 63.8402L314.295 64.6666L310.99 49.339L314.822 48.5126L316.061 54.2605L323.725 52.6077L322.485 46.8598L314.822 48.5126L313.995 44.6807L325.491 42.2015ZM336.992 39.7211L340.824 38.8947L344.956 58.0542L341.124 58.8806L339.471 51.2168L335.639 52.0432L337.292 59.707L333.46 60.5334L329.328 41.3739L333.16 40.5475L334.813 48.2113L338.645 47.3849L336.992 39.7211ZM350.129 44.9082L353.96 44.0818L354.787 47.9137L350.955 48.7401L352.608 56.4039L348.776 57.2304L344.644 38.0709L348.476 37.2444L350.129 44.9082ZM356.14 35.5916L359.971 34.7652L364.104 53.9247L360.272 54.7511L357.792 43.2554L353.96 44.0818L353.134 40.2499L356.966 39.4235L356.14 35.5916ZM369.293 40.7751L373.125 39.9487L373.952 43.7806L370.12 44.607L371.773 52.2708L367.941 53.0972L363.809 33.9377L367.641 33.1113L369.293 40.7751ZM375.304 31.4584L379.136 30.632L383.268 49.7915L379.436 50.6179L376.957 39.1222L373.125 39.9487L372.299 36.1168L376.131 35.2903L375.304 31.4584Z" fill="black"/>
<rect width="44.6266" height="4.31334" transform="matrix(0.210818 0.977525 0.977525 -0.210818 11.1597 95.9632)" fill="white"/>
<rect width="44.6266" height="4.31334" transform="matrix(0.210818 0.977525 0.977525 -0.210818 2.72754 97.7817)" fill="white"/>
<rect width="44.6266" height="4.31334" transform="matrix(0.210818 0.977525 0.977525 -0.210818 6.94385 96.8724)" fill="black"/>
<rect x="29.9102" y="141.985" width="4.31334" height="17.2534" transform="rotate(-12.1703 29.9102 141.985)" fill="black"/>
<rect x="34.1279" y="141.076" width="4.31334" height="8.62668" transform="rotate(77.8297 34.1279 141.076)" fill="black"/>
<rect x="24.7827" y="138.678" width="4.31334" height="4.31334" transform="rotate(77.8297 24.7827 138.678)" fill="black"/>
<rect x="20.5684" y="139.587" width="4.31334" height="4.31334" transform="rotate(77.8297 20.5684 139.587)" fill="white"/>
<rect x="16.3521" y="140.496" width="4.31334" height="4.31334" transform="rotate(77.8297 16.3521 140.496)" fill="white"/>
<rect x="25.6924" y="142.895" width="4.31334" height="4.31334" transform="rotate(77.8297 25.6924 142.895)" fill="white"/>
<rect x="30.8193" y="146.202" width="4.31334" height="4.31334" transform="rotate(77.8297 30.8193 146.202)" fill="white"/>
<rect x="31.7285" y="150.418" width="4.31334" height="4.31334" transform="rotate(77.8297 31.7285 150.418)" fill="white"/>
<rect x="32.6382" y="154.634" width="4.31334" height="4.31334" transform="rotate(77.8297 32.6382 154.634)" fill="white"/>
<rect x="33.5474" y="158.85" width="4.31334" height="4.31334" transform="rotate(77.8297 33.5474 158.85)" fill="white"/>
<rect x="37.7651" y="157.941" width="4.31334" height="4.31334" transform="rotate(77.8297 37.7651 157.941)" fill="white"/>
<rect x="41.9824" y="157.031" width="4.31334" height="4.31334" transform="rotate(77.8297 41.9824 157.031)" fill="white"/>
<rect x="41.0732" y="152.815" width="4.31334" height="4.31334" transform="rotate(77.8297 41.0732 152.815)" fill="white"/>
<rect x="45.2896" y="151.906" width="4.31334" height="4.31334" transform="rotate(77.8297 45.2896 151.906)" fill="white"/>
<rect x="44.3804" y="147.69" width="4.31334" height="4.31334" transform="rotate(77.8297 44.3804 147.69)" fill="white"/>
<rect x="48.5933" y="146.781" width="4.31334" height="4.31334" transform="rotate(77.8297 48.5933 146.781)" fill="white"/>
<rect x="47.6841" y="142.565" width="4.31334" height="4.31334" transform="rotate(77.8297 47.6841 142.565)" fill="white"/>
<rect x="39.2549" y="144.383" width="4.31334" height="4.31334" transform="rotate(77.8297 39.2549 144.383)" fill="white"/>
<rect x="38.3452" y="140.166" width="4.31334" height="4.31334" transform="rotate(77.8297 38.3452 140.166)" fill="white"/>
<rect x="42.5615" y="139.257" width="4.31334" height="4.31334" transform="rotate(77.8297 42.5615 139.257)" fill="white"/>
<rect x="46.7744" y="138.348" width="4.31334" height="4.31334" transform="rotate(77.8297 46.7744 138.348)" fill="black"/>
<rect x="29.0005" y="137.768" width="4.31334" height="4.31334" transform="rotate(77.8297 29.0005 137.768)" fill="white"/>
<rect x="33.2183" y="136.859" width="4.31334" height="4.31334" transform="rotate(77.8297 33.2183 136.859)" fill="white"/>
<rect x="37.436" y="135.949" width="4.31334" height="4.31334" transform="rotate(77.8297 37.436 135.949)" fill="white"/>
<rect x="41.6519" y="135.04" width="4.31334" height="4.31334" transform="rotate(77.8297 41.6519 135.04)" fill="white"/>
<rect x="45.8652" y="134.131" width="4.31334" height="4.31334" transform="rotate(77.8297 45.8652 134.131)" fill="white"/>
<rect x="26.6016" y="147.112" width="4.31334" height="4.31334" transform="rotate(77.8297 26.6016 147.112)" fill="white"/>
<rect x="21.4775" y="143.804" width="4.31334" height="4.31334" transform="rotate(77.8297 21.4775 143.804)" fill="white"/>
<rect x="40.1641" y="148.599" width="4.31334" height="4.31334" transform="rotate(77.8297 40.1641 148.599)" fill="black"/>
<rect x="43.4707" y="143.473" width="4.31334" height="4.31334" transform="rotate(77.8297 43.4707 143.473)" fill="black"/>
<rect x="396.047" y="67.4343" width="4.31334" height="356.372" transform="rotate(77.8297 396.047 67.4343)" fill="white"/>
<rect x="394.228" y="59.0012" width="4.31334" height="356.372" transform="rotate(77.8297 394.228 59.0012)" fill="white"/>
<rect x="395.137" y="63.2174" width="4.31334" height="356.372" transform="rotate(77.8297 395.137 63.2174)" fill="black"/>
<rect x="399.354" y="62.3083" width="4.31334" height="8.62668" transform="rotate(-102.17 399.354 62.3083)" fill="white"/>
<rect x="400.263" y="66.526" width="4.31334" height="4.31334" transform="rotate(-102.17 400.263 66.526)" fill="white"/>
<rect x="396.047" y="67.4353" width="4.31334" height="4.31334" transform="rotate(-102.17 396.047 67.4353)" fill="white"/>
<rect x="396.957" y="71.6514" width="4.31334" height="4.31334" transform="rotate(-102.17 396.957 71.6514)" fill="white"/>
<rect x="395.138" y="63.2177" width="4.31334" height="4.31334" transform="rotate(-102.17 395.138 63.2177)" fill="black"/>
</svg>
