<svg width="57" height="57" viewBox="0 0 57 57" fill="none" xmlns="http://www.w3.org/2000/svg">
<path d="M12.5853 0H9.43896V3.14629H12.5853V0Z" fill="white"/>
<path d="M15.7317 0H12.5854V3.14629H15.7317V0Z" fill="white"/>
<path d="M18.8773 0H15.731V3.14629H18.8773V0Z" fill="white"/>
<path d="M22.0237 0H18.8774V3.14629H22.0237V0Z" fill="white"/>
<path d="M25.1702 0H22.0239V3.14629H25.1702V0Z" fill="white"/>
<path d="M28.3167 0H25.1704V3.14629H28.3167V0Z" fill="white"/>
<path d="M31.4627 0H28.3164V3.14629H31.4627V0Z" fill="white"/>
<path d="M34.6092 0H31.4629V3.14629H34.6092V0Z" fill="white"/>
<path d="M37.7557 0H34.6094V3.14629H37.7557V0Z" fill="white"/>
<path d="M40.9022 0H37.7559V3.14629H40.9022V0Z" fill="white"/>
<path d="M44.0486 0H40.9023V3.14629H44.0486V0Z" fill="white"/>
<path d="M47.1941 0H44.0479V3.14629H47.1941V0Z" fill="white"/>
<path d="M9.43926 3.146H6.29297V6.29229H9.43926V3.146Z" fill="white"/>
<path d="M12.5853 3.146H9.43896V6.29229H12.5853V3.146Z" fill="black"/>
<path d="M15.7317 3.146H12.5854V6.29229H15.7317V3.146Z" fill="black"/>
<path d="M18.8773 3.146H15.731V6.29229H18.8773V3.146Z" fill="black"/>
<path d="M22.0237 3.146H18.8774V6.29229H22.0237V3.146Z" fill="black"/>
<path d="M25.1702 3.146H22.0239V6.29229H25.1702V3.146Z" fill="black"/>
<path d="M28.3167 3.146H25.1704V6.29229H28.3167V3.146Z" fill="black"/>
<path d="M31.4627 3.146H28.3164V6.29229H31.4627V3.146Z" fill="black"/>
<path d="M34.6092 3.146H31.4629V6.29229H34.6092V3.146Z" fill="black"/>
<path d="M37.7557 3.146H34.6094V6.29229H37.7557V3.146Z" fill="black"/>
<path d="M40.9022 3.146H37.7559V6.29229H40.9022V3.146Z" fill="black"/>
<path d="M44.0486 3.146H40.9023V6.29229H44.0486V3.146Z" fill="black"/>
<path d="M47.1941 3.146H44.0479V6.29229H47.1941V3.146Z" fill="black"/>
<path d="M50.3406 3.146H47.1943V6.29229H50.3406V3.146Z" fill="white"/>
<path d="M6.29278 6.29285H3.14648V9.43914H6.29278V6.29285Z" fill="white"/>
<path d="M9.43926 6.29285H6.29297V9.43914H9.43926V6.29285Z" fill="black"/>
<path d="M12.5853 6.29285H9.43896V9.43914H12.5853V6.29285Z" fill="#CCCCCC"/>
<path d="M15.7317 6.29285H12.5854V9.43914H15.7317V6.29285Z" fill="#CCCCCC"/>
<path d="M18.8773 6.29285H15.731V9.43914H18.8773V6.29285Z" fill="white"/>
<path d="M22.0237 6.29285H18.8774V9.43914H22.0237V6.29285Z" fill="white"/>
<path d="M25.1702 6.29285H22.0239V9.43914H25.1702V6.29285Z" fill="#CCCCCC"/>
<path d="M28.3167 6.29285H25.1704V9.43914H28.3167V6.29285Z" fill="white"/>
<path d="M31.4627 6.29285H28.3164V9.43914H31.4627V6.29285Z" fill="white"/>
<path d="M34.6092 6.29285H31.4629V9.43914H34.6092V6.29285Z" fill="white"/>
<path d="M37.7557 6.29285H34.6094V9.43914H37.7557V6.29285Z" fill="white"/>
<path d="M40.9022 6.29285H37.7559V9.43914H40.9022V6.29285Z" fill="#CCCCCC"/>
<path d="M44.0486 6.29285H40.9023V9.43914H44.0486V6.29285Z" fill="#CCCCCC"/>
<path d="M47.1941 6.29285H44.0479V9.43914H47.1941V6.29285Z" fill="white"/>
<path d="M50.3406 6.29285H47.1943V9.43914H50.3406V6.29285Z" fill="black"/>
<path d="M53.4866 6.29285H50.3403V9.43914H53.4866V6.29285Z" fill="white"/>
<path d="M3.14629 9.43884H0V12.5851H3.14629V9.43884Z" fill="white"/>
<path d="M6.29278 9.43884H3.14648V12.5851H6.29278V9.43884Z" fill="black"/>
<path d="M9.43926 9.43884H6.29297V12.5851H9.43926V9.43884Z" fill="#999999"/>
<path d="M12.5853 9.43884H9.43896V12.5851H12.5853V9.43884Z" fill="#CCCCCC"/>
<path d="M15.7317 9.43884H12.5854V12.5851H15.7317V9.43884Z" fill="#CCCCCC"/>
<path d="M18.8773 9.43884H15.731V12.5851H18.8773V9.43884Z" fill="#CCCCCC"/>
<path d="M22.0237 9.43884H18.8774V12.5851H22.0237V9.43884Z" fill="#CCCCCC"/>
<path d="M25.1702 9.43884H22.0239V12.5851H25.1702V9.43884Z" fill="#CCCCCC"/>
<path d="M28.3167 9.43884H25.1704V12.5851H28.3167V9.43884Z" fill="#CCCCCC"/>
<path d="M31.4627 9.43884H28.3164V12.5851H31.4627V9.43884Z" fill="#CCCCCC"/>
<path d="M34.6092 9.43884H31.4629V12.5851H34.6092V9.43884Z" fill="#CCCCCC"/>
<path d="M37.7557 9.43884H34.6094V12.5851H37.7557V9.43884Z" fill="#CCCCCC"/>
<path d="M40.9022 9.43884H37.7559V12.5851H40.9022V9.43884Z" fill="#CCCCCC"/>
<path d="M44.0486 9.43884H40.9023V12.5851H44.0486V9.43884Z" fill="#CCCCCC"/>
<path d="M47.1941 9.43884H44.0479V12.5851H47.1941V9.43884Z" fill="#CCCCCC"/>
<path d="M50.3406 9.43884H47.1943V12.5851H50.3406V9.43884Z" fill="#CCCCCC"/>
<path d="M53.4866 9.43884H50.3403V12.5851H53.4866V9.43884Z" fill="black"/>
<path d="M56.6331 9.43884H53.4868V12.5851H56.6331V9.43884Z" fill="white"/>
<path d="M3.14629 12.585H0V15.7313H3.14629V12.585Z" fill="white"/>
<path d="M6.29278 12.585H3.14648V15.7313H6.29278V12.585Z" fill="black"/>
<path d="M9.43926 12.585H6.29297V15.7313H9.43926V12.585Z" fill="#999999"/>
<path d="M12.5853 12.585H9.43896V15.7313H12.5853V12.585Z" fill="#CCCCCC"/>
<path d="M15.7317 12.585H12.5854V15.7313H15.7317V12.585Z" fill="#CCCCCC"/>
<path d="M18.8773 12.585H15.731V15.7313H18.8773V12.585Z" fill="#CCCCCC"/>
<path d="M22.0237 12.585H18.8774V15.7313H22.0237V12.585Z" fill="#CCCCCC"/>
<path d="M25.1702 12.585H22.0239V15.7313H25.1702V12.585Z" fill="#CCCCCC"/>
<path d="M28.3167 12.585H25.1704V15.7313H28.3167V12.585Z" fill="#808080"/>
<path d="M31.4627 12.585H28.3164V15.7313H31.4627V12.585Z" fill="#808080"/>
<path d="M34.6092 12.585H31.4629V15.7313H34.6092V12.585Z" fill="#808080"/>
<path d="M37.7557 12.585H34.6094V15.7313H37.7557V12.585Z" fill="#CCCCCC"/>
<path d="M40.9022 12.585H37.7559V15.7313H40.9022V12.585Z" fill="#CCCCCC"/>
<path d="M44.0486 12.585H40.9023V15.7313H44.0486V12.585Z" fill="#CCCCCC"/>
<path d="M47.1941 12.585H44.0479V15.7313H47.1941V12.585Z" fill="#CCCCCC"/>
<path d="M50.3406 12.585H47.1943V15.7313H50.3406V12.585Z" fill="#CCCCCC"/>
<path d="M53.4866 12.585H50.3403V15.7313H53.4866V12.585Z" fill="black"/>
<path d="M56.6331 12.585H53.4868V15.7313H56.6331V12.585Z" fill="white"/>
<path d="M3.14629 15.7317H0V18.878H3.14629V15.7317Z" fill="white"/>
<path d="M6.29278 15.7317H3.14648V18.878H6.29278V15.7317Z" fill="black"/>
<path d="M9.43926 15.7317H6.29297V18.878H9.43926V15.7317Z" fill="#999999"/>
<path d="M12.5853 15.7317H9.43896V18.878H12.5853V15.7317Z" fill="#CCCCCC"/>
<path d="M15.7317 15.7317H12.5854V18.878H15.7317V15.7317Z" fill="#CCCCCC"/>
<path d="M18.8773 15.7317H15.731V18.878H18.8773V15.7317Z" fill="#CCCCCC"/>
<path d="M22.0237 15.7317H18.8774V18.878H22.0237V15.7317Z" fill="#CCCCCC"/>
<path d="M25.1702 15.7317H22.0239V18.878H25.1702V15.7317Z" fill="#808080"/>
<path d="M28.3167 15.7317H25.1704V18.878H28.3167V15.7317Z" fill="#CCCCCC"/>
<path d="M31.4627 15.7317H28.3164V18.878H31.4627V15.7317Z" fill="#CCCCCC"/>
<path d="M34.6092 15.7317H31.4629V18.878H34.6092V15.7317Z" fill="#CCCCCC"/>
<path d="M37.7557 15.7317H34.6094V18.878H37.7557V15.7317Z" fill="#808080"/>
<path d="M40.9022 15.7317H37.7559V18.878H40.9022V15.7317Z" fill="#CCCCCC"/>
<path d="M44.0486 15.7317H40.9023V18.878H44.0486V15.7317Z" fill="#CCCCCC"/>
<path d="M47.1941 15.7317H44.0479V18.878H47.1941V15.7317Z" fill="#CCCCCC"/>
<path d="M50.3406 15.7317H47.1943V18.878H50.3406V15.7317Z" fill="#CCCCCC"/>
<path d="M53.4866 15.7317H50.3403V18.878H53.4866V15.7317Z" fill="black"/>
<path d="M56.6331 15.7317H53.4868V18.878H56.6331V15.7317Z" fill="white"/>
<path d="M3.14629 18.8778H0V22.0241H3.14629V18.8778Z" fill="white"/>
<path d="M6.29278 18.8778H3.14648V22.0241H6.29278V18.8778Z" fill="black"/>
<path d="M9.43926 18.8778H6.29297V22.0241H9.43926V18.8778Z" fill="#999999"/>
<path d="M12.5853 18.8778H9.43896V22.0241H12.5853V18.8778Z" fill="#CCCCCC"/>
<path d="M15.7317 18.8778H12.5854V22.0241H15.7317V18.8778Z" fill="#CCCCCC"/>
<path d="M18.8773 18.8778H15.731V22.0241H18.8773V18.8778Z" fill="#CCCCCC"/>
<path d="M22.0237 18.8778H18.8774V22.0241H22.0237V18.8778Z" fill="#CCCCCC"/>
<path d="M25.1702 18.8778H22.0239V22.0241H25.1702V18.8778Z" fill="#808080"/>
<path d="M28.3167 18.8778H25.1704V22.0241H28.3167V18.8778Z" fill="#CCCCCC"/>
<path d="M31.4627 18.8778H28.3164V22.0241H31.4627V18.8778Z" fill="#CCCCCC"/>
<path d="M34.6092 18.8778H31.4629V22.0241H34.6092V18.8778Z" fill="#CCCCCC"/>
<path d="M37.7557 18.8778H34.6094V22.0241H37.7557V18.8778Z" fill="#808080"/>
<path d="M40.9022 18.8778H37.7559V22.0241H40.9022V18.8778Z" fill="#CCCCCC"/>
<path d="M44.0486 18.8778H40.9023V22.0241H44.0486V18.8778Z" fill="#CCCCCC"/>
<path d="M47.1941 18.8778H44.0479V22.0241H47.1941V18.8778Z" fill="#CCCCCC"/>
<path d="M50.3406 18.8778H47.1943V22.0241H50.3406V18.8778Z" fill="#CCCCCC"/>
<path d="M53.4866 18.8778H50.3403V22.0241H53.4866V18.8778Z" fill="black"/>
<path d="M56.6331 18.8778H53.4868V22.0241H56.6331V18.8778Z" fill="white"/>
<path d="M3.14629 22.0238H0V25.1701H3.14629V22.0238Z" fill="white"/>
<path d="M6.29278 22.0238H3.14648V25.1701H6.29278V22.0238Z" fill="black"/>
<path d="M9.43926 22.0238H6.29297V25.1701H9.43926V22.0238Z" fill="#999999"/>
<path d="M12.5853 22.0238H9.43896V25.1701H12.5853V22.0238Z" fill="#CCCCCC"/>
<path d="M15.7317 22.0238H12.5854V25.1701H15.7317V22.0238Z" fill="#CCCCCC"/>
<path d="M18.8773 22.0238H15.731V25.1701H18.8773V22.0238Z" fill="#CCCCCC"/>
<path d="M22.0237 22.0238H18.8774V25.1701H22.0237V22.0238Z" fill="#CCCCCC"/>
<path d="M25.1702 22.0238H22.0239V25.1701H25.1702V22.0238Z" fill="#808080"/>
<path d="M28.3167 22.0238H25.1704V25.1701H28.3167V22.0238Z" fill="#CCCCCC"/>
<path d="M31.4627 22.0238H28.3164V25.1701H31.4627V22.0238Z" fill="#CCCCCC"/>
<path d="M34.6092 22.0238H31.4629V25.1701H34.6092V22.0238Z" fill="#CCCCCC"/>
<path d="M37.7557 22.0238H34.6094V25.1701H37.7557V22.0238Z" fill="#808080"/>
<path d="M40.9022 22.0238H37.7559V25.1701H40.9022V22.0238Z" fill="#CCCCCC"/>
<path d="M44.0486 22.0238H40.9023V25.1701H44.0486V22.0238Z" fill="#CCCCCC"/>
<path d="M47.1941 22.0238H44.0479V25.1701H47.1941V22.0238Z" fill="#CCCCCC"/>
<path d="M50.3406 22.0238H47.1943V25.1701H50.3406V22.0238Z" fill="#CCCCCC"/>
<path d="M53.4866 22.0238H50.3403V25.1701H53.4866V22.0238Z" fill="black"/>
<path d="M56.6331 22.0238H53.4868V25.1701H56.6331V22.0238Z" fill="white"/>
<path d="M3.14629 25.1707H0V28.3169H3.14629V25.1707Z" fill="white"/>
<path d="M6.29278 25.1707H3.14648V28.3169H6.29278V25.1707Z" fill="black"/>
<path d="M9.43926 25.1707H6.29297V28.3169H9.43926V25.1707Z" fill="#999999"/>
<path d="M12.5853 25.1707H9.43896V28.3169H12.5853V25.1707Z" fill="#CCCCCC"/>
<path d="M15.7317 25.1707H12.5854V28.3169H15.7317V25.1707Z" fill="#CCCCCC"/>
<path d="M18.8773 25.1707H15.731V28.3169H18.8773V25.1707Z" fill="#CCCCCC"/>
<path d="M22.0237 25.1707H18.8774V28.3169H22.0237V25.1707Z" fill="#CCCCCC"/>
<path d="M25.1702 25.1707H22.0239V28.3169H25.1702V25.1707Z" fill="#808080"/>
<path d="M28.3167 25.1707H25.1704V28.3169H28.3167V25.1707Z" fill="#CCCCCC"/>
<path d="M31.4627 25.1707H28.3164V28.3169H31.4627V25.1707Z" fill="#CCCCCC"/>
<path d="M34.6092 25.1707H31.4629V28.3169H34.6092V25.1707Z" fill="#CCCCCC"/>
<path d="M37.7557 25.1707H34.6094V28.3169H37.7557V25.1707Z" fill="#808080"/>
<path d="M40.9022 25.1707H37.7559V28.3169H40.9022V25.1707Z" fill="#CCCCCC"/>
<path d="M44.0486 25.1707H40.9023V28.3169H44.0486V25.1707Z" fill="#CCCCCC"/>
<path d="M47.1941 25.1707H44.0479V28.3169H47.1941V25.1707Z" fill="#CCCCCC"/>
<path d="M50.3406 25.1707H47.1943V28.3169H50.3406V25.1707Z" fill="#CCCCCC"/>
<path d="M53.4866 25.1707H50.3403V28.3169H53.4866V25.1707Z" fill="black"/>
<path d="M56.6331 25.1707H53.4868V28.3169H56.6331V25.1707Z" fill="white"/>
<path d="M3.14629 28.3167H0V31.4629H3.14629V28.3167Z" fill="white"/>
<path d="M6.29278 28.3167H3.14648V31.4629H6.29278V28.3167Z" fill="black"/>
<path d="M9.43926 28.3167H6.29297V31.4629H9.43926V28.3167Z" fill="#999999"/>
<path d="M12.5853 28.3167H9.43896V31.4629H12.5853V28.3167Z" fill="#CCCCCC"/>
<path d="M15.7317 28.3167H12.5854V31.4629H15.7317V28.3167Z" fill="#CCCCCC"/>
<path d="M18.8773 28.3167H15.731V31.4629H18.8773V28.3167Z" fill="#CCCCCC"/>
<path d="M22.0237 28.3167H18.8774V31.4629H22.0237V28.3167Z" fill="#CCCCCC"/>
<path d="M25.1702 28.3167H22.0239V31.4629H25.1702V28.3167Z" fill="#808080"/>
<path d="M28.3167 28.3167H25.1704V31.4629H28.3167V28.3167Z" fill="#CCCCCC"/>
<path d="M31.4627 28.3167H28.3164V31.4629H31.4627V28.3167Z" fill="#CCCCCC"/>
<path d="M34.6092 28.3167H31.4629V31.4629H34.6092V28.3167Z" fill="#CCCCCC"/>
<path d="M37.7557 28.3167H34.6094V31.4629H37.7557V28.3167Z" fill="#808080"/>
<path d="M40.9022 28.3167H37.7559V31.4629H40.9022V28.3167Z" fill="#CCCCCC"/>
<path d="M44.0486 28.3167H40.9023V31.4629H44.0486V28.3167Z" fill="#CCCCCC"/>
<path d="M47.1941 28.3167H44.0479V31.4629H47.1941V28.3167Z" fill="#CCCCCC"/>
<path d="M50.3406 28.3167H47.1943V31.4629H50.3406V28.3167Z" fill="#CCCCCC"/>
<path d="M53.4866 28.3167H50.3403V31.4629H53.4866V28.3167Z" fill="black"/>
<path d="M56.6331 28.3167H53.4868V31.4629H56.6331V28.3167Z" fill="white"/>
<path d="M3.14629 31.4626H0V34.6089H3.14629V31.4626Z" fill="white"/>
<path d="M6.29278 31.4626H3.14648V34.6089H6.29278V31.4626Z" fill="black"/>
<path d="M9.43926 31.4626H6.29297V34.6089H9.43926V31.4626Z" fill="#999999"/>
<path d="M12.5853 31.4626H9.43896V34.6089H12.5853V31.4626Z" fill="#CCCCCC"/>
<path d="M15.7317 31.4626H12.5854V34.6089H15.7317V31.4626Z" fill="#CCCCCC"/>
<path d="M18.8773 31.4626H15.731V34.6089H18.8773V31.4626Z" fill="#CCCCCC"/>
<path d="M22.0237 31.4626H18.8774V34.6089H22.0237V31.4626Z" fill="#CCCCCC"/>
<path d="M25.1702 31.4626H22.0239V34.6089H25.1702V31.4626Z" fill="#CCCCCC"/>
<path d="M28.3167 31.4626H25.1704V34.6089H28.3167V31.4626Z" fill="#808080"/>
<path d="M31.4627 31.4626H28.3164V34.6089H31.4627V31.4626Z" fill="#808080"/>
<path d="M34.6092 31.4626H31.4629V34.6089H34.6092V31.4626Z" fill="#808080"/>
<path d="M37.7557 31.4626H34.6094V34.6089H37.7557V31.4626Z" fill="#CCCCCC"/>
<path d="M40.9022 31.4626H37.7559V34.6089H40.9022V31.4626Z" fill="#CCCCCC"/>
<path d="M44.0486 31.4626H40.9023V34.6089H44.0486V31.4626Z" fill="#CCCCCC"/>
<path d="M47.1941 31.4626H44.0479V34.6089H47.1941V31.4626Z" fill="#CCCCCC"/>
<path d="M50.3406 31.4626H47.1943V34.6089H50.3406V31.4626Z" fill="#CCCCCC"/>
<path d="M53.4866 31.4626H50.3403V34.6089H53.4866V31.4626Z" fill="black"/>
<path d="M56.6331 31.4626H53.4868V34.6089H56.6331V31.4626Z" fill="white"/>
<path d="M3.14629 34.6095H0V37.7558H3.14629V34.6095Z" fill="white"/>
<path d="M6.29278 34.6095H3.14648V37.7558H6.29278V34.6095Z" fill="black"/>
<path d="M9.43926 34.6095H6.29297V37.7558H9.43926V34.6095Z" fill="#999999"/>
<path d="M12.5853 34.6095H9.43896V37.7558H12.5853V34.6095Z" fill="#CCCCCC"/>
<path d="M15.7317 34.6095H12.5854V37.7558H15.7317V34.6095Z" fill="#CCCCCC"/>
<path d="M18.8773 34.6095H15.731V37.7558H18.8773V34.6095Z" fill="#CCCCCC"/>
<path d="M22.0237 34.6095H18.8774V37.7558H22.0237V34.6095Z" fill="#CCCCCC"/>
<path d="M25.1702 34.6095H22.0239V37.7558H25.1702V34.6095Z" fill="#CCCCCC"/>
<path d="M28.3167 34.6095H25.1704V37.7558H28.3167V34.6095Z" fill="#CCCCCC"/>
<path d="M31.4627 34.6095H28.3164V37.7558H31.4627V34.6095Z" fill="#CCCCCC"/>
<path d="M34.6092 34.6095H31.4629V37.7558H34.6092V34.6095Z" fill="#CCCCCC"/>
<path d="M37.7557 34.6095H34.6094V37.7558H37.7557V34.6095Z" fill="#808080"/>
<path d="M40.9022 34.6095H37.7559V37.7558H40.9022V34.6095Z" fill="#808080"/>
<path d="M44.0486 34.6095H40.9023V37.7558H44.0486V34.6095Z" fill="#CCCCCC"/>
<path d="M47.1941 34.6095H44.0479V37.7558H47.1941V34.6095Z" fill="#CCCCCC"/>
<path d="M50.3406 34.6095H47.1943V37.7558H50.3406V34.6095Z" fill="#CCCCCC"/>
<path d="M53.4866 34.6095H50.3403V37.7558H53.4866V34.6095Z" fill="black"/>
<path d="M56.6331 34.6095H53.4868V37.7558H56.6331V34.6095Z" fill="white"/>
<path d="M3.14629 37.7555H0V40.9018H3.14629V37.7555Z" fill="white"/>
<path d="M6.29278 37.7555H3.14648V40.9018H6.29278V37.7555Z" fill="black"/>
<path d="M9.43926 37.7555H6.29297V40.9018H9.43926V37.7555Z" fill="#999999"/>
<path d="M12.5853 37.7555H9.43896V40.9018H12.5853V37.7555Z" fill="#E6E6E6"/>
<path d="M15.7317 37.7555H12.5854V40.9018H15.7317V37.7555Z" fill="#CCCCCC"/>
<path d="M18.8773 37.7555H15.731V40.9018H18.8773V37.7555Z" fill="#CCCCCC"/>
<path d="M22.0237 37.7555H18.8774V40.9018H22.0237V37.7555Z" fill="#CCCCCC"/>
<path d="M25.1702 37.7555H22.0239V40.9018H25.1702V37.7555Z" fill="#CCCCCC"/>
<path d="M28.3167 37.7555H25.1704V40.9018H28.3167V37.7555Z" fill="#CCCCCC"/>
<path d="M31.4627 37.7555H28.3164V40.9018H31.4627V37.7555Z" fill="#CCCCCC"/>
<path d="M34.6092 37.7555H31.4629V40.9018H34.6092V37.7555Z" fill="#CCCCCC"/>
<path d="M37.7557 37.7555H34.6094V40.9018H37.7557V37.7555Z" fill="#CCCCCC"/>
<path d="M40.9022 37.7555H37.7559V40.9018H40.9022V37.7555Z" fill="#CCCCCC"/>
<path d="M44.0486 37.7555H40.9023V40.9018H44.0486V37.7555Z" fill="#CCCCCC"/>
<path d="M47.1941 37.7555H44.0479V40.9018H47.1941V37.7555Z" fill="#CCCCCC"/>
<path d="M50.3406 37.7555H47.1943V40.9018H50.3406V37.7555Z" fill="#E6E6E6"/>
<path d="M53.4866 37.7555H50.3403V40.9018H53.4866V37.7555Z" fill="black"/>
<path d="M56.6331 37.7555H53.4868V40.9018H56.6331V37.7555Z" fill="white"/>
<path d="M3.14629 40.9015H0V44.0478H3.14629V40.9015Z" fill="white"/>
<path d="M6.29278 40.9015H3.14648V44.0478H6.29278V40.9015Z" fill="black"/>
<path d="M9.43926 40.9015H6.29297V44.0478H9.43926V40.9015Z" fill="#999999"/>
<path d="M12.5853 40.9015H9.43896V44.0478H12.5853V40.9015Z" fill="#808080"/>
<path d="M15.7317 40.9015H12.5854V44.0478H15.7317V40.9015Z" fill="#E6E6E6"/>
<path d="M18.8773 40.9015H15.731V44.0478H18.8773V40.9015Z" fill="#E6E6E6"/>
<path d="M22.0237 40.9015H18.8774V44.0478H22.0237V40.9015Z" fill="#E6E6E6"/>
<path d="M25.1702 40.9015H22.0239V44.0478H25.1702V40.9015Z" fill="#E6E6E6"/>
<path d="M28.3167 40.9015H25.1704V44.0478H28.3167V40.9015Z" fill="#E6E6E6"/>
<path d="M31.4627 40.9015H28.3164V44.0478H31.4627V40.9015Z" fill="#E6E6E6"/>
<path d="M34.6092 40.9015H31.4629V44.0478H34.6092V40.9015Z" fill="#E6E6E6"/>
<path d="M37.7557 40.9015H34.6094V44.0478H37.7557V40.9015Z" fill="#E6E6E6"/>
<path d="M40.9022 40.9015H37.7559V44.0478H40.9022V40.9015Z" fill="#E6E6E6"/>
<path d="M44.0486 40.9015H40.9023V44.0478H44.0486V40.9015Z" fill="#E6E6E6"/>
<path d="M47.1941 40.9015H44.0479V44.0478H47.1941V40.9015Z" fill="#E6E6E6"/>
<path d="M50.3406 40.9015H47.1943V44.0478H50.3406V40.9015Z" fill="#808080"/>
<path d="M53.4866 40.9015H50.3403V44.0478H53.4866V40.9015Z" fill="black"/>
<path d="M56.6331 40.9015H53.4868V44.0478H56.6331V40.9015Z" fill="white"/>
<path d="M3.14629 44.0483H0V47.1946H3.14629V44.0483Z" fill="white"/>
<path d="M6.29278 44.0483H3.14648V47.1946H6.29278V44.0483Z" fill="black"/>
<path d="M9.43926 44.0483H6.29297V47.1946H9.43926V44.0483Z" fill="#999999"/>
<path d="M12.5853 44.0483H9.43896V47.1946H12.5853V44.0483Z" fill="#999999"/>
<path d="M15.7317 44.0483H12.5854V47.1946H15.7317V44.0483Z" fill="#808080"/>
<path d="M18.8773 44.0483H15.731V47.1946H18.8773V44.0483Z" fill="#808080"/>
<path d="M22.0237 44.0483H18.8774V47.1946H22.0237V44.0483Z" fill="#808080"/>
<path d="M25.1702 44.0483H22.0239V47.1946H25.1702V44.0483Z" fill="#808080"/>
<path d="M28.3167 44.0483H25.1704V47.1946H28.3167V44.0483Z" fill="#808080"/>
<path d="M31.4627 44.0483H28.3164V47.1946H31.4627V44.0483Z" fill="#808080"/>
<path d="M34.6092 44.0483H31.4629V47.1946H34.6092V44.0483Z" fill="#808080"/>
<path d="M37.7557 44.0483H34.6094V47.1946H37.7557V44.0483Z" fill="#808080"/>
<path d="M40.9022 44.0483H37.7559V47.1946H40.9022V44.0483Z" fill="#808080"/>
<path d="M44.0486 44.0483H40.9023V47.1946H44.0486V44.0483Z" fill="#808080"/>
<path d="M47.1941 44.0483H44.0479V47.1946H47.1941V44.0483Z" fill="#808080"/>
<path d="M50.3406 44.0483H47.1943V47.1946H50.3406V44.0483Z" fill="#999999"/>
<path d="M53.4866 44.0483H50.3403V47.1946H53.4866V44.0483Z" fill="black"/>
<path d="M56.6331 44.0483H53.4868V47.1946H56.6331V44.0483Z" fill="white"/>
<path d="M3.14629 47.1945H0V50.3408H3.14629V47.1945Z" fill="white"/>
<path d="M6.29278 47.1945H3.14648V50.3408H6.29278V47.1945Z" fill="white"/>
<path d="M9.43926 47.1945H6.29297V50.3408H9.43926V47.1945Z" fill="black"/>
<path d="M12.5853 47.1945H9.43896V50.3408H12.5853V47.1945Z" fill="#999999"/>
<path d="M15.7317 47.1945H12.5854V50.3408H15.7317V47.1945Z" fill="#999999"/>
<path d="M18.8773 47.1945H15.731V50.3408H18.8773V47.1945Z" fill="#999999"/>
<path d="M22.0237 47.1945H18.8774V50.3408H22.0237V47.1945Z" fill="#999999"/>
<path d="M25.1702 47.1945H22.0239V50.3408H25.1702V47.1945Z" fill="#999999"/>
<path d="M28.3167 47.1945H25.1704V50.3408H28.3167V47.1945Z" fill="#999999"/>
<path d="M31.4627 47.1945H28.3164V50.3408H31.4627V47.1945Z" fill="#999999"/>
<path d="M34.6092 47.1945H31.4629V50.3408H34.6092V47.1945Z" fill="#999999"/>
<path d="M37.7557 47.1945H34.6094V50.3408H37.7557V47.1945Z" fill="#999999"/>
<path d="M40.9022 47.1945H37.7559V50.3408H40.9022V47.1945Z" fill="#999999"/>
<path d="M44.0486 47.1945H40.9023V50.3408H44.0486V47.1945Z" fill="#999999"/>
<path d="M47.1941 47.1945H44.0479V50.3408H47.1941V47.1945Z" fill="#999999"/>
<path d="M50.3406 47.1945H47.1943V50.3408H50.3406V47.1945Z" fill="black"/>
<path d="M53.4866 47.1945H50.3403V50.3408H53.4866V47.1945Z" fill="white"/>
<path d="M56.6331 47.1945H53.4868V50.3408H56.6331V47.1945Z" fill="white"/>
<path d="M6.29278 50.3403H3.14648V53.4866H6.29278V50.3403Z" fill="white"/>
<path d="M9.43926 50.3403H6.29297V53.4866H9.43926V50.3403Z" fill="white"/>
<path d="M12.5853 50.3403H9.43896V53.4866H12.5853V50.3403Z" fill="black"/>
<path d="M15.7317 50.3403H12.5854V53.4866H15.7317V50.3403Z" fill="black"/>
<path d="M18.8773 50.3403H15.731V53.4866H18.8773V50.3403Z" fill="black"/>
<path d="M22.0237 50.3403H18.8774V53.4866H22.0237V50.3403Z" fill="black"/>
<path d="M25.1702 50.3403H22.0239V53.4866H25.1702V50.3403Z" fill="black"/>
<path d="M28.3167 50.3403H25.1704V53.4866H28.3167V50.3403Z" fill="black"/>
<path d="M31.4627 50.3403H28.3164V53.4866H31.4627V50.3403Z" fill="black"/>
<path d="M34.6092 50.3403H31.4629V53.4866H34.6092V50.3403Z" fill="black"/>
<path d="M37.7557 50.3403H34.6094V53.4866H37.7557V50.3403Z" fill="black"/>
<path d="M40.9022 50.3403H37.7559V53.4866H40.9022V50.3403Z" fill="black"/>
<path d="M44.0486 50.3403H40.9023V53.4866H44.0486V50.3403Z" fill="black"/>
<path d="M47.1941 50.3403H44.0479V53.4866H47.1941V50.3403Z" fill="black"/>
<path d="M50.3406 50.3403H47.1943V53.4866H50.3406V50.3403Z" fill="white"/>
<path d="M53.4866 50.3403H50.3403V53.4866H53.4866V50.3403Z" fill="white"/>
<path d="M9.43926 53.4873H6.29297V56.6336H9.43926V53.4873Z" fill="white"/>
<path d="M12.5853 53.4873H9.43896V56.6336H12.5853V53.4873Z" fill="white"/>
<path d="M15.7317 53.4873H12.5854V56.6336H15.7317V53.4873Z" fill="white"/>
<path d="M18.8773 53.4873H15.731V56.6336H18.8773V53.4873Z" fill="white"/>
<path d="M22.0237 53.4873H18.8774V56.6336H22.0237V53.4873Z" fill="white"/>
<path d="M25.1702 53.4873H22.0239V56.6336H25.1702V53.4873Z" fill="white"/>
<path d="M28.3167 53.4873H25.1704V56.6336H28.3167V53.4873Z" fill="white"/>
<path d="M31.4627 53.4873H28.3164V56.6336H31.4627V53.4873Z" fill="white"/>
<path d="M34.6092 53.4873H31.4629V56.6336H34.6092V53.4873Z" fill="white"/>
<path d="M37.7557 53.4873H34.6094V56.6336H37.7557V53.4873Z" fill="white"/>
<path d="M40.9022 53.4873H37.7559V56.6336H40.9022V53.4873Z" fill="white"/>
<path d="M44.0486 53.4873H40.9023V56.6336H44.0486V53.4873Z" fill="white"/>
<path d="M47.1941 53.4873H44.0479V56.6336H47.1941V53.4873Z" fill="white"/>
<path d="M50.3406 53.4873H47.1943V56.6336H50.3406V53.4873Z" fill="white"/>
</svg>
