<svg width="45" height="57" viewBox="0 0 45 57" fill="none" xmlns="http://www.w3.org/2000/svg">
<path d="M27.0357 0H24.5776V2.46232H27.0357V0Z" fill="white"/>
<path d="M24.5806 2.46338H22.1226V4.92569H24.5806V2.46338Z" fill="white"/>
<path d="M27.0357 2.46338H24.5776V4.92569H27.0357V2.46338Z" fill="black"/>
<path d="M29.4976 2.46338H27.0396V4.92569H29.4976V2.46338Z" fill="white"/>
<path d="M22.1255 4.92371H19.6675V7.38602H22.1255V4.92371Z" fill="white"/>
<path d="M24.5806 4.92371H22.1226V7.38602H24.5806V4.92371Z" fill="black"/>
<path d="M27.0357 4.92371H24.5776V7.38602H27.0357V4.92371Z" fill="#CC4400"/>
<path d="M29.4976 4.92371H27.0396V7.38602H29.4976V4.92371Z" fill="black"/>
<path d="M31.9527 4.92371H29.4946V7.38602H31.9527V4.92371Z" fill="white"/>
<path d="M19.6636 7.38708H17.2056V9.8494H19.6636V7.38708Z" fill="white"/>
<path d="M22.1255 7.38708H19.6675V9.8494H22.1255V7.38708Z" fill="black"/>
<path d="M24.5806 7.38708H22.1226V9.8494H24.5806V7.38708Z" fill="#CC4400"/>
<path d="M27.0357 7.38708H24.5776V9.8494H27.0357V7.38708Z" fill="#CC4400"/>
<path d="M29.4976 7.38708H27.0396V9.8494H29.4976V7.38708Z" fill="black"/>
<path d="M31.9527 7.38708H29.4946V9.8494H31.9527V7.38708Z" fill="white"/>
<path d="M17.2085 9.84741H14.7505V12.3097H17.2085V9.84741Z" fill="white"/>
<path d="M19.6636 9.84741H17.2056V12.3097H19.6636V9.84741Z" fill="black"/>
<path d="M22.1255 9.84741H19.6675V12.3097H22.1255V9.84741Z" fill="#CC4400"/>
<path d="M24.5806 9.84741H22.1226V12.3097H24.5806V9.84741Z" fill="#FF8000"/>
<path d="M27.0357 9.84741H24.5776V12.3097H27.0357V9.84741Z" fill="#CC4400"/>
<path d="M29.4976 9.84741H27.0396V12.3097H29.4976V9.84741Z" fill="black"/>
<path d="M31.9527 9.84741H29.4946V12.3097H31.9527V9.84741Z" fill="white"/>
<path d="M14.7471 12.3108H12.2891V14.7731H14.7471V12.3108Z" fill="white"/>
<path d="M17.2085 12.3108H14.7505V14.7731H17.2085V12.3108Z" fill="black"/>
<path d="M19.6636 12.3108H17.2056V14.7731H19.6636V12.3108Z" fill="#CC4400"/>
<path d="M22.1255 12.3108H19.6675V14.7731H22.1255V12.3108Z" fill="#CC4400"/>
<path d="M24.5806 12.3108H22.1226V14.7731H24.5806V12.3108Z" fill="#CC4400"/>
<path d="M27.0357 12.3108H24.5776V14.7731H27.0357V12.3108Z" fill="black"/>
<path d="M29.4976 12.3108H27.0396V14.7731H29.4976V12.3108Z" fill="white"/>
<path d="M14.7471 14.7742H12.2891V17.2365H14.7471V14.7742Z" fill="white"/>
<path d="M17.2085 14.7742H14.7505V17.2365H17.2085V14.7742Z" fill="black"/>
<path d="M19.6636 14.7742H17.2056V17.2365H19.6636V14.7742Z" fill="#CC4400"/>
<path d="M22.1255 14.7742H19.6675V17.2365H22.1255V14.7742Z" fill="#FF8000"/>
<path d="M24.5806 14.7742H22.1226V17.2365H24.5806V14.7742Z" fill="#CC4400"/>
<path d="M27.0357 14.7742H24.5776V17.2365H27.0357V14.7742Z" fill="black"/>
<path d="M29.4976 14.7742H27.0396V17.2365H29.4976V14.7742Z" fill="white"/>
<path d="M12.291 17.2375H9.83301V19.6999H12.291V17.2375Z" fill="white"/>
<path d="M14.7471 17.2375H12.2891V19.6999H14.7471V17.2375Z" fill="black"/>
<path d="M17.2085 17.2375H14.7505V19.6999H17.2085V17.2375Z" fill="#CC4400"/>
<path d="M19.6636 17.2375H17.2056V19.6999H19.6636V17.2375Z" fill="#CC4400"/>
<path d="M22.1255 17.2375H19.6675V19.6999H22.1255V17.2375Z" fill="#FF8000"/>
<path d="M24.5806 17.2375H22.1226V19.6999H24.5806V17.2375Z" fill="#CC4400"/>
<path d="M27.0357 17.2375H24.5776V19.6999H27.0357V17.2375Z" fill="#CC4400"/>
<path d="M29.4976 17.2375H27.0396V19.6999H29.4976V17.2375Z" fill="black"/>
<path d="M31.9527 17.2375H29.4946V19.6999H31.9527V17.2375Z" fill="white"/>
<path d="M12.291 19.6979H9.83301V22.1602H12.291V19.6979Z" fill="white"/>
<path d="M14.7471 19.6979H12.2891V22.1602H14.7471V19.6979Z" fill="black"/>
<path d="M17.2085 19.6979H14.7505V22.1602H17.2085V19.6979Z" fill="#E65C17"/>
<path d="M19.6636 19.6979H17.2056V22.1602H19.6636V19.6979Z" fill="#CC4400"/>
<path d="M22.1255 19.6979H19.6675V22.1602H22.1255V19.6979Z" fill="#E65C17"/>
<path d="M24.5806 19.6979H22.1226V22.1602H24.5806V19.6979Z" fill="#CC4400"/>
<path d="M27.0357 19.6979H24.5776V22.1602H27.0357V19.6979Z" fill="#E65C17"/>
<path d="M29.4976 19.6979H27.0396V22.1602H29.4976V19.6979Z" fill="black"/>
<path d="M31.9527 19.6979H29.4946V22.1602H31.9527V19.6979Z" fill="white"/>
<path d="M4.91312 22.1613H2.45508V24.6236H4.91312V22.1613Z" fill="white"/>
<path d="M9.83011 22.1613H7.37207V24.6236H9.83011V22.1613Z" fill="white"/>
<path d="M12.291 22.1613H9.83301V24.6236H12.291V22.1613Z" fill="black"/>
<path d="M14.7471 22.1613H12.2891V24.6236H14.7471V22.1613Z" fill="#CC4400"/>
<path d="M17.2085 22.1613H14.7505V24.6236H17.2085V22.1613Z" fill="#E65C17"/>
<path d="M19.6636 22.1613H17.2056V24.6236H19.6636V22.1613Z" fill="#E65C17"/>
<path d="M22.1255 22.1613H19.6675V24.6236H22.1255V22.1613Z" fill="#FF8000"/>
<path d="M24.5806 22.1611H22.1226V24.6234H24.5806V22.1611Z" fill="#E65C17"/>
<path d="M27.0357 22.1613H24.5776V24.6236H27.0357V22.1613Z" fill="#CC4400"/>
<path d="M29.4976 22.1613H27.0396V24.6236H29.4976V22.1613Z" fill="#CC4400"/>
<path d="M31.9527 22.1613H29.4946V24.6236H31.9527V22.1613Z" fill="black"/>
<path d="M34.4136 22.1613H31.9556V24.6236H34.4136V22.1613Z" fill="white"/>
<path d="M36.8697 22.1613H34.4116V24.6236H36.8697V22.1613Z" fill="white"/>
<path d="M2.45804 24.6246H0V27.087H2.45804V24.6246Z" fill="white"/>
<path d="M4.91312 24.6246H2.45508V27.087H4.91312V24.6246Z" fill="black"/>
<path d="M7.37503 24.6246H4.91699V27.087H7.37503V24.6246Z" fill="white"/>
<path d="M9.83011 24.6246H7.37207V27.087H9.83011V24.6246Z" fill="white"/>
<path d="M12.291 24.6246H9.83301V27.087H12.291V24.6246Z" fill="black"/>
<path d="M14.7471 24.6246H12.2891V27.087H14.7471V24.6246Z" fill="#E65C17"/>
<path d="M17.2085 24.6246H14.7505V27.087H17.2085V24.6246Z" fill="#CC4400"/>
<path d="M19.6636 24.6246H17.2056V27.087H19.6636V24.6246Z" fill="#E65C17"/>
<path d="M22.1255 24.6246H19.6675V27.087H22.1255V24.6246Z" fill="#FFBB33"/>
<path d="M24.5806 24.6246H22.1226V27.087H24.5806V24.6246Z" fill="#FF8000"/>
<path d="M27.0357 24.6246H24.5776V27.087H27.0357V24.6246Z" fill="#E65C17"/>
<path d="M29.4976 24.6246H27.0396V27.087H29.4976V24.6246Z" fill="#CC4400"/>
<path d="M31.9527 24.6246H29.4946V27.087H31.9527V24.6246Z" fill="black"/>
<path d="M34.4136 24.6246H31.9556V27.087H34.4136V24.6246Z" fill="white"/>
<path d="M36.8697 24.6246H34.4116V27.087H36.8697V24.6246Z" fill="black"/>
<path d="M39.3306 24.6246H36.8726V27.087H39.3306V24.6246Z" fill="white"/>
<path d="M2.45804 27.085H0V29.5473H2.45804V27.085Z" fill="white"/>
<path d="M4.91312 27.085H2.45508V29.5473H4.91312V27.085Z" fill="black"/>
<path d="M7.37503 27.085H4.91699V29.5473H7.37503V27.085Z" fill="black"/>
<path d="M9.83011 27.085H7.37207V29.5473H9.83011V27.085Z" fill="white"/>
<path d="M12.291 27.085H9.83301V29.5473H12.291V27.085Z" fill="black"/>
<path d="M14.7471 27.085H12.2891V29.5473H14.7471V27.085Z" fill="#FF8000"/>
<path d="M17.2085 27.085H14.7505V29.5473H17.2085V27.085Z" fill="#E65C17"/>
<path d="M19.6636 27.085H17.2056V29.5473H19.6636V27.085Z" fill="#E65C17"/>
<path d="M22.1255 27.085H19.6675V29.5473H22.1255V27.085Z" fill="#E65C17"/>
<path d="M24.5806 27.085H22.1226V29.5473H24.5806V27.085Z" fill="#FFBB33"/>
<path d="M27.0357 27.085H24.5776V29.5473H27.0357V27.085Z" fill="#CC4400"/>
<path d="M29.4976 27.085H27.0396V29.5473H29.4976V27.085Z" fill="#E65C17"/>
<path d="M31.9527 27.085H29.4946V29.5473H31.9527V27.085Z" fill="black"/>
<path d="M34.4136 27.085H31.9556V29.5473H34.4136V27.085Z" fill="white"/>
<path d="M36.8697 27.085H34.4116V29.5473H36.8697V27.085Z" fill="black"/>
<path d="M39.3306 27.085H36.8726V29.5473H39.3306V27.085Z" fill="white"/>
<path d="M2.45804 29.5483H0V32.0107H2.45804V29.5483Z" fill="white"/>
<path d="M4.91312 29.5483H2.45508V32.0107H4.91312V29.5483Z" fill="black"/>
<path d="M7.37503 29.5483H4.91699V32.0107H7.37503V29.5483Z" fill="#CC4400"/>
<path d="M9.83011 29.5483H7.37207V32.0107H9.83011V29.5483Z" fill="black"/>
<path d="M12.291 29.5483H9.83301V32.0107H12.291V29.5483Z" fill="#CC4400"/>
<path d="M14.7471 29.5483H12.2891V32.0107H14.7471V29.5483Z" fill="#E65C17"/>
<path d="M17.2085 29.5483H14.7505V32.0107H17.2085V29.5483Z" fill="#E65C17"/>
<path d="M19.6636 29.5483H17.2056V32.0107H19.6636V29.5483Z" fill="#E65C17"/>
<path d="M22.1255 29.5483H19.6675V32.0107H22.1255V29.5483Z" fill="#E65C17"/>
<path d="M24.5806 29.5483H22.1226V32.0107H24.5806V29.5483Z" fill="#E65C17"/>
<path d="M27.0357 29.5483H24.5776V32.0107H27.0357V29.5483Z" fill="#E65C17"/>
<path d="M29.4976 29.5483H27.0396V32.0107H29.4976V29.5483Z" fill="#E65C17"/>
<path d="M31.9527 29.5483H29.4946V32.0107H31.9527V29.5483Z" fill="#CC4400"/>
<path d="M34.4136 29.5483H31.9556V32.0107H34.4136V29.5483Z" fill="black"/>
<path d="M36.8697 29.5483H34.4116V32.0107H36.8697V29.5483Z" fill="#CC4400"/>
<path d="M39.3306 29.5483H36.8726V32.0107H39.3306V29.5483Z" fill="black"/>
<path d="M41.7857 29.5483H39.3276V32.0107H41.7857V29.5483Z" fill="white"/>
<path d="M2.45804 32.0087H0V34.471H2.45804V32.0087Z" fill="white"/>
<path d="M4.91312 32.0087H2.45508V34.471H4.91312V32.0087Z" fill="black"/>
<path d="M7.37503 32.0087H4.91699V34.471H7.37503V32.0087Z" fill="#E65C17"/>
<path d="M9.83011 32.0087H7.37207V34.471H9.83011V32.0087Z" fill="#E65C17"/>
<path d="M12.291 32.0087H9.83301V34.471H12.291V32.0087Z" fill="black"/>
<path d="M14.7471 32.0087H12.2891V34.471H14.7471V32.0087Z" fill="#E65C17"/>
<path d="M17.2085 32.0087H14.7505V34.471H17.2085V32.0087Z" fill="#FF8000"/>
<path d="M19.6636 32.0087H17.2056V34.471H19.6636V32.0087Z" fill="#E65C17"/>
<path d="M22.1255 32.0087H19.6675V34.471H22.1255V32.0087Z" fill="#E65C17"/>
<path d="M24.5806 32.0087H22.1226V34.471H24.5806V32.0087Z" fill="#FF8000"/>
<path d="M27.0357 32.0087H24.5776V34.471H27.0357V32.0087Z" fill="#E65C17"/>
<path d="M29.4976 32.0087H27.0396V34.471H29.4976V32.0087Z" fill="#E65C17"/>
<path d="M31.9527 32.0087H29.4946V34.471H31.9527V32.0087Z" fill="black"/>
<path d="M34.4136 32.0087H31.9556V34.471H34.4136V32.0087Z" fill="#E65C17"/>
<path d="M36.8697 32.0087H34.4116V34.471H36.8697V32.0087Z" fill="#FF8000"/>
<path d="M39.3306 32.0087H36.8726V34.471H39.3306V32.0087Z" fill="black"/>
<path d="M41.7857 32.0087H39.3276V34.471H41.7857V32.0087Z" fill="white"/>
<path d="M2.45804 34.4722H0V36.9345H2.45804V34.4722Z" fill="white"/>
<path d="M4.91312 34.472H2.45508V36.9344H4.91312V34.472Z" fill="black"/>
<path d="M7.37503 34.472H4.91699V36.9344H7.37503V34.472Z" fill="#E65C17"/>
<path d="M9.83011 34.472H7.37207V36.9344H9.83011V34.472Z" fill="#FF8000"/>
<path d="M12.291 34.472H9.83301V36.9344H12.291V34.472Z" fill="#E65C17"/>
<path d="M14.7471 34.472H12.2891V36.9344H14.7471V34.472Z" fill="#E65C17"/>
<path d="M17.2085 34.472H14.7505V36.9344H17.2085V34.472Z" fill="#FFBB33"/>
<path d="M19.6636 34.472H17.2056V36.9344H19.6636V34.472Z" fill="#E65C17"/>
<path d="M22.1255 34.472H19.6675V36.9344H22.1255V34.472Z" fill="#E65C17"/>
<path d="M24.5806 34.4722H22.1226V36.9345H24.5806V34.4722Z" fill="#FFBB33"/>
<path d="M27.0357 34.472H24.5776V36.9344H27.0357V34.472Z" fill="#FF8000"/>
<path d="M29.4976 34.472H27.0396V36.9344H29.4976V34.472Z" fill="#E65C17"/>
<path d="M31.9527 34.472H29.4946V36.9344H31.9527V34.472Z" fill="#E65C17"/>
<path d="M34.4136 34.472H31.9556V36.9344H34.4136V34.472Z" fill="#FF8000"/>
<path d="M36.8697 34.472H34.4116V36.9344H36.8697V34.472Z" fill="#E65C17"/>
<path d="M39.3306 34.472H36.8726V36.9344H39.3306V34.472Z" fill="#E65C17"/>
<path d="M41.7857 34.472H39.3276V36.9344H41.7857V34.472Z" fill="black"/>
<path d="M44.2476 34.472H41.7896V36.9344H44.2476V34.472Z" fill="white"/>
<path d="M2.45804 36.9354H0V39.3977H2.45804V36.9354Z" fill="white"/>
<path d="M4.91312 36.9354H2.45508V39.3977H4.91312V36.9354Z" fill="black"/>
<path d="M7.37503 36.9354H4.91699V39.3977H7.37503V36.9354Z" fill="#E65C17"/>
<path d="M9.83011 36.9354H7.37207V39.3977H9.83011V36.9354Z" fill="#FF8000"/>
<path d="M12.291 36.9354H9.83301V39.3977H12.291V36.9354Z" fill="#E65C17"/>
<path d="M14.7471 36.9354H12.2891V39.3977H14.7471V36.9354Z" fill="#E65C17"/>
<path d="M17.2085 36.9354H14.7505V39.3977H17.2085V36.9354Z" fill="#E65C17"/>
<path d="M19.6636 36.9354H17.2056V39.3977H19.6636V36.9354Z" fill="#E65C17"/>
<path d="M22.1255 36.9354H19.6675V39.3977H22.1255V36.9354Z" fill="#FF8000"/>
<path d="M24.5806 36.9354H22.1226V39.3977H24.5806V36.9354Z" fill="#FFCC66"/>
<path d="M27.0357 36.9354H24.5776V39.3977H27.0357V36.9354Z" fill="#FFBB33"/>
<path d="M29.4976 36.9354H27.0396V39.3977H29.4976V36.9354Z" fill="#E65C17"/>
<path d="M31.9527 36.9354H29.4946V39.3977H31.9527V36.9354Z" fill="#FF8000"/>
<path d="M34.4136 36.9354H31.9556V39.3977H34.4136V36.9354Z" fill="#E65C17"/>
<path d="M36.8697 36.9354H34.4116V39.3977H36.8697V36.9354Z" fill="#E65C17"/>
<path d="M39.3306 36.9354H36.8726V39.3977H39.3306V36.9354Z" fill="#FF8000"/>
<path d="M41.7857 36.9354H39.3276V39.3977H41.7857V36.9354Z" fill="black"/>
<path d="M44.2476 36.9354H41.7896V39.3977H44.2476V36.9354Z" fill="white"/>
<path d="M2.45804 39.3958H0V41.8581H2.45804V39.3958Z" fill="white"/>
<path d="M4.91312 39.3958H2.45508V41.8581H4.91312V39.3958Z" fill="black"/>
<path d="M7.37503 39.3958H4.91699V41.8581H7.37503V39.3958Z" fill="#E65C17"/>
<path d="M9.83011 39.3958H7.37207V41.8581H9.83011V39.3958Z" fill="#E65C17"/>
<path d="M12.291 39.3958H9.83301V41.8581H12.291V39.3958Z" fill="#FFBB33"/>
<path d="M14.7471 39.3958H12.2891V41.8581H14.7471V39.3958Z" fill="#E65C17"/>
<path d="M17.2085 39.3958H14.7505V41.8581H17.2085V39.3958Z" fill="#E65C17"/>
<path d="M19.6636 39.3958H17.2056V41.8581H19.6636V39.3958Z" fill="#FF8000"/>
<path d="M22.1255 39.3958H19.6675V41.8581H22.1255V39.3958Z" fill="#FFCC66"/>
<path d="M24.5806 39.3958H22.1226V41.8581H24.5806V39.3958Z" fill="#FFCC66"/>
<path d="M27.0357 39.3958H24.5776V41.8581H27.0357V39.3958Z" fill="#FFCC66"/>
<path d="M29.4976 39.3958H27.0396V41.8581H29.4976V39.3958Z" fill="#FFBB33"/>
<path d="M31.9527 39.3958H29.4946V41.8581H31.9527V39.3958Z" fill="#FFCC66"/>
<path d="M34.4136 39.3958H31.9556V41.8581H34.4136V39.3958Z" fill="#FFBB33"/>
<path d="M36.8697 39.3958H34.4116V41.8581H36.8697V39.3958Z" fill="#FF8000"/>
<path d="M39.3306 39.3958H36.8726V41.8581H39.3306V39.3958Z" fill="#E65C17"/>
<path d="M41.7857 39.3958H39.3276V41.8581H41.7857V39.3958Z" fill="black"/>
<path d="M44.2476 39.3958H41.7896V41.8581H44.2476V39.3958Z" fill="white"/>
<path d="M2.45804 41.8591H0V44.3214H2.45804V41.8591Z" fill="white"/>
<path d="M4.91312 41.8591H2.45508V44.3214H4.91312V41.8591Z" fill="black"/>
<path d="M7.37503 41.8591H4.91699V44.3214H7.37503V41.8591Z" fill="#CC4400"/>
<path d="M9.83011 41.8591H7.37207V44.3214H9.83011V41.8591Z" fill="#E65C17"/>
<path d="M12.291 41.8591H9.83301V44.3214H12.291V41.8591Z" fill="#FF8000"/>
<path d="M14.7471 41.8591H12.2891V44.3214H14.7471V41.8591Z" fill="#FFBB33"/>
<path d="M17.2085 41.8591H14.7505V44.3214H17.2085V41.8591Z" fill="#FFBB33"/>
<path d="M19.6636 41.8591H17.2056V44.3214H19.6636V41.8591Z" fill="#FFCC66"/>
<path d="M22.1255 41.8591H19.6675V44.3214H22.1255V41.8591Z" fill="white"/>
<path d="M24.5806 41.8591H22.1226V44.3214H24.5806V41.8591Z" fill="white"/>
<path d="M27.0357 41.8591H24.5776V44.3214H27.0357V41.8591Z" fill="white"/>
<path d="M29.4976 41.8591H27.0396V44.3214H29.4976V41.8591Z" fill="#FFCC66"/>
<path d="M31.9527 41.8591H29.4946V44.3214H31.9527V41.8591Z" fill="#FFBB33"/>
<path d="M34.4136 41.8591H31.9556V44.3214H34.4136V41.8591Z" fill="#FF8000"/>
<path d="M36.8697 41.8591H34.4116V44.3214H36.8697V41.8591Z" fill="#E65C17"/>
<path d="M39.3306 41.8591H36.8726V44.3214H39.3306V41.8591Z" fill="#CC4400"/>
<path d="M41.7857 41.8591H39.3276V44.3214H41.7857V41.8591Z" fill="black"/>
<path d="M44.2476 41.8591H41.7896V44.3214H44.2476V41.8591Z" fill="white"/>
<path d="M4.91312 44.3225H2.45508V46.7848H4.91312V44.3225Z" fill="white"/>
<path d="M7.37503 44.3225H4.91699V46.7848H7.37503V44.3225Z" fill="black"/>
<path d="M9.83011 44.3225H7.37207V46.7848H9.83011V44.3225Z" fill="#CC4400"/>
<path d="M12.291 44.3225H9.83301V46.7848H12.291V44.3225Z" fill="#E65C17"/>
<path d="M14.7471 44.3225H12.2891V46.7848H14.7471V44.3225Z" fill="#FF8000"/>
<path d="M17.2085 44.3225H14.7505V46.7848H17.2085V44.3225Z" fill="#FFCC66"/>
<path d="M19.6636 44.3225H17.2056V46.7848H19.6636V44.3225Z" fill="white"/>
<path d="M22.1255 44.3225H19.6675V46.7848H22.1255V44.3225Z" fill="white"/>
<path d="M24.5806 44.3225H22.1226V46.7848H24.5806V44.3225Z" fill="white"/>
<path d="M27.0357 44.3225H24.5776V46.7848H27.0357V44.3225Z" fill="white"/>
<path d="M29.4976 44.3225H27.0396V46.7848H29.4976V44.3225Z" fill="white"/>
<path d="M31.9527 44.3225H29.4946V46.7848H31.9527V44.3225Z" fill="#FFCC66"/>
<path d="M34.4136 44.3225H31.9556V46.7848H34.4136V44.3225Z" fill="#FF8000"/>
<path d="M36.8697 44.3225H34.4116V46.7848H36.8697V44.3225Z" fill="#E65C17"/>
<path d="M39.3306 44.3225H36.8726V46.7848H39.3306V44.3225Z" fill="black"/>
<path d="M41.7857 44.3225H39.3276V46.7848H41.7857V44.3225Z" fill="white"/>
<path d="M7.37503 46.7859H4.91699V49.2482H7.37503V46.7859Z" fill="white"/>
<path d="M9.83011 46.7859H7.37207V49.2482H9.83011V46.7859Z" fill="black"/>
<path d="M12.291 46.7859H9.83301V49.2482H12.291V46.7859Z" fill="#CC4400"/>
<path d="M14.7471 46.7859H12.2891V49.2482H14.7471V46.7859Z" fill="#FF8000"/>
<path d="M17.2085 46.7859H14.7505V49.2482H17.2085V46.7859Z" fill="#FFBB33"/>
<path d="M19.6636 46.7859H17.2056V49.2482H19.6636V46.7859Z" fill="white"/>
<path d="M22.1255 46.7859H19.6675V49.2482H22.1255V46.7859Z" fill="white"/>
<path d="M24.5806 46.7859H22.1226V49.2482H24.5806V46.7859Z" fill="white"/>
<path d="M27.0357 46.7859H24.5776V49.2482H27.0357V46.7859Z" fill="white"/>
<path d="M29.4976 46.7859H27.0396V49.2482H29.4976V46.7859Z" fill="#FFCC66"/>
<path d="M31.9527 46.7859H29.4946V49.2482H31.9527V46.7859Z" fill="#FF8000"/>
<path d="M34.4136 46.7859H31.9556V49.2482H34.4136V46.7859Z" fill="#E65C17"/>
<path d="M36.8697 46.7859H34.4116V49.2482H36.8697V46.7859Z" fill="#CC4400"/>
<path d="M39.3306 46.7859H36.8726V49.2482H39.3306V46.7859Z" fill="black"/>
<path d="M41.7857 46.7859H39.3276V49.2482H41.7857V46.7859Z" fill="white"/>
<path d="M9.83011 49.2462H7.37207V51.7085H9.83011V49.2462Z" fill="white"/>
<path d="M12.291 49.2462H9.83301V51.7085H12.291V49.2462Z" fill="black"/>
<path d="M14.7471 49.2462H12.2891V51.7085H14.7471V49.2462Z" fill="black"/>
<path d="M17.2085 49.2462H14.7505V51.7085H17.2085V49.2462Z" fill="#FFBB33"/>
<path d="M19.6636 49.2462H17.2056V51.7085H19.6636V49.2462Z" fill="#FFCC66"/>
<path d="M22.1255 49.2462H19.6675V51.7085H22.1255V49.2462Z" fill="white"/>
<path d="M24.5806 49.2462H22.1226V51.7085H24.5806V49.2462Z" fill="white"/>
<path d="M27.0357 49.2462H24.5776V51.7085H27.0357V49.2462Z" fill="white"/>
<path d="M29.4976 49.2462H27.0396V51.7085H29.4976V49.2462Z" fill="#FFCC66"/>
<path d="M31.9527 49.2462H29.4946V51.7085H31.9527V49.2462Z" fill="#CC4400"/>
<path d="M34.4136 49.2462H31.9556V51.7085H34.4136V49.2462Z" fill="#CC4400"/>
<path d="M36.8697 49.2462H34.4116V51.7085H36.8697V49.2462Z" fill="black"/>
<path d="M39.3306 49.2462H36.8726V51.7085H39.3306V49.2462Z" fill="white"/>
<path d="M41.7857 49.2462H39.3276V51.7085H41.7857V49.2462Z" fill="white"/>
<path d="M12.291 51.7095H9.83301V54.1718H12.291V51.7095Z" fill="white"/>
<path d="M14.7471 51.7095H12.2891V54.1718H14.7471V51.7095Z" fill="white"/>
<path d="M17.2085 51.7095H14.7505V54.1718H17.2085V51.7095Z" fill="black"/>
<path d="M19.6636 51.7095H17.2056V54.1718H19.6636V51.7095Z" fill="black"/>
<path d="M22.1255 51.7095H19.6675V54.1718H22.1255V51.7095Z" fill="black"/>
<path d="M24.5806 51.7095H22.1226V54.1718H24.5806V51.7095Z" fill="black"/>
<path d="M27.0357 51.7095H24.5776V54.1718H27.0357V51.7095Z" fill="black"/>
<path d="M29.4976 51.7095H27.0396V54.1718H29.4976V51.7095Z" fill="black"/>
<path d="M31.9527 51.7095H29.4946V54.1718H31.9527V51.7095Z" fill="black"/>
<path d="M34.4136 51.7095H31.9556V54.1718H34.4136V51.7095Z" fill="black"/>
<path d="M36.8697 51.7095H34.4116V54.1718H36.8697V51.7095Z" fill="white"/>
<path d="M39.3306 51.7095H36.8726V54.1718H39.3306V51.7095Z" fill="white"/>
<path d="M14.7471 54.1699H12.2891V56.6322H14.7471V54.1699Z" fill="white"/>
<path d="M17.2085 54.1699H14.7505V56.6322H17.2085V54.1699Z" fill="white"/>
<path d="M19.6636 54.1699H17.2056V56.6322H19.6636V54.1699Z" fill="white"/>
<path d="M22.1255 54.1699H19.6675V56.6322H22.1255V54.1699Z" fill="white"/>
<path d="M24.5806 54.1699H22.1226V56.6322H24.5806V54.1699Z" fill="white"/>
<path d="M27.0357 54.1699H24.5776V56.6322H27.0357V54.1699Z" fill="white"/>
<path d="M29.4976 54.1699H27.0396V56.6322H29.4976V54.1699Z" fill="white"/>
<path d="M31.9527 54.1699H29.4946V56.6322H31.9527V54.1699Z" fill="white"/>
<path d="M34.4136 54.1699H31.9556V56.6322H34.4136V54.1699Z" fill="white"/>
<path d="M36.8697 54.1699H34.4116V56.6322H36.8697V54.1699Z" fill="white"/>
</svg>
