<svg width="71" height="57" viewBox="0 0 71 57" fill="none" xmlns="http://www.w3.org/2000/svg">
<path d="M37.7565 0H35.3967V2.3597H37.7565V0Z" fill="white"/>
<path d="M40.1181 0H37.7583V2.3597H40.1181V0Z" fill="white"/>
<path d="M35.3974 2.36011H33.0376V4.71981H35.3974V2.36011Z" fill="white"/>
<path d="M37.7565 2.36011H35.3967V4.71981H37.7565V2.36011Z" fill="black"/>
<path d="M40.1181 2.36011H37.7583V4.71981H40.1181V2.36011Z" fill="black"/>
<path d="M42.4738 2.36011H40.114V4.71981H42.4738V2.36011Z" fill="white"/>
<path d="M44.8356 2.36011H42.4758V4.71981H44.8356V2.36011Z" fill="white"/>
<path d="M33.039 4.7196H30.6792V7.07931H33.039V4.7196Z" fill="white"/>
<path d="M35.3947 4.71936H33.0349V7.07906H35.3947V4.71936Z" fill="black"/>
<path d="M37.7565 4.71936H35.3967V7.07906H37.7565V4.71936Z" fill="#333333"/>
<path d="M40.1181 4.7196H37.7583V7.07931H40.1181V4.7196Z" fill="#333333"/>
<path d="M42.4738 4.71936H40.114V7.07906H42.4738V4.71936Z" fill="black"/>
<path d="M44.8356 4.71936H42.4758V7.07906H44.8356V4.71936Z" fill="black"/>
<path d="M47.1947 4.7196H44.835V7.07931H47.1947V4.7196Z" fill="white"/>
<path d="M49.5539 4.7196H47.1941V7.07931H49.5539V4.7196Z" fill="white"/>
<path d="M30.6772 7.07849H28.3174V9.43819H30.6772V7.07849Z" fill="white"/>
<path d="M33.039 7.07849H30.6792V9.43819H33.039V7.07849Z" fill="black"/>
<path d="M35.3947 7.07849H33.0349V9.43819H35.3947V7.07849Z" fill="#333333"/>
<path d="M37.7565 7.07849H35.3967V9.43819H37.7565V7.07849Z" fill="#1A1A1A"/>
<path d="M40.1181 7.07849H37.7583V9.43819H40.1181V7.07849Z" fill="#1A1A1A"/>
<path d="M42.4738 7.07849H40.114V9.43819H42.4738V7.07849Z" fill="#333333"/>
<path d="M44.8356 7.07849H42.4758V9.43819H44.8356V7.07849Z" fill="#333333"/>
<path d="M47.1947 7.07849H44.835V9.43819H47.1947V7.07849Z" fill="black"/>
<path d="M49.5539 7.07849H47.1941V9.43819H49.5539V7.07849Z" fill="black"/>
<path d="M51.9147 7.07849H49.5549V9.43819H51.9147V7.07849Z" fill="white"/>
<path d="M54.2738 7.07849H51.9141V9.43819H54.2738V7.07849Z" fill="white"/>
<path d="M30.6772 9.4386H28.3174V11.7983H30.6772V9.4386Z" fill="white"/>
<path d="M33.039 9.4386H30.6792V11.7983H33.039V9.4386Z" fill="black"/>
<path d="M35.3947 9.43835H33.0349V11.7981H35.3947V9.43835Z" fill="#333333"/>
<path d="M37.7565 9.43835H35.3967V11.7981H37.7565V9.43835Z" fill="#1A1A1A"/>
<path d="M40.1181 9.4386H37.7583V11.7983H40.1181V9.4386Z" fill="#4D4D4D"/>
<path d="M42.4738 9.4386H40.114V11.7983H42.4738V9.4386Z" fill="#1A1A1A"/>
<path d="M44.8356 9.43835H42.4758V11.7981H44.8356V9.43835Z" fill="#1A1A1A"/>
<path d="M47.1947 9.4386H44.835V11.7983H47.1947V9.4386Z" fill="#333333"/>
<path d="M49.5539 9.4386H47.1941V11.7983H49.5539V9.4386Z" fill="#333333"/>
<path d="M51.9147 9.4386H49.5549V11.7983H51.9147V9.4386Z" fill="black"/>
<path d="M54.2738 9.4386H51.9141V11.7983H54.2738V9.4386Z" fill="black"/>
<path d="M56.633 9.4386H54.2732V11.7983H56.633V9.4386Z" fill="white"/>
<path d="M58.9948 9.4386H56.635V11.7983H58.9948V9.4386Z" fill="white"/>
<path d="M28.318 11.7985H25.9583V14.1582H28.318V11.7985Z" fill="white"/>
<path d="M30.6772 11.7986H28.3174V14.1583H30.6772V11.7986Z" fill="black"/>
<path d="M33.039 11.7985H30.6792V14.1582H33.039V11.7985Z" fill="#333333"/>
<path d="M35.3974 11.7985H33.0376V14.1582H35.3974V11.7985Z" fill="#1A1A1A"/>
<path d="M37.7565 11.7986H35.3967V14.1583H37.7565V11.7986Z" fill="#4D4D4D"/>
<path d="M40.1181 11.7985H37.7583V14.1582H40.1181V11.7985Z" fill="#4D4D4D"/>
<path d="M42.4738 11.7985H40.114V14.1582H42.4738V11.7985Z" fill="#4D4D4D"/>
<path d="M44.8356 11.7986H42.4758V14.1583H44.8356V11.7986Z" fill="#4D4D4D"/>
<path d="M47.1947 11.7985H44.835V14.1582H47.1947V11.7985Z" fill="#1A1A1A"/>
<path d="M49.5539 11.7985H47.1941V14.1582H49.5539V11.7985Z" fill="#1A1A1A"/>
<path d="M51.9147 11.7986H49.5549V14.1583H51.9147V11.7986Z" fill="#333333"/>
<path d="M54.2738 11.7985H51.9141V14.1582H54.2738V11.7985Z" fill="#333333"/>
<path d="M56.633 11.7985H54.2732V14.1582H56.633V11.7985Z" fill="black"/>
<path d="M58.9948 11.7985H56.635V14.1582H58.9948V11.7985Z" fill="black"/>
<path d="M61.3529 11.7985H58.9932V14.1582H61.3529V11.7985Z" fill="white"/>
<path d="M63.7147 11.7985H61.355V14.1582H63.7147V11.7985Z" fill="white"/>
<path d="M28.318 14.1577H25.9583V16.5174H28.318V14.1577Z" fill="white"/>
<path d="M30.6772 14.1577H28.3174V16.5174H30.6772V14.1577Z" fill="black"/>
<path d="M33.039 14.1577H30.6792V16.5174H33.039V14.1577Z" fill="#333333"/>
<path d="M35.3974 14.1577H33.0376V16.5174H35.3974V14.1577Z" fill="#1A1A1A"/>
<path d="M37.7565 14.1577H35.3967V16.5174H37.7565V14.1577Z" fill="#4D4D4D"/>
<path d="M40.1181 14.1577H37.7583V16.5174H40.1181V14.1577Z" fill="#4D4D4D"/>
<path d="M42.4738 14.1577H40.114V16.5174H42.4738V14.1577Z" fill="#4D4D4D"/>
<path d="M44.8356 14.1577H42.4758V16.5174H44.8356V14.1577Z" fill="#4D4D4D"/>
<path d="M47.1947 14.1577H44.835V16.5174H47.1947V14.1577Z" fill="#4D4D4D"/>
<path d="M49.5539 14.1577H47.1941V16.5174H49.5539V14.1577Z" fill="#4D4D4D"/>
<path d="M51.9147 14.1577H49.5549V16.5174H51.9147V14.1577Z" fill="#1A1A1A"/>
<path d="M54.2738 14.1577H51.9141V16.5174H54.2738V14.1577Z" fill="#1A1A1A"/>
<path d="M56.633 14.1577H54.2732V16.5174H56.633V14.1577Z" fill="#333333"/>
<path d="M58.9948 14.1577H56.635V16.5174H58.9948V14.1577Z" fill="#4D4D4D"/>
<path d="M61.3529 14.1577H58.9932V16.5174H61.3529V14.1577Z" fill="black"/>
<path d="M63.7147 14.1577H61.355V16.5174H63.7147V14.1577Z" fill="black"/>
<path d="M66.0739 14.1577H63.7141V16.5174H66.0739V14.1577Z" fill="white"/>
<path d="M25.9589 16.5178H23.5991V18.8775H25.9589V16.5178Z" fill="white"/>
<path d="M28.318 16.5178H25.9583V18.8775H28.318V16.5178Z" fill="black"/>
<path d="M30.6772 16.5177H28.3174V18.8774H30.6772V16.5177Z" fill="#333333"/>
<path d="M33.039 16.5178H30.6792V18.8775H33.039V16.5178Z" fill="#1A1A1A"/>
<path d="M35.3974 16.5178H33.0376V18.8775H35.3974V16.5178Z" fill="#4D4D4D"/>
<path d="M37.7565 16.5177H35.3967V18.8774H37.7565V16.5177Z" fill="#4D4D4D"/>
<path d="M40.1181 16.5178H37.7583V18.8775H40.1181V16.5178Z" fill="#4D4D4D"/>
<path d="M42.4738 16.5178H40.114V18.8775H42.4738V16.5178Z" fill="#4D4D4D"/>
<path d="M44.8356 16.5177H42.4758V18.8774H44.8356V16.5177Z" fill="#4D4D4D"/>
<path d="M47.1947 16.5178H44.835V18.8775H47.1947V16.5178Z" fill="#4D4D4D"/>
<path d="M49.5539 16.5178H47.1941V18.8775H49.5539V16.5178Z" fill="#4D4D4D"/>
<path d="M51.9147 16.5177H49.5549V18.8774H51.9147V16.5177Z" fill="#4D4D4D"/>
<path d="M54.2738 16.5178H51.9141V18.8775H54.2738V16.5178Z" fill="#4D4D4D"/>
<path d="M56.633 16.5178H54.2732V18.8775H56.633V16.5178Z" fill="#1A1A1A"/>
<path d="M58.9948 16.5178H56.635V18.8775H58.9948V16.5178Z" fill="#333333"/>
<path d="M61.3529 16.5178H58.9932V18.8775H61.3529V16.5178Z" fill="#666666"/>
<path d="M63.7147 16.5178H61.355V18.8775H63.7147V16.5178Z" fill="#333333"/>
<path d="M66.0739 16.5178H63.7141V18.8775H66.0739V16.5178Z" fill="black"/>
<path d="M68.4357 16.5178H66.0759V18.8775H68.4357V16.5178Z" fill="white"/>
<path d="M25.9589 18.8779H23.5991V21.2376H25.9589V18.8779Z" fill="white"/>
<path d="M28.318 18.8779H25.9583V21.2376H28.318V18.8779Z" fill="black"/>
<path d="M30.6772 18.8779H28.3174V21.2376H30.6772V18.8779Z" fill="#333333"/>
<path d="M33.039 18.8779H30.6792V21.2376H33.039V18.8779Z" fill="#1A1A1A"/>
<path d="M35.3947 18.8779H33.0349V21.2376H35.3947V18.8779Z" fill="#4D4D4D"/>
<path d="M37.7565 18.8779H35.3967V21.2376H37.7565V18.8779Z" fill="#4D4D4D"/>
<path d="M40.1181 18.8779H37.7583V21.2376H40.1181V18.8779Z" fill="#4D4D4D"/>
<path d="M42.4738 18.8779H40.114V21.2376H42.4738V18.8779Z" fill="#4D4D4D"/>
<path d="M44.8356 18.8779H42.4758V21.2376H44.8356V18.8779Z" fill="#4D4D4D"/>
<path d="M47.1947 18.8779H44.835V21.2376H47.1947V18.8779Z" fill="#4D4D4D"/>
<path d="M49.5539 18.8779H47.1941V21.2376H49.5539V18.8779Z" fill="#4D4D4D"/>
<path d="M51.9147 18.8779H49.5549V21.2376H51.9147V18.8779Z" fill="#4D4D4D"/>
<path d="M54.2738 18.8779H51.9141V21.2376H54.2738V18.8779Z" fill="#4D4D4D"/>
<path d="M56.633 18.8779H54.2732V21.2376H56.633V18.8779Z" fill="#666666"/>
<path d="M58.9948 18.8779H56.635V21.2376H58.9948V18.8779Z" fill="#808080"/>
<path d="M61.3529 18.8779H58.9932V21.2376H61.3529V18.8779Z" fill="#4D4D4D"/>
<path d="M63.7147 18.8779H61.355V21.2376H63.7147V18.8779Z" fill="#4D4D4D"/>
<path d="M66.0739 18.8779H63.7141V21.2376H66.0739V18.8779Z" fill="#333333"/>
<path d="M68.4357 18.8779H66.0759V21.2376H68.4357V18.8779Z" fill="black"/>
<path d="M70.7914 18.8779H68.4316V21.2376H70.7914V18.8779Z" fill="white"/>
<path d="M23.5981 21.238H21.2383V23.5977H23.5981V21.238Z" fill="white"/>
<path d="M25.9589 21.238H23.5991V23.5977H25.9589V21.238Z" fill="black"/>
<path d="M28.318 21.238H25.9583V23.5977H28.318V21.238Z" fill="#333333"/>
<path d="M30.6772 21.238H28.3174V23.5977H30.6772V21.238Z" fill="#1A1A1A"/>
<path d="M33.039 21.238H30.6792V23.5977H33.039V21.238Z" fill="#4D4D4D"/>
<path d="M35.3947 21.238H33.0349V23.5977H35.3947V21.238Z" fill="#4D4D4D"/>
<path d="M37.7565 21.238H35.3967V23.5977H37.7565V21.238Z" fill="#4D4D4D"/>
<path d="M40.1181 21.238H37.7583V23.5977H40.1181V21.238Z" fill="#4D4D4D"/>
<path d="M42.4738 21.238H40.114V23.5977H42.4738V21.238Z" fill="#4D4D4D"/>
<path d="M44.8356 21.238H42.4758V23.5977H44.8356V21.238Z" fill="#4D4D4D"/>
<path d="M47.1947 21.238H44.835V23.5977H47.1947V21.238Z" fill="#4D4D4D"/>
<path d="M49.5539 21.238H47.1941V23.5977H49.5539V21.238Z" fill="#4D4D4D"/>
<path d="M51.9147 21.238H49.5549V23.5977H51.9147V21.238Z" fill="#4D4D4D"/>
<path d="M54.2738 21.238H51.9141V23.5977H54.2738V21.238Z" fill="#4D4D4D"/>
<path d="M56.633 21.238H54.2732V23.5977H56.633V21.238Z" fill="#666666"/>
<path d="M58.9948 21.238H56.635V23.5977H58.9948V21.238Z" fill="#808080"/>
<path d="M61.3529 21.238H58.9932V23.5977H61.3529V21.238Z" fill="#666666"/>
<path d="M63.7147 21.238H61.355V23.5977H63.7147V21.238Z" fill="#1A1A1A"/>
<path d="M66.0739 21.238H63.7141V23.5977H66.0739V21.238Z" fill="#333333"/>
<path d="M68.4357 21.238H66.0759V23.5977H68.4357V21.238Z" fill="black"/>
<path d="M70.7914 21.238H68.4316V23.5977H70.7914V21.238Z" fill="white"/>
<path d="M21.2389 23.5969H18.8792V25.9566H21.2389V23.5969Z" fill="white"/>
<path d="M23.5981 23.5969H21.2383V25.9566H23.5981V23.5969Z" fill="white"/>
<path d="M25.9589 23.5969H23.5991V25.9566H25.9589V23.5969Z" fill="black"/>
<path d="M28.318 23.5969H25.9583V25.9566H28.318V23.5969Z" fill="#333333"/>
<path d="M30.6772 23.5969H28.3174V25.9566H30.6772V23.5969Z" fill="#1A1A1A"/>
<path d="M33.039 23.5969H30.6792V25.9566H33.039V23.5969Z" fill="#1A1A1A"/>
<path d="M35.3947 23.5969H33.0349V25.9566H35.3947V23.5969Z" fill="#4D4D4D"/>
<path d="M37.7565 23.5969H35.3967V25.9566H37.7565V23.5969Z" fill="#4D4D4D"/>
<path d="M40.1181 23.5969H37.7583V25.9566H40.1181V23.5969Z" fill="#4D4D4D"/>
<path d="M42.4738 23.5969H40.114V25.9566H42.4738V23.5969Z" fill="#4D4D4D"/>
<path d="M44.8356 23.5969H42.4758V25.9566H44.8356V23.5969Z" fill="#4D4D4D"/>
<path d="M47.1947 23.5969H44.835V25.9566H47.1947V23.5969Z" fill="#4D4D4D"/>
<path d="M49.5539 23.5969H47.1941V25.9566H49.5539V23.5969Z" fill="#4D4D4D"/>
<path d="M51.9147 23.5969H49.5549V25.9566H51.9147V23.5969Z" fill="#4D4D4D"/>
<path d="M54.2738 23.5969H51.9141V25.9566H54.2738V23.5969Z" fill="#666666"/>
<path d="M56.633 23.5969H54.2732V25.9566H56.633V23.5969Z" fill="#808080"/>
<path d="M58.9948 23.5969H56.635V25.9566H58.9948V23.5969Z" fill="#666666"/>
<path d="M61.3529 23.5969H58.9932V25.9566H61.3529V23.5969Z" fill="#1A1A1A"/>
<path d="M63.7147 23.5969H61.355V25.9566H63.7147V23.5969Z" fill="#333333"/>
<path d="M66.0739 23.5969H63.7141V25.9566H66.0739V23.5969Z" fill="black"/>
<path d="M68.4357 23.5969H66.0759V25.9566H68.4357V23.5969Z" fill="white"/>
<path d="M16.518 25.957H14.1582V28.3167H16.518V25.957Z" fill="white"/>
<path d="M18.8773 25.957H16.5176V28.3167H18.8773V25.957Z" fill="white"/>
<path d="M21.2389 25.957H18.8792V28.3167H21.2389V25.957Z" fill="black"/>
<path d="M23.5981 25.957H21.2383V28.3167H23.5981V25.957Z" fill="black"/>
<path d="M25.9589 25.957H23.5991V28.3167H25.9589V25.957Z" fill="#1A1A1A"/>
<path d="M28.318 25.957H25.9583V28.3167H28.318V25.957Z" fill="#333333"/>
<path d="M30.6772 25.957H28.3174V28.3167H30.6772V25.957Z" fill="#333333"/>
<path d="M33.039 25.957H30.6792V28.3167H33.039V25.957Z" fill="#333333"/>
<path d="M35.3947 25.957H33.0349V28.3167H35.3947V25.957Z" fill="#1A1A1A"/>
<path d="M37.7565 25.957H35.3967V28.3167H37.7565V25.957Z" fill="#1A1A1A"/>
<path d="M40.1181 25.957H37.7583V28.3167H40.1181V25.957Z" fill="#4D4D4D"/>
<path d="M42.4738 25.957H40.114V28.3167H42.4738V25.957Z" fill="#4D4D4D"/>
<path d="M44.8356 25.957H42.4758V28.3167H44.8356V25.957Z" fill="#4D4D4D"/>
<path d="M47.1947 25.957H44.835V28.3167H47.1947V25.957Z" fill="#4D4D4D"/>
<path d="M49.5539 25.957H47.1941V28.3167H49.5539V25.957Z" fill="#4D4D4D"/>
<path d="M51.9147 25.957H49.5549V28.3167H51.9147V25.957Z" fill="#4D4D4D"/>
<path d="M54.2738 25.957H51.9141V28.3167H54.2738V25.957Z" fill="#666666"/>
<path d="M56.633 25.957H54.2732V28.3167H56.633V25.957Z" fill="#808080"/>
<path d="M58.9948 25.957H56.635V28.3167H58.9948V25.957Z" fill="#666666"/>
<path d="M61.3529 25.957H58.9932V28.3167H61.3529V25.957Z" fill="#1A1A1A"/>
<path d="M63.7147 25.957H61.355V28.3167H63.7147V25.957Z" fill="#333333"/>
<path d="M66.0739 25.957H63.7141V28.3167H66.0739V25.957Z" fill="black"/>
<path d="M68.4357 25.957H66.0759V28.3167H68.4357V25.957Z" fill="white"/>
<path d="M11.798 28.3171H9.43823V30.6768H11.798V28.3171Z" fill="white"/>
<path d="M14.1571 28.3171H11.7974V30.6768H14.1571V28.3171Z" fill="white"/>
<path d="M16.518 28.3171H14.1582V30.6768H16.518V28.3171Z" fill="black"/>
<path d="M18.8773 28.3171H16.5176V30.6768H18.8773V28.3171Z" fill="black"/>
<path d="M21.2389 28.3171H18.8792V30.6768H21.2389V28.3171Z" fill="#7A99B8"/>
<path d="M23.5981 28.3171H21.2383V30.6768H23.5981V28.3171Z" fill="#7A99B8"/>
<path d="M25.9589 28.3171H23.5991V30.6768H25.9589V28.3171Z" fill="#7A99B8"/>
<path d="M28.318 28.3171H25.9583V30.6768H28.318V28.3171Z" fill="#1A1A1A"/>
<path d="M30.6772 28.3171H28.3174V30.6768H30.6772V28.3171Z" fill="#1A1A1A"/>
<path d="M33.039 28.3171H30.6792V30.6768H33.039V28.3171Z" fill="#333333"/>
<path d="M35.3974 28.3171H33.0376V30.6768H35.3974V28.3171Z" fill="#333333"/>
<path d="M37.7565 28.3171H35.3967V30.6768H37.7565V28.3171Z" fill="#333333"/>
<path d="M40.1181 28.3171H37.7583V30.6768H40.1181V28.3171Z" fill="#1A1A1A"/>
<path d="M42.4738 28.3171H40.114V30.6768H42.4738V28.3171Z" fill="#1A1A1A"/>
<path d="M44.8356 28.3171H42.4758V30.6768H44.8356V28.3171Z" fill="#4D4D4D"/>
<path d="M47.1947 28.3171H44.835V30.6768H47.1947V28.3171Z" fill="#4D4D4D"/>
<path d="M49.5539 28.3171H47.1941V30.6768H49.5539V28.3171Z" fill="#4D4D4D"/>
<path d="M51.9147 28.3171H49.5549V30.6768H51.9147V28.3171Z" fill="#666666"/>
<path d="M54.2738 28.3171H51.9141V30.6768H54.2738V28.3171Z" fill="#808080"/>
<path d="M56.633 28.3171H54.2732V30.6768H56.633V28.3171Z" fill="#666666"/>
<path d="M58.9948 28.3171H56.635V30.6768H58.9948V28.3171Z" fill="#1A1A1A"/>
<path d="M61.3529 28.3171H58.9932V30.6768H61.3529V28.3171Z" fill="#333333"/>
<path d="M63.7147 28.3171H61.355V30.6768H63.7147V28.3171Z" fill="black"/>
<path d="M66.0739 28.3171H63.7141V30.6768H66.0739V28.3171Z" fill="white"/>
<path d="M7.0773 30.676H4.71753V33.0357H7.0773V30.676Z" fill="white"/>
<path d="M9.43887 30.6761H7.0791V33.0359H9.43887V30.6761Z" fill="white"/>
<path d="M11.798 30.676H9.43823V33.0357H11.798V30.676Z" fill="black"/>
<path d="M14.1571 30.676H11.7974V33.0357H14.1571V30.676Z" fill="black"/>
<path d="M16.518 30.6761H14.1582V33.0359H16.518V30.6761Z" fill="#7A99B8"/>
<path d="M18.8773 30.676H16.5176V33.0357H18.8773V30.676Z" fill="#7A99B8"/>
<path d="M21.2389 30.676H18.8792V33.0357H21.2389V30.676Z" fill="#5980A6"/>
<path d="M23.5981 30.676H21.2383V33.0357H23.5981V30.676Z" fill="#5980A6"/>
<path d="M25.9589 30.676H23.5991V33.0357H25.9589V30.676Z" fill="#5980A6"/>
<path d="M28.318 30.676H25.9583V33.0357H28.318V30.676Z" fill="#7A99B8"/>
<path d="M30.6772 30.6761H28.3174V33.0359H30.6772V30.6761Z" fill="#7A99B8"/>
<path d="M33.039 30.676H30.6792V33.0357H33.039V30.676Z" fill="#1A1A1A"/>
<path d="M35.3974 30.676H33.0376V33.0357H35.3974V30.676Z" fill="#1A1A1A"/>
<path d="M37.7565 30.6761H35.3967V33.0359H37.7565V30.6761Z" fill="#333333"/>
<path d="M40.1181 30.676H37.7583V33.0357H40.1181V30.676Z" fill="#333333"/>
<path d="M42.4738 30.676H40.114V33.0357H42.4738V30.676Z" fill="#333333"/>
<path d="M44.8356 30.6761H42.4758V33.0359H44.8356V30.6761Z" fill="#1A1A1A"/>
<path d="M47.1947 30.676H44.835V33.0357H47.1947V30.676Z" fill="#1A1A1A"/>
<path d="M49.5539 30.676H47.1941V33.0357H49.5539V30.676Z" fill="#333333"/>
<path d="M51.9147 30.6761H49.5549V33.0359H51.9147V30.6761Z" fill="#666666"/>
<path d="M54.2738 30.676H51.9141V33.0357H54.2738V30.676Z" fill="#808080"/>
<path d="M56.633 30.676H54.2732V33.0357H56.633V30.676Z" fill="#666666"/>
<path d="M58.9948 30.676H56.635V33.0357H58.9948V30.676Z" fill="#1A1A1A"/>
<path d="M61.3529 30.676H58.9932V33.0357H61.3529V30.676Z" fill="#333333"/>
<path d="M63.7147 30.676H61.355V33.0357H63.7147V30.676Z" fill="black"/>
<path d="M66.0739 30.676H63.7141V33.0357H66.0739V30.676Z" fill="white"/>
<path d="M4.72159 33.0355H2.36182V35.3952H4.72159V33.0355Z" fill="white"/>
<path d="M7.0773 33.0355H4.71753V35.3952H7.0773V33.0355Z" fill="black"/>
<path d="M9.43887 33.0355H7.0791V35.3952H9.43887V33.0355Z" fill="black"/>
<path d="M11.798 33.0355H9.43823V35.3952H11.798V33.0355Z" fill="#7A99B8"/>
<path d="M14.1571 33.0355H11.7974V35.3952H14.1571V33.0355Z" fill="#7A99B8"/>
<path d="M16.518 33.0355H14.1582V35.3952H16.518V33.0355Z" fill="#5980A6"/>
<path d="M18.8773 33.0355H16.5176V35.3952H18.8773V33.0355Z" fill="#5980A6"/>
<path d="M21.2389 33.0355H18.8792V35.3952H21.2389V33.0355Z" fill="#BDCCDB"/>
<path d="M23.5981 33.0355H21.2383V35.3952H23.5981V33.0355Z" fill="#7A99B8"/>
<path d="M25.9589 33.0355H23.5991V35.3952H25.9589V33.0355Z" fill="#BDCCDB"/>
<path d="M28.318 33.0355H25.9583V35.3952H28.318V33.0355Z" fill="#5980A6"/>
<path d="M30.6772 33.0355H28.3174V35.3952H30.6772V33.0355Z" fill="#5980A6"/>
<path d="M33.039 33.0355H30.6792V35.3952H33.039V33.0355Z" fill="#7A99B8"/>
<path d="M35.3974 33.0355H33.0376V35.3952H35.3974V33.0355Z" fill="#7A99B8"/>
<path d="M37.7565 33.0355H35.3967V35.3952H37.7565V33.0355Z" fill="#1A1A1A"/>
<path d="M40.1181 33.0355H37.7583V35.3952H40.1181V33.0355Z" fill="#1A1A1A"/>
<path d="M42.4738 33.0355H40.114V35.3952H42.4738V33.0355Z" fill="#333333"/>
<path d="M44.8356 33.0355H42.4758V35.3952H44.8356V33.0355Z" fill="#333333"/>
<path d="M47.1947 33.0355H44.835V35.3952H47.1947V33.0355Z" fill="#333333"/>
<path d="M49.5539 33.0355H47.1941V35.3952H49.5539V33.0355Z" fill="#4D4D4D"/>
<path d="M51.9147 33.0355H49.5549V35.3952H51.9147V33.0355Z" fill="#4D4D4D"/>
<path d="M54.2738 33.0355H51.9141V35.3952H54.2738V33.0355Z" fill="#666666"/>
<path d="M56.633 33.0355H54.2732V35.3952H56.633V33.0355Z" fill="#1A1A1A"/>
<path d="M58.9948 33.0355H56.635V35.3952H58.9948V33.0355Z" fill="#333333"/>
<path d="M61.3529 33.0355H58.9932V35.3952H61.3529V33.0355Z" fill="black"/>
<path d="M63.7147 33.0355H61.355V35.3952H63.7147V33.0355Z" fill="white"/>
<path d="M2.35977 35.3956H0V37.7553H2.35977V35.3956Z" fill="white"/>
<path d="M4.72159 35.3956H2.36182V37.7553H4.72159V35.3956Z" fill="black"/>
<path d="M7.0773 35.3956H4.71753V37.7553H7.0773V35.3956Z" fill="#7A99B8"/>
<path d="M9.43887 35.3956H7.0791V37.7553H9.43887V35.3956Z" fill="#7A99B8"/>
<path d="M11.798 35.3956H9.43823V37.7553H11.798V35.3956Z" fill="#7A99B8"/>
<path d="M14.1571 35.3956H11.7974V37.7553H14.1571V35.3956Z" fill="#7A99B8"/>
<path d="M16.518 35.3956H14.1582V37.7553H16.518V35.3956Z" fill="#7A99B8"/>
<path d="M18.8773 35.3956H16.5176V37.7553H18.8773V35.3956Z" fill="#5980A6"/>
<path d="M21.2389 35.3956H18.8792V37.7553H21.2389V35.3956Z" fill="#5980A6"/>
<path d="M23.5981 35.3956H21.2383V37.7553H23.5981V35.3956Z" fill="#BDCCDB"/>
<path d="M25.9589 35.3956H23.5991V37.7553H25.9589V35.3956Z" fill="#7A99B8"/>
<path d="M28.318 35.3956H25.9583V37.7553H28.318V35.3956Z" fill="#BDCCDB"/>
<path d="M30.6772 35.3956H28.3174V37.7553H30.6772V35.3956Z" fill="#7A99B8"/>
<path d="M33.039 35.3956H30.6792V37.7553H33.039V35.3956Z" fill="#5980A6"/>
<path d="M35.3947 35.3956H33.0349V37.7553H35.3947V35.3956Z" fill="#5980A6"/>
<path d="M37.7565 35.3956H35.3967V37.7553H37.7565V35.3956Z" fill="#7A99B8"/>
<path d="M40.1181 35.3956H37.7583V37.7553H40.1181V35.3956Z" fill="#7A99B8"/>
<path d="M42.4738 35.3956H40.114V37.7553H42.4738V35.3956Z" fill="#1A1A1A"/>
<path d="M44.8356 35.3956H42.4758V37.7553H44.8356V35.3956Z" fill="#1A1A1A"/>
<path d="M47.1947 35.3956H44.835V37.7553H47.1947V35.3956Z" fill="#333333"/>
<path d="M49.5539 35.3956H47.1941V37.7553H49.5539V35.3956Z" fill="#4D4D4D"/>
<path d="M51.9147 35.3956H49.5549V37.7553H51.9147V35.3956Z" fill="#666666"/>
<path d="M54.2738 35.3956H51.9141V37.7553H54.2738V35.3956Z" fill="#333333"/>
<path d="M56.633 35.3956H54.2732V37.7553H56.633V35.3956Z" fill="#1A1A1A"/>
<path d="M58.9948 35.3956H56.635V37.7553H58.9948V35.3956Z" fill="#333333"/>
<path d="M61.3529 35.3956H58.9932V37.7553H61.3529V35.3956Z" fill="black"/>
<path d="M63.7147 35.3956H61.355V37.7553H63.7147V35.3956Z" fill="white"/>
<path d="M2.35977 37.7555H0V40.1152H2.35977V37.7555Z" fill="white"/>
<path d="M4.72159 37.7559H2.36182V40.1156H4.72159V37.7559Z" fill="white"/>
<path d="M7.0773 37.7559H4.71753V40.1156H7.0773V37.7559Z" fill="black"/>
<path d="M9.43887 37.7559H7.0791V40.1156H9.43887V37.7559Z" fill="black"/>
<path d="M11.798 37.7559H9.43823V40.1156H11.798V37.7559Z" fill="#7A99B8"/>
<path d="M14.1571 37.7559H11.7974V40.1156H14.1571V37.7559Z" fill="#7A99B8"/>
<path d="M16.518 37.7559H14.1582V40.1156H16.518V37.7559Z" fill="#7A99B8"/>
<path d="M18.8773 37.7559H16.5176V40.1156H18.8773V37.7559Z" fill="#7A99B8"/>
<path d="M21.2389 37.7559H18.8792V40.1156H21.2389V37.7559Z" fill="#7A99B8"/>
<path d="M23.5981 37.7559H21.2383V40.1156H23.5981V37.7559Z" fill="#5980A6"/>
<path d="M25.9589 37.7559H23.5991V40.1156H25.9589V37.7559Z" fill="#5980A6"/>
<path d="M28.318 37.7559H25.9583V40.1156H28.318V37.7559Z" fill="#7A99B8"/>
<path d="M30.6772 37.7559H28.3174V40.1156H30.6772V37.7559Z" fill="#BDCCDB"/>
<path d="M33.039 37.7559H30.6792V40.1156H33.039V37.7559Z" fill="#7A99B8"/>
<path d="M35.3947 37.7555H33.0349V40.1152H35.3947V37.7555Z" fill="#BDCCDB"/>
<path d="M37.7565 37.7555H35.3967V40.1152H37.7565V37.7555Z" fill="#5980A6"/>
<path d="M40.1181 37.7559H37.7583V40.1156H40.1181V37.7559Z" fill="#5980A6"/>
<path d="M42.4738 37.7559H40.114V40.1156H42.4738V37.7559Z" fill="#7A99B8"/>
<path d="M44.8356 37.7555H42.4758V40.1152H44.8356V37.7555Z" fill="#7A99B8"/>
<path d="M47.1947 37.7559H44.835V40.1156H47.1947V37.7559Z" fill="#1A1A1A"/>
<path d="M49.5539 37.7559H47.1941V40.1156H49.5539V37.7559Z" fill="#1A1A1A"/>
<path d="M51.9147 37.7559H49.5549V40.1156H51.9147V37.7559Z" fill="#666666"/>
<path d="M54.2738 37.7559H51.9141V40.1156H54.2738V37.7559Z" fill="#4D4D4D"/>
<path d="M56.633 37.7559H54.2732V40.1156H56.633V37.7559Z" fill="#333333"/>
<path d="M58.9948 37.7559H56.635V40.1156H58.9948V37.7559Z" fill="black"/>
<path d="M61.3529 37.7559H58.9932V40.1156H61.3529V37.7559Z" fill="white"/>
<path d="M4.72159 40.115H2.36182V42.4747H4.72159V40.115Z" fill="white"/>
<path d="M7.0773 40.115H4.71753V42.4747H7.0773V40.115Z" fill="white"/>
<path d="M9.43887 40.115H7.0791V42.4747H9.43887V40.115Z" fill="white"/>
<path d="M11.798 40.115H9.43823V42.4747H11.798V40.115Z" fill="black"/>
<path d="M14.1571 40.115H11.7974V42.4747H14.1571V40.115Z" fill="black"/>
<path d="M16.518 40.115H14.1582V42.4747H16.518V40.115Z" fill="#7A99B8"/>
<path d="M18.8773 40.115H16.5176V42.4747H18.8773V40.115Z" fill="#7A99B8"/>
<path d="M21.2389 40.115H18.8792V42.4747H21.2389V40.115Z" fill="#7A99B8"/>
<path d="M23.5981 40.115H21.2383V42.4747H23.5981V40.115Z" fill="#BDCCDB"/>
<path d="M25.9589 40.115H23.5991V42.4747H25.9589V40.115Z" fill="#BDCCDB"/>
<path d="M28.318 40.115H25.9583V42.4747H28.318V40.115Z" fill="#5980A6"/>
<path d="M30.6772 40.115H28.3174V42.4747H30.6772V40.115Z" fill="#5980A6"/>
<path d="M33.039 40.115H30.6792V42.4747H33.039V40.115Z" fill="#BDCCDB"/>
<path d="M35.3974 40.115H33.0376V42.4747H35.3974V40.115Z" fill="#7A99B8"/>
<path d="M37.7565 40.115H35.3967V42.4747H37.7565V40.115Z" fill="#BDCCDB"/>
<path d="M40.1181 40.115H37.7583V42.4747H40.1181V40.115Z" fill="#7A99B8"/>
<path d="M42.4738 40.115H40.114V42.4747H42.4738V40.115Z" fill="#5980A6"/>
<path d="M44.8356 40.115H42.4758V42.4747H44.8356V40.115Z" fill="#5980A6"/>
<path d="M47.1947 40.115H44.835V42.4747H47.1947V40.115Z" fill="#7A99B8"/>
<path d="M49.5539 40.115H47.1941V42.4747H49.5539V40.115Z" fill="#7A99B8"/>
<path d="M51.9147 40.115H49.5549V42.4747H51.9147V40.115Z" fill="#1A1A1A"/>
<path d="M54.2738 40.115H51.9141V42.4747H54.2738V40.115Z" fill="#1A1A1A"/>
<path d="M56.633 40.115H54.2732V42.4747H56.633V40.115Z" fill="#333333"/>
<path d="M58.9948 40.115H56.635V42.4747H58.9948V40.115Z" fill="black"/>
<path d="M61.3529 40.115H58.9932V42.4747H61.3529V40.115Z" fill="white"/>
<path d="M9.43887 42.4735H7.0791V44.8332H9.43887V42.4735Z" fill="white"/>
<path d="M11.798 42.4735H9.43823V44.8332H11.798V42.4735Z" fill="white"/>
<path d="M14.1571 42.4735H11.7974V44.8332H14.1571V42.4735Z" fill="white"/>
<path d="M16.518 42.4735H14.1582V44.8332H16.518V42.4735Z" fill="black"/>
<path d="M18.8773 42.4735H16.5176V44.8332H18.8773V42.4735Z" fill="black"/>
<path d="M21.2389 42.4735H18.8792V44.8332H21.2389V42.4735Z" fill="#5980A6"/>
<path d="M23.5981 42.4735H21.2383V44.8332H23.5981V42.4735Z" fill="#7A99B8"/>
<path d="M25.9589 42.4735H23.5991V44.8332H25.9589V42.4735Z" fill="#BDCCDB"/>
<path d="M28.318 42.4735H25.9583V44.8332H28.318V42.4735Z" fill="#BDCCDB"/>
<path d="M30.6772 42.4735H28.3174V44.8332H30.6772V42.4735Z" fill="#BDCCDB"/>
<path d="M33.039 42.4735H30.6792V44.8332H33.039V42.4735Z" fill="#5980A6"/>
<path d="M35.3974 42.4735H33.0376V44.8332H35.3974V42.4735Z" fill="#5980A6"/>
<path d="M37.7565 42.4742H35.3967V44.8339H37.7565V42.4742Z" fill="#7A99B8"/>
<path d="M40.1181 42.4735H37.7583V44.8332H40.1181V42.4735Z" fill="#BDCCDB"/>
<path d="M42.4738 42.4735H40.114V44.8332H42.4738V42.4735Z" fill="#7A99B8"/>
<path d="M44.8356 42.4742H42.4758V44.8339H44.8356V42.4742Z" fill="#BDCCDB"/>
<path d="M47.1947 42.4735H44.835V44.8332H47.1947V42.4735Z" fill="#5980A6"/>
<path d="M49.5539 42.4735H47.1941V44.8332H49.5539V42.4735Z" fill="#5980A6"/>
<path d="M51.9147 42.4735H49.5549V44.8332H51.9147V42.4735Z" fill="#7A99B8"/>
<path d="M54.2738 42.4735H51.9141V44.8332H54.2738V42.4735Z" fill="#7A99B8"/>
<path d="M56.633 42.4735H54.2732V44.8332H56.633V42.4735Z" fill="black"/>
<path d="M58.9948 42.4735H56.635V44.8332H58.9948V42.4735Z" fill="white"/>
<path d="M14.1571 44.8336H11.7974V47.1933H14.1571V44.8336Z" fill="white"/>
<path d="M16.518 44.8344H14.1582V47.1941H16.518V44.8344Z" fill="white"/>
<path d="M18.8773 44.8336H16.5176V47.1933H18.8773V44.8336Z" fill="white"/>
<path d="M21.2389 44.8336H18.8792V47.1933H21.2389V44.8336Z" fill="black"/>
<path d="M23.5981 44.8336H21.2383V47.1933H23.5981V44.8336Z" fill="black"/>
<path d="M25.9589 44.8336H23.5991V47.1933H25.9589V44.8336Z" fill="#7A99B8"/>
<path d="M28.318 44.8336H25.9583V47.1933H28.318V44.8336Z" fill="#5980A6"/>
<path d="M30.6772 44.8344H28.3174V47.1941H30.6772V44.8344Z" fill="#7A99B8"/>
<path d="M33.039 44.8336H30.6792V47.1933H33.039V44.8336Z" fill="#7A99B8"/>
<path d="M35.3974 44.8336H33.0376V47.1933H35.3974V44.8336Z" fill="#7A99B8"/>
<path d="M37.7565 44.8344H35.3967V47.1941H37.7565V44.8344Z" fill="#5980A6"/>
<path d="M40.1181 44.8336H37.7583V47.1933H40.1181V44.8336Z" fill="#5980A6"/>
<path d="M42.4738 44.8336H40.114V47.1933H42.4738V44.8336Z" fill="#5980A6"/>
<path d="M44.8356 44.8344H42.4758V47.1941H44.8356V44.8344Z" fill="#5980A6"/>
<path d="M47.1947 44.8336H44.835V47.1933H47.1947V44.8336Z" fill="#7A99B8"/>
<path d="M49.5539 44.8336H47.1941V47.1933H49.5539V44.8336Z" fill="#7A99B8"/>
<path d="M51.9147 44.8344H49.5549V47.1941H51.9147V44.8344Z" fill="black"/>
<path d="M54.2738 44.8336H51.9141V47.1933H54.2738V44.8336Z" fill="black"/>
<path d="M56.633 44.8336H54.2732V47.1933H56.633V44.8336Z" fill="white"/>
<path d="M18.8773 47.1937H16.5176V49.5534H18.8773V47.1937Z" fill="white"/>
<path d="M21.2389 47.1937H18.8792V49.5534H21.2389V47.1937Z" fill="white"/>
<path d="M23.5981 47.1937H21.2383V49.5534H23.5981V47.1937Z" fill="white"/>
<path d="M25.9589 47.1937H23.5991V49.5534H25.9589V47.1937Z" fill="black"/>
<path d="M28.318 47.1937H25.9583V49.5534H28.318V47.1937Z" fill="black"/>
<path d="M30.6772 47.1937H28.3174V49.5534H30.6772V47.1937Z" fill="#7A99B8"/>
<path d="M33.039 47.1937H30.6792V49.5534H33.039V47.1937Z" fill="#7A99B8"/>
<path d="M35.3974 47.1937H33.0376V49.5534H35.3974V47.1937Z" fill="#7A99B8"/>
<path d="M37.7565 47.1937H35.3967V49.5534H37.7565V47.1937Z" fill="#7A99B8"/>
<path d="M40.1181 47.1937H37.7583V49.5534H40.1181V47.1937Z" fill="#7A99B8"/>
<path d="M42.4738 47.1937H40.114V49.5534H42.4738V47.1937Z" fill="#7A99B8"/>
<path d="M44.8356 47.1937H42.4758V49.5534H44.8356V47.1937Z" fill="#7A99B8"/>
<path d="M47.1947 47.1937H44.835V49.5534H47.1947V47.1937Z" fill="black"/>
<path d="M49.5539 47.1937H47.1941V49.5534H49.5539V47.1937Z" fill="black"/>
<path d="M51.9147 47.1937H49.5549V49.5534H51.9147V47.1937Z" fill="white"/>
<path d="M54.2738 47.1937H51.9141V49.5534H54.2738V47.1937Z" fill="white"/>
<path d="M23.5981 49.5532H21.2383V51.9129H23.5981V49.5532Z" fill="white"/>
<path d="M25.9589 49.5532H23.5991V51.9129H25.9589V49.5532Z" fill="white"/>
<path d="M28.318 49.5532H25.9583V51.9129H28.318V49.5532Z" fill="white"/>
<path d="M30.6772 49.5532H28.3174V51.9129H30.6772V49.5532Z" fill="black"/>
<path d="M33.039 49.5532H30.6792V51.9129H33.039V49.5532Z" fill="black"/>
<path d="M35.3947 49.5532H33.0349V51.9129H35.3947V49.5532Z" fill="#7A99B8"/>
<path d="M37.7565 49.5532H35.3967V51.9129H37.7565V49.5532Z" fill="#7A99B8"/>
<path d="M40.1181 49.5532H37.7583V51.9129H40.1181V49.5532Z" fill="#7A99B8"/>
<path d="M42.4738 49.5532H40.114V51.9129H42.4738V49.5532Z" fill="black"/>
<path d="M44.8356 49.5532H42.4758V51.9129H44.8356V49.5532Z" fill="black"/>
<path d="M47.1947 49.5532H44.835V51.9129H47.1947V49.5532Z" fill="white"/>
<path d="M49.5539 49.5532H47.1941V51.9129H49.5539V49.5532Z" fill="white"/>
<path d="M28.318 51.9135H25.9583V54.2732H28.318V51.9135Z" fill="white"/>
<path d="M30.6772 51.9135H28.3174V54.2732H30.6772V51.9135Z" fill="white"/>
<path d="M33.039 51.9135H30.6792V54.2732H33.039V51.9135Z" fill="white"/>
<path d="M35.3947 51.9135H33.0349V54.2732H35.3947V51.9135Z" fill="black"/>
<path d="M37.7565 51.9135H35.3967V54.2732H37.7565V51.9135Z" fill="black"/>
<path d="M40.1181 51.9135H37.7583V54.2732H40.1181V51.9135Z" fill="black"/>
<path d="M42.4738 51.9135H40.114V54.2732H42.4738V51.9135Z" fill="white"/>
<path d="M44.8356 51.9135H42.4758V54.2732H44.8356V51.9135Z" fill="white"/>
<path d="M33.039 54.2736H30.6792V56.6333H33.039V54.2736Z" fill="white"/>
<path d="M35.3947 54.2729H33.0349V56.6327H35.3947V54.2729Z" fill="white"/>
<path d="M37.7565 54.2729H35.3967V56.6327H37.7565V54.2729Z" fill="white"/>
<path d="M40.1181 54.2736H37.7583V56.6333H40.1181V54.2736Z" fill="white"/>
<path d="M42.4738 54.2729H40.114V56.6327H42.4738V54.2729Z" fill="white"/>
</svg>
