<svg width="79" height="80" viewBox="0 0 79 80" fill="none" xmlns="http://www.w3.org/2000/svg">
<path d="M41.1252 6.47809L38.9272 5.88916L38.3382 8.08762L40.5361 8.67654L41.1252 6.47809Z" fill="white"/>
<path d="M43.3224 7.06732L41.1245 6.47839L40.5354 8.67685L42.7333 9.26578L43.3224 7.06732Z" fill="white"/>
<path d="M45.5212 7.6557L43.3232 7.06677L42.7342 9.26523L44.9321 9.85416L45.5212 7.6557Z" fill="white"/>
<path d="M47.7194 8.245L45.5215 7.65607L44.9324 9.85452L47.1303 10.4435L47.7194 8.245Z" fill="white"/>
<path d="M36.1408 7.49841L33.9429 6.90948L33.3538 9.10794L35.5517 9.69687L36.1408 7.49841Z" fill="white"/>
<path d="M38.338 8.08685L36.1401 7.49792L35.5511 9.69638L37.749 10.2853L38.338 8.08685Z" fill="white"/>
<path d="M40.5368 8.67615L38.3389 8.08722L37.7498 10.2857L39.9477 10.8746L40.5368 8.67615Z" fill="black"/>
<path d="M42.735 9.26453L40.5371 8.6756L39.948 10.8741L42.1459 11.463L42.735 9.26453Z" fill="black"/>
<path d="M44.9318 9.85376L42.7339 9.26483L42.1448 11.4633L44.3427 12.0522L44.9318 9.85376Z" fill="black"/>
<path d="M47.13 10.4431L44.9321 9.85413L44.3431 12.0526L46.541 12.6415L47.13 10.4431Z" fill="black"/>
<path d="M49.3278 11.0314L47.1299 10.4425L46.5408 12.641L48.7387 13.2299L49.3278 11.0314Z" fill="white"/>
<path d="M33.3527 9.10901L31.1548 8.52008L30.5657 10.7185L32.7636 11.3075L33.3527 9.10901Z" fill="white"/>
<path d="M35.5514 9.69739L33.3535 9.10846L32.7644 11.3069L34.9623 11.8958L35.5514 9.69739Z" fill="black"/>
<path d="M37.7487 10.2866L35.5508 9.69769L34.9617 11.8961L37.1596 12.4851L37.7487 10.2866Z" fill="black"/>
<path d="M39.9474 10.875L37.7495 10.2861L37.1604 12.4845L39.3583 13.0735L39.9474 10.875Z" fill="#F2E5D9"/>
<path d="M42.1457 11.4643L39.9478 10.8754L39.3587 13.0738L41.5566 13.6627L42.1457 11.4643Z" fill="#F2E5D9"/>
<path d="M44.3424 12.0536L42.1445 11.4647L41.5555 13.6631L43.7534 14.252L44.3424 12.0536Z" fill="#F2E5D9"/>
<path d="M46.5407 12.642L44.3428 12.053L43.7537 14.2515L45.9516 14.8404L46.5407 12.642Z" fill="#F2E5D9"/>
<path d="M48.7384 13.2312L46.5405 12.6423L45.9515 14.8407L48.1494 15.4297L48.7384 13.2312Z" fill="black"/>
<path d="M50.9367 13.8205L48.7388 13.2316L48.1497 15.43L50.3476 16.019L50.9367 13.8205Z" fill="white"/>
<path d="M30.5671 10.7178L28.3691 10.1288L27.7801 12.3273L29.978 12.9162L30.5671 10.7178Z" fill="white"/>
<path d="M32.7643 11.3062L30.5664 10.7172L29.9773 12.9157L32.1752 13.5046L32.7643 11.3062Z" fill="black"/>
<path d="M34.9621 11.8954L32.7642 11.3065L32.1751 13.505L34.373 14.0939L34.9621 11.8954Z" fill="#F2E5D9"/>
<path d="M37.1603 12.4847L34.9624 11.8958L34.3733 14.0942L36.5712 14.6831L37.1603 12.4847Z" fill="#F2E5D9"/>
<path d="M39.3581 13.0731L37.1602 12.4842L36.5711 14.6826L38.769 15.2716L39.3581 13.0731Z" fill="#E6CBB3"/>
<path d="M41.5563 13.6622L39.3584 13.0733L38.7693 15.2718L40.9672 15.8607L41.5563 13.6622Z" fill="#E6CBB3"/>
<path d="M43.7541 14.2516L41.5562 13.6627L40.9671 15.8611L43.165 16.45L43.7541 14.2516Z" fill="black"/>
<path d="M45.9523 14.84L43.7544 14.251L43.1653 16.4495L45.3632 17.0384L45.9523 14.84Z" fill="#E6CBB3"/>
<path d="M48.1496 15.4293L45.9517 14.8403L45.3626 17.0388L47.5605 17.6277L48.1496 15.4293Z" fill="black"/>
<path d="M50.3473 16.0176L48.1494 15.4287L47.5603 17.6272L49.7583 18.2161L50.3473 16.0176Z" fill="white"/>
<path d="M27.779 12.3275L25.5811 11.7385L24.992 13.937L27.1899 14.5259L27.779 12.3275Z" fill="white"/>
<path d="M29.9777 12.9158L27.7798 12.3269L27.1907 14.5254L29.3886 15.1143L29.9777 12.9158Z" fill="black"/>
<path d="M32.1759 13.5051L29.978 12.9161L29.389 15.1146L31.5869 15.7035L32.1759 13.5051Z" fill="#D8B18D"/>
<path d="M34.3727 14.0944L32.1748 13.5054L31.5857 15.7039L33.7836 16.2928L34.3727 14.0944Z" fill="#E6CBB3"/>
<path d="M36.571 14.6827L34.373 14.0938L33.784 16.2923L35.9819 16.8812L36.571 14.6827Z" fill="#E6CBB3"/>
<path d="M38.7687 15.272L36.5708 14.6831L35.9817 16.8816L38.1796 17.4705L38.7687 15.272Z" fill="#E6CBB3"/>
<path d="M40.967 15.8604L38.769 15.2715L38.18 17.4699L40.3779 18.0589L40.967 15.8604Z" fill="black"/>
<path d="M43.1647 16.4496L40.9668 15.8607L40.3777 18.0592L42.5756 18.6481L43.1647 16.4496Z" fill="#D8B18D"/>
<path d="M45.363 17.0389L43.165 16.45L42.576 18.6485L44.7739 19.2374L45.363 17.0389Z" fill="#E6CBB3"/>
<path d="M47.5612 17.6273L45.3633 17.0384L44.7742 19.2368L46.9721 19.8258L47.5612 17.6273Z" fill="#F2E5D9"/>
<path d="M49.758 18.2166L47.5601 17.6276L46.971 19.8261L49.1689 20.415L49.758 18.2166Z" fill="black"/>
<path d="M51.9562 18.8058L49.7583 18.2169L49.1692 20.4154L51.3671 21.0043L51.9562 18.8058Z" fill="white"/>
<path d="M24.9923 13.9371L22.7944 13.3481L22.2054 15.5466L24.4033 16.1355L24.9923 13.9371Z" fill="white"/>
<path d="M27.1896 14.5255L24.9917 13.9366L24.4026 16.135L26.6005 16.724L27.1896 14.5255Z" fill="black"/>
<path d="M29.3883 15.1147L27.1904 14.5258L26.6014 16.7243L28.7993 17.3132L29.3883 15.1147Z" fill="#D8B18D"/>
<path d="M31.5866 15.704L29.3887 15.1151L28.7996 17.3136L30.9975 17.9025L31.5866 15.704Z" fill="#E6CBB3"/>
<path d="M33.7838 16.2924L31.5859 15.7035L30.9969 17.9019L33.1948 18.4909L33.7838 16.2924Z" fill="#E6CBB3"/>
<path d="M35.9826 16.8817L33.7847 16.2927L33.1956 18.4912L35.3935 19.0801L35.9826 16.8817Z" fill="#E6CBB3"/>
<path d="M38.1794 17.4709L35.9814 16.882L35.3924 19.0804L37.5903 19.6693L38.1794 17.4709Z" fill="#E6CBB3"/>
<path d="M40.3776 18.0593L38.1797 17.4704L37.5906 19.6689L39.7885 20.2578L40.3776 18.0593Z" fill="black"/>
<path d="M42.5758 18.6486L40.3779 18.0596L39.7889 20.2581L41.9868 20.847L42.5758 18.6486Z" fill="#D8B18D"/>
<path d="M44.7736 19.2369L42.5757 18.648L41.9866 20.8465L44.1845 21.4354L44.7736 19.2369Z" fill="#F2E5D9"/>
<path d="M46.9718 19.8262L44.7739 19.2373L44.1849 21.4358L46.3828 22.0247L46.9718 19.8262Z" fill="#F2E5D9"/>
<path d="M49.1686 20.4155L46.9707 19.8266L46.3816 22.0251L48.5795 22.614L49.1686 20.4155Z" fill="black"/>
<path d="M51.3669 21.0039L49.1689 20.415L48.5799 22.6134L50.7778 23.2024L51.3669 21.0039Z" fill="white"/>
<path d="M24.4035 16.136L22.2056 15.5471L21.6165 17.7455L23.8144 18.3344L24.4035 16.136Z" fill="white"/>
<path d="M26.6012 16.7244L24.4033 16.1354L23.8142 18.3339L26.0122 18.9228L26.6012 16.7244Z" fill="black"/>
<path d="M28.799 17.3137L26.6011 16.7247L26.012 18.9232L28.2099 19.5121L28.799 17.3137Z" fill="#D8B18D"/>
<path d="M30.9972 17.902L28.7993 17.3131L28.2102 19.5116L30.4082 20.1005L30.9972 17.902Z" fill="#E6CBB3"/>
<path d="M33.1945 18.4913L30.9966 17.9024L30.4075 20.1009L32.6054 20.6898L33.1945 18.4913Z" fill="#E6CBB3"/>
<path d="M35.3932 19.0806L33.1953 18.4916L32.6062 20.6901L34.8041 21.279L35.3932 19.0806Z" fill="#E6CBB3"/>
<path d="M37.5915 19.669L35.3936 19.0801L34.8045 21.2785L37.0024 21.8675L37.5915 19.669Z" fill="#E6CBB3"/>
<path d="M39.7882 20.2582L37.5903 19.6693L37.0013 21.8678L39.1992 22.4567L39.7882 20.2582Z" fill="#CD986A"/>
<path d="M41.9865 20.8475L39.7886 20.2585L39.1995 22.457L41.3974 23.0459L41.9865 20.8475Z" fill="black"/>
<path d="M44.1842 21.4359L41.9863 20.8469L41.3973 23.0454L43.5952 23.6343L44.1842 21.4359Z" fill="black"/>
<path d="M46.3825 22.0251L44.1846 21.4362L43.5955 23.6347L45.7934 24.2236L46.3825 22.0251Z" fill="black"/>
<path d="M48.5802 22.6135L46.3823 22.0246L45.7932 24.2231L47.9912 24.812L48.5802 22.6135Z" fill="white"/>
<path d="M23.8141 18.334L21.6162 17.7451L21.0271 19.9436L23.225 20.5325L23.8141 18.334Z" fill="white"/>
<path d="M26.0129 18.9233L23.8149 18.3344L23.2259 20.5329L25.4238 21.1218L26.0129 18.9233Z" fill="black"/>
<path d="M28.2096 19.5117L26.0117 18.9228L25.4226 21.1212L27.6206 21.7102L28.2096 19.5117Z" fill="#D8B18D"/>
<path d="M30.4079 20.101L28.21 19.512L27.6209 21.7105L29.8188 22.2994L30.4079 20.101Z" fill="#E6CBB3"/>
<path d="M32.6051 20.6902L30.4072 20.1013L29.8182 22.2998L32.0161 22.8887L32.6051 20.6902Z" fill="#E6CBB3"/>
<path d="M34.8039 21.2786L32.606 20.6897L32.0169 22.8882L34.2148 23.4771L34.8039 21.2786Z" fill="#E6CBB3"/>
<path d="M37.0021 21.8679L34.8042 21.2789L34.2151 23.4774L36.413 24.0663L37.0021 21.8679Z" fill="#D8B18D"/>
<path d="M39.1999 22.4562L37.002 21.8673L36.4129 24.0658L38.6108 24.6547L39.1999 22.4562Z" fill="black"/>
<path d="M41.3971 23.0456L39.1992 22.4567L38.6101 24.6551L40.8081 25.244L41.3971 23.0456Z" fill="white"/>
<path d="M43.5949 23.6348L41.397 23.0459L40.8079 25.2444L43.0058 25.8333L43.5949 23.6348Z" fill="white"/>
<path d="M45.7931 24.2232L43.5952 23.6343L43.0061 25.8327L45.204 26.4217L45.7931 24.2232Z" fill="white"/>
<path d="M23.2248 20.533L21.0269 19.944L20.4378 22.1425L22.6357 22.7314L23.2248 20.533Z" fill="white"/>
<path d="M25.4235 21.1213L23.2256 20.5324L22.6365 22.7309L24.8344 23.3198L25.4235 21.1213Z" fill="black"/>
<path d="M27.6208 21.7106L25.4229 21.1217L24.8338 23.3202L27.0317 23.9091L27.6208 21.7106Z" fill="#D8B18D"/>
<path d="M29.8185 22.2999L27.6206 21.711L27.0315 23.9095L29.2294 24.4984L29.8185 22.2999Z" fill="#E6CBB3"/>
<path d="M32.0168 22.8883L29.8188 22.2994L29.2298 24.4978L31.4277 25.0868L32.0168 22.8883Z" fill="#E6CBB3"/>
<path d="M34.2145 23.4775L32.0166 22.8886L31.4275 25.0871L33.6254 25.676L34.2145 23.4775Z" fill="#F2E5D9"/>
<path d="M36.4128 24.0668L34.2148 23.4778L33.6258 25.6763L35.8237 26.2652L36.4128 24.0668Z" fill="black"/>
<path d="M38.6105 24.6552L36.4126 24.0663L35.8235 26.2647L38.0214 26.8537L38.6105 24.6552Z" fill="white"/>
<path d="M22.6354 22.731L20.4375 22.1421L19.8484 24.3405L22.0463 24.9295L22.6354 22.731Z" fill="white"/>
<path d="M24.8341 23.3194L22.6362 22.7305L22.0472 24.9289L24.2451 25.5179L24.8341 23.3194Z" fill="black"/>
<path d="M27.0324 23.9087L24.8345 23.3198L24.2454 25.5182L26.4433 26.1071L27.0324 23.9087Z" fill="#D8B18D"/>
<path d="M29.2301 24.4971L27.0322 23.9081L26.4432 26.1066L28.6411 26.6955L29.2301 24.4971Z" fill="#E6CBB3"/>
<path d="M31.4284 25.0863L29.2305 24.4974L28.6414 26.6958L30.8393 27.2848L31.4284 25.0863Z" fill="#E6CBB3"/>
<path d="M33.6252 25.6756L31.4272 25.0867L30.8382 27.2851L33.0361 27.8741L33.6252 25.6756Z" fill="black"/>
<path d="M35.8234 26.264L33.6255 25.675L33.0364 27.8735L35.2343 28.4624L35.8234 26.264Z" fill="white"/>
<path d="M19.8498 24.3406L17.6519 23.7517L17.0628 25.9502L19.2607 26.5391L19.8498 24.3406Z" fill="white"/>
<path d="M22.0461 24.9291L19.8481 24.3401L19.2591 26.5386L21.457 27.1275L22.0461 24.9291Z" fill="black"/>
<path d="M24.2448 25.5184L22.0469 24.9294L21.4578 27.1279L23.6557 27.7168L24.2448 25.5184Z" fill="#D8B18D"/>
<path d="M26.443 26.1068L24.2451 25.5178L23.656 27.7163L25.854 28.3052L26.443 26.1068Z" fill="#E6CBB3"/>
<path d="M28.6408 26.696L26.4429 26.1071L25.8538 28.3056L28.0517 28.8945L28.6408 26.696Z" fill="#E6CBB3"/>
<path d="M30.839 27.2853L28.6411 26.6964L28.052 28.8948L30.2499 29.4837L30.839 27.2853Z" fill="#E6CBB3"/>
<path d="M33.0368 27.8737L30.8389 27.2847L30.2498 29.4832L32.4477 30.0721L33.0368 27.8737Z" fill="black"/>
<path d="M35.234 28.4629L33.0361 27.874L32.4471 30.0724L34.645 30.6613L35.234 28.4629Z" fill="white"/>
<path d="M19.2604 26.5388L17.0625 25.9498L16.4734 28.1483L18.6713 28.7372L19.2604 26.5388Z" fill="white"/>
<path d="M21.4587 27.128L19.2607 26.5391L18.6717 28.7375L20.8696 29.3264L21.4587 27.128Z" fill="black"/>
<path d="M23.6554 27.7164L21.4575 27.1274L20.8684 29.3259L23.0664 29.9148L23.6554 27.7164Z" fill="#D8B18D"/>
<path d="M25.8537 28.3056L23.6558 27.7167L23.0667 29.9151L25.2646 30.5041L25.8537 28.3056Z" fill="#E6CBB3"/>
<path d="M28.0514 28.8949L25.8535 28.306L25.2644 30.5044L27.4624 31.0933L28.0514 28.8949Z" fill="#E6CBB3"/>
<path d="M30.2497 29.4833L28.0518 28.8943L27.4627 31.0928L29.6606 31.6817L30.2497 29.4833Z" fill="#E6CBB3"/>
<path d="M32.4479 30.0726L30.25 29.4836L29.6609 31.6821L31.8588 32.271L32.4479 30.0726Z" fill="black"/>
<path d="M34.6457 30.6609L32.4478 30.072L31.8587 32.2705L34.0566 32.8594L34.6457 30.6609Z" fill="white"/>
<path d="M16.4733 28.1475L14.2754 27.5586L13.6863 29.7571L15.8842 30.346L16.4733 28.1475Z" fill="white"/>
<path d="M18.6711 28.7368L16.4731 28.1478L15.8841 30.3463L18.082 30.9352L18.6711 28.7368Z" fill="black"/>
<path d="M20.8693 29.3261L18.6714 28.7371L18.0823 30.9356L20.2802 31.5245L20.8693 29.3261Z" fill="#D8B18D"/>
<path d="M23.067 29.9144L20.8691 29.3255L20.2801 31.524L22.478 32.1129L23.067 29.9144Z" fill="#E6CBB3"/>
<path d="M25.2653 30.5037L23.0674 29.9148L22.4783 32.1133L24.6762 32.7022L25.2653 30.5037Z" fill="#E6CBB3"/>
<path d="M27.4626 31.0921L25.2646 30.5032L24.6756 32.7016L26.8735 33.2906L27.4626 31.0921Z" fill="#E6CBB3"/>
<path d="M29.6603 31.6813L27.4624 31.0924L26.8733 33.2909L29.0712 33.8798L29.6603 31.6813Z" fill="#E6CBB3"/>
<path d="M31.8586 32.2706L29.6606 31.6816L29.0716 33.8801L31.2695 34.469L31.8586 32.2706Z" fill="black"/>
<path d="M34.0563 32.859L31.8584 32.2701L31.2693 34.4685L33.4672 35.0575L34.0563 32.859Z" fill="white"/>
<path d="M15.8839 30.3473L13.686 29.7584L13.097 31.9568L15.2949 32.5457L15.8839 30.3473Z" fill="white"/>
<path d="M18.0817 30.9365L15.8838 30.3476L15.2947 32.546L17.4926 33.135L18.0817 30.9365Z" fill="black"/>
<path d="M20.2799 31.525L18.082 30.936L17.493 33.1345L19.6909 33.7234L20.2799 31.525Z" fill="#D8B18D"/>
<path d="M22.4777 32.1142L20.2798 31.5253L19.6907 33.7237L21.8886 34.3126L22.4777 32.1142Z" fill="#E6CBB3"/>
<path d="M24.6759 32.7026L22.478 32.1136L21.889 34.3121L24.0869 34.901L24.6759 32.7026Z" fill="#E6CBB3"/>
<path d="M26.8732 33.2919L24.6753 32.7029L24.0862 34.9014L26.2841 35.4903L26.8732 33.2919Z" fill="#E6CBB3"/>
<path d="M29.071 33.8812L26.873 33.2922L26.284 35.4907L28.4819 36.0796L29.071 33.8812Z" fill="#E6CBB3"/>
<path d="M31.2692 34.4695L29.0713 33.8806L28.4822 36.0791L30.6801 36.668L31.2692 34.4695Z" fill="#E6CBB3"/>
<path d="M33.467 35.0588L31.269 34.4698L30.68 36.6683L32.8779 37.2572L33.467 35.0588Z" fill="black"/>
<path d="M35.6652 35.6472L33.4673 35.0582L32.8782 37.2567L35.0761 37.8456L35.6652 35.6472Z" fill="white"/>
<path d="M15.2956 32.5453L13.0977 31.9564L12.5086 34.1549L14.7065 34.7438L15.2956 32.5453Z" fill="white"/>
<path d="M17.4923 33.1338L15.2944 32.5449L14.7054 34.7433L16.9033 35.3322L17.4923 33.1338Z" fill="black"/>
<path d="M19.6906 33.723L17.4927 33.1341L16.9036 35.3325L19.1015 35.9215L19.6906 33.723Z" fill="#D8B18D"/>
<path d="M21.8888 34.3114L19.6909 33.7225L19.1018 35.9209L21.2998 36.5099L21.8888 34.3114Z" fill="#E6CBB3"/>
<path d="M24.0866 34.9006L21.8887 34.3117L21.2996 36.5102L23.4975 37.0991L24.0866 34.9006Z" fill="white"/>
<path d="M26.2848 35.4899L24.0869 34.901L23.4978 37.0995L25.6958 37.6884L26.2848 35.4899Z" fill="#E6CBB3"/>
<path d="M28.4826 36.0783L26.2847 35.4894L25.6956 37.6878L27.8935 38.2768L28.4826 36.0783Z" fill="#E6CBB3"/>
<path d="M30.6808 36.6675L28.4829 36.0786L27.8938 38.2771L30.0917 38.866L30.6808 36.6675Z" fill="#E6CBB3"/>
<path d="M32.8776 37.2569L30.6797 36.668L30.0906 38.8664L32.2885 39.4553L32.8776 37.2569Z" fill="black"/>
<path d="M35.0758 37.8453L32.8779 37.2563L32.2889 39.4548L34.4868 40.0437L35.0758 37.8453Z" fill="white"/>
<path d="M46.0656 40.7898L43.8677 40.2009L43.2786 42.3993L45.4765 42.9882L46.0656 40.7898Z" fill="white"/>
<path d="M48.2638 41.379L46.0659 40.7901L45.4768 42.9885L47.6748 43.5775L48.2638 41.379Z" fill="white"/>
<path d="M50.4616 41.9683L48.2637 41.3794L47.6746 43.5778L49.8725 44.1668L50.4616 41.9683Z" fill="white"/>
<path d="M52.6598 42.5567L50.4619 41.9678L49.8728 44.1662L52.0708 44.7552L52.6598 42.5567Z" fill="white"/>
<path d="M54.8576 43.146L52.6597 42.5571L52.0706 44.7555L54.2685 45.3444L54.8576 43.146Z" fill="white"/>
<path d="M57.0558 43.7344L54.8579 43.1454L54.2688 45.3439L56.4667 45.9328L57.0558 43.7344Z" fill="white"/>
<path d="M14.7062 34.7434L12.5083 34.1545L11.9192 36.3529L14.1171 36.9419L14.7062 34.7434Z" fill="white"/>
<path d="M16.9035 35.3326L14.7056 34.7437L14.1165 36.9422L16.3144 37.5311L16.9035 35.3326Z" fill="black"/>
<path d="M19.1012 35.9219L16.9033 35.333L16.3142 37.5315L18.5122 38.1204L19.1012 35.9219Z" fill="#D8B18D"/>
<path d="M21.2995 36.5103L19.1016 35.9214L18.5125 38.1198L20.7104 38.7088L21.2995 36.5103Z" fill="#E6CBB3"/>
<path d="M23.4972 37.0996L21.2993 36.5107L20.7102 38.7091L22.9082 39.2981L23.4972 37.0996Z" fill="#E6CBB3"/>
<path d="M25.6955 37.688L23.4976 37.0991L22.9085 39.2975L25.1064 39.8864L25.6955 37.688Z" fill="#E6CBB3"/>
<path d="M27.8932 38.2772L25.6953 37.6883L25.1062 39.8867L27.3041 40.4757L27.8932 38.2772Z" fill="#E6CBB3"/>
<path d="M30.0915 38.8665L27.8936 38.2775L27.3045 40.476L29.5024 41.0649L30.0915 38.8665Z" fill="#E6CBB3"/>
<path d="M32.2892 39.4549L30.0913 38.866L29.5022 41.0644L31.7001 41.6533L32.2892 39.4549Z" fill="black"/>
<path d="M34.4865 40.0441L32.2886 39.4552L31.6995 41.6537L33.8974 42.2426L34.4865 40.0441Z" fill="white"/>
<path d="M41.0812 41.8111L38.8833 41.2222L38.2942 43.4206L40.4921 44.0095L41.0812 41.8111Z" fill="white"/>
<path d="M43.2785 42.3995L41.0806 41.8105L40.4915 44.009L42.6894 44.5979L43.2785 42.3995Z" fill="white"/>
<path d="M45.4767 42.9887L43.2788 42.3998L42.6897 44.5982L44.8876 45.1872L45.4767 42.9887Z" fill="black"/>
<path d="M47.6745 43.578L45.4766 42.9891L44.8875 45.1875L47.0854 45.7765L47.6745 43.578Z" fill="black"/>
<path d="M49.8722 44.1664L47.6743 43.5775L47.0852 45.7759L49.2832 46.3648L49.8722 44.1664Z" fill="black"/>
<path d="M52.0705 44.7556L49.8726 44.1667L49.2835 46.3651L51.4814 46.9541L52.0705 44.7556Z" fill="black"/>
<path d="M54.2682 45.344L52.0703 44.7551L51.4812 46.9535L53.6792 47.5424L54.2682 45.344Z" fill="black"/>
<path d="M56.4665 45.9333L54.2686 45.3444L53.6795 47.5428L55.8774 48.1317L56.4665 45.9333Z" fill="black"/>
<path d="M58.6637 46.5226L56.4658 45.9337L55.8767 48.1321L58.0747 48.721L58.6637 46.5226Z" fill="white"/>
<path d="M60.8615 47.111L58.6636 46.522L58.0745 48.7205L60.2724 49.3094L60.8615 47.111Z" fill="white"/>
<path d="M11.9181 36.3531L9.72021 35.7642L9.13114 37.9626L11.3291 38.5515L11.9181 36.3531Z" fill="white"/>
<path d="M14.1169 36.9423L11.9189 36.3534L11.3299 38.5518L13.5278 39.1408L14.1169 36.9423Z" fill="black"/>
<path d="M16.3151 37.5316L14.1172 36.9426L13.5281 39.1411L15.726 39.73L16.3151 37.5316Z" fill="#D8B18D"/>
<path d="M18.5129 38.12L16.3149 37.5311L15.7259 39.7295L17.9238 40.3185L18.5129 38.12Z" fill="#E6CBB3"/>
<path d="M20.7101 38.7092L18.5122 38.1203L17.9231 40.3188L20.121 40.9077L20.7101 38.7092Z" fill="#E6CBB3"/>
<path d="M22.9079 39.2976L20.71 38.7087L20.1209 40.9071L22.3188 41.4961L22.9079 39.2976Z" fill="#E6CBB3"/>
<path d="M25.1061 39.8868L22.9082 39.2979L22.3191 41.4964L24.517 42.0853L25.1061 39.8868Z" fill="#E6CBB3"/>
<path d="M27.3048 40.4762L25.1069 39.8873L24.5179 42.0857L26.7158 42.6747L27.3048 40.4762Z" fill="#E6CBB3"/>
<path d="M29.5021 41.0646L27.3042 40.4756L26.7151 42.6741L28.913 43.263L29.5021 41.0646Z" fill="#E6CBB3"/>
<path d="M31.7008 41.6538L29.5029 41.0649L28.9139 43.2633L31.1118 43.8523L31.7008 41.6538Z" fill="black"/>
<path d="M33.8971 42.2431L31.6992 41.6542L31.1101 43.8526L33.3081 44.4416L33.8971 42.2431Z" fill="white"/>
<path d="M38.2931 43.4207L36.0952 42.8318L35.5061 45.0302L37.7041 45.6192L38.2931 43.4207Z" fill="white"/>
<path d="M40.4919 44.0091L38.2939 43.4202L37.7049 45.6186L39.9028 46.2075L40.4919 44.0091Z" fill="black"/>
<path d="M42.6901 44.5984L40.4922 44.0095L39.9031 46.2079L42.101 46.7968L42.6901 44.5984Z" fill="black"/>
<path d="M44.8874 45.1876L42.6895 44.5987L42.1004 46.7971L44.2983 47.3861L44.8874 45.1876Z" fill="#F2E5D9"/>
<path d="M47.0861 45.7761L44.8882 45.1871L44.2991 47.3856L46.497 47.9745L47.0861 45.7761Z" fill="#F2E5D9"/>
<path d="M49.2829 46.3653L47.085 45.7764L46.4959 47.9748L48.6938 48.5638L49.2829 46.3653Z" fill="#F2E5D9"/>
<path d="M51.4811 46.9537L49.2832 46.3648L48.6941 48.5633L50.892 49.1522L51.4811 46.9537Z" fill="#F2E5D9"/>
<path d="M53.6789 47.543L51.481 46.954L50.8919 49.1525L53.0898 49.7414L53.6789 47.543Z" fill="#F2E5D9"/>
<path d="M55.8771 48.1322L53.6792 47.5433L53.0901 49.7417L55.288 50.3307L55.8771 48.1322Z" fill="#F2E5D9"/>
<path d="M58.0754 48.7206L55.8774 48.1317L55.2884 50.3301L57.4863 50.919L58.0754 48.7206Z" fill="black"/>
<path d="M60.2731 49.3098L58.0752 48.7209L57.4861 50.9193L59.684 51.5083L60.2731 49.3098Z" fill="black"/>
<path d="M62.4704 49.8991L60.2725 49.3102L59.6834 51.5086L61.8813 52.0976L62.4704 49.8991Z" fill="white"/>
<path d="M11.3297 38.5511L9.13184 37.9622L8.54276 40.1606L10.7407 40.7495L11.3297 38.5511Z" fill="white"/>
<path d="M13.5275 39.1403L11.3296 38.5514L10.7405 40.7498L12.9384 41.3388L13.5275 39.1403Z" fill="black"/>
<path d="M15.7257 39.7288L13.5278 39.1398L12.9388 41.3383L15.1367 41.9272L15.7257 39.7288Z" fill="#D8B18D"/>
<path d="M17.9235 40.3181L15.7256 39.7291L15.1365 41.9276L17.3344 42.5165L17.9235 40.3181Z" fill="#E6CBB3"/>
<path d="M20.1217 40.9073L17.9238 40.3184L17.3348 42.5168L19.5327 43.1057L20.1217 40.9073Z" fill="white"/>
<path d="M22.3195 41.4957L20.1216 40.9068L19.5325 43.1053L21.7304 43.6942L22.3195 41.4957Z" fill="#E6CBB3"/>
<path d="M24.5177 42.085L22.3198 41.496L21.7308 43.6945L23.9287 44.2834L24.5177 42.085Z" fill="#E6CBB3"/>
<path d="M26.7155 42.6733L24.5176 42.0844L23.9285 44.2829L26.1264 44.8718L26.7155 42.6733Z" fill="#E6CBB3"/>
<path d="M28.9128 43.2626L26.7148 42.6736L26.1258 44.8721L28.3237 45.461L28.9128 43.2626Z" fill="#E6CBB3"/>
<path d="M31.1115 43.8518L28.9136 43.2629L28.3245 45.4613L30.5224 46.0503L31.1115 43.8518Z" fill="black"/>
<path d="M33.3087 44.4402L31.1108 43.8513L30.5218 46.0498L32.7197 46.6387L33.3087 44.4402Z" fill="white"/>
<path d="M35.507 45.0295L33.3091 44.4406L32.72 46.639L34.9179 47.2279L35.507 45.0295Z" fill="white"/>
<path d="M37.7057 45.6179L35.5078 45.029L34.9187 47.2274L37.1167 47.8164L37.7057 45.6179Z" fill="black"/>
<path d="M39.9025 46.2072L37.7046 45.6183L37.1155 47.8167L39.3134 48.4057L39.9025 46.2072Z" fill="#F2E5D9"/>
<path d="M42.1007 46.7964L39.9028 46.2075L39.3138 48.406L41.5117 48.9949L42.1007 46.7964Z" fill="#F2E5D9"/>
<path d="M44.298 47.3848L42.1001 46.7959L41.511 48.9944L43.7089 49.5833L44.298 47.3848Z" fill="#E6CBB3"/>
<path d="M46.4967 47.9741L44.2988 47.3851L43.7098 49.5836L45.9077 50.1725L46.4967 47.9741Z" fill="#E6CBB3"/>
<path d="M48.694 48.5633L46.4961 47.9744L45.907 50.1728L48.1049 50.7617L48.694 48.5633Z" fill="#E6CBB3"/>
<path d="M50.8927 49.1517L48.6948 48.5628L48.1058 50.7613L50.3037 51.3502L50.8927 49.1517Z" fill="#E6CBB3"/>
<path d="M53.091 49.741L50.8931 49.152L50.304 51.3505L52.5019 51.9394L53.091 49.741Z" fill="#E6CBB3"/>
<path d="M55.2878 50.3293L53.0898 49.7404L52.5008 51.9389L54.6987 52.5278L55.2878 50.3293Z" fill="#E6CBB3"/>
<path d="M57.486 50.9186L55.2881 50.3297L54.699 52.5282L56.8969 53.1171L57.486 50.9186Z" fill="#F2E5D9"/>
<path d="M59.6837 51.5079L57.4858 50.919L56.8968 53.1175L59.0947 53.7064L59.6837 51.5079Z" fill="#F2E5D9"/>
<path d="M61.882 52.0963L59.6841 51.5074L59.095 53.7058L61.2929 54.2948L61.882 52.0963Z" fill="black"/>
<path d="M64.0807 52.6855L61.8828 52.0966L61.2937 54.2951L63.4916 54.884L64.0807 52.6855Z" fill="white"/>
<path d="M10.7414 40.75L8.54346 40.1611L7.95438 42.3595L10.1523 42.9485L10.7414 40.75Z" fill="white"/>
<path d="M12.9391 41.3384L10.7412 40.7495L10.1521 42.948L12.35 43.5369L12.9391 41.3384Z" fill="black"/>
<path d="M15.1364 41.9277L12.9385 41.3387L12.3494 43.5372L14.5473 44.1261L15.1364 41.9277Z" fill="#D8B18D"/>
<path d="M17.3341 42.5169L15.1362 41.928L14.5472 44.1264L16.7451 44.7154L17.3341 42.5169Z" fill="#E6CBB3"/>
<path d="M19.5324 43.1053L17.3345 42.5164L16.7454 44.7149L18.9433 45.3038L19.5324 43.1053Z" fill="white"/>
<path d="M21.7306 43.6946L19.5327 43.1057L18.9436 45.3041L21.1416 45.893L21.7306 43.6946Z" fill="#E6CBB3"/>
<path d="M23.9284 44.283L21.7305 43.694L21.1414 45.8925L23.3393 46.4814L23.9284 44.283Z" fill="#E6CBB3"/>
<path d="M26.1266 44.8723L23.9287 44.2833L23.3396 46.4818L25.5375 47.0707L26.1266 44.8723Z" fill="#E6CBB3"/>
<path d="M28.3234 45.4615L26.1255 44.8726L25.5364 47.0711L27.7343 47.66L28.3234 45.4615Z" fill="#E6CBB3"/>
<path d="M30.5221 46.0499L28.3242 45.461L27.7351 47.6595L29.9331 48.2484L30.5221 46.0499Z" fill="black"/>
<path d="M32.7194 46.6392L30.5215 46.0502L29.9324 48.2487L32.1303 48.8376L32.7194 46.6392Z" fill="white"/>
<path d="M34.9176 47.2275L32.7197 46.6386L32.1307 48.8371L34.3286 49.426L34.9176 47.2275Z" fill="black"/>
<path d="M37.1164 47.8168L34.9185 47.2279L34.3294 49.4264L36.5273 50.0153L37.1164 47.8168Z" fill="#F2E5D9"/>
<path d="M39.3136 48.4061L37.1157 47.8171L36.5266 50.0156L38.7246 50.6045L39.3136 48.4061Z" fill="#E6CBB3"/>
<path d="M41.5124 48.9944L39.3145 48.4055L38.7254 50.604L40.9233 51.1929L41.5124 48.9944Z" fill="#E6CBB3"/>
<path d="M43.7091 49.5837L41.5112 48.9948L40.9222 51.1933L43.1201 51.7822L43.7091 49.5837Z" fill="#E6CBB3"/>
<path d="M45.9074 50.173L43.7095 49.5841L43.1204 51.7826L45.3183 52.3715L45.9074 50.173Z" fill="white"/>
<path d="M48.1056 50.7614L45.9077 50.1725L45.3186 52.3709L47.5165 52.9599L48.1056 50.7614Z" fill="white"/>
<path d="M50.3034 51.3506L48.1055 50.7617L47.5164 52.9602L49.7143 53.5491L50.3034 51.3506Z" fill="white"/>
<path d="M52.5006 51.9391L50.3027 51.3502L49.7137 53.5486L51.9116 54.1375L52.5006 51.9391Z" fill="white"/>
<path d="M54.6984 52.5283L52.5005 51.9394L51.9114 54.1379L54.1093 54.7268L54.6984 52.5283Z" fill="#E6CBB3"/>
<path d="M56.8966 53.1176L54.6987 52.5286L54.1097 54.7271L56.3076 55.316L56.8966 53.1176Z" fill="#E6CBB3"/>
<path d="M59.0944 53.7059L56.8965 53.117L56.3074 55.3155L58.5053 55.9044L59.0944 53.7059Z" fill="#E6CBB3"/>
<path d="M61.2926 54.2952L59.0947 53.7062L58.5057 55.9047L60.7036 56.4936L61.2926 54.2952Z" fill="#F2E5D9"/>
<path d="M63.4914 54.8845L61.2935 54.2956L60.7044 56.4941L62.9023 57.083L63.4914 54.8845Z" fill="black"/>
<path d="M65.6886 55.4729L63.4907 54.884L62.9016 57.0824L65.0996 57.6714L65.6886 55.4729Z" fill="white"/>
<path d="M10.152 42.9481L7.9541 42.3591L7.36503 44.5576L9.56294 45.1465L10.152 42.9481Z" fill="white"/>
<path d="M12.3498 43.5374L10.1519 42.9484L9.56278 45.1469L11.7607 45.7358L12.3498 43.5374Z" fill="black"/>
<path d="M14.547 44.1266L12.3491 43.5377L11.76 45.7361L13.958 46.325L14.547 44.1266Z" fill="#D8B18D"/>
<path d="M16.7458 44.715L14.5479 44.1261L13.9588 46.3246L16.1567 46.9135L16.7458 44.715Z" fill="#E6CBB3"/>
<path d="M18.943 45.3043L16.7451 44.7153L16.156 46.9138L18.354 47.5027L18.943 45.3043Z" fill="#E6CBB3"/>
<path d="M21.1413 45.8926L18.9434 45.3037L18.3543 47.5022L20.5522 48.0911L21.1413 45.8926Z" fill="#E6CBB3"/>
<path d="M23.339 46.4819L21.1411 45.8929L20.552 48.0914L22.75 48.6803L23.339 46.4819Z" fill="#E6CBB3"/>
<path d="M25.5373 47.0712L23.3394 46.4822L22.7503 48.6807L24.9482 49.2696L25.5373 47.0712Z" fill="#E6CBB3"/>
<path d="M27.735 47.6595L25.5371 47.0706L24.948 49.2691L27.1459 49.858L27.735 47.6595Z" fill="#E6CBB3"/>
<path d="M29.9328 48.2488L27.7349 47.6599L27.1458 49.8584L29.3437 50.4473L29.9328 48.2488Z" fill="#E6CBB3"/>
<path d="M32.131 48.8381L29.9331 48.2491L29.344 50.4476L31.5419 51.0365L32.131 48.8381Z" fill="black"/>
<path d="M34.3283 49.4265L32.1304 48.8376L31.5413 51.036L33.7392 51.625L34.3283 49.4265Z" fill="#F2E5D9"/>
<path d="M36.527 50.0157L34.3291 49.4268L33.74 51.6253L35.9379 52.2142L36.527 50.0157Z" fill="#E6CBB3"/>
<path d="M38.7243 50.6041L36.5264 50.0152L35.9373 52.2137L38.1352 52.8026L38.7243 50.6041Z" fill="#E6CBB3"/>
<path d="M40.922 51.1934L38.7241 50.6045L38.135 52.8029L40.333 53.3919L40.922 51.1934Z" fill="#E6CBB3"/>
<path d="M43.1203 51.7827L40.9224 51.1937L40.3333 53.3922L42.5312 53.9811L43.1203 51.7827Z" fill="#E6CBB3"/>
<path d="M45.318 52.371L43.1201 51.7821L42.531 53.9806L44.729 54.5695L45.318 52.371Z" fill="#E6CBB3"/>
<path d="M47.5163 52.9603L45.3184 52.3713L44.7293 54.5698L46.9272 55.1587L47.5163 52.9603Z" fill="#E6CBB3"/>
<path d="M49.714 53.5486L47.5161 52.9597L46.927 55.1582L49.125 55.7471L49.714 53.5486Z" fill="#E6CBB3"/>
<path d="M51.9123 54.138L49.7144 53.5491L49.1253 55.7475L51.3232 56.3365L51.9123 54.138Z" fill="#E6CBB3"/>
<path d="M54.11 54.7272L51.9121 54.1383L51.323 56.3368L53.5209 56.9257L54.11 54.7272Z" fill="#E6CBB3"/>
<path d="M56.3073 55.3156L54.1094 54.7267L53.5203 56.9251L55.7182 57.5141L56.3073 55.3156Z" fill="white"/>
<path d="M58.506 55.9049L56.3081 55.316L55.719 57.5144L57.9169 58.1034L58.506 55.9049Z" fill="#E6CBB3"/>
<path d="M60.7033 56.4941L58.5054 55.9052L57.9163 58.1037L60.1142 58.6926L60.7033 56.4941Z" fill="#E6CBB3"/>
<path d="M62.902 57.0825L60.7041 56.4936L60.115 58.692L62.3129 59.281L62.902 57.0825Z" fill="#D8B18D"/>
<path d="M65.0993 57.6718L62.9014 57.0828L62.3123 59.2813L64.5102 59.8702L65.0993 57.6718Z" fill="black"/>
<path d="M67.2975 58.2602L65.0996 57.6713L64.5105 59.8697L66.7084 60.4586L67.2975 58.2602Z" fill="white"/>
<path d="M7.36441 44.5586L5.1665 43.9697L4.57743 46.1681L6.77534 46.757L7.36441 44.5586Z" fill="white"/>
<path d="M9.56266 45.147L7.36475 44.558L6.77567 46.7565L8.97358 47.3454L9.56266 45.147Z" fill="black"/>
<path d="M11.7604 45.7362L9.5625 45.1473L8.97343 47.3457L11.1713 47.9347L11.7604 45.7362Z" fill="#D8B18D"/>
<path d="M13.9587 46.3246L11.7607 45.7357L11.1717 47.9342L13.3696 48.5231L13.9587 46.3246Z" fill="#E6CBB3"/>
<path d="M16.1564 46.9139L13.9585 46.325L13.3694 48.5234L15.5673 49.1123L16.1564 46.9139Z" fill="#E6CBB3"/>
<path d="M18.3537 47.5032L16.1558 46.9142L15.5667 49.1127L17.7646 49.7016L18.3537 47.5032Z" fill="#E6CBB3"/>
<path d="M20.5519 48.0916L18.354 47.5027L17.7649 49.7011L19.9628 50.2901L20.5519 48.0916Z" fill="#E6CBB3"/>
<path d="M22.7497 48.6808L20.5518 48.0919L19.9627 50.2904L22.1606 50.8793L22.7497 48.6808Z" fill="#E6CBB3"/>
<path d="M24.9479 49.2692L22.75 48.6803L22.1609 50.8788L24.3588 51.4677L24.9479 49.2692Z" fill="#E6CBB3"/>
<path d="M27.1466 49.8585L24.9487 49.2695L24.3597 51.468L26.5576 52.0569L27.1466 49.8585Z" fill="#E6CBB3"/>
<path d="M29.3434 50.4478L27.1455 49.8588L26.5564 52.0573L28.7543 52.6462L29.3434 50.4478Z" fill="#E6CBB3"/>
<path d="M31.5417 51.0361L29.3438 50.4472L28.7547 52.6457L30.9526 53.2346L31.5417 51.0361Z" fill="black"/>
<path d="M33.7389 51.6254L31.541 51.0364L30.9519 53.2349L33.1499 53.8238L33.7389 51.6254Z" fill="#E6CBB3"/>
<path d="M35.9377 52.2137L33.7397 51.6248L33.1507 53.8233L35.3486 54.4122L35.9377 52.2137Z" fill="#E6CBB3"/>
<path d="M38.1349 52.8031L35.937 52.2142L35.3479 54.4126L37.5458 55.0016L38.1349 52.8031Z" fill="#E6CBB3"/>
<path d="M40.3337 53.3923L38.1357 52.8034L37.5467 55.0019L39.7446 55.5908L40.3337 53.3923Z" fill="#E6CBB3"/>
<path d="M42.5319 53.9807L40.334 53.3918L39.7449 55.5902L41.9428 56.1792L42.5319 53.9807Z" fill="#E6CBB3"/>
<path d="M44.7287 54.5699L42.5308 53.981L41.9417 56.1795L44.1396 56.7684L44.7287 54.5699Z" fill="#E6CBB3"/>
<path d="M46.9269 55.1592L44.729 54.5703L44.1399 56.7688L46.3378 57.3577L46.9269 55.1592Z" fill="#E6CBB3"/>
<path d="M49.1247 55.7476L46.9268 55.1587L46.3377 57.3571L48.5356 57.9461L49.1247 55.7476Z" fill="#E6CBB3"/>
<path d="M51.3229 56.3369L49.125 55.7479L48.5359 57.9464L50.7338 58.5353L51.3229 56.3369Z" fill="#E6CBB3"/>
<path d="M53.5212 56.9252L51.3232 56.3363L50.7342 58.5348L52.9321 59.1237L53.5212 56.9252Z" fill="#E6CBB3"/>
<path d="M55.7179 57.5145L53.52 56.9256L52.9309 59.1241L55.1289 59.713L55.7179 57.5145Z" fill="#E6CBB3"/>
<path d="M57.9167 58.1038L55.7188 57.5149L55.1297 59.7133L57.3276 60.3023L57.9167 58.1038Z" fill="#E6CBB3"/>
<path d="M60.1139 58.6922L57.916 58.1033L57.3269 60.3017L59.5249 60.8907L60.1139 58.6922Z" fill="#E6CBB3"/>
<path d="M62.3127 59.2814L60.1147 58.6924L59.5257 60.8909L61.7236 61.4798L62.3127 59.2814Z" fill="#D8B18D"/>
<path d="M64.5099 59.8707L62.312 59.2818L61.7229 61.4803L63.9208 62.0692L64.5099 59.8707Z" fill="black"/>
<path d="M66.7082 60.4591L64.5103 59.8702L63.9212 62.0686L66.1191 62.6576L66.7082 60.4591Z" fill="white"/>
<path d="M6.77506 46.7567L4.57715 46.1677L3.98807 48.3662L6.18598 48.9551L6.77506 46.7567Z" fill="white"/>
<path d="M8.9733 47.3459L6.77539 46.757L6.18632 48.9555L8.38423 49.5444L8.9733 47.3459Z" fill="black"/>
<path d="M11.1715 47.9343L8.97363 47.3454L8.38456 49.5439L10.5825 50.1328L11.1715 47.9343Z" fill="#D8B18D"/>
<path d="M13.3693 48.5236L11.1714 47.9346L10.5823 50.1331L12.7802 50.722L13.3693 48.5236Z" fill="#E6CBB3"/>
<path d="M15.5675 49.1128L13.3696 48.5239L12.7806 50.7223L14.9785 51.3112L15.5675 49.1128Z" fill="#E6CBB3"/>
<path d="M17.7643 49.7012L15.5664 49.1123L14.9773 51.3108L17.1752 51.8997L17.7643 49.7012Z" fill="#E6CBB3"/>
<path d="M19.9626 50.2905L17.7646 49.7015L17.1756 51.9L19.3735 52.4889L19.9626 50.2905Z" fill="#E6CBB3"/>
<path d="M22.1603 50.8788L19.9624 50.2899L19.3733 52.4884L21.5712 53.0773L22.1603 50.8788Z" fill="#E6CBB3"/>
<path d="M24.3586 51.4681L22.1606 50.8792L21.5716 53.0777L23.7695 53.6666L24.3586 51.4681Z" fill="#E6CBB3"/>
<path d="M26.5573 52.0574L24.3594 51.4685L23.7703 53.667L25.9682 54.2559L26.5573 52.0574Z" fill="#E6CBB3"/>
<path d="M28.7545 52.6458L26.5566 52.0569L25.9676 54.2553L28.1655 54.8443L28.7545 52.6458Z" fill="#E6CBB3"/>
<path d="M30.9533 53.235L28.7554 52.6461L28.1663 54.8446L30.3642 55.4335L30.9533 53.235Z" fill="#E6CBB3"/>
<path d="M33.1496 53.8235L30.9517 53.2346L30.3626 55.433L32.5605 56.0219L33.1496 53.8235Z" fill="#E6CBB3"/>
<path d="M35.3483 54.4127L33.1504 53.8238L32.5613 56.0222L34.7592 56.6112L35.3483 54.4127Z" fill="#E6CBB3"/>
<path d="M37.5465 55.002L35.3486 54.413L34.7596 56.6115L36.9575 57.2004L37.5465 55.002Z" fill="#E6CBB3"/>
<path d="M39.7443 55.5903L37.5464 55.0014L36.9573 57.1999L39.1552 57.7888L39.7443 55.5903Z" fill="#E6CBB3"/>
<path d="M41.9425 56.1796L39.7446 55.5906L39.1556 57.7891L41.3535 58.378L41.9425 56.1796Z" fill="#E6CBB3"/>
<path d="M44.1403 56.7689L41.9424 56.18L41.3533 58.3784L43.5512 58.9674L44.1403 56.7689Z" fill="#E6CBB3"/>
<path d="M46.3376 57.3573L44.1396 56.7684L43.5506 58.9668L45.7485 59.5558L46.3376 57.3573Z" fill="#E6CBB3"/>
<path d="M48.5353 57.9465L46.3374 57.3576L45.7483 59.5561L47.9462 60.145L48.5353 57.9465Z" fill="#E6CBB3"/>
<path d="M50.7336 58.5349L48.5356 57.946L47.9466 60.1444L50.1445 60.7334L50.7336 58.5349Z" fill="#E6CBB3"/>
<path d="M52.9318 59.1242L50.7339 58.5353L50.1448 60.7337L52.3427 61.3227L52.9318 59.1242Z" fill="#E6CBB3"/>
<path d="M55.1296 59.7134L52.9316 59.1245L52.3426 61.323L54.5405 61.9119L55.1296 59.7134Z" fill="#E6CBB3"/>
<path d="M57.3278 60.3018L55.1299 59.7129L54.5408 61.9113L56.7387 62.5003L57.3278 60.3018Z" fill="#E6CBB3"/>
<path d="M59.5246 60.8911L57.3267 60.3022L56.7376 62.5006L58.9355 63.0896L59.5246 60.8911Z" fill="#E6CBB3"/>
<path d="M61.7233 61.4804L59.5254 60.8915L58.9363 63.0899L61.1342 63.6789L61.7233 61.4804Z" fill="#D8B18D"/>
<path d="M63.9215 62.0688L61.7236 61.4799L61.1346 63.6783L63.3325 64.2672L63.9215 62.0688Z" fill="black"/>
<path d="M66.1188 62.658L63.9209 62.0691L63.3318 64.2675L65.5297 64.8565L66.1188 62.658Z" fill="white"/>
<path d="M6.18619 48.9556L3.98828 48.3666L3.39921 50.5651L5.59712 51.154L6.18619 48.9556Z" fill="white"/>
<path d="M8.38394 49.5439L6.18604 48.955L5.59696 51.1535L7.79487 51.7424L8.38394 49.5439Z" fill="black"/>
<path d="M10.5822 50.1332L8.38428 49.5443L7.7952 51.7428L9.99311 52.3317L10.5822 50.1332Z" fill="#D8B18D"/>
<path d="M12.7799 50.7225L10.582 50.1335L9.99296 52.332L12.1909 52.9209L12.7799 50.7225Z" fill="#E6CBB3"/>
<path d="M14.9782 51.3109L12.7803 50.722L12.1912 52.9204L14.3891 53.5094L14.9782 51.3109Z" fill="#E6CBB3"/>
<path d="M17.1759 51.9001L14.978 51.3112L14.389 53.5097L16.5869 54.0986L17.1759 51.9001Z" fill="#E6CBB3"/>
<path d="M19.3742 52.4885L17.1763 51.8996L16.5872 54.098L18.7851 54.687L19.3742 52.4885Z" fill="#E6CBB3"/>
<path d="M21.5719 53.0778L19.374 52.4889L18.7849 54.6873L20.9829 55.2763L21.5719 53.0778Z" fill="#E6CBB3"/>
<path d="M23.7692 53.6671L21.5713 53.0781L20.9822 55.2766L23.1801 55.8655L23.7692 53.6671Z" fill="#E6CBB3"/>
<path d="M25.9679 54.2554L23.77 53.6665L23.1809 55.865L25.3789 56.4539L25.9679 54.2554Z" fill="#E6CBB3"/>
<path d="M28.1652 54.8447L25.9673 54.2557L25.3782 56.4542L27.5761 57.0431L28.1652 54.8447Z" fill="#E6CBB3"/>
<path d="M30.3639 55.434L28.166 54.8451L27.5769 57.0435L29.7749 57.6325L30.3639 55.434Z" fill="#E6CBB3"/>
<path d="M32.5622 56.0224L30.3643 55.4335L29.7752 57.6319L31.9731 58.2209L32.5622 56.0224Z" fill="#E6CBB3"/>
<path d="M34.7589 56.6116L32.561 56.0227L31.972 58.2212L34.1699 58.8101L34.7589 56.6116Z" fill="#E6CBB3"/>
<path d="M36.9572 57.2L34.7593 56.6111L34.1702 58.8095L36.3681 59.3985L36.9572 57.2Z" fill="#E6CBB3"/>
<path d="M39.1549 57.7893L36.957 57.2004L36.368 59.3988L38.5659 59.9878L39.1549 57.7893Z" fill="#E6CBB3"/>
<path d="M41.3532 58.3785L39.1553 57.7896L38.5662 59.9881L40.7641 60.577L41.3532 58.3785Z" fill="#E6CBB3"/>
<path d="M43.5509 58.9669L41.353 58.378L40.764 60.5764L42.9619 61.1654L43.5509 58.9669Z" fill="#E6CBB3"/>
<path d="M45.7492 59.5562L43.5513 58.9672L42.9622 61.1657L45.1601 61.7546L45.7492 59.5562Z" fill="#E6CBB3"/>
<path d="M47.9469 60.1446L45.749 59.5557L45.1599 61.7541L47.3579 62.343L47.9469 60.1446Z" fill="#E6CBB3"/>
<path d="M50.1442 60.7339L47.9463 60.145L47.3572 62.3434L49.5551 62.9323L50.1442 60.7339Z" fill="#E6CBB3"/>
<path d="M52.3424 61.3231L50.1445 60.7342L49.5555 62.9326L51.7534 63.5216L52.3424 61.3231Z" fill="#E6CBB3"/>
<path d="M54.5402 61.9115L52.3423 61.3226L51.7532 63.521L53.9511 64.11L54.5402 61.9115Z" fill="#E6CBB3"/>
<path d="M56.7384 62.5008L54.5405 61.9119L53.9515 64.1103L56.1494 64.6992L56.7384 62.5008Z" fill="#E6CBB3"/>
<path d="M58.9372 63.09L56.7393 62.5011L56.1502 64.6996L58.3481 65.2885L58.9372 63.09Z" fill="#D8B18D"/>
<path d="M61.1339 63.6784L58.936 63.0895L58.347 65.2879L60.5449 65.8769L61.1339 63.6784Z" fill="#CD986A"/>
<path d="M63.3322 64.2676L61.1343 63.6787L60.5452 65.8772L62.7431 66.4661L63.3322 64.2676Z" fill="black"/>
<path d="M65.5295 64.8561L63.3315 64.2672L62.7425 66.4656L64.9404 67.0545L65.5295 64.8561Z" fill="white"/>
<path d="M5.59781 51.1528L3.3999 50.5638L2.81083 52.7623L5.00874 53.3512L5.59781 51.1528Z" fill="white"/>
<path d="M7.79557 51.742L5.59766 51.1531L5.00858 53.3515L7.20649 53.9405L7.79557 51.742Z" fill="black"/>
<path d="M9.99381 52.3312L7.7959 51.7423L7.20683 53.9408L9.40474 54.5297L9.99381 52.3312Z" fill="#D8B18D"/>
<path d="M12.1906 52.9197L9.99268 52.3307L9.4036 54.5292L11.6015 55.1181L12.1906 52.9197Z" fill="#E6CBB3"/>
<path d="M14.3888 53.5089L12.1909 52.92L11.6018 55.1184L13.7998 55.7074L14.3888 53.5089Z" fill="#E6CBB3"/>
<path d="M16.5876 54.0981L14.3896 53.5092L13.8006 55.7077L15.9985 56.2966L16.5876 54.0981Z" fill="#E6CBB3"/>
<path d="M18.7848 54.6866L16.5869 54.0977L15.9978 56.2961L18.1957 56.885L18.7848 54.6866Z" fill="#E6CBB3"/>
<path d="M20.9836 55.2759L18.7856 54.687L18.1966 56.8854L20.3945 57.4743L20.9836 55.2759Z" fill="#E6CBB3"/>
<path d="M23.1798 55.8643L20.9819 55.2753L20.3929 57.4738L22.5908 58.0627L23.1798 55.8643Z" fill="#E6CBB3"/>
<path d="M25.3786 56.4535L23.1807 55.8646L22.5916 58.063L24.7895 58.6519L25.3786 56.4535Z" fill="#E6CBB3"/>
<path d="M27.5758 57.0428L25.3779 56.4539L24.7889 58.6523L26.9868 59.2412L27.5758 57.0428Z" fill="#E6CBB3"/>
<path d="M29.7746 57.6312L27.5767 57.0422L26.9876 59.2407L29.1855 59.8296L29.7746 57.6312Z" fill="#E6CBB3"/>
<path d="M31.9728 58.2204L29.7749 57.6315L29.1858 59.8299L31.3837 60.4188L31.9728 58.2204Z" fill="#E6CBB3"/>
<path d="M34.1706 58.8096L31.9727 58.2207L31.3836 60.4192L33.5815 61.0081L34.1706 58.8096Z" fill="#E6CBB3"/>
<path d="M36.3688 59.3981L34.1709 58.8091L33.5818 61.0076L35.7797 61.5965L36.3688 59.3981Z" fill="#E6CBB3"/>
<path d="M38.5656 59.9873L36.3677 59.3984L35.7786 61.5968L37.9765 62.1858L38.5656 59.9873Z" fill="#E6CBB3"/>
<path d="M40.7638 60.5757L38.5659 59.9868L37.9768 62.1853L40.1748 62.7742L40.7638 60.5757Z" fill="#E6CBB3"/>
<path d="M42.9621 61.1649L40.7642 60.576L40.1751 62.7744L42.373 63.3634L42.9621 61.1649Z" fill="#E6CBB3"/>
<path d="M45.1598 61.7543L42.9619 61.1653L42.3728 63.3638L44.5707 63.9527L45.1598 61.7543Z" fill="#E6CBB3"/>
<path d="M47.3581 62.3427L45.1602 61.7537L44.5711 63.9522L46.769 64.5411L47.3581 62.3427Z" fill="#E6CBB3"/>
<path d="M49.5558 62.9319L47.3579 62.343L46.7688 64.5414L48.9667 65.1303L49.5558 62.9319Z" fill="#E6CBB3"/>
<path d="M51.7531 63.5203L49.5552 62.9313L48.9661 65.1298L51.164 65.7187L51.7531 63.5203Z" fill="#E6CBB3"/>
<path d="M53.9508 64.1096L51.7529 63.5206L51.1639 65.7191L53.3618 66.308L53.9508 64.1096Z" fill="#D8B18D"/>
<path d="M56.1491 64.6988L53.9512 64.1099L53.3621 66.3083L55.56 66.8972L56.1491 64.6988Z" fill="#D8B18D"/>
<path d="M58.3478 65.2872L56.1499 64.6982L55.5608 66.8967L57.7587 67.4856L58.3478 65.2872Z" fill="#CD986A"/>
<path d="M60.5451 65.8765L58.3472 65.2875L57.7581 67.486L59.956 68.0749L60.5451 65.8765Z" fill="black"/>
<path d="M62.7438 66.4649L60.5459 65.876L59.9568 68.0744L62.1547 68.6634L62.7438 66.4649Z" fill="white"/>
<path d="M64.9411 67.0541L62.7432 66.4652L62.1541 68.6637L64.352 69.2526L64.9411 67.0541Z" fill="white"/>
<path d="M5.00846 53.3525L2.81055 52.7636L2.22147 54.9621L4.41938 55.551L5.00846 53.3525Z" fill="white"/>
<path d="M7.20523 53.9418L5.00732 53.3529L4.41825 55.5514L6.61616 56.1403L7.20523 53.9418Z" fill="black"/>
<path d="M9.40348 54.5302L7.20557 53.9413L6.61649 56.1397L8.8144 56.7287L9.40348 54.5302Z" fill="#CD986A"/>
<path d="M11.6022 55.1194L9.4043 54.5305L8.81522 56.729L11.0131 57.3179L11.6022 55.1194Z" fill="#D8B18D"/>
<path d="M13.7995 55.7087L11.6016 55.1198L11.0125 57.3182L13.2104 57.9071L13.7995 55.7087Z" fill="#D8B18D"/>
<path d="M15.9982 56.2971L13.8003 55.7082L13.2112 57.9066L15.4091 58.4956L15.9982 56.2971Z" fill="#D8B18D"/>
<path d="M18.1955 56.8864L15.9976 56.2974L15.4085 58.4959L17.6064 59.0848L18.1955 56.8864Z" fill="#D8B18D"/>
<path d="M20.3942 57.4747L18.1963 56.8858L17.6072 59.0843L19.8051 59.6732L20.3942 57.4747Z" fill="#D8B18D"/>
<path d="M22.5905 58.064L20.3926 57.4751L19.8035 59.6736L22.0014 60.2625L22.5905 58.064Z" fill="#E6CBB3"/>
<path d="M24.7892 58.6533L22.5913 58.0644L22.0022 60.2628L24.2001 60.8518L24.7892 58.6533Z" fill="#E6CBB3"/>
<path d="M26.9875 59.2417L24.7896 58.6528L24.2005 60.8512L26.3984 61.4402L26.9875 59.2417Z" fill="#E6CBB3"/>
<path d="M29.1852 59.8309L26.9873 59.242L26.3982 61.4405L28.5961 62.0294L29.1852 59.8309Z" fill="#E6CBB3"/>
<path d="M31.3835 60.4193L29.1855 59.8304L28.5965 62.0288L30.7944 62.6178L31.3835 60.4193Z" fill="#E6CBB3"/>
<path d="M33.5812 61.0086L31.3833 60.4197L30.7942 62.6181L32.9921 63.2071L33.5812 61.0086Z" fill="#E6CBB3"/>
<path d="M35.7785 61.5978L33.5806 61.0089L32.9915 63.2074L35.1894 63.7963L35.7785 61.5978Z" fill="#E6CBB3"/>
<path d="M37.9767 62.1862L35.7788 61.5973L35.1897 63.7957L37.3876 64.3847L37.9767 62.1862Z" fill="#E6CBB3"/>
<path d="M40.1745 62.7755L37.9766 62.1866L37.3875 64.385L39.5854 64.974L40.1745 62.7755Z" fill="#D8B18D"/>
<path d="M42.3727 63.3648L40.1748 62.7759L39.5857 64.9743L41.7836 65.5633L42.3727 63.3648Z" fill="#D8B18D"/>
<path d="M44.5705 63.9532L42.3726 63.3643L41.7835 65.5627L43.9814 66.1516L44.5705 63.9532Z" fill="#D8B18D"/>
<path d="M46.7687 64.5424L44.5708 63.9535L43.9817 66.1519L46.1796 66.7409L46.7687 64.5424Z" fill="#D8B18D"/>
<path d="M48.9665 65.1308L46.7686 64.5419L46.1795 66.7403L48.3774 67.3293L48.9665 65.1308Z" fill="#D8B18D"/>
<path d="M51.1637 65.7201L48.9658 65.1312L48.3767 67.3296L50.5747 67.9186L51.1637 65.7201Z" fill="#D8B18D"/>
<path d="M53.3625 66.3093L51.1646 65.7204L50.5755 67.9189L52.7734 68.5078L53.3625 66.3093Z" fill="#CD986A"/>
<path d="M55.5597 66.8977L53.3618 66.3088L52.7727 68.5072L54.9706 69.0962L55.5597 66.8977Z" fill="#CD986A"/>
<path d="M57.7585 67.487L55.5605 66.8981L54.9715 69.0965L57.1694 69.6855L57.7585 67.487Z" fill="black"/>
<path d="M59.9557 68.0754L57.7578 67.4865L57.1687 69.6849L59.3666 70.2738L59.9557 68.0754Z" fill="white"/>
<path d="M62.1545 68.6646L59.9565 68.0757L59.3675 70.2741L61.5654 70.8631L62.1545 68.6646Z" fill="white"/>
<path d="M4.4191 55.5506L2.22119 54.9617L1.63212 57.1601L3.83003 57.7491L4.4191 55.5506Z" fill="white"/>
<path d="M6.61686 56.139L4.41895 55.55L3.82987 57.7485L6.02778 58.3374L6.61686 56.139Z" fill="white"/>
<path d="M8.8151 56.7282L6.61719 56.1393L6.02811 58.3377L8.22602 58.9267L8.8151 56.7282Z" fill="black"/>
<path d="M11.0138 57.3174L8.81592 56.7285L8.22684 58.927L10.4248 59.5159L11.0138 57.3174Z" fill="#CD986A"/>
<path d="M13.2111 57.9059L11.0132 57.317L10.4241 59.5154L12.622 60.1043L13.2111 57.9059Z" fill="#CD986A"/>
<path d="M15.4088 58.4952L13.2109 57.9062L12.6219 60.1047L14.8198 60.6936L15.4088 58.4952Z" fill="#CD986A"/>
<path d="M17.6061 59.0836L15.4082 58.4946L14.8191 60.6931L17.017 61.282L17.6061 59.0836Z" fill="#CD986A"/>
<path d="M19.8048 59.6729L17.6069 59.0839L17.0179 61.2824L19.2158 61.8713L19.8048 59.6729Z" fill="#CD986A"/>
<path d="M22.0031 60.2621L19.8052 59.6732L19.2161 61.8716L21.414 62.4605L22.0031 60.2621Z" fill="#D8B18D"/>
<path d="M24.2004 60.8505L22.0024 60.2615L21.4134 62.46L23.6113 63.0489L24.2004 60.8505Z" fill="#D8B18D"/>
<path d="M26.3991 61.4397L24.2012 60.8508L23.6121 63.0492L25.81 63.6382L26.3991 61.4397Z" fill="#D8B18D"/>
<path d="M28.5959 62.0281L26.3979 61.4392L25.8089 63.6377L28.0068 64.2266L28.5959 62.0281Z" fill="#D8B18D"/>
<path d="M30.7941 62.6174L28.5962 62.0284L28.0071 64.2269L30.205 64.8158L30.7941 62.6174Z" fill="#D8B18D"/>
<path d="M32.9919 63.2066L30.7939 62.6177L30.2049 64.8161L32.4028 65.4051L32.9919 63.2066Z" fill="#D8B18D"/>
<path d="M35.1901 63.795L32.9922 63.2061L32.4031 65.4046L34.601 65.9935L35.1901 63.795Z" fill="#D8B18D"/>
<path d="M37.3883 64.3843L35.1904 63.7954L34.6014 65.9939L36.7993 66.5828L37.3883 64.3843Z" fill="#D8B18D"/>
<path d="M39.5861 64.9736L37.3882 64.3846L36.7991 66.5831L38.997 67.172L39.5861 64.9736Z" fill="#CD986A"/>
<path d="M41.7834 65.562L39.5854 64.973L38.9964 67.1715L41.1943 67.7604L41.7834 65.562Z" fill="#CD986A"/>
<path d="M43.9811 66.1512L41.7832 65.5623L41.1941 67.7607L43.392 68.3496L43.9811 66.1512Z" fill="#CD986A"/>
<path d="M46.1794 66.7396L43.9814 66.1507L43.3924 68.3492L45.5903 68.9381L46.1794 66.7396Z" fill="#CD986A"/>
<path d="M48.3781 67.3289L46.1802 66.7399L45.5911 68.9384L47.789 69.5273L48.3781 67.3289Z" fill="#CD986A"/>
<path d="M50.5753 67.9181L48.3774 67.3292L47.7884 69.5276L49.9863 70.1166L50.5753 67.9181Z" fill="#CD986A"/>
<path d="M52.7741 68.5065L50.5762 67.9175L49.9871 70.116L52.185 70.7049L52.7741 68.5065Z" fill="black"/>
<path d="M54.9704 69.0958L52.7725 68.5069L52.1834 70.7054L54.3813 71.2943L54.9704 69.0958Z" fill="black"/>
<path d="M57.1691 69.6842L54.9712 69.0953L54.3821 71.2937L56.58 71.8827L57.1691 69.6842Z" fill="white"/>
<path d="M59.3664 70.2734L57.1685 69.6845L56.5794 71.883L58.7773 72.4719L59.3664 70.2734Z" fill="white"/>
<path d="M6.02848 58.337L3.83057 57.7481L3.24149 59.9466L5.4394 60.5355L6.02848 58.337Z" fill="white"/>
<path d="M8.22574 58.9263L6.02783 58.3374L5.43876 60.5359L7.63667 61.1248L8.22574 58.9263Z" fill="white"/>
<path d="M10.4245 59.5147L8.22656 58.9258L7.63749 61.1242L9.8354 61.7132L10.4245 59.5147Z" fill="black"/>
<path d="M12.6217 60.1039L10.4238 59.515L9.83476 61.7134L12.0327 62.3023L12.6217 60.1039Z" fill="black"/>
<path d="M14.82 60.6932L12.6221 60.1042L12.033 62.3027L14.2309 62.8916L14.82 60.6932Z" fill="black"/>
<path d="M17.0177 61.2816L14.8198 60.6927L14.2308 62.8911L16.4287 63.4801L17.0177 61.2816Z" fill="black"/>
<path d="M19.2155 61.8708L17.0176 61.2819L16.4285 63.4804L18.6264 64.0693L19.2155 61.8708Z" fill="black"/>
<path d="M21.4137 62.4592L19.2158 61.8703L18.6267 64.0687L20.8247 64.6577L21.4137 62.4592Z" fill="#CD986A"/>
<path d="M23.6115 63.0485L21.4136 62.4596L20.8245 64.658L23.0224 65.247L23.6115 63.0485Z" fill="#CD986A"/>
<path d="M25.8097 63.6378L23.6118 63.0489L23.0227 65.2473L25.2207 65.8363L25.8097 63.6378Z" fill="#CD986A"/>
<path d="M28.007 64.2262L25.8091 63.6373L25.22 65.8357L27.4179 66.4246L28.007 64.2262Z" fill="#CD986A"/>
<path d="M30.2057 64.8154L28.0078 64.2265L27.4187 66.425L29.6167 67.0139L30.2057 64.8154Z" fill="#CD986A"/>
<path d="M32.404 65.4047L30.2061 64.8157L29.617 67.0142L31.8149 67.6031L32.404 65.4047Z" fill="#CD986A"/>
<path d="M34.6007 65.9931L32.4028 65.4042L31.8138 67.6026L34.0117 68.1916L34.6007 65.9931Z" fill="#CD986A"/>
<path d="M36.799 66.5823L34.6011 65.9934L34.012 68.1919L36.2099 68.7808L36.799 66.5823Z" fill="#CD986A"/>
<path d="M38.9967 67.1707L36.7988 66.5818L36.2098 68.7802L38.4077 69.3692L38.9967 67.1707Z" fill="black"/>
<path d="M41.195 67.7599L38.9971 67.171L38.408 69.3695L40.6059 69.9584L41.195 67.7599Z" fill="black"/>
<path d="M43.3927 68.3493L41.1948 67.7604L40.6058 69.9588L42.8037 70.5478L43.3927 68.3493Z" fill="black"/>
<path d="M45.591 68.9377L43.3931 68.3488L42.804 70.5472L45.0019 71.1361L45.591 68.9377Z" fill="black"/>
<path d="M47.7892 69.5269L45.5913 68.938L45.0022 71.1364L47.2001 71.7254L47.7892 69.5269Z" fill="black"/>
<path d="M49.986 70.1153L47.7881 69.5264L47.199 71.7248L49.3969 72.3137L49.986 70.1153Z" fill="black"/>
<path d="M52.1847 70.7046L49.9868 70.1157L49.3977 72.3141L51.5957 72.903L52.1847 70.7046Z" fill="white"/>
<path d="M54.382 71.2938L52.1841 70.7049L51.595 72.9033L53.7929 73.4923L54.382 71.2938Z" fill="white"/>
<path d="M56.5807 71.8822L54.3828 71.2933L53.7937 73.4917L55.9917 74.0807L56.5807 71.8822Z" fill="white"/>
<path d="M7.63639 61.1252L5.43848 60.5363L4.8494 62.7347L7.04731 63.3236L7.63639 61.1252Z" fill="white"/>
<path d="M9.83512 61.7144L7.63721 61.1255L7.04813 63.3239L9.24604 63.9129L9.83512 61.7144Z" fill="white"/>
<path d="M12.0324 62.3037L9.83447 61.7148L9.2454 63.9132L11.4433 64.5022L12.0324 62.3037Z" fill="white"/>
<path d="M14.2306 62.8922L12.0327 62.3032L11.4436 64.5017L13.6415 65.0906L14.2306 62.8922Z" fill="white"/>
<path d="M16.4294 63.4814L14.2314 62.8925L13.6424 65.0909L15.8403 65.6798L16.4294 63.4814Z" fill="white"/>
<path d="M18.6261 64.0698L16.4282 63.4808L15.8391 65.6793L18.0371 66.2682L18.6261 64.0698Z" fill="white"/>
<path d="M20.8244 64.659L18.6265 64.0701L18.0374 66.2685L20.2353 66.8575L20.8244 64.659Z" fill="black"/>
<path d="M23.0221 65.2483L20.8242 64.6594L20.2351 66.8578L22.4331 67.4467L23.0221 65.2483Z" fill="black"/>
<path d="M25.2204 65.8367L23.0225 65.2477L22.4334 67.4462L24.6313 68.0351L25.2204 65.8367Z" fill="black"/>
<path d="M27.4186 66.426L25.2207 65.837L24.6316 68.0355L26.8295 68.6244L27.4186 66.426Z" fill="black"/>
<path d="M29.6164 67.0143L27.4185 66.4254L26.8294 68.6239L29.0273 69.2128L29.6164 67.0143Z" fill="black"/>
<path d="M31.8146 67.6036L29.6167 67.0147L29.0276 69.2132L31.2255 69.8021L31.8146 67.6036Z" fill="black"/>
<path d="M34.0114 68.1929L31.8135 67.6039L31.2244 69.8024L33.4223 70.3913L34.0114 68.1929Z" fill="black"/>
<path d="M36.2096 68.7813L34.0117 68.1923L33.4226 70.3908L35.6206 70.9797L36.2096 68.7813Z" fill="black"/>
<path d="M38.4074 69.3705L36.2095 68.7816L35.6204 70.98L37.8183 71.5689L38.4074 69.3705Z" fill="white"/>
<path d="M40.6056 69.9598L38.4077 69.3708L37.8186 71.5693L40.0166 72.1582L40.6056 69.9598Z" fill="white"/>
<path d="M42.8044 70.5482L40.6064 69.9592L40.0174 72.1577L42.2153 72.7466L42.8044 70.5482Z" fill="white"/>
<path d="M45.0006 71.1374L42.8027 70.5485L42.2137 72.7469L44.4116 73.3358L45.0006 71.1374Z" fill="white"/>
<path d="M47.1994 71.7258L45.0015 71.1369L44.4124 73.3354L46.6103 73.9243L47.1994 71.7258Z" fill="white"/>
<path d="M49.3966 72.3151L47.1987 71.7262L46.6097 73.9247L48.8076 74.5136L49.3966 72.3151Z" fill="white"/>
<path d="M51.5954 72.9044L49.3975 72.3154L48.8084 74.5139L51.0063 75.1028L51.5954 72.9044Z" fill="white"/>
<path d="M18.0373 66.2678L15.8394 65.6789L15.2503 67.8773L17.4482 68.4663L18.0373 66.2678Z" fill="white"/>
<path d="M20.235 66.8571L18.0371 66.2682L17.448 68.4666L19.6459 69.0556L20.235 66.8571Z" fill="white"/>
<path d="M22.4328 67.4455L20.2349 66.8566L19.6458 69.055L21.8437 69.6439L22.4328 67.4455Z" fill="white"/>
<path d="M24.631 68.0347L22.4331 67.4458L21.844 69.6443L24.0419 70.2332L24.631 68.0347Z" fill="white"/>
<path d="M26.8293 68.624L24.6313 68.0351L24.0423 70.2335L26.2402 70.8225L26.8293 68.624Z" fill="white"/>
<path d="M29.027 69.2124L26.8291 68.6235L26.24 70.8219L28.4379 71.4109L29.027 69.2124Z" fill="white"/>
<path d="M31.2253 69.8016L29.0273 69.2127L28.4383 71.4112L30.6362 72.0001L31.2253 69.8016Z" fill="white"/>
<path d="M33.423 70.39L31.2251 69.8011L30.636 71.9995L32.8339 72.5885L33.423 70.39Z" fill="white"/>
<path d="M35.6203 70.9793L33.4224 70.3904L32.8333 72.5888L35.0312 73.1778L35.6203 70.9793Z" fill="white"/>
<path d="M37.819 71.5686L35.6211 70.9797L35.032 73.1781L37.2299 73.7671L37.819 71.5686Z" fill="white"/>
</svg>
