<svg width="59" height="54" viewBox="0 0 59 54" fill="none" xmlns="http://www.w3.org/2000/svg">
<path d="M30.4714 0H27.9321V2.52827H30.4714V0Z" fill="white"/>
<path d="M27.9318 2.52789H25.3926V5.05616H27.9318V2.52789Z" fill="white"/>
<path d="M30.4714 2.52789H27.9321V5.05616H30.4714V2.52789Z" fill="black"/>
<path d="M33.0105 2.52789H30.4712V5.05616H33.0105V2.52789Z" fill="white"/>
<path d="M25.3928 5.05573H22.8535V7.58399H25.3928V5.05573Z" fill="white"/>
<path d="M27.9318 5.05573H25.3926V7.58399H27.9318V5.05573Z" fill="black"/>
<path d="M30.4714 5.05573H27.9321V7.58399H30.4714V5.05573Z" fill="#E68E00"/>
<path d="M33.0105 5.05573H30.4712V7.58399H33.0105V5.05573Z" fill="black"/>
<path d="M35.55 5.05573H33.0107V7.58399H35.55V5.05573Z" fill="white"/>
<path d="M22.8527 7.58527H20.3135V10.1135H22.8527V7.58527Z" fill="white"/>
<path d="M25.3928 7.58527H22.8535V10.1135H25.3928V7.58527Z" fill="black"/>
<path d="M27.9318 7.58527H25.3926V10.1135H27.9318V7.58527Z" fill="#E68E00"/>
<path d="M30.4714 7.58527H27.9321V10.1135H30.4714V7.58527Z" fill="#FFAF19"/>
<path d="M33.0105 7.58527H30.4712V10.1135H33.0105V7.58527Z" fill="#FFAF19"/>
<path d="M35.55 7.58527H33.0107V10.1135H35.55V7.58527Z" fill="black"/>
<path d="M38.0891 7.58527H35.5498V10.1135H38.0891V7.58527Z" fill="white"/>
<path d="M22.8527 10.1132H20.3135V12.6414H22.8527V10.1132Z" fill="white"/>
<path d="M25.3928 10.1132H22.8535V12.6414H25.3928V10.1132Z" fill="black"/>
<path d="M27.9318 10.1131H25.3926V12.6414H27.9318V10.1131Z" fill="#E68E00"/>
<path d="M30.4714 10.1131H27.9321V12.6414H30.4714V10.1131Z" fill="#FFAF19"/>
<path d="M33.0105 10.1131H30.4712V12.6414H33.0105V10.1131Z" fill="#FFAF19"/>
<path d="M35.55 10.1131H33.0107V12.6414H35.55V10.1131Z" fill="black"/>
<path d="M38.0891 10.1132H35.5498V12.6414H38.0891V10.1132Z" fill="white"/>
<path d="M20.3142 12.6411H17.7749V15.1693H20.3142V12.6411Z" fill="white"/>
<path d="M22.8527 12.6411H20.3135V15.1693H22.8527V12.6411Z" fill="black"/>
<path d="M25.3928 12.6411H22.8535V15.1693H25.3928V12.6411Z" fill="#E68E00"/>
<path d="M27.9318 12.6411H25.3926V15.1693H27.9318V12.6411Z" fill="#FFAF19"/>
<path d="M30.4714 12.6411H27.9321V15.1693H30.4714V12.6411Z" fill="#FFAF19"/>
<path d="M33.0105 12.6411H30.4712V15.1693H33.0105V12.6411Z" fill="#FFAF19"/>
<path d="M35.55 12.6411H33.0107V15.1693H35.55V12.6411Z" fill="#FFAF19"/>
<path d="M38.0891 12.6411H35.5498V15.1693H38.0891V12.6411Z" fill="black"/>
<path d="M40.6286 12.6411H38.0894V15.1693H40.6286V12.6411Z" fill="white"/>
<path d="M7.61788 15.1706H5.07861V17.6989H7.61788V15.1706Z" fill="white"/>
<path d="M10.1569 15.1706H7.61768V17.6989H10.1569V15.1706Z" fill="white"/>
<path d="M12.6965 15.1706H10.1572V17.6989H12.6965V15.1706Z" fill="white"/>
<path d="M15.2356 15.1706H12.6963V17.6989H15.2356V15.1706Z" fill="white"/>
<path d="M17.7741 15.1706H15.2349V17.6989H17.7741V15.1706Z" fill="white"/>
<path d="M20.3142 15.1706H17.7749V17.6989H20.3142V15.1706Z" fill="white"/>
<path d="M22.8527 15.1706H20.3135V17.6989H22.8527V15.1706Z" fill="black"/>
<path d="M25.3928 15.1706H22.8535V17.6989H25.3928V15.1706Z" fill="#E68E00"/>
<path d="M27.9318 15.1706H25.3926V17.6989H27.9318V15.1706Z" fill="#FFAF19"/>
<path d="M30.4714 15.1706H27.9321V17.6989H30.4714V15.1706Z" fill="#FFAF19"/>
<path d="M33.0105 15.1706H30.4712V17.6989H33.0105V15.1706Z" fill="white"/>
<path d="M35.55 15.1706H33.0107V17.6989H35.55V15.1706Z" fill="#FFAF19"/>
<path d="M38.0891 15.1706H35.5498V17.6989H38.0891V15.1706Z" fill="black"/>
<path d="M40.6286 15.1706H38.0894V17.6989H40.6286V15.1706Z" fill="white"/>
<path d="M43.1677 15.1706H40.6284V17.6989H43.1677V15.1706Z" fill="white"/>
<path d="M45.7072 15.1706H43.168V17.6989H45.7072V15.1706Z" fill="white"/>
<path d="M48.2463 15.1706H45.707V17.6989H48.2463V15.1706Z" fill="white"/>
<path d="M50.7849 15.1706H48.2456V17.6989H50.7849V15.1706Z" fill="white"/>
<path d="M53.3249 15.1706H50.7856V17.6989H53.3249V15.1706Z" fill="white"/>
<path d="M5.07833 17.6968H2.53906V20.225H5.07833V17.6968Z" fill="white"/>
<path d="M7.61788 17.6968H5.07861V20.225H7.61788V17.6968Z" fill="black"/>
<path d="M10.1569 17.6968H7.61768V20.225H10.1569V17.6968Z" fill="black"/>
<path d="M12.6965 17.6968H10.1572V20.225H12.6965V17.6968Z" fill="black"/>
<path d="M15.2356 17.6968H12.6963V20.225H15.2356V17.6968Z" fill="black"/>
<path d="M17.7741 17.6968H15.2349V20.225H17.7741V17.6968Z" fill="black"/>
<path d="M20.3142 17.6968H17.7749V20.225H20.3142V17.6968Z" fill="black"/>
<path d="M22.8527 17.6968H20.3135V20.225H22.8527V17.6968Z" fill="#E68E00"/>
<path d="M25.3928 17.6968H22.8535V20.225H25.3928V17.6968Z" fill="#FFAF19"/>
<path d="M27.9318 17.6968H25.3926V20.225H27.9318V17.6968Z" fill="#FFAF19"/>
<path d="M30.4714 17.6968H27.9321V20.225H30.4714V17.6968Z" fill="#FFAF19"/>
<path d="M33.0105 17.6968H30.4712V20.225H33.0105V17.6968Z" fill="white"/>
<path d="M35.55 17.6968H33.0107V20.225H35.55V17.6968Z" fill="#FFAF19"/>
<path d="M38.0891 17.6968H35.5498V20.225H38.0891V17.6968Z" fill="#FFAF19"/>
<path d="M40.6286 17.6968H38.0894V20.225H40.6286V17.6968Z" fill="black"/>
<path d="M43.1677 17.6968H40.6284V20.225H43.1677V17.6968Z" fill="black"/>
<path d="M45.7072 17.6968H43.168V20.225H45.7072V17.6968Z" fill="black"/>
<path d="M48.2463 17.6968H45.707V20.225H48.2463V17.6968Z" fill="black"/>
<path d="M50.7849 17.6968H48.2456V20.225H50.7849V17.6968Z" fill="black"/>
<path d="M53.3249 17.6968H50.7856V20.225H53.3249V17.6968Z" fill="black"/>
<path d="M55.8635 17.6968H53.3242V20.225H55.8635V17.6968Z" fill="white"/>
<path d="M2.53926 20.2263H0V22.7546H2.53926V20.2263Z" fill="white"/>
<path d="M5.07833 20.2263H2.53906V22.7546H5.07833V20.2263Z" fill="black"/>
<path d="M7.61788 20.2263H5.07861V22.7546H7.61788V20.2263Z" fill="#994A00"/>
<path d="M10.1569 20.2263H7.61768V22.7546H10.1569V20.2263Z" fill="#CC6600"/>
<path d="M12.6965 20.2263H10.1572V22.7546H12.6965V20.2263Z" fill="#CC6600"/>
<path d="M15.2356 20.2263H12.6963V22.7546H15.2356V20.2263Z" fill="#E68E00"/>
<path d="M17.7741 20.2263H15.2349V22.7546H17.7741V20.2263Z" fill="#E68E00"/>
<path d="M20.3142 20.2263H17.7749V22.7546H20.3142V20.2263Z" fill="#E68E00"/>
<path d="M22.8527 20.2263H20.3135V22.7546H22.8527V20.2263Z" fill="#FFAF19"/>
<path d="M25.3928 20.2263H22.8535V22.7546H25.3928V20.2263Z" fill="#FFAF19"/>
<path d="M27.9318 20.2263H25.3926V22.7546H27.9318V20.2263Z" fill="#FFAF19"/>
<path d="M30.4714 20.2263H27.9321V22.7546H30.4714V20.2263Z" fill="#FFAF19"/>
<path d="M33.0105 20.2263H30.4712V22.7546H33.0105V20.2263Z" fill="#FFAF19"/>
<path d="M35.55 20.2263H33.0107V22.7546H35.55V20.2263Z" fill="white"/>
<path d="M38.0891 20.2263H35.5498V22.7546H38.0891V20.2263Z" fill="#FFAF19"/>
<path d="M40.6286 20.2263H38.0894V22.7546H40.6286V20.2263Z" fill="#FFAF19"/>
<path d="M43.1677 20.2263H40.6284V22.7546H43.1677V20.2263Z" fill="#FFAF19"/>
<path d="M45.7072 20.2263H43.168V22.7546H45.7072V20.2263Z" fill="#FFAF19"/>
<path d="M48.2463 20.2263H45.707V22.7546H48.2463V20.2263Z" fill="#FFAF19"/>
<path d="M50.7849 20.2263H48.2456V22.7546H50.7849V20.2263Z" fill="#FFAF19"/>
<path d="M53.3249 20.2263H50.7856V22.7546H53.3249V20.2263Z" fill="#FFAF19"/>
<path d="M55.8635 20.2263H53.3242V22.7546H55.8635V20.2263Z" fill="black"/>
<path d="M58.4035 20.2263H55.8643V22.7546H58.4035V20.2263Z" fill="white"/>
<path d="M5.07833 22.7542H2.53906V25.2824H5.07833V22.7542Z" fill="white"/>
<path d="M7.61788 22.7542H5.07861V25.2824H7.61788V22.7542Z" fill="black"/>
<path d="M10.1569 22.7542H7.61768V25.2824H10.1569V22.7542Z" fill="black"/>
<path d="M12.6965 22.7542H10.1572V25.2824H12.6965V22.7542Z" fill="#994A00"/>
<path d="M15.2356 22.7542H12.6963V25.2824H15.2356V22.7542Z" fill="#FFAF19"/>
<path d="M17.7741 22.7542H15.2349V25.2824H17.7741V22.7542Z" fill="#FFAF19"/>
<path d="M20.3142 22.7542H17.7749V25.2824H20.3142V22.7542Z" fill="#FFAF19"/>
<path d="M22.8527 22.7542H20.3135V25.2824H22.8527V22.7542Z" fill="#FFAF19"/>
<path d="M25.3928 22.7542H22.8535V25.2824H25.3928V22.7542Z" fill="#FFAF19"/>
<path d="M27.9318 22.7542H25.3926V25.2824H27.9318V22.7542Z" fill="#FFAF19"/>
<path d="M30.4714 22.7542H27.9321V25.2824H30.4714V22.7542Z" fill="#FFAF19"/>
<path d="M33.0105 22.7542H30.4712V25.2824H33.0105V22.7542Z" fill="#FFAF19"/>
<path d="M35.55 22.7542H33.0107V25.2824H35.55V22.7542Z" fill="#FFAF19"/>
<path d="M38.0891 22.7542H35.5498V25.2824H38.0891V22.7542Z" fill="white"/>
<path d="M40.6286 22.7542H38.0894V25.2824H40.6286V22.7542Z" fill="#FFAF19"/>
<path d="M43.1677 22.7542H40.6284V25.2824H43.1677V22.7542Z" fill="#FFAF19"/>
<path d="M45.7072 22.7542H43.168V25.2824H45.7072V22.7542Z" fill="#FFAF19"/>
<path d="M48.2463 22.7542H45.707V25.2824H48.2463V22.7542Z" fill="#FFAF19"/>
<path d="M50.7849 22.7542H48.2456V25.2824H50.7849V22.7542Z" fill="black"/>
<path d="M53.3249 22.7542H50.7856V25.2824H53.3249V22.7542Z" fill="black"/>
<path d="M55.8635 22.7542H53.3242V25.2824H55.8635V22.7542Z" fill="white"/>
<path d="M7.61788 25.282H5.07861V27.8103H7.61788V25.282Z" fill="white"/>
<path d="M10.1569 25.282H7.61768V27.8103H10.1569V25.282Z" fill="white"/>
<path d="M12.6965 25.282H10.1572V27.8103H12.6965V25.282Z" fill="black"/>
<path d="M15.2356 25.282H12.6963V27.8103H15.2356V25.282Z" fill="#994A00"/>
<path d="M17.7741 25.282H15.2349V27.8103H17.7741V25.282Z" fill="#994A00"/>
<path d="M20.3142 25.282H17.7749V27.8103H20.3142V25.282Z" fill="#FFAF19"/>
<path d="M22.8527 25.282H20.3135V27.8103H22.8527V25.282Z" fill="#FFAF19"/>
<path d="M25.3928 25.282H22.8535V27.8103H25.3928V25.282Z" fill="#FFAF19"/>
<path d="M27.9318 25.282H25.3926V27.8103H27.9318V25.282Z" fill="#FFAF19"/>
<path d="M30.4714 25.282H27.9321V27.8103H30.4714V25.282Z" fill="#FFAF19"/>
<path d="M33.0105 25.282H30.4712V27.8103H33.0105V25.282Z" fill="#FFAF19"/>
<path d="M35.55 25.282H33.0107V27.8103H35.55V25.282Z" fill="#FFAF19"/>
<path d="M38.0891 25.282H35.5498V27.8103H38.0891V25.282Z" fill="#FFAF19"/>
<path d="M40.6286 25.282H38.0894V27.8103H40.6286V25.282Z" fill="#FFAF19"/>
<path d="M43.1677 25.282H40.6284V27.8103H43.1677V25.282Z" fill="#FFAF19"/>
<path d="M45.7072 25.282H43.168V27.8103H45.7072V25.282Z" fill="#FFAF19"/>
<path d="M48.2463 25.282H45.707V27.8103H48.2463V25.282Z" fill="black"/>
<path d="M50.7849 25.282H48.2456V27.8103H50.7849V25.282Z" fill="white"/>
<path d="M53.3249 25.282H50.7856V27.8103H53.3249V25.282Z" fill="white"/>
<path d="M12.6965 27.8116H10.1572V30.3399H12.6965V27.8116Z" fill="white"/>
<path d="M15.2356 27.8116H12.6963V30.3399H15.2356V27.8116Z" fill="black"/>
<path d="M17.7741 27.8116H15.2349V30.3399H17.7741V27.8116Z" fill="black"/>
<path d="M20.3142 27.8116H17.7749V30.3399H20.3142V27.8116Z" fill="#994A00"/>
<path d="M22.8527 27.8116H20.3135V30.3399H22.8527V27.8116Z" fill="#FFAF19"/>
<path d="M25.3928 27.8116H22.8535V30.3399H25.3928V27.8116Z" fill="#FFAF19"/>
<path d="M27.9318 27.8116H25.3926V30.3399H27.9318V27.8116Z" fill="#FFAF19"/>
<path d="M30.4714 27.8116H27.9321V30.3399H30.4714V27.8116Z" fill="#FFAF19"/>
<path d="M33.0105 27.8116H30.4712V30.3399H33.0105V27.8116Z" fill="#FFAF19"/>
<path d="M35.55 27.8116H33.0107V30.3399H35.55V27.8116Z" fill="#FFAF19"/>
<path d="M38.0891 27.8116H35.5498V30.3399H38.0891V27.8116Z" fill="#FFAF19"/>
<path d="M40.6286 27.8116H38.0894V30.3399H40.6286V27.8116Z" fill="#FFAF19"/>
<path d="M43.1677 27.8116H40.6284V30.3399H43.1677V27.8116Z" fill="black"/>
<path d="M45.7072 27.8116H43.168V30.3399H45.7072V27.8116Z" fill="black"/>
<path d="M48.2463 27.8116H45.707V30.3399H48.2463V27.8116Z" fill="white"/>
<path d="M17.7741 30.3395H15.2349V32.8678H17.7741V30.3395Z" fill="white"/>
<path d="M20.3142 30.3395H17.7749V32.8678H20.3142V30.3395Z" fill="black"/>
<path d="M22.8527 30.3395H20.3135V32.8678H22.8527V30.3395Z" fill="#CC6600"/>
<path d="M25.3928 30.3395H22.8535V32.8678H25.3928V30.3395Z" fill="#FFAF19"/>
<path d="M27.9318 30.3395H25.3926V32.8678H27.9318V30.3395Z" fill="#FFAF19"/>
<path d="M30.4714 30.3395H27.9321V32.8678H30.4714V30.3395Z" fill="#FFAF19"/>
<path d="M33.0105 30.3395H30.4712V32.8678H33.0105V30.3395Z" fill="#FFAF19"/>
<path d="M35.55 30.3395H33.0107V32.8678H35.55V30.3395Z" fill="#FFAF19"/>
<path d="M38.0891 30.3395H35.5498V32.8678H38.0891V30.3395Z" fill="#FFAF19"/>
<path d="M40.6286 30.3395H38.0894V32.8678H40.6286V30.3395Z" fill="black"/>
<path d="M43.1677 30.3395H40.6284V32.8678H43.1677V30.3395Z" fill="white"/>
<path d="M15.2356 32.8674H12.6963V35.3956H15.2356V32.8674Z" fill="white"/>
<path d="M17.7741 32.8674H15.2349V35.3956H17.7741V32.8674Z" fill="black"/>
<path d="M20.3142 32.8674H17.7749V35.3956H20.3142V32.8674Z" fill="#994A00"/>
<path d="M22.8527 32.8674H20.3135V35.3956H22.8527V32.8674Z" fill="#E68E00"/>
<path d="M25.3928 32.8674H22.8535V35.3956H25.3928V32.8674Z" fill="#FFAF19"/>
<path d="M27.9318 32.8674H25.3926V35.3956H27.9318V32.8674Z" fill="#FFAF19"/>
<path d="M30.4714 32.8674H27.9321V35.3956H30.4714V32.8674Z" fill="#FFAF19"/>
<path d="M33.0105 32.8674H30.4712V35.3956H33.0105V32.8674Z" fill="#FFAF19"/>
<path d="M35.55 32.8674H33.0107V35.3956H35.55V32.8674Z" fill="#FFAF19"/>
<path d="M38.0891 32.8674H35.5498V35.3956H38.0891V32.8674Z" fill="#FFAF19"/>
<path d="M40.6286 32.8674H38.0894V35.3956H40.6286V32.8674Z" fill="#FFAF19"/>
<path d="M43.1677 32.8674H40.6284V35.3956H43.1677V32.8674Z" fill="black"/>
<path d="M45.7072 32.8674H43.168V35.3956H45.7072V32.8674Z" fill="white"/>
<path d="M15.2356 35.3969H12.6963V37.9252H15.2356V35.3969Z" fill="white"/>
<path d="M17.7741 35.3969H15.2349V37.9252H17.7741V35.3969Z" fill="black"/>
<path d="M20.3142 35.3969H17.7749V37.9252H20.3142V35.3969Z" fill="#994A00"/>
<path d="M22.8527 35.3969H20.3135V37.9252H22.8527V35.3969Z" fill="#FFAF19"/>
<path d="M25.3928 35.3969H22.8535V37.9252H25.3928V35.3969Z" fill="#FFAF19"/>
<path d="M27.9318 35.3969H25.3926V37.9252H27.9318V35.3969Z" fill="#FFAF19"/>
<path d="M30.4714 35.3969H27.9321V37.9252H30.4714V35.3969Z" fill="#FFAF19"/>
<path d="M33.0105 35.3969H30.4712V37.9252H33.0105V35.3969Z" fill="#FFAF19"/>
<path d="M35.55 35.3969H33.0107V37.9252H35.55V35.3969Z" fill="#FFAF19"/>
<path d="M38.0891 35.3969H35.5498V37.9252H38.0891V35.3969Z" fill="#FFAF19"/>
<path d="M40.6286 35.3969H38.0894V37.9252H40.6286V35.3969Z" fill="#FFAF19"/>
<path d="M43.1677 35.3969H40.6284V37.9252H43.1677V35.3969Z" fill="black"/>
<path d="M45.7072 35.3969H43.168V37.9252H45.7072V35.3969Z" fill="white"/>
<path d="M15.2356 37.9231H12.6963V40.4514H15.2356V37.9231Z" fill="white"/>
<path d="M17.7741 37.9231H15.2349V40.4514H17.7741V37.9231Z" fill="black"/>
<path d="M20.3142 37.9231H17.7749V40.4514H20.3142V37.9231Z" fill="#994A00"/>
<path d="M22.8527 37.9231H20.3135V40.4514H22.8527V37.9231Z" fill="#FFAF19"/>
<path d="M25.3928 37.9231H22.8535V40.4514H25.3928V37.9231Z" fill="#FFAF19"/>
<path d="M27.9318 37.9231H25.3926V40.4514H27.9318V37.9231Z" fill="#E68E00"/>
<path d="M30.4714 37.9231H27.9321V40.4514H30.4714V37.9231Z" fill="#E68E00"/>
<path d="M33.0105 37.9231H30.4712V40.4514H33.0105V37.9231Z" fill="#E68E00"/>
<path d="M35.55 37.9231H33.0107V40.4514H35.55V37.9231Z" fill="#FFAF19"/>
<path d="M38.0891 37.9231H35.5498V40.4514H38.0891V37.9231Z" fill="#FFAF19"/>
<path d="M40.6286 37.9231H38.0894V40.4514H40.6286V37.9231Z" fill="#FFAF19"/>
<path d="M43.1677 37.9231H40.6284V40.4514H43.1677V37.9231Z" fill="black"/>
<path d="M45.7072 37.9231H43.168V40.4514H45.7072V37.9231Z" fill="white"/>
<path d="M12.6965 40.4526H10.1572V42.9809H12.6965V40.4526Z" fill="white"/>
<path d="M15.2356 40.4526H12.6963V42.9809H15.2356V40.4526Z" fill="black"/>
<path d="M17.7741 40.4526H15.2349V42.9809H17.7741V40.4526Z" fill="#994A00"/>
<path d="M20.3142 40.4526H17.7749V42.9809H20.3142V40.4526Z" fill="#E68E00"/>
<path d="M22.8527 40.4526H20.3135V42.9809H22.8527V40.4526Z" fill="#FFAF19"/>
<path d="M25.3928 40.4526H22.8535V42.9809H25.3928V40.4526Z" fill="#E68E00"/>
<path d="M27.9318 40.4526H25.3926V42.9809H27.9318V40.4526Z" fill="#994A00"/>
<path d="M30.4714 40.4526H27.9321V42.9809H30.4714V40.4526Z" fill="black"/>
<path d="M33.0105 40.4526H30.4712V42.9809H33.0105V40.4526Z" fill="#CC6600"/>
<path d="M35.55 40.4526H33.0107V42.9809H35.55V40.4526Z" fill="#E68E00"/>
<path d="M38.0891 40.4526H35.5498V42.9809H38.0891V40.4526Z" fill="#FFAF19"/>
<path d="M40.6286 40.4526H38.0894V42.9809H40.6286V40.4526Z" fill="#FFAF19"/>
<path d="M43.1677 40.4526H40.6284V42.9809H43.1677V40.4526Z" fill="#FFAF19"/>
<path d="M45.7072 40.4526H43.168V42.9809H45.7072V40.4526Z" fill="black"/>
<path d="M48.2463 40.4526H45.707V42.9809H48.2463V40.4526Z" fill="white"/>
<path d="M12.6965 42.9805H10.1572V45.5088H12.6965V42.9805Z" fill="white"/>
<path d="M15.2356 42.9805H12.6963V45.5088H15.2356V42.9805Z" fill="black"/>
<path d="M17.7741 42.9805H15.2349V45.5088H17.7741V42.9805Z" fill="#994A00"/>
<path d="M20.3142 42.9805H17.7749V45.5088H20.3142V42.9805Z" fill="#E68E00"/>
<path d="M22.8527 42.9805H20.3135V45.5088H22.8527V42.9805Z" fill="#E68E00"/>
<path d="M25.3928 42.9805H22.8535V45.5088H25.3928V42.9805Z" fill="#994A00"/>
<path d="M27.9318 42.9806H25.3926V45.5089H27.9318V42.9806Z" fill="black"/>
<path d="M30.4714 42.9806H27.9321V45.5089H30.4714V42.9806Z" fill="white"/>
<path d="M33.0105 42.9806H30.4712V45.5089H33.0105V42.9806Z" fill="black"/>
<path d="M35.55 42.9806H33.0107V45.5089H35.55V42.9806Z" fill="#CC6600"/>
<path d="M38.0891 42.9805H35.5498V45.5088H38.0891V42.9805Z" fill="#E68E00"/>
<path d="M40.6286 42.9805H38.0894V45.5088H40.6286V42.9805Z" fill="#E68E00"/>
<path d="M43.1677 42.9805H40.6284V45.5088H43.1677V42.9805Z" fill="#FFAF19"/>
<path d="M45.7072 42.9805H43.168V45.5088H45.7072V42.9805Z" fill="black"/>
<path d="M48.2463 42.9805H45.707V45.5088H48.2463V42.9805Z" fill="white"/>
<path d="M10.1569 45.5084H7.61768V48.0367H10.1569V45.5084Z" fill="white"/>
<path d="M12.6965 45.5084H10.1572V48.0367H12.6965V45.5084Z" fill="black"/>
<path d="M15.2356 45.5084H12.6963V48.0367H15.2356V45.5084Z" fill="#994A00"/>
<path d="M17.7741 45.5084H15.2349V48.0367H17.7741V45.5084Z" fill="#CC6600"/>
<path d="M20.3142 45.5084H17.7749V48.0367H20.3142V45.5084Z" fill="#CC6600"/>
<path d="M22.8527 45.5084H20.3135V48.0367H22.8527V45.5084Z" fill="black"/>
<path d="M25.3928 45.5084H22.8535V48.0367H25.3928V45.5084Z" fill="black"/>
<path d="M27.9318 45.5084H25.3926V48.0367H27.9318V45.5084Z" fill="white"/>
<path d="M33.0105 45.5084H30.4712V48.0367H33.0105V45.5084Z" fill="white"/>
<path d="M35.55 45.5084H33.0107V48.0367H35.55V45.5084Z" fill="black"/>
<path d="M38.0891 45.5084H35.5498V48.0367H38.0891V45.5084Z" fill="black"/>
<path d="M40.6286 45.5084H38.0894V48.0367H40.6286V45.5084Z" fill="#CC6600"/>
<path d="M43.1677 45.5084H40.6284V48.0367H43.1677V45.5084Z" fill="#E68E00"/>
<path d="M45.7072 45.5084H43.168V48.0367H45.7072V45.5084Z" fill="#FFAF19"/>
<path d="M48.2463 45.5084H45.707V48.0367H48.2463V45.5084Z" fill="black"/>
<path d="M50.7849 45.5084H48.2456V48.0367H50.7849V45.5084Z" fill="white"/>
<path d="M12.6965 48.038H10.1572V50.5662H12.6965V48.038Z" fill="white"/>
<path d="M15.2356 48.038H12.6963V50.5662H15.2356V48.038Z" fill="black"/>
<path d="M17.7741 48.038H15.2349V50.5662H17.7741V48.038Z" fill="black"/>
<path d="M20.3142 48.038H17.7749V50.5662H20.3142V48.038Z" fill="black"/>
<path d="M22.8527 48.038H20.3135V50.5662H22.8527V48.038Z" fill="white"/>
<path d="M25.3928 48.038H22.8535V50.5662H25.3928V48.038Z" fill="white"/>
<path d="M35.55 48.038H33.0107V50.5662H35.55V48.038Z" fill="white"/>
<path d="M38.0891 48.038H35.5498V50.5662H38.0891V48.038Z" fill="white"/>
<path d="M40.6286 48.038H38.0894V50.5662H40.6286V48.038Z" fill="black"/>
<path d="M43.1677 48.038H40.6284V50.5662H43.1677V48.038Z" fill="black"/>
<path d="M45.7072 48.038H43.168V50.5662H45.7072V48.038Z" fill="black"/>
<path d="M48.2463 48.038H45.707V50.5662H48.2463V48.038Z" fill="white"/>
<path d="M15.2356 50.5658H12.6963V53.0941H15.2356V50.5658Z" fill="white"/>
<path d="M17.7741 50.5658H15.2349V53.0941H17.7741V50.5658Z" fill="white"/>
<path d="M20.3142 50.5658H17.7749V53.0941H20.3142V50.5658Z" fill="white"/>
<path d="M40.6286 50.5658H38.0894V53.0941H40.6286V50.5658Z" fill="white"/>
<path d="M43.1677 50.5658H40.6284V53.0941H43.1677V50.5658Z" fill="white"/>
<path d="M45.7072 50.5658H43.168V53.0941H45.7072V50.5658Z" fill="white"/>
</svg>
