<svg width="56" height="48" viewBox="0 0 56 48" fill="none" xmlns="http://www.w3.org/2000/svg">
<path d="M25.0821 0.410461L23.2095 0.77586L23.5729 2.63777L25.4454 2.27237L25.0821 0.410461Z" fill="white"/>
<path d="M26.955 0.0450439L25.0825 0.410449L25.4458 2.27233L27.3184 1.90693L26.955 0.0450439Z" fill="white"/>
<path d="M23.5727 2.63849L21.7002 3.00389L22.0635 4.86581L23.936 4.50041L23.5727 2.63849Z" fill="white"/>
<path d="M25.4458 2.27307L23.5732 2.63847L23.9366 4.50033L25.8091 4.13493L25.4458 2.27307Z" fill="black"/>
<path d="M27.3179 1.90765L25.4453 2.27305L25.8086 4.13497L27.6812 3.76957L27.3179 1.90765Z" fill="black"/>
<path d="M29.1909 1.54224L27.3184 1.90766L27.6817 3.76952L29.5543 3.40412L29.1909 1.54224Z" fill="white"/>
<path d="M31.0639 1.17682L29.1914 1.54222L29.5547 3.40413L31.4272 3.03873L31.0639 1.17682Z" fill="white"/>
<path d="M22.0635 4.86438L20.1909 5.22978L20.5543 7.0917L22.4268 6.7263L22.0635 4.86438Z" fill="white"/>
<path d="M23.9365 4.49878L22.064 4.86418L22.4273 6.7261L24.2998 6.3607L23.9365 4.49878Z" fill="black"/>
<path d="M25.8086 4.1333L23.936 4.4987L24.2994 6.36062L26.1719 5.99522L25.8086 4.1333Z" fill="#333333"/>
<path d="M27.6817 3.76794L25.8091 4.13334L26.1724 5.99526L28.045 5.62987L27.6817 3.76794Z" fill="#333333"/>
<path d="M29.5547 3.40247L27.6821 3.76786L28.0454 5.62979L29.918 5.26439L29.5547 3.40247Z" fill="black"/>
<path d="M31.4268 3.03711L29.5542 3.40251L29.9175 5.26443L31.7901 4.89903L31.4268 3.03711Z" fill="black"/>
<path d="M33.2984 2.67188L31.4258 3.03727L31.7891 4.89913L33.6617 4.53373L33.2984 2.67188Z" fill="white"/>
<path d="M35.1704 2.30646L33.2979 2.67186L33.6612 4.53378L35.5338 4.16838L35.1704 2.30646Z" fill="white"/>
<path d="M20.5542 7.09241L18.6816 7.45781L19.045 9.31973L20.9175 8.95433L20.5542 7.09241Z" fill="white"/>
<path d="M22.4272 6.72699L20.5547 7.09239L20.918 8.95431L22.7905 8.58891L22.4272 6.72699Z" fill="black"/>
<path d="M24.2993 6.36157L22.4268 6.72697L22.7901 8.58889L24.6627 8.22349L24.2993 6.36157Z" fill="#333333"/>
<path d="M26.1724 5.99615L24.2998 6.36155L24.6631 8.22348L26.5357 7.85808L26.1724 5.99615Z" fill="#1A1A1A"/>
<path d="M28.0454 5.63074L26.1729 5.99614L26.5362 7.85806L28.4087 7.49266L28.0454 5.63074Z" fill="#1A1A1A"/>
<path d="M29.9174 5.26532L28.0449 5.63072L28.4082 7.49264L30.2808 7.12724L29.9174 5.26532Z" fill="#333333"/>
<path d="M31.7905 4.8999L29.918 5.2653L30.2813 7.12722L32.1538 6.76182L31.7905 4.8999Z" fill="#333333"/>
<path d="M33.6626 4.53467L31.79 4.90007L32.1534 6.76199L34.0259 6.39659L33.6626 4.53467Z" fill="black"/>
<path d="M35.5341 4.16925L33.6616 4.53465L34.0249 6.39651L35.8975 6.03111L35.5341 4.16925Z" fill="black"/>
<path d="M37.4062 3.80383L35.5337 4.16923L35.897 6.03115L37.7696 5.66575L37.4062 3.80383Z" fill="white"/>
<path d="M39.2802 3.43842L37.4077 3.80381L37.771 5.66567L39.6436 5.30027L39.2802 3.43842Z" fill="white"/>
<path d="M20.917 8.9552L19.0444 9.3206L19.4078 11.1825L21.2803 10.8171L20.917 8.9552Z" fill="white"/>
<path d="M22.7901 8.58978L20.9175 8.95518L21.2808 10.8171L23.1534 10.4517L22.7901 8.58978Z" fill="black"/>
<path d="M24.6631 8.22437L22.7905 8.58976L23.1538 10.4517L25.0264 10.0863L24.6631 8.22437Z" fill="#333333"/>
<path d="M26.5351 7.85895L24.6626 8.22435L25.0259 10.0863L26.8984 9.72087L26.5351 7.85895Z" fill="#1A1A1A"/>
<path d="M28.4091 7.49335L26.5366 7.85875L26.8999 9.72067L28.7725 9.35527L28.4091 7.49335Z" fill="#4D4D4D"/>
<path d="M30.2812 7.12793L28.4087 7.49333L28.772 9.35525L30.6446 8.98985L30.2812 7.12793Z" fill="#1A1A1A"/>
<path d="M32.1533 6.76251L30.2808 7.12791L30.6441 8.98983L32.5166 8.62443L32.1533 6.76251Z" fill="#1A1A1A"/>
<path d="M34.0263 6.39746L32.1538 6.76286L32.5171 8.62472L34.3896 8.25932L34.0263 6.39746Z" fill="#333333"/>
<path d="M35.8979 6.03186L34.0254 6.39726L34.3887 8.25918L36.2612 7.89378L35.8979 6.03186Z" fill="#333333"/>
<path d="M37.771 5.66644L35.8984 6.03184L36.2618 7.8937L38.1343 7.5283L37.771 5.66644Z" fill="black"/>
<path d="M39.6441 5.30103L37.7715 5.66642L38.1349 7.52835L40.0074 7.16295L39.6441 5.30103Z" fill="black"/>
<path d="M41.5161 4.93561L39.6436 5.30101L40.0069 7.16286L41.8795 6.79746L41.5161 4.93561Z" fill="white"/>
<path d="M43.3891 4.57019L41.5166 4.93559L41.8799 6.79751L43.7524 6.43211L43.3891 4.57019Z" fill="white"/>
<path d="M19.4087 11.1807L17.5361 11.5461L17.8995 13.408L19.772 13.0426L19.4087 11.1807Z" fill="white"/>
<path d="M21.2808 10.8154L19.4082 11.1808L19.7715 13.0427L21.6441 12.6773L21.2808 10.8154Z" fill="black"/>
<path d="M23.1538 10.45L21.2812 10.8154L21.6446 12.6773L23.5172 12.3119L23.1538 10.45Z" fill="#333333"/>
<path d="M25.0258 10.0846L23.1533 10.45L23.5166 12.3118L25.3892 11.9465L25.0258 10.0846Z" fill="#1A1A1A"/>
<path d="M26.8989 9.71918L25.0264 10.0846L25.3897 11.9465L27.2622 11.5811L26.8989 9.71918Z" fill="#4D4D4D"/>
<path d="M28.7719 9.35376L26.8994 9.71916L27.2627 11.581L29.1353 11.2156L28.7719 9.35376Z" fill="#4D4D4D"/>
<path d="M30.6441 8.98816L28.7715 9.35356L29.1348 11.2155L31.0074 10.8501L30.6441 8.98816Z" fill="#4D4D4D"/>
<path d="M32.5171 8.62292L30.6445 8.98832L31.0078 10.8502L32.8804 10.4848L32.5171 8.62292Z" fill="#4D4D4D"/>
<path d="M34.3877 8.25775L32.5151 8.62315L32.8785 10.4851L34.751 10.1197L34.3877 8.25775Z" fill="#1A1A1A"/>
<path d="M36.2617 7.89209L34.3892 8.25749L34.7525 10.1194L36.625 9.75401L36.2617 7.89209Z" fill="#1A1A1A"/>
<path d="M38.1338 7.52667L36.2612 7.89207L36.6245 9.75393L38.4971 9.38853L38.1338 7.52667Z" fill="#333333"/>
<path d="M40.0059 7.16125L38.1333 7.52665L38.4967 9.38858L40.3692 9.02318L40.0059 7.16125Z" fill="#333333"/>
<path d="M41.8799 6.79584L40.0073 7.16124L40.3707 9.02309L42.2432 8.65769L41.8799 6.79584Z" fill="black"/>
<path d="M43.7519 6.43042L41.8794 6.79582L42.2427 8.65774L44.1152 8.29234L43.7519 6.43042Z" fill="black"/>
<path d="M45.6259 6.065L43.7534 6.4304L44.1167 8.29226L45.9893 7.92686L45.6259 6.065Z" fill="white"/>
<path d="M47.4981 5.69958L45.6255 6.06498L45.9888 7.92691L47.8614 7.56151L47.4981 5.69958Z" fill="white"/>
<path d="M19.7729 13.0433L17.9004 13.4087L18.2637 15.2706L20.1362 14.9052L19.7729 13.0433Z" fill="white"/>
<path d="M21.6445 12.678L19.772 13.0434L20.1353 14.9054L22.0078 14.54L21.6445 12.678Z" fill="black"/>
<path d="M23.5166 12.3126L21.644 12.678L22.0074 14.5399L23.8799 14.1745L23.5166 12.3126Z" fill="#333333"/>
<path d="M25.3896 11.9472L23.5171 12.3126L23.8804 14.1745L25.7529 13.8091L25.3896 11.9472Z" fill="#1A1A1A"/>
<path d="M27.2627 11.5818L25.3901 11.9472L25.7535 13.809L27.626 13.4436L27.2627 11.5818Z" fill="#4D4D4D"/>
<path d="M29.1347 11.2164L27.2622 11.5818L27.6255 13.4437L29.498 13.0783L29.1347 11.2164Z" fill="#4D4D4D"/>
<path d="M31.0078 10.851L29.1353 11.2164L29.4986 13.0782L31.3711 12.7128L31.0078 10.851Z" fill="#4D4D4D"/>
<path d="M32.8809 10.4855L31.0083 10.8509L31.3717 12.7129L33.2442 12.3475L32.8809 10.4855Z" fill="#4D4D4D"/>
<path d="M34.7515 10.1204L32.8789 10.4858L33.2423 12.3477L35.1148 11.9823L34.7515 10.1204Z" fill="#4D4D4D"/>
<path d="M36.6255 9.75494L34.7529 10.1203L35.1162 11.9823L36.9888 11.6169L36.6255 9.75494Z" fill="#4D4D4D"/>
<path d="M38.4976 9.38953L36.625 9.75493L36.9883 11.6168L38.8609 11.2514L38.4976 9.38953Z" fill="#1A1A1A"/>
<path d="M40.3696 9.02411L38.4971 9.38951L38.8604 11.2514L40.7329 10.886L40.3696 9.02411Z" fill="#1A1A1A"/>
<path d="M42.2436 8.65869L40.3711 9.02409L40.7344 10.886L42.6069 10.5206L42.2436 8.65869Z" fill="#333333"/>
<path d="M44.1157 8.29327L42.2432 8.65867L42.6065 10.5205L44.4791 10.1551L44.1157 8.29327Z" fill="#4D4D4D"/>
<path d="M45.9873 7.92786L44.1147 8.29326L44.4781 10.1552L46.3507 9.78978L45.9873 7.92786Z" fill="black"/>
<path d="M47.8618 7.56244L45.9893 7.92784L46.3526 9.78969L48.2251 9.4243L47.8618 7.56244Z" fill="black"/>
<path d="M49.7314 7.1972L47.8589 7.5626L48.2222 9.42452L50.0948 9.05913L49.7314 7.1972Z" fill="white"/>
<path d="M18.2622 15.2715L16.3896 15.6369L16.753 17.4988L18.6256 17.1334L18.2622 15.2715Z" fill="white"/>
<path d="M20.1367 14.9061L18.2642 15.2715L18.6275 17.1334L20.5001 16.768L20.1367 14.9061Z" fill="black"/>
<path d="M22.0073 14.5409L20.1348 14.9063L20.4981 16.7682L22.3707 16.4027L22.0073 14.5409Z" fill="#333333"/>
<path d="M23.8803 14.1755L22.0078 14.5409L22.3711 16.4028L24.2437 16.0374L23.8803 14.1755Z" fill="#1A1A1A"/>
<path d="M25.7524 13.8101L23.8799 14.1755L24.2432 16.0373L26.1157 15.6719L25.7524 13.8101Z" fill="#4D4D4D"/>
<path d="M27.6255 13.4446L25.7529 13.81L26.1163 15.672L27.9888 15.3066L27.6255 13.4446Z" fill="#4D4D4D"/>
<path d="M29.4986 13.0792L27.626 13.4446L27.9894 15.3065L29.8619 14.9411L29.4986 13.0792Z" fill="#4D4D4D"/>
<path d="M31.3701 12.7138L29.4976 13.0792L29.8609 14.9411L31.7334 14.5757L31.3701 12.7138Z" fill="#4D4D4D"/>
<path d="M33.2446 12.3484L31.3721 12.7138L31.7354 14.5756L33.6079 14.2102L33.2446 12.3484Z" fill="#4D4D4D"/>
<path d="M35.1153 11.9832L33.2427 12.3486L33.606 14.2105L35.4786 13.8451L35.1153 11.9832Z" fill="#4D4D4D"/>
<path d="M36.9882 11.6177L35.1157 11.9831L35.479 13.8451L37.3516 13.4797L36.9882 11.6177Z" fill="#4D4D4D"/>
<path d="M38.8613 11.2523L36.9888 11.6177L37.3521 13.4796L39.2246 13.1142L38.8613 11.2523Z" fill="#4D4D4D"/>
<path d="M40.7334 10.8867L38.8608 11.2521L39.2242 13.114L41.0967 12.7486L40.7334 10.8867Z" fill="#4D4D4D"/>
<path d="M42.6065 10.5215L40.7339 10.8869L41.0972 12.7488L42.9698 12.3834L42.6065 10.5215Z" fill="#1A1A1A"/>
<path d="M44.4795 10.1559L42.6069 10.5213L42.9703 12.3832L44.8428 12.0178L44.4795 10.1559Z" fill="#333333"/>
<path d="M46.351 9.79047L44.4785 10.1559L44.8418 12.0177L46.7144 11.6523L46.351 9.79047Z" fill="#666666"/>
<path d="M48.2241 9.42505L46.3516 9.79045L46.7149 11.6524L48.5874 11.287L48.2241 9.42505Z" fill="#333333"/>
<path d="M50.0952 9.05981L48.2227 9.42521L48.586 11.2871L50.4585 10.9217L50.0952 9.05981Z" fill="black"/>
<path d="M51.9693 8.6944L50.0967 9.0598L50.4601 10.9217L52.3326 10.5563L51.9693 8.6944Z" fill="white"/>
<path d="M18.626 17.1317L16.7534 17.4971L17.1167 19.359L18.9893 18.9936L18.626 17.1317Z" fill="white"/>
<path d="M20.498 16.7664L18.6255 17.1318L18.9888 18.9936L20.8614 18.6282L20.498 16.7664Z" fill="black"/>
<path d="M22.3711 16.4011L20.4985 16.7665L20.8619 18.6284L22.7344 18.263L22.3711 16.4011Z" fill="#333333"/>
<path d="M24.2431 16.0357L22.3706 16.4011L22.7339 18.263L24.6064 17.8976L24.2431 16.0357Z" fill="#1A1A1A"/>
<path d="M26.1162 15.6703L24.2437 16.0357L24.607 17.8976L26.4795 17.5322L26.1162 15.6703Z" fill="#4D4D4D"/>
<path d="M27.9892 15.3049L26.1167 15.6703L26.48 17.5322L28.3525 17.1668L27.9892 15.3049Z" fill="#4D4D4D"/>
<path d="M29.8609 14.9395L27.9883 15.3049L28.3517 17.1667L30.2242 16.8013L29.8609 14.9395Z" fill="#4D4D4D"/>
<path d="M31.7338 14.574L29.8613 14.9394L30.2246 16.8014L32.0972 16.436L31.7338 14.574Z" fill="#4D4D4D"/>
<path d="M33.6069 14.2086L31.7344 14.574L32.0977 16.4359L33.9702 16.0705L33.6069 14.2086Z" fill="#4D4D4D"/>
<path d="M35.479 13.8434L33.6064 14.2088L33.9698 16.0707L35.8424 15.7053L35.479 13.8434Z" fill="#4D4D4D"/>
<path d="M37.351 13.478L35.4785 13.8434L35.8418 15.7053L37.7144 15.3399L37.351 13.478Z" fill="#4D4D4D"/>
<path d="M39.2251 13.1125L37.3525 13.4779L37.7159 15.3399L39.5884 14.9745L39.2251 13.1125Z" fill="#4D4D4D"/>
<path d="M41.0972 12.7469L39.2246 13.1123L39.5879 14.9743L41.4605 14.6089L41.0972 12.7469Z" fill="#4D4D4D"/>
<path d="M42.9688 12.3815L41.0962 12.7469L41.4595 14.6089L43.3321 14.2435L42.9688 12.3815Z" fill="#666666"/>
<path d="M44.8432 12.0161L42.9707 12.3815L43.334 14.2434L45.2065 13.878L44.8432 12.0161Z" fill="#808080"/>
<path d="M46.7148 11.6507L44.8423 12.0161L45.2056 13.878L47.0781 13.5126L46.7148 11.6507Z" fill="#4D4D4D"/>
<path d="M48.5869 11.2853L46.7144 11.6507L47.0777 13.5126L48.9502 13.1472L48.5869 11.2853Z" fill="#4D4D4D"/>
<path d="M50.459 10.9202L48.5864 11.2856L48.9497 13.1475L50.8223 12.7821L50.459 10.9202Z" fill="#333333"/>
<path d="M52.3305 10.5546L50.458 10.92L50.8213 12.7819L52.6938 12.4165L52.3305 10.5546Z" fill="black"/>
<path d="M54.2036 10.1892L52.3311 10.5546L52.6944 12.4165L54.5669 12.0511L54.2036 10.1892Z" fill="white"/>
<path d="M17.1181 19.36L15.2456 19.7254L15.6089 21.5873L17.4814 21.2219L17.1181 19.36Z" fill="white"/>
<path d="M18.9897 18.9946L17.1172 19.36L17.4805 21.2218L19.353 20.8564L18.9897 18.9946Z" fill="black"/>
<path d="M20.8618 18.629L18.9893 18.9944L19.3526 20.8563L21.2251 20.4909L20.8618 18.629Z" fill="#333333"/>
<path d="M22.7339 18.2639L20.8613 18.6293L21.2246 20.4912L23.0972 20.1258L22.7339 18.2639Z" fill="#1A1A1A"/>
<path d="M24.607 17.8985L22.7344 18.2639L23.0978 20.1258L24.9703 19.7604L24.607 17.8985Z" fill="#4D4D4D"/>
<path d="M26.48 17.5329L24.6074 17.8983L24.9707 19.7602L26.8433 19.3948L26.48 17.5329Z" fill="#4D4D4D"/>
<path d="M28.3515 17.1675L26.479 17.5329L26.8423 19.3947L28.7148 19.0293L28.3515 17.1675Z" fill="#4D4D4D"/>
<path d="M30.2246 16.8021L28.3521 17.1675L28.7154 19.0294L30.5879 18.664L30.2246 16.8021Z" fill="#4D4D4D"/>
<path d="M32.0977 16.4366L30.2251 16.802L30.5884 18.664L32.461 18.2985L32.0977 16.4366Z" fill="#4D4D4D"/>
<path d="M33.9698 16.0712L32.0972 16.4366L32.4605 18.2985L34.3331 17.9331L33.9698 16.0712Z" fill="#4D4D4D"/>
<path d="M35.8427 15.706L33.9702 16.0714L34.3335 17.9333L36.2061 17.5679L35.8427 15.706Z" fill="#4D4D4D"/>
<path d="M37.7149 15.3406L35.8423 15.706L36.2056 17.5679L38.0782 17.2025L37.7149 15.3406Z" fill="#4D4D4D"/>
<path d="M39.5864 14.9752L37.7139 15.3406L38.0772 17.2025L39.9498 16.8371L39.5864 14.9752Z" fill="#4D4D4D"/>
<path d="M41.4609 14.6097L39.5884 14.9751L39.9517 16.8371L41.8242 16.4717L41.4609 14.6097Z" fill="#4D4D4D"/>
<path d="M43.3325 14.2443L41.46 14.6097L41.8233 16.4716L43.6958 16.1062L43.3325 14.2443Z" fill="#666666"/>
<path d="M45.2046 13.8789L43.332 14.2443L43.6953 16.1062L45.5679 15.7408L45.2046 13.8789Z" fill="#808080"/>
<path d="M47.0786 13.5135L45.2061 13.8789L45.5694 15.7408L47.442 15.3754L47.0786 13.5135Z" fill="#666666"/>
<path d="M48.9506 13.1481L47.0781 13.5135L47.4414 15.3754L49.314 15.01L48.9506 13.1481Z" fill="#1A1A1A"/>
<path d="M50.8227 12.7828L48.9502 13.1482L49.3135 15.0102L51.186 14.6448L50.8227 12.7828Z" fill="#333333"/>
<path d="M52.6943 12.4174L50.8218 12.7828L51.1851 14.6447L53.0576 14.2793L52.6943 12.4174Z" fill="black"/>
<path d="M54.5664 12.052L52.6938 12.4174L53.0572 14.2793L54.9298 13.9139L54.5664 12.052Z" fill="white"/>
<path d="M15.6074 21.588L13.7349 21.9534L14.0982 23.8153L15.9707 23.4499L15.6074 21.588Z" fill="white"/>
<path d="M17.482 21.2226L15.6094 21.588L15.9728 23.4499L17.8453 23.0845L17.482 21.2226Z" fill="white"/>
<path d="M19.3535 20.8572L17.481 21.2226L17.8443 23.0845L19.7168 22.7191L19.3535 20.8572Z" fill="black"/>
<path d="M21.2256 20.4918L19.353 20.8572L19.7163 22.719L21.5889 22.3536L21.2256 20.4918Z" fill="#333333"/>
<path d="M23.0977 20.1265L21.2251 20.4919L21.5884 22.3538L23.461 21.9884L23.0977 20.1265Z" fill="#1A1A1A"/>
<path d="M24.9692 19.7611L23.0967 20.1265L23.46 21.9884L25.3325 21.623L24.9692 19.7611Z" fill="#1A1A1A"/>
<path d="M26.8437 19.3957L24.9712 19.7611L25.3345 21.623L27.207 21.2576L26.8437 19.3957Z" fill="#4D4D4D"/>
<path d="M28.7154 19.0303L26.8428 19.3957L27.2061 21.2576L29.0787 20.8922L28.7154 19.0303Z" fill="#4D4D4D"/>
<path d="M30.5874 18.6649L28.7148 19.0303L29.0782 20.8922L30.9507 20.5268L30.5874 18.6649Z" fill="#4D4D4D"/>
<path d="M32.4614 18.2994L30.5889 18.6648L30.9522 20.5268L32.8247 20.1614L32.4614 18.2994Z" fill="#4D4D4D"/>
<path d="M34.3335 17.934L32.4609 18.2994L32.8243 20.1613L34.6968 19.7959L34.3335 17.934Z" fill="#4D4D4D"/>
<path d="M36.2055 17.5688L34.333 17.9342L34.6963 19.7962L36.5689 19.4308L36.2055 17.5688Z" fill="#4D4D4D"/>
<path d="M38.0786 17.2034L36.2061 17.5688L36.5694 19.4307L38.4419 19.0653L38.0786 17.2034Z" fill="#4D4D4D"/>
<path d="M39.9502 16.838L38.0776 17.2033L38.441 19.0653L40.3135 18.6999L39.9502 16.838Z" fill="#4D4D4D"/>
<path d="M41.8232 16.4726L39.9507 16.838L40.314 18.6999L42.1865 18.3345L41.8232 16.4726Z" fill="#666666"/>
<path d="M43.6963 16.1071L41.8237 16.4725L42.187 18.3344L44.0596 17.969L43.6963 16.1071Z" fill="#808080"/>
<path d="M45.5683 15.7415L43.6958 16.1069L44.0591 17.9688L45.9316 17.6034L45.5683 15.7415Z" fill="#666666"/>
<path d="M47.4414 15.3763L45.5688 15.7417L45.9322 17.6036L47.8048 17.2382L47.4414 15.3763Z" fill="#1A1A1A"/>
<path d="M49.3145 15.0107L47.4419 15.3761L47.8052 17.238L49.6778 16.8726L49.3145 15.0107Z" fill="#333333"/>
<path d="M51.1866 14.6457L49.314 15.0111L49.6773 16.8729L51.5499 16.5075L51.1866 14.6457Z" fill="black"/>
<path d="M53.0581 14.2801L51.1855 14.6455L51.5489 16.5074L53.4215 16.142L53.0581 14.2801Z" fill="white"/>
<path d="M12.2251 24.1791L10.3525 24.5445L10.7159 26.4064L12.5884 26.041L12.2251 24.1791Z" fill="white"/>
<path d="M14.0971 23.8137L12.2246 24.1791L12.5879 26.041L14.4605 25.6756L14.0971 23.8137Z" fill="white"/>
<path d="M15.9712 23.4482L14.0986 23.8136L14.462 25.6756L16.3345 25.3102L15.9712 23.4482Z" fill="black"/>
<path d="M17.8432 23.0828L15.9707 23.4482L16.334 25.3101L18.2065 24.9447L17.8432 23.0828Z" fill="black"/>
<path d="M19.7153 22.7174L17.8428 23.0828L18.2061 24.9447L20.0786 24.5793L19.7153 22.7174Z" fill="#1A1A1A"/>
<path d="M21.5893 22.352L19.7168 22.7174L20.0801 24.5792L21.9526 24.2138L21.5893 22.352Z" fill="#333333"/>
<path d="M23.46 21.9868L21.5874 22.3522L21.9507 24.2141L23.8233 23.8487L23.46 21.9868Z" fill="#333333"/>
<path d="M25.333 21.6213L23.4604 21.9867L23.8238 23.8486L25.6963 23.4832L25.333 21.6213Z" fill="#333333"/>
<path d="M27.206 21.2559L25.3335 21.6213L25.6968 23.4832L27.5693 23.1178L27.206 21.2559Z" fill="#1A1A1A"/>
<path d="M29.0782 20.8905L27.2056 21.2559L27.5689 23.1178L29.4415 22.7524L29.0782 20.8905Z" fill="#1A1A1A"/>
<path d="M30.9512 20.5251L29.0786 20.8905L29.4419 22.7524L31.3145 22.387L30.9512 20.5251Z" fill="#4D4D4D"/>
<path d="M32.8242 20.1597L30.9517 20.5251L31.315 22.387L33.1876 22.0216L32.8242 20.1597Z" fill="#4D4D4D"/>
<path d="M34.6972 19.7943L32.8247 20.1596L33.188 22.0216L35.0605 21.6562L34.6972 19.7943Z" fill="#4D4D4D"/>
<path d="M36.5678 19.4291L34.6953 19.7945L35.0586 21.6564L36.9312 21.291L36.5678 19.4291Z" fill="#4D4D4D"/>
<path d="M38.4423 19.0637L36.5698 19.4291L36.9331 21.2909L38.8057 20.9255L38.4423 19.0637Z" fill="#4D4D4D"/>
<path d="M40.3139 18.6982L38.4414 19.0636L38.8047 20.9256L40.6772 20.5602L40.3139 18.6982Z" fill="#4D4D4D"/>
<path d="M42.186 18.3328L40.3135 18.6982L40.6768 20.5601L42.5494 20.1947L42.186 18.3328Z" fill="#666666"/>
<path d="M44.06 17.9674L42.1875 18.3328L42.5508 20.1947L44.4233 19.8293L44.06 17.9674Z" fill="#808080"/>
<path d="M45.9321 17.602L44.0596 17.9674L44.4229 19.8292L46.2954 19.4638L45.9321 17.602Z" fill="#666666"/>
<path d="M47.8042 17.2366L45.9316 17.602L46.295 19.4639L48.1676 19.0985L47.8042 17.2366Z" fill="#1A1A1A"/>
<path d="M49.6783 16.8712L47.8057 17.2366L48.169 19.0984L50.0416 18.733L49.6783 16.8712Z" fill="#333333"/>
<path d="M51.5479 16.5059L49.6753 16.8713L50.0387 18.7332L51.9112 18.3678L51.5479 16.5059Z" fill="black"/>
<path d="M53.4224 16.1403L51.5498 16.5057L51.9131 18.3676L53.7857 18.0022L53.4224 16.1403Z" fill="white"/>
<path d="M8.84274 26.7727L6.97021 27.1381L7.33353 29L9.20605 28.6346L8.84274 26.7727Z" fill="white"/>
<path d="M10.7172 26.4073L8.84473 26.7727L9.20804 28.6347L11.0806 28.2693L10.7172 26.4073Z" fill="white"/>
<path d="M12.5888 26.0419L10.7163 26.4073L11.0796 28.2692L12.9521 27.9038L12.5888 26.0419Z" fill="black"/>
<path d="M14.461 25.6765L12.5884 26.0419L12.9518 27.9038L14.8243 27.5384L14.461 25.6765Z" fill="black"/>
<path d="M16.3349 25.311L14.4624 25.6764L14.8257 27.5384L16.6982 27.173L16.3349 25.311Z" fill="#7A99B8"/>
<path d="M18.207 24.9457L16.3345 25.3111L16.6978 27.173L18.5703 26.8076L18.207 24.9457Z" fill="#7A99B8"/>
<path d="M20.081 24.5802L18.2085 24.9456L18.5718 26.8075L20.4443 26.4421L20.081 24.5802Z" fill="#7A99B8"/>
<path d="M21.9532 24.2148L20.0806 24.5802L20.4439 26.4422L22.3165 26.0768L21.9532 24.2148Z" fill="#1A1A1A"/>
<path d="M23.8237 23.8496L21.9512 24.215L22.3145 26.0769L24.187 25.7115L23.8237 23.8496Z" fill="#1A1A1A"/>
<path d="M25.6968 23.4842L23.8242 23.8496L24.1875 25.7115L26.0601 25.3461L25.6968 23.4842Z" fill="#333333"/>
<path d="M27.5689 23.1188L25.6963 23.4842L26.0596 25.346L27.9322 24.9806L27.5689 23.1188Z" fill="#333333"/>
<path d="M29.4419 22.7534L27.5693 23.1188L27.9327 24.9807L29.8052 24.6153L29.4419 22.7534Z" fill="#333333"/>
<path d="M31.3149 22.3877L29.4424 22.7532L29.8057 24.615L31.6782 24.2496L31.3149 22.3877Z" fill="#1A1A1A"/>
<path d="M33.187 22.0225L31.3145 22.3879L31.6778 24.2498L33.5503 23.8844L33.187 22.0225Z" fill="#1A1A1A"/>
<path d="M35.06 21.6569L33.1875 22.0223L33.5508 23.8842L35.4233 23.5188L35.06 21.6569Z" fill="#4D4D4D"/>
<path d="M36.9316 21.2919L35.0591 21.6573L35.4224 23.5191L37.2949 23.1537L36.9316 21.2919Z" fill="#4D4D4D"/>
<path d="M38.8037 20.9263L36.9312 21.2917L37.2945 23.1536L39.167 22.7882L38.8037 20.9263Z" fill="#4D4D4D"/>
<path d="M40.6782 20.561L38.8057 20.9264L39.169 22.7883L41.0415 22.4229L40.6782 20.561Z" fill="#666666"/>
<path d="M42.5498 20.1954L40.6772 20.5608L41.0406 22.4228L42.9131 22.0574L42.5498 20.1954Z" fill="#808080"/>
<path d="M44.4219 19.83L42.5493 20.1954L42.9127 22.0573L44.7852 21.6919L44.4219 19.83Z" fill="#666666"/>
<path d="M46.2959 19.4646L44.4233 19.83L44.7867 21.6919L46.6592 21.3265L46.2959 19.4646Z" fill="#1A1A1A"/>
<path d="M48.1679 19.0992L46.2954 19.4646L46.6587 21.3264L48.5313 20.961L48.1679 19.0992Z" fill="#333333"/>
<path d="M50.041 18.7338L48.1685 19.0992L48.5318 20.9611L50.4043 20.5957L50.041 18.7338Z" fill="black"/>
<path d="M51.9116 18.3685L50.0391 18.7339L50.4024 20.5959L52.2749 20.2305L51.9116 18.3685Z" fill="white"/>
<path d="M5.46286 29.3662L3.59033 29.7316L3.95365 31.5935L5.82617 31.2281L5.46286 29.3662Z" fill="white"/>
<path d="M7.33597 29.0008L5.46338 29.3662L5.82676 31.2281L7.69928 30.8627L7.33597 29.0008Z" fill="white"/>
<path d="M9.20657 28.6356L7.33398 29.001L7.69737 30.8629L9.56989 30.4975L9.20657 28.6356Z" fill="black"/>
<path d="M11.0811 28.2701L9.2085 28.6355L9.57181 30.4975L11.4444 30.1321L11.0811 28.2701Z" fill="black"/>
<path d="M12.9526 27.9047L11.0801 28.2701L11.4434 30.132L13.3159 29.7666L12.9526 27.9047Z" fill="#7A99B8"/>
<path d="M14.8247 27.5393L12.9521 27.9047L13.3155 29.7666L15.188 29.4012L14.8247 27.5393Z" fill="#7A99B8"/>
<path d="M16.6988 27.1737L14.8262 27.5391L15.1895 29.401L17.0621 29.0356L16.6988 27.1737Z" fill="#5980A6"/>
<path d="M18.5708 26.8085L16.6982 27.1739L17.0616 29.0358L18.9341 28.6704L18.5708 26.8085Z" fill="#5980A6"/>
<path d="M20.4429 26.4429L18.5703 26.8083L18.9336 28.6702L20.8062 28.3048L20.4429 26.4429Z" fill="#5980A6"/>
<path d="M22.3169 26.0774L20.4443 26.4428L20.8077 28.3047L22.6802 27.9393L22.3169 26.0774Z" fill="#7A99B8"/>
<path d="M24.1865 25.7122L22.314 26.0776L22.6773 27.9395L24.5499 27.5741L24.1865 25.7122Z" fill="#7A99B8"/>
<path d="M26.0605 25.347L24.188 25.7124L24.5513 27.5742L26.4238 27.2088L26.0605 25.347Z" fill="#1A1A1A"/>
<path d="M27.9326 24.9814L26.0601 25.3468L26.4234 27.2087L28.2959 26.8433L27.9326 24.9814Z" fill="#1A1A1A"/>
<path d="M29.8047 24.616L27.9321 24.9814L28.2954 26.8432L30.168 26.4778L29.8047 24.616Z" fill="#333333"/>
<path d="M31.6787 24.2505L29.8062 24.6159L30.1695 26.4779L32.042 26.1125L31.6787 24.2505Z" fill="#333333"/>
<path d="M33.5507 23.8851L31.6782 24.2506L32.0415 26.1125L33.9141 25.7471L33.5507 23.8851Z" fill="#333333"/>
<path d="M35.4224 23.5197L33.5498 23.8851L33.9132 25.747L35.7857 25.3816L35.4224 23.5197Z" fill="#1A1A1A"/>
<path d="M37.2954 23.1545L35.4229 23.5199L35.7862 25.3818L37.6587 25.0164L37.2954 23.1545Z" fill="#1A1A1A"/>
<path d="M39.1674 22.7891L37.2949 23.1545L37.6582 25.0163L39.5308 24.6509L39.1674 22.7891Z" fill="#333333"/>
<path d="M41.0406 22.4236L39.168 22.789L39.5313 24.651L41.4039 24.2856L41.0406 22.4236Z" fill="#666666"/>
<path d="M42.9136 22.0582L41.041 22.4236L41.4043 24.2855L43.2769 23.9201L42.9136 22.0582Z" fill="#808080"/>
<path d="M44.7856 21.6928L42.9131 22.0582L43.2764 23.9201L45.1489 23.5547L44.7856 21.6928Z" fill="#666666"/>
<path d="M46.6587 21.3274L44.7861 21.6928L45.1495 23.5546L47.022 23.1892L46.6587 21.3274Z" fill="#1A1A1A"/>
<path d="M48.5318 20.962L46.6592 21.3274L47.0225 23.1893L48.8951 22.8239L48.5318 20.962Z" fill="#333333"/>
<path d="M50.4038 20.5966L48.5312 20.962L48.8946 22.8238L50.7672 22.4584L50.4038 20.5966Z" fill="black"/>
<path d="M52.2754 20.2313L50.4028 20.5967L50.7662 22.4586L52.6387 22.0932L52.2754 20.2313Z" fill="white"/>
<path d="M3.95358 31.5919L2.08105 31.9573L2.44437 33.8192L4.3169 33.4538L3.95358 31.5919Z" fill="white"/>
<path d="M5.82565 31.2264L3.95312 31.5918L4.31644 33.4538L6.18897 33.0884L5.82565 31.2264Z" fill="black"/>
<path d="M7.69869 30.861L5.82617 31.2264L6.18949 33.0883L8.06201 32.7229L7.69869 30.861Z" fill="black"/>
<path d="M9.57034 30.4958L7.69775 30.8612L8.06114 32.723L9.93366 32.3576L9.57034 30.4958Z" fill="#7A99B8"/>
<path d="M11.4424 30.1304L9.56982 30.4958L9.93321 32.3577L11.8057 31.9923L11.4424 30.1304Z" fill="#7A99B8"/>
<path d="M13.3164 29.765L11.4438 30.1304L11.8072 31.9922L13.6797 31.6268L13.3164 29.765Z" fill="#5980A6"/>
<path d="M15.1884 29.3995L13.3159 29.7649L13.6792 31.6269L15.5518 31.2615L15.1884 29.3995Z" fill="#5980A6"/>
<path d="M17.0606 29.0341L15.188 29.3995L15.5513 31.2614L17.4239 30.896L17.0606 29.0341Z" fill="#BDCCDB"/>
<path d="M18.9346 28.6685L17.062 29.0339L17.4253 30.8958L19.2979 30.5304L18.9346 28.6685Z" fill="#7A99B8"/>
<path d="M20.8067 28.3031L18.9341 28.6685L19.2974 30.5304L21.17 30.165L20.8067 28.3031Z" fill="#BDCCDB"/>
<path d="M22.6782 27.9377L20.8057 28.3031L21.169 30.165L23.0415 29.7996L22.6782 27.9377Z" fill="#5980A6"/>
<path d="M24.5503 27.5724L22.6777 27.9378L23.0411 29.7998L24.9136 29.4344L24.5503 27.5724Z" fill="#5980A6"/>
<path d="M26.4233 27.2072L24.5508 27.5726L24.9141 29.4345L26.7866 29.0691L26.4233 27.2072Z" fill="#7A99B8"/>
<path d="M28.2964 26.8416L26.4238 27.207L26.7871 29.0689L28.6597 28.7035L28.2964 26.8416Z" fill="#7A99B8"/>
<path d="M30.1684 26.4762L28.2959 26.8416L28.6592 28.7035L30.5317 28.3381L30.1684 26.4762Z" fill="#1A1A1A"/>
<path d="M32.0415 26.1108L30.1689 26.4762L30.5323 28.3381L32.4049 27.9727L32.0415 26.1108Z" fill="#1A1A1A"/>
<path d="M33.9145 25.7454L32.042 26.1108L32.4053 27.9726L34.2779 27.6072L33.9145 25.7454Z" fill="#333333"/>
<path d="M35.7866 25.3799L33.9141 25.7453L34.2774 27.6073L36.1499 27.2419L35.7866 25.3799Z" fill="#333333"/>
<path d="M37.6596 25.0147L35.7871 25.3801L36.1504 27.242L38.023 26.8766L37.6596 25.0147Z" fill="#333333"/>
<path d="M39.5312 24.6493L37.6587 25.0147L38.022 26.8766L39.8945 26.5112L39.5312 24.6493Z" fill="#4D4D4D"/>
<path d="M41.4033 24.2839L39.5308 24.6493L39.8941 26.5112L41.7667 26.1458L41.4033 24.2839Z" fill="#4D4D4D"/>
<path d="M43.2774 23.9185L41.4048 24.2839L41.7681 26.1458L43.6407 25.7804L43.2774 23.9185Z" fill="#666666"/>
<path d="M45.1494 23.553L43.2769 23.9184L43.6402 25.7804L45.5127 25.415L45.1494 23.553Z" fill="#1A1A1A"/>
<path d="M47.0214 23.1876L45.1489 23.553L45.5122 25.4149L47.3848 25.0495L47.0214 23.1876Z" fill="#333333"/>
<path d="M48.8955 22.8222L47.0229 23.1876L47.3863 25.0495L49.2589 24.6841L48.8955 22.8222Z" fill="black"/>
<path d="M50.7676 22.4568L48.895 22.8222L49.2583 24.6841L51.1309 24.3187L50.7676 22.4568Z" fill="white"/>
<path d="M2.44433 33.8199L0.571777 34.1853L0.935101 36.0472L2.80765 35.6818L2.44433 33.8199Z" fill="white"/>
<path d="M4.31644 33.4547L2.44385 33.82L2.80723 35.682L4.67975 35.3166L4.31644 33.4547Z" fill="black"/>
<path d="M6.18942 33.0891L4.31689 33.4544L4.68021 35.3164L6.55274 34.951L6.18942 33.0891Z" fill="#7A99B8"/>
<path d="M8.06246 32.7236L6.18994 33.089L6.55326 34.951L8.42578 34.5856L8.06246 32.7236Z" fill="#7A99B8"/>
<path d="M9.93405 32.3584L8.06152 32.7238L8.42484 34.5857L10.2974 34.2203L9.93405 32.3584Z" fill="#7A99B8"/>
<path d="M11.8061 31.9932L9.93359 32.3586L10.2969 34.2204L12.1694 33.855L11.8061 31.9932Z" fill="#7A99B8"/>
<path d="M13.6783 31.6276L11.8057 31.993L12.169 33.8549L14.0416 33.4895L13.6783 31.6276Z" fill="#7A99B8"/>
<path d="M15.5523 31.2621L13.6797 31.6275L14.043 33.4894L15.9156 33.124L15.5523 31.2621Z" fill="#5980A6"/>
<path d="M17.4243 30.8967L15.5518 31.2621L15.9151 33.124L17.7877 32.7587L17.4243 30.8967Z" fill="#5980A6"/>
<path d="M19.2983 30.5313L17.4258 30.8967L17.7891 32.7586L19.6616 32.3932L19.2983 30.5313Z" fill="#BDCCDB"/>
<path d="M21.1704 30.1659L19.2979 30.5313L19.6612 32.3932L21.5337 32.0278L21.1704 30.1659Z" fill="#7A99B8"/>
<path d="M23.042 29.8005L21.1694 30.1659L21.5327 32.0278L23.4053 31.6624L23.042 29.8005Z" fill="#BDCCDB"/>
<path d="M24.914 29.4352L23.0415 29.8006L23.4048 31.6626L25.2773 31.2972L24.914 29.4352Z" fill="#7A99B8"/>
<path d="M26.7861 29.0698L24.9136 29.4352L25.2769 31.2971L27.1494 30.9317L26.7861 29.0698Z" fill="#5980A6"/>
<path d="M28.6591 28.7044L26.7866 29.0698L27.1499 30.9317L29.0225 30.5663L28.6591 28.7044Z" fill="#5980A6"/>
<path d="M30.5322 28.339L28.6597 28.7044L29.023 30.5663L30.8955 30.2009L30.5322 28.339Z" fill="#7A99B8"/>
<path d="M32.4043 27.9736L30.5317 28.339L30.8951 30.2008L32.7676 29.8354L32.4043 27.9736Z" fill="#7A99B8"/>
<path d="M34.2784 27.6082L32.4058 27.9736L32.7691 29.8355L34.6417 29.4701L34.2784 27.6082Z" fill="#1A1A1A"/>
<path d="M36.1504 27.2427L34.2778 27.6081L34.6412 29.4701L36.5137 29.1046L36.1504 27.2427Z" fill="#1A1A1A"/>
<path d="M38.021 26.8775L36.1484 27.2429L36.5118 29.1048L38.3843 28.7394L38.021 26.8775Z" fill="#333333"/>
<path d="M39.8951 26.5121L38.0225 26.8775L38.3858 28.7395L40.2584 28.3741L39.8951 26.5121Z" fill="#4D4D4D"/>
<path d="M41.7671 26.1467L39.8945 26.5121L40.2578 28.374L42.1304 28.0086L41.7671 26.1467Z" fill="#666666"/>
<path d="M43.6401 25.7811L41.7676 26.1465L42.1309 28.0084L44.0034 27.643L43.6401 25.7811Z" fill="#333333"/>
<path d="M45.5132 25.4158L43.6406 25.7812L44.0039 27.6432L45.8765 27.2778L45.5132 25.4158Z" fill="#1A1A1A"/>
<path d="M47.3852 25.0502L45.5127 25.4156L45.876 27.2776L47.7486 26.9122L47.3852 25.0502Z" fill="#333333"/>
<path d="M49.2583 24.6848L47.3857 25.0502L47.7491 26.9121L49.6216 26.5467L49.2583 24.6848Z" fill="black"/>
<path d="M51.1313 24.3194L49.2588 24.6848L49.6221 26.5467L51.4946 26.1813L51.1313 24.3194Z" fill="white"/>
<path d="M2.8071 35.6827L0.93457 36.0481L1.29789 37.91L3.17042 37.5446L2.8071 35.6827Z" fill="white"/>
<path d="M4.68014 35.3173L2.80762 35.6827L3.17094 37.5446L5.04346 37.1792L4.68014 35.3173Z" fill="white"/>
<path d="M6.55325 34.9518L4.68066 35.3172L5.04398 37.1791L6.91657 36.8137L6.55325 34.9518Z" fill="black"/>
<path d="M8.42483 34.5864L6.55225 34.9518L6.91556 36.8137L8.78815 36.4483L8.42483 34.5864Z" fill="black"/>
<path d="M10.2979 34.2212L8.42529 34.5866L8.78861 36.4484L10.6612 36.083L10.2979 34.2212Z" fill="#7A99B8"/>
<path d="M12.17 33.8558L10.2974 34.2212L10.6607 36.0832L12.5333 35.7178L12.17 33.8558Z" fill="#7A99B8"/>
<path d="M14.042 33.4904L12.1694 33.8558L12.5328 35.7176L14.4053 35.3522L14.042 33.4904Z" fill="#7A99B8"/>
<path d="M15.916 33.125L14.0435 33.4904L14.4068 35.3523L16.2793 34.9869L15.916 33.125Z" fill="#7A99B8"/>
<path d="M17.788 32.7595L15.9155 33.1249L16.2788 34.9868L18.1514 34.6214L17.788 32.7595Z" fill="#7A99B8"/>
<path d="M19.6596 32.3942L17.7871 32.7596L18.1504 34.6215L20.0229 34.2561L19.6596 32.3942Z" fill="#5980A6"/>
<path d="M21.5341 32.0287L19.6616 32.3941L20.0249 34.2559L21.8975 33.8905L21.5341 32.0287Z" fill="#5980A6"/>
<path d="M23.4062 31.6633L21.5337 32.0287L21.897 33.8907L23.7695 33.5252L23.4062 31.6633Z" fill="#7A99B8"/>
<path d="M25.2778 31.2981L23.4053 31.6635L23.7686 33.5254L25.6411 33.16L25.2778 31.2981Z" fill="#BDCCDB"/>
<path d="M27.1499 30.9327L25.2773 31.2981L25.6407 33.1599L27.5132 32.7945L27.1499 30.9327Z" fill="#7A99B8"/>
<path d="M29.022 30.567L27.1494 30.9324L27.5127 32.7943L29.3853 32.4289L29.022 30.567Z" fill="#BDCCDB"/>
<path d="M30.896 30.2018L29.0234 30.5672L29.3868 32.4291L31.2593 32.0637L30.896 30.2018Z" fill="#5980A6"/>
<path d="M32.768 29.8362L30.8955 30.2016L31.2588 32.0635L33.1313 31.6981L32.768 29.8362Z" fill="#5980A6"/>
<path d="M34.6421 29.4708L32.7695 29.8362L33.1328 31.698L35.0054 31.3326L34.6421 29.4708Z" fill="#7A99B8"/>
<path d="M36.5142 29.1053L34.6416 29.4707L35.0049 31.3327L36.8775 30.9673L36.5142 29.1053Z" fill="#7A99B8"/>
<path d="M38.3847 28.7402L36.5122 29.1056L36.8755 30.9675L38.748 30.6021L38.3847 28.7402Z" fill="#1A1A1A"/>
<path d="M40.2578 28.3748L38.3853 28.7402L38.7486 30.6021L40.6211 30.2367L40.2578 28.3748Z" fill="#1A1A1A"/>
<path d="M42.1308 28.0093L40.2583 28.3747L40.6216 30.2367L42.4942 29.8713L42.1308 28.0093Z" fill="#666666"/>
<path d="M44.0029 27.6439L42.1304 28.0093L42.4937 29.8712L44.3663 29.5058L44.0029 27.6439Z" fill="#4D4D4D"/>
<path d="M45.8759 27.2785L44.0034 27.6439L44.3667 29.5058L46.2393 29.1404L45.8759 27.2785Z" fill="#333333"/>
<path d="M47.749 26.9131L45.8765 27.2785L46.2398 29.1404L48.1123 28.775L47.749 26.9131Z" fill="black"/>
<path d="M49.6206 26.5477L47.748 26.9131L48.1114 28.775L49.984 28.4096L49.6206 26.5477Z" fill="white"/>
<path d="M5.04245 37.1775L3.16992 37.5429L3.53324 39.4048L5.40576 39.0394L5.04245 37.1775Z" fill="white"/>
<path d="M6.91556 36.8121L5.04297 37.1775L5.40629 39.0394L7.27887 38.674L6.91556 36.8121Z" fill="white"/>
<path d="M8.7886 36.4467L6.91602 36.8121L7.27933 38.6739L9.15192 38.3085L8.7886 36.4467Z" fill="white"/>
<path d="M10.6597 36.0814L8.78711 36.4468L9.15043 38.3087L11.023 37.9433L10.6597 36.0814Z" fill="black"/>
<path d="M12.5337 35.7161L10.6611 36.0815L11.0245 37.9434L12.897 37.578L12.5337 35.7161Z" fill="black"/>
<path d="M14.4058 35.3506L12.5332 35.716L12.8965 37.5779L14.7691 37.2125L14.4058 35.3506Z" fill="#7A99B8"/>
<path d="M16.2773 34.9852L14.4048 35.3506L14.7681 37.2126L16.6406 36.8472L16.2773 34.9852Z" fill="#7A99B8"/>
<path d="M18.1518 34.6198L16.2793 34.9851L16.6426 36.8471L18.5151 36.4816L18.1518 34.6198Z" fill="#7A99B8"/>
<path d="M20.0239 34.2544L18.1514 34.6198L18.5147 36.4817L20.3873 36.1163L20.0239 34.2544Z" fill="#BDCCDB"/>
<path d="M21.8955 33.8889L20.0229 34.2543L20.3863 36.1162L22.2589 35.7508L21.8955 33.8889Z" fill="#BDCCDB"/>
<path d="M23.77 33.5236L21.8975 33.889L22.2608 35.7509L24.1333 35.3855L23.77 33.5236Z" fill="#5980A6"/>
<path d="M25.6406 33.1583L23.7681 33.5237L24.1314 35.3856L26.0039 35.0202L25.6406 33.1583Z" fill="#5980A6"/>
<path d="M27.5136 32.7929L25.6411 33.1583L26.0044 35.0202L27.877 34.6548L27.5136 32.7929Z" fill="#BDCCDB"/>
<path d="M29.3858 32.4272L27.5132 32.7926L27.8766 34.6546L29.7491 34.2892L29.3858 32.4272Z" fill="#7A99B8"/>
<path d="M31.2588 32.0621L29.3862 32.4275L29.7496 34.2894L31.6221 33.924L31.2588 32.0621Z" fill="#BDCCDB"/>
<path d="M33.1318 31.6965L31.2593 32.0619L31.6226 33.9238L33.4951 33.5584L33.1318 31.6965Z" fill="#7A99B8"/>
<path d="M35.0034 31.3311L33.1309 31.6965L33.4942 33.5584L35.3667 33.193L35.0034 31.3311Z" fill="#5980A6"/>
<path d="M36.8765 30.9656L35.0039 31.331L35.3672 33.1929L37.2398 32.8275L36.8765 30.9656Z" fill="#5980A6"/>
<path d="M38.7485 30.6006L36.876 30.966L37.2393 32.8278L39.1118 32.4624L38.7485 30.6006Z" fill="#7A99B8"/>
<path d="M40.6206 30.235L38.748 30.6004L39.1114 32.4623L40.9839 32.0969L40.6206 30.235Z" fill="#7A99B8"/>
<path d="M42.4947 29.8696L40.6221 30.235L40.9854 32.0968L42.858 31.7314L42.4947 29.8696Z" fill="#1A1A1A"/>
<path d="M44.3667 29.5042L42.4941 29.8695L42.8575 31.7315L44.73 31.3661L44.3667 29.5042Z" fill="#1A1A1A"/>
<path d="M46.2382 29.1387L44.3657 29.5041L44.729 31.366L46.6016 31.0006L46.2382 29.1387Z" fill="#333333"/>
<path d="M48.1128 28.7733L46.2402 29.1387L46.6036 31.0006L48.4761 30.6352L48.1128 28.7733Z" fill="black"/>
<path d="M49.9843 28.4079L48.1118 28.7733L48.4751 30.6352L50.3477 30.2698L49.9843 28.4079Z" fill="white"/>
<path d="M9.1528 38.3095L7.28027 38.6749L7.64359 40.5368L9.51611 40.1714L9.1528 38.3095Z" fill="white"/>
<path d="M11.0234 37.9443L9.15088 38.3097L9.5142 40.1716L11.3868 39.8062L11.0234 37.9443Z" fill="white"/>
<path d="M12.8974 37.5789L11.0249 37.9443L11.3882 39.8062L13.2607 39.4408L12.8974 37.5789Z" fill="white"/>
<path d="M14.7695 37.2132L12.897 37.5786L13.2603 39.4405L15.1328 39.0751L14.7695 37.2132Z" fill="black"/>
<path d="M16.6416 36.848L14.769 37.2134L15.1324 39.0753L17.0049 38.7099L16.6416 36.848Z" fill="black"/>
<path d="M18.5156 36.4824L16.6431 36.8478L17.0064 38.7097L18.8789 38.3443L18.5156 36.4824Z" fill="#5980A6"/>
<path d="M20.3877 36.1169L18.5151 36.4823L18.8785 38.3443L20.751 37.9789L20.3877 36.1169Z" fill="#7A99B8"/>
<path d="M22.2593 35.7516L20.3867 36.117L20.7501 37.9789L22.6226 37.6135L22.2593 35.7516Z" fill="#BDCCDB"/>
<path d="M24.1338 35.3862L22.2612 35.7516L22.6245 37.6134L24.4971 37.248L24.1338 35.3862Z" fill="#BDCCDB"/>
<path d="M26.0034 35.0209L24.1309 35.3863L24.4942 37.2483L26.3668 36.8829L26.0034 35.0209Z" fill="#BDCCDB"/>
<path d="M27.8775 34.6555L26.0049 35.0209L26.3682 36.8828L28.2408 36.5174L27.8775 34.6555Z" fill="#5980A6"/>
<path d="M29.7495 34.2901L27.877 34.6555L28.2403 36.5174L30.1128 36.152L29.7495 34.2901Z" fill="#5980A6"/>
<path d="M31.6211 33.9247L29.7485 34.2901L30.1119 36.152L31.9844 35.7866L31.6211 33.9247Z" fill="#7A99B8"/>
<path d="M33.4956 33.5593L31.623 33.9247L31.9864 35.7866L33.859 35.4212L33.4956 33.5593Z" fill="#BDCCDB"/>
<path d="M35.3672 33.1938L33.4946 33.5592L33.8579 35.4212L35.7305 35.0558L35.3672 33.1938Z" fill="#7A99B8"/>
<path d="M37.2392 32.8284L35.3667 33.1938L35.73 35.0558L37.6026 34.6903L37.2392 32.8284Z" fill="#BDCCDB"/>
<path d="M39.1123 32.4632L37.2397 32.8286L37.6031 34.6905L39.4757 34.3251L39.1123 32.4632Z" fill="#5980A6"/>
<path d="M40.9843 32.0978L39.1118 32.4632L39.4751 34.325L41.3477 33.9596L40.9843 32.0978Z" fill="#5980A6"/>
<path d="M42.8574 31.7324L40.9849 32.0978L41.3482 33.9597L43.2207 33.5943L42.8574 31.7324Z" fill="#7A99B8"/>
<path d="M44.7304 31.3669L42.8579 31.7323L43.2212 33.5942L45.0938 33.2288L44.7304 31.3669Z" fill="#7A99B8"/>
<path d="M46.602 31.0015L44.7295 31.3669L45.0928 33.2288L46.9653 32.8634L46.602 31.0015Z" fill="black"/>
<path d="M48.4751 30.6361L46.6025 31.0015L46.9659 32.8634L48.8384 32.498L48.4751 30.6361Z" fill="white"/>
<path d="M13.2592 39.4415L11.3867 39.8069L11.75 41.6688L13.6226 41.3034L13.2592 39.4415Z" fill="white"/>
<path d="M15.1333 39.076L13.2607 39.4414L13.6241 41.3033L15.4966 40.9379L15.1333 39.076Z" fill="white"/>
<path d="M17.0054 38.7106L15.1328 39.076L15.4962 40.938L17.3687 40.5726L17.0054 38.7106Z" fill="white"/>
<path d="M18.877 38.3452L17.0044 38.7106L17.3677 40.5725L19.2403 40.2071L18.877 38.3452Z" fill="black"/>
<path d="M20.7514 37.9798L18.8789 38.3452L19.2422 40.2071L21.1147 39.8417L20.7514 37.9798Z" fill="black"/>
<path d="M22.623 37.6144L20.7505 37.9798L21.1138 39.8416L22.9863 39.4762L22.623 37.6144Z" fill="#7A99B8"/>
<path d="M24.4961 37.249L22.6235 37.6144L22.9869 39.4763L24.8594 39.1109L24.4961 37.249Z" fill="#5980A6"/>
<path d="M26.3672 36.8837L24.4946 37.2491L24.8579 39.1111L26.7305 38.7456L26.3672 36.8837Z" fill="#7A99B8"/>
<path d="M28.2412 36.5183L26.3687 36.8837L26.732 38.7456L28.6045 38.3802L28.2412 36.5183Z" fill="#7A99B8"/>
<path d="M30.1133 36.1529L28.2407 36.5183L28.604 38.3802L30.4766 38.0148L30.1133 36.1529Z" fill="#7A99B8"/>
<path d="M31.9848 35.7875L30.1123 36.1529L30.4756 38.0148L32.3481 37.6494L31.9848 35.7875Z" fill="#5980A6"/>
<path d="M33.8593 35.4219L31.9868 35.7873L32.3501 37.6492L34.2227 37.2838L33.8593 35.4219Z" fill="#5980A6"/>
<path d="M35.7309 35.0566L33.8584 35.422L34.2217 37.284L36.0942 36.9186L35.7309 35.0566Z" fill="#5980A6"/>
<path d="M37.603 34.691L35.7305 35.0564L36.0938 36.9184L37.9663 36.553L37.603 34.691Z" fill="#5980A6"/>
<path d="M39.4751 34.326L37.6025 34.6914L37.9659 36.5532L39.8384 36.1878L39.4751 34.326Z" fill="#7A99B8"/>
<path d="M41.3482 33.9606L39.4756 34.326L39.839 36.188L41.7115 35.8226L41.3482 33.9606Z" fill="#7A99B8"/>
<path d="M43.2212 33.5952L41.3486 33.9606L41.712 35.8224L43.5845 35.457L43.2212 33.5952Z" fill="black"/>
<path d="M45.0927 33.2296L43.2202 33.595L43.5835 35.4569L45.4561 35.0915L45.0927 33.2296Z" fill="black"/>
<path d="M46.9658 32.8641L45.0933 33.2295L45.4566 35.0914L47.3291 34.726L46.9658 32.8641Z" fill="white"/>
<path d="M17.3691 40.5709L15.4966 40.9363L15.8599 42.7982L17.7324 42.4328L17.3691 40.5709Z" fill="white"/>
<path d="M19.2408 40.2054L17.3682 40.5708L17.7315 42.4328L19.6041 42.0674L19.2408 40.2054Z" fill="white"/>
<path d="M21.1128 39.84L19.2402 40.2054L19.6036 42.0673L21.4761 41.7019L21.1128 39.84Z" fill="white"/>
<path d="M22.9868 39.4746L21.1143 39.84L21.4776 41.7019L23.3501 41.3365L22.9868 39.4746Z" fill="black"/>
<path d="M24.8588 39.1092L22.9863 39.4746L23.3496 41.3365L25.2222 40.9711L24.8588 39.1092Z" fill="black"/>
<path d="M26.7309 38.744L24.8584 39.1094L25.2217 40.9712L27.0942 40.6058L26.7309 38.744Z" fill="#7A99B8"/>
<path d="M28.6025 38.3786L26.73 38.744L27.0933 40.6059L28.9658 40.2405L28.6025 38.3786Z" fill="#7A99B8"/>
<path d="M30.4756 38.0132L28.603 38.3786L28.9663 40.2404L30.8389 39.875L30.4756 38.0132Z" fill="#7A99B8"/>
<path d="M32.3486 37.6477L30.4761 38.0131L30.8394 39.875L32.712 39.5096L32.3486 37.6477Z" fill="#7A99B8"/>
<path d="M34.2207 37.2823L32.3481 37.6477L32.7115 39.5096L34.584 39.1442L34.2207 37.2823Z" fill="#7A99B8"/>
<path d="M36.0947 36.9169L34.2222 37.2823L34.5855 39.1442L36.458 38.7788L36.0947 36.9169Z" fill="#7A99B8"/>
<path d="M37.9668 36.5515L36.0942 36.9169L36.4576 38.7787L38.3301 38.4133L37.9668 36.5515Z" fill="#7A99B8"/>
<path d="M39.8374 36.1863L37.9648 36.5517L38.3282 38.4136L40.2007 38.0482L39.8374 36.1863Z" fill="black"/>
<path d="M41.7119 35.8209L39.8394 36.1863L40.2027 38.0482L42.0752 37.6828L41.7119 35.8209Z" fill="black"/>
<path d="M43.5835 35.4554L41.7109 35.8208L42.0743 37.6827L43.9468 37.3173L43.5835 35.4554Z" fill="white"/>
<path d="M45.4565 35.0898L43.584 35.4552L43.9473 37.3171L45.8198 36.9517L45.4565 35.0898Z" fill="white"/>
<path d="M21.4765 41.7029L19.604 42.0683L19.9673 43.9302L21.8398 43.5648L21.4765 41.7029Z" fill="white"/>
<path d="M23.3506 41.3372L21.478 41.7026L21.8413 43.5646L23.7139 43.1992L23.3506 41.3372Z" fill="white"/>
<path d="M25.2227 40.9718L23.3501 41.3372L23.7134 43.1991L25.586 42.8337L25.2227 40.9718Z" fill="white"/>
<path d="M27.0948 40.6068L25.2222 40.9722L25.5855 42.8341L27.4581 42.4687L27.0948 40.6068Z" fill="black"/>
<path d="M28.9663 40.2414L27.0938 40.6068L27.4571 42.4686L29.3297 42.1032L28.9663 40.2414Z" fill="black"/>
<path d="M30.8383 39.8758L28.9658 40.2412L29.3291 42.1031L31.2017 41.7377L30.8383 39.8758Z" fill="#7A99B8"/>
<path d="M32.7124 39.5103L30.8398 39.8757L31.2032 41.7376L33.0757 41.3722L32.7124 39.5103Z" fill="#7A99B8"/>
<path d="M34.5844 39.1449L32.7119 39.5103L33.0752 41.3722L34.9478 41.0069L34.5844 39.1449Z" fill="#7A99B8"/>
<path d="M36.4565 38.7795L34.584 39.1449L34.9473 41.0068L36.8199 40.6414L36.4565 38.7795Z" fill="black"/>
<path d="M38.3305 38.4141L36.458 38.7795L36.8213 40.6414L38.6938 40.276L38.3305 38.4141Z" fill="black"/>
<path d="M40.2011 38.0489L38.3286 38.4143L38.6919 40.2762L40.5645 39.9108L40.2011 38.0489Z" fill="white"/>
<path d="M42.0742 37.6835L40.2017 38.0489L40.565 39.9108L42.4375 39.5454L42.0742 37.6835Z" fill="white"/>
<path d="M25.5864 42.8346L23.7139 43.2L24.0772 45.0619L25.9497 44.6965L25.5864 42.8346Z" fill="white"/>
<path d="M27.4585 42.4694L25.5859 42.8348L25.9493 44.6967L27.8218 44.3313L27.4585 42.4694Z" fill="white"/>
<path d="M29.33 42.104L27.4575 42.4694L27.8208 44.3313L29.6934 43.9659L29.33 42.104Z" fill="white"/>
<path d="M31.2022 41.7386L29.3296 42.104L29.693 43.9658L31.5655 43.6004L31.2022 41.7386Z" fill="black"/>
<path d="M33.0761 41.3731L31.2036 41.7385L31.5669 43.6005L33.4395 43.2351L33.0761 41.3731Z" fill="black"/>
<path d="M34.9482 41.0078L33.0757 41.3731L33.439 43.235L35.3115 42.8696L34.9482 41.0078Z" fill="black"/>
<path d="M36.8203 40.6423L34.9478 41.0077L35.3111 42.8697L37.1837 42.5043L36.8203 40.6423Z" fill="white"/>
<path d="M38.6944 40.2769L36.8218 40.6423L37.1851 42.5042L39.0577 42.1388L38.6944 40.2769Z" fill="white"/>
<path d="M29.6938 43.9642L27.8213 44.3296L28.1846 46.1916L30.0571 45.8262L29.6938 43.9642Z" fill="white"/>
<path d="M31.5659 43.5988L29.6934 43.9642L30.0567 45.8261L31.9292 45.4607L31.5659 43.5988Z" fill="white"/>
<path d="M33.438 43.2334L31.5654 43.5988L31.9287 45.4607L33.8013 45.0953L33.438 43.2334Z" fill="white"/>
<path d="M35.312 42.868L33.4395 43.2334L33.8028 45.0953L35.6753 44.7299L35.312 42.868Z" fill="white"/>
<path d="M37.1841 42.5026L35.3115 42.868L35.6749 44.7299L37.5474 44.3645L37.1841 42.5026Z" fill="white"/>
</svg>
