<svg width="52" height="48" viewBox="0 0 52 48" fill="none" xmlns="http://www.w3.org/2000/svg">
<g clip-path="url(#clip0_41_156103)">
<path d="M23.2932 0.295044H21.4922V2.06334H23.2932V0.295044Z" fill="black"/>
<path d="M25.094 0.295044H23.293V2.06334H25.094V0.295044Z" fill="black"/>
<path d="M26.8958 0.295044H25.0947V2.06334H26.8958V0.295044Z" fill="black"/>
<path d="M28.6961 0.295044H26.895V2.06334H28.6961V0.295044Z" fill="black"/>
<path d="M30.4978 0.295044H28.6968V2.06334H30.4978V0.295044Z" fill="black"/>
<path d="M32.2986 0.295044H30.4976V2.06334H32.2986V0.295044Z" fill="black"/>
<path d="M34.0999 0.295044H32.2988V2.06334H34.0999V0.295044Z" fill="black"/>
<path d="M19.6912 2.06329H17.8901V3.83159H19.6912V2.06329Z" fill="black"/>
<path d="M21.4929 2.06329H19.6919V3.83159H21.4929V2.06329Z" fill="black"/>
<path d="M23.2932 2.06329H21.4922V3.83159H23.2932V2.06329Z" fill="#1856C9"/>
<path d="M25.094 2.06329H23.293V3.83159H25.094V2.06329Z" fill="#0998FF"/>
<path d="M26.8958 2.06329H25.0947V3.83159H26.8958V2.06329Z" fill="#0998FF"/>
<path d="M28.6961 2.06329H26.895V3.83159H28.6961V2.06329Z" fill="#0998FF"/>
<path d="M30.4978 2.06329H28.6968V3.83159H30.4978V2.06329Z" fill="#0998FF"/>
<path d="M32.2986 2.06329H30.4976V3.83159H32.2986V2.06329Z" fill="#0998FF"/>
<path d="M34.0999 2.06329H32.2988V3.83159H34.0999V2.06329Z" fill="#0998FF"/>
<path d="M35.9007 2.06329H34.0996V3.83159H35.9007V2.06329Z" fill="black"/>
<path d="M37.7024 2.06329H35.9014V3.83159H37.7024V2.06329Z" fill="black"/>
<path d="M17.8909 3.8316H16.0898V5.5999H17.8909V3.8316Z" fill="black"/>
<path d="M19.6912 3.8316H17.8901V5.5999H19.6912V3.8316Z" fill="#1856C9"/>
<path d="M21.4929 3.8316H19.6919V5.5999H21.4929V3.8316Z" fill="#1856C9"/>
<path d="M23.2932 3.8316H21.4922V5.5999H23.2932V3.8316Z" fill="#0998FF"/>
<path d="M25.094 3.8316H23.293V5.5999H25.094V3.8316Z" fill="black"/>
<path d="M26.8958 3.8316H25.0947V5.5999H26.8958V3.8316Z" fill="black"/>
<path d="M28.6961 3.8316H26.895V5.5999H28.6961V3.8316Z" fill="black"/>
<path d="M30.4978 3.8316H28.6968V5.5999H30.4978V3.8316Z" fill="black"/>
<path d="M32.2986 3.8316H30.4976V5.5999H32.2986V3.8316Z" fill="black"/>
<path d="M34.0999 3.8316H32.2988V5.5999H34.0999V3.8316Z" fill="black"/>
<path d="M35.9007 3.8316H34.0996V5.5999H35.9007V3.8316Z" fill="#6EAFFF"/>
<path d="M37.7024 3.8316H35.9014V5.5999H37.7024V3.8316Z" fill="#6EAFFF"/>
<path d="M39.5027 3.8316H37.7017V5.5999H39.5027V3.8316Z" fill="black"/>
<path d="M17.8909 5.59991H16.0898V7.36821H17.8909V5.59991Z" fill="black"/>
<path d="M19.6912 5.59991H17.8901V7.36821H19.6912V5.59991Z" fill="#1856C9"/>
<path d="M21.4929 5.59991H19.6919V7.36821H21.4929V5.59991Z" fill="#6EAFFF"/>
<path d="M23.2932 5.59991H21.4922V7.36821H23.2932V5.59991Z" fill="black"/>
<path d="M35.9007 5.59991H34.0996V7.36821H35.9007V5.59991Z" fill="black"/>
<path d="M37.7024 5.59991H35.9014V7.36821H37.7024V5.59991Z" fill="#6EAFFF"/>
<path d="M39.5027 5.59991H37.7017V7.36821H39.5027V5.59991Z" fill="black"/>
<path d="M5.28346 7.36823H3.48242V9.13652H5.28346V7.36823Z" fill="black"/>
<path d="M7.08424 7.36823H5.2832V9.13652H7.08424V7.36823Z" fill="black"/>
<path d="M8.88454 7.36823H7.0835V9.13652H8.88454V7.36823Z" fill="black"/>
<path d="M10.6863 7.36823H8.88525V9.13652H10.6863V7.36823Z" fill="black"/>
<path d="M12.4866 7.36823H10.6855V9.13652H12.4866V7.36823Z" fill="black"/>
<path d="M14.2883 7.36823H12.4873V9.13652H14.2883V7.36823Z" fill="black"/>
<path d="M16.0891 7.36823H14.2881V9.13652H16.0891V7.36823Z" fill="black"/>
<path d="M17.8909 7.36823H16.0898V9.13652H17.8909V7.36823Z" fill="black"/>
<path d="M19.6912 7.36823H17.8901V9.13652H19.6912V7.36823Z" fill="black"/>
<path d="M21.4929 7.36823H19.6919V9.13652H21.4929V7.36823Z" fill="black"/>
<path d="M23.2932 7.36823H21.4922V9.13652H23.2932V7.36823Z" fill="black"/>
<path d="M25.094 7.36823H23.293V9.13652H25.094V7.36823Z" fill="black"/>
<path d="M26.8958 7.36823H25.0947V9.13652H26.8958V7.36823Z" fill="black"/>
<path d="M28.6961 7.36823H26.895V9.13652H28.6961V7.36823Z" fill="black"/>
<path d="M30.4978 7.36823H28.6968V9.13652H30.4978V7.36823Z" fill="black"/>
<path d="M32.2986 7.36823H30.4976V9.13652H32.2986V7.36823Z" fill="black"/>
<path d="M34.0999 7.36823H32.2988V9.13652H34.0999V7.36823Z" fill="black"/>
<path d="M35.9007 7.36823H34.0996V9.13652H35.9007V7.36823Z" fill="black"/>
<path d="M37.7024 7.36823H35.9014V9.13652H37.7024V7.36823Z" fill="black"/>
<path d="M39.5027 7.36823H37.7017V9.13652H39.5027V7.36823Z" fill="black"/>
<path d="M41.3035 7.36823H39.5024V9.13652H41.3035V7.36823Z" fill="black"/>
<path d="M43.1052 7.36823H41.3042V9.13652H43.1052V7.36823Z" fill="black"/>
<path d="M44.9055 7.36823H43.1045V9.13652H44.9055V7.36823Z" fill="black"/>
<path d="M46.7073 7.36823H44.9062V9.13652H46.7073V7.36823Z" fill="black"/>
<path d="M48.5076 7.36823H46.7065V9.13652H48.5076V7.36823Z" fill="black"/>
<path d="M3.48171 9.13654H1.68066V10.9048H3.48171V9.13654Z" fill="black"/>
<path d="M5.28346 9.13654H3.48242V10.9048H5.28346V9.13654Z" fill="#0998FF"/>
<path d="M7.08424 9.13654H5.2832V10.9048H7.08424V9.13654Z" fill="#6EAFFF"/>
<path d="M8.88454 9.13654H7.0835V10.9048H8.88454V9.13654Z" fill="black"/>
<path d="M10.6863 9.13654H8.88525V10.9048H10.6863V9.13654Z" fill="#B8D7FF"/>
<path d="M12.4866 9.13654H10.6855V10.9048H12.4866V9.13654Z" fill="#B8D7FF"/>
<path d="M14.2883 9.13654H12.4873V10.9048H14.2883V9.13654Z" fill="#B8D7FF"/>
<path d="M16.0891 9.13654H14.2881V10.9048H16.0891V9.13654Z" fill="#B8D7FF"/>
<path d="M17.8909 9.13654H16.0898V10.9048H17.8909V9.13654Z" fill="#B8D7FF"/>
<path d="M19.6912 9.13654H17.8901V10.9048H19.6912V9.13654Z" fill="#B8D7FF"/>
<path d="M21.4929 9.13654H19.6919V10.9048H21.4929V9.13654Z" fill="#B8D7FF"/>
<path d="M23.2932 9.13654H21.4922V10.9048H23.2932V9.13654Z" fill="#B8D7FF"/>
<path d="M25.094 9.13654H23.293V10.9048H25.094V9.13654Z" fill="#B8D7FF"/>
<path d="M26.8958 9.13654H25.0947V10.9048H26.8958V9.13654Z" fill="#B8D7FF"/>
<path d="M28.6961 9.13654H26.895V10.9048H28.6961V9.13654Z" fill="#B8D7FF"/>
<path d="M30.4978 9.13654H28.6968V10.9048H30.4978V9.13654Z" fill="#B8D7FF"/>
<path d="M32.2986 9.13654H30.4976V10.9048H32.2986V9.13654Z" fill="#B8D7FF"/>
<path d="M34.0999 9.13654H32.2988V10.9048H34.0999V9.13654Z" fill="#B8D7FF"/>
<path d="M35.9007 9.13654H34.0996V10.9048H35.9007V9.13654Z" fill="#B8D7FF"/>
<path d="M37.7024 9.13654H35.9014V10.9048H37.7024V9.13654Z" fill="#B8D7FF"/>
<path d="M39.5027 9.13654H37.7017V10.9048H39.5027V9.13654Z" fill="#B8D7FF"/>
<path d="M41.3035 9.13654H39.5024V10.9048H41.3035V9.13654Z" fill="#B8D7FF"/>
<path d="M43.1052 9.13654H41.3042V10.9048H43.1052V9.13654Z" fill="#B8D7FF"/>
<path d="M44.9055 9.13654H43.1045V10.9048H44.9055V9.13654Z" fill="#B8D7FF"/>
<path d="M46.7073 9.13654H44.9062V10.9048H46.7073V9.13654Z" fill="#B8D7FF"/>
<path d="M48.5076 9.13654H46.7065V10.9048H48.5076V9.13654Z" fill="#B8D7FF"/>
<path d="M50.3093 9.13654H48.5083V10.9048H50.3093V9.13654Z" fill="black"/>
<path d="M1.68141 10.9048H-0.119629V12.6731H1.68141V10.9048Z" fill="black"/>
<path d="M3.48171 10.9048H1.68066V12.6731H3.48171V10.9048Z" fill="#1856C9"/>
<path d="M5.28346 10.9048H3.48242V12.6731H5.28346V10.9048Z" fill="#0998FF"/>
<path d="M7.08424 10.9048H5.2832V12.6731H7.08424V10.9048Z" fill="black"/>
<path d="M8.88454 10.9048H7.0835V12.6731H8.88454V10.9048Z" fill="#0998FF"/>
<path d="M10.6863 10.9048H8.88525V12.6731H10.6863V10.9048Z" fill="#6EAFFF"/>
<path d="M12.4866 10.9048H10.6855V12.6731H12.4866V10.9048Z" fill="#6EAFFF"/>
<path d="M14.2883 10.9048H12.4873V12.6731H14.2883V10.9048Z" fill="#6EAFFF"/>
<path d="M16.0891 10.9048H14.2881V12.6731H16.0891V10.9048Z" fill="#6EAFFF"/>
<path d="M17.8909 10.9048H16.0898V12.6731H17.8909V10.9048Z" fill="#6EAFFF"/>
<path d="M19.6912 10.9048H17.8901V12.6731H19.6912V10.9048Z" fill="#6EAFFF"/>
<path d="M21.4929 10.9048H19.6919V12.6731H21.4929V10.9048Z" fill="#6EAFFF"/>
<path d="M23.2932 10.9048H21.4922V12.6731H23.2932V10.9048Z" fill="#6EAFFF"/>
<path d="M25.094 10.9048H23.293V12.6731H25.094V10.9048Z" fill="#6EAFFF"/>
<path d="M26.8958 10.9048H25.0947V12.6731H26.8958V10.9048Z" fill="#6EAFFF"/>
<path d="M28.6961 10.9048H26.895V12.6731H28.6961V10.9048Z" fill="#6EAFFF"/>
<path d="M30.4978 10.9048H28.6968V12.6731H30.4978V10.9048Z" fill="#6EAFFF"/>
<path d="M32.2986 10.9048H30.4976V12.6731H32.2986V10.9048Z" fill="#6EAFFF"/>
<path d="M34.0999 10.9048H32.2988V12.6731H34.0999V10.9048Z" fill="#6EAFFF"/>
<path d="M35.9007 10.9048H34.0996V12.6731H35.9007V10.9048Z" fill="#6EAFFF"/>
<path d="M37.7024 10.9048H35.9014V12.6731H37.7024V10.9048Z" fill="#6EAFFF"/>
<path d="M39.5027 10.9048H37.7017V12.6731H39.5027V10.9048Z" fill="#6EAFFF"/>
<path d="M41.3035 10.9048H39.5024V12.6731H41.3035V10.9048Z" fill="#6EAFFF"/>
<path d="M43.1052 10.9048H41.3042V12.6731H43.1052V10.9048Z" fill="#6EAFFF"/>
<path d="M44.9055 10.9048H43.1045V12.6731H44.9055V10.9048Z" fill="#6EAFFF"/>
<path d="M46.7073 10.9048H44.9062V12.6731H46.7073V10.9048Z" fill="#6EAFFF"/>
<path d="M48.5076 10.9048H46.7065V12.6731H48.5076V10.9048Z" fill="#6EAFFF"/>
<path d="M50.3093 10.9048H48.5083V12.6731H50.3093V10.9048Z" fill="#B8D7FF"/>
<path d="M52.1101 10.9048H50.3091V12.6731H52.1101V10.9048Z" fill="black"/>
<path d="M1.68141 12.6731H-0.119629V14.4414H1.68141V12.6731Z" fill="black"/>
<path d="M3.48171 12.6731H1.68066V14.4414H3.48171V12.6731Z" fill="#1856C9"/>
<path d="M5.28346 12.6731H3.48242V14.4414H5.28346V12.6731Z" fill="#0998FF"/>
<path d="M7.08424 12.6731H5.2832V14.4414H7.08424V12.6731Z" fill="black"/>
<path d="M8.88454 12.6731H7.0835V14.4414H8.88454V12.6731Z" fill="#0998FF"/>
<path d="M10.6863 12.6731H8.88525V14.4414H10.6863V12.6731Z" fill="#6EAFFF"/>
<path d="M12.4866 12.6731H10.6855V14.4414H12.4866V12.6731Z" fill="#B8D7FF"/>
<path d="M14.2883 12.6731H12.4873V14.4414H14.2883V12.6731Z" fill="#6EAFFF"/>
<path d="M16.0891 12.6731H14.2881V14.4414H16.0891V12.6731Z" fill="#B8D7FF"/>
<path d="M17.8909 12.6731H16.0898V14.4414H17.8909V12.6731Z" fill="#6EAFFF"/>
<path d="M19.6912 12.6731H17.8901V14.4414H19.6912V12.6731Z" fill="#B8D7FF"/>
<path d="M21.4929 12.6731H19.6919V14.4414H21.4929V12.6731Z" fill="#6EAFFF"/>
<path d="M23.2932 12.6731H21.4922V14.4414H23.2932V12.6731Z" fill="#B8D7FF"/>
<path d="M25.094 12.6731H23.293V14.4414H25.094V12.6731Z" fill="#6EAFFF"/>
<path d="M26.8958 12.6731H25.0947V14.4414H26.8958V12.6731Z" fill="#B8D7FF"/>
<path d="M28.6961 12.6731H26.895V14.4414H28.6961V12.6731Z" fill="#6EAFFF"/>
<path d="M30.4978 12.6731H28.6968V14.4414H30.4978V12.6731Z" fill="#B8D7FF"/>
<path d="M32.2986 12.6731H30.4976V14.4414H32.2986V12.6731Z" fill="#6EAFFF"/>
<path d="M34.0999 12.6731H32.2988V14.4414H34.0999V12.6731Z" fill="#B8D7FF"/>
<path d="M35.9007 12.6731H34.0996V14.4414H35.9007V12.6731Z" fill="#6EAFFF"/>
<path d="M37.7024 12.6731H35.9014V14.4414H37.7024V12.6731Z" fill="#B8D7FF"/>
<path d="M39.5027 12.6731H37.7017V14.4414H39.5027V12.6731Z" fill="#6EAFFF"/>
<path d="M41.3035 12.6731H39.5024V14.4414H41.3035V12.6731Z" fill="#B8D7FF"/>
<path d="M43.1052 12.6731H41.3042V14.4414H43.1052V12.6731Z" fill="#6EAFFF"/>
<path d="M44.9055 12.6731H43.1045V14.4414H44.9055V12.6731Z" fill="#B8D7FF"/>
<path d="M46.7073 12.6731H44.9062V14.4414H46.7073V12.6731Z" fill="#6EAFFF"/>
<path d="M48.5076 12.6731H46.7065V14.4414H48.5076V12.6731Z" fill="#6EAFFF"/>
<path d="M50.3093 12.6731H48.5083V14.4414H50.3093V12.6731Z" fill="#B8D7FF"/>
<path d="M52.1101 12.6731H50.3091V14.4414H52.1101V12.6731Z" fill="black"/>
<path d="M1.68141 14.4414H-0.119629V16.2097H1.68141V14.4414Z" fill="black"/>
<path d="M3.48171 14.4414H1.68066V16.2097H3.48171V14.4414Z" fill="#1856C9"/>
<path d="M5.28346 14.4414H3.48242V16.2097H5.28346V14.4414Z" fill="#0998FF"/>
<path d="M7.08424 14.4414H5.2832V16.2097H7.08424V14.4414Z" fill="black"/>
<path d="M8.88454 14.4414H7.0835V16.2097H8.88454V14.4414Z" fill="#0998FF"/>
<path d="M10.6863 14.4414H8.88525V16.2097H10.6863V14.4414Z" fill="#6EAFFF"/>
<path d="M12.4866 14.4414H10.6855V16.2097H12.4866V14.4414Z" fill="#B8D7FF"/>
<path d="M14.2883 14.4414H12.4873V16.2097H14.2883V14.4414Z" fill="#6EAFFF"/>
<path d="M16.0891 14.4414H14.2881V16.2097H16.0891V14.4414Z" fill="#6EAFFF"/>
<path d="M17.8909 14.4414H16.0898V16.2097H17.8909V14.4414Z" fill="#6EAFFF"/>
<path d="M19.6912 14.4414H17.8901V16.2097H19.6912V14.4414Z" fill="#6EAFFF"/>
<path d="M21.4929 14.4414H19.6919V16.2097H21.4929V14.4414Z" fill="#6EAFFF"/>
<path d="M23.2932 14.4414H21.4922V16.2097H23.2932V14.4414Z" fill="#6EAFFF"/>
<path d="M25.094 14.4414H23.293V16.2097H25.094V14.4414Z" fill="#6EAFFF"/>
<path d="M26.8958 14.4414H25.0947V16.2097H26.8958V14.4414Z" fill="#6EAFFF"/>
<path d="M28.6961 14.4414H26.895V16.2097H28.6961V14.4414Z" fill="#6EAFFF"/>
<path d="M30.4978 14.4414H28.6968V16.2097H30.4978V14.4414Z" fill="#6EAFFF"/>
<path d="M32.2986 14.4414H30.4976V16.2097H32.2986V14.4414Z" fill="#6EAFFF"/>
<path d="M34.0999 14.4414H32.2988V16.2097H34.0999V14.4414Z" fill="#6EAFFF"/>
<path d="M35.9007 14.4414H34.0996V16.2097H35.9007V14.4414Z" fill="#6EAFFF"/>
<path d="M37.7024 14.4414H35.9014V16.2097H37.7024V14.4414Z" fill="#6EAFFF"/>
<path d="M39.5027 14.4414H37.7017V16.2097H39.5027V14.4414Z" fill="#6EAFFF"/>
<path d="M41.3035 14.4414H39.5024V16.2097H41.3035V14.4414Z" fill="#6EAFFF"/>
<path d="M43.1052 14.4414H41.3042V16.2097H43.1052V14.4414Z" fill="#6EAFFF"/>
<path d="M44.9055 14.4414H43.1045V16.2097H44.9055V14.4414Z" fill="#6EAFFF"/>
<path d="M46.7073 14.4414H44.9062V16.2097H46.7073V14.4414Z" fill="#B8D7FF"/>
<path d="M48.5076 14.4414H46.7065V16.2097H48.5076V14.4414Z" fill="#6EAFFF"/>
<path d="M50.3093 14.4414H48.5083V16.2097H50.3093V14.4414Z" fill="#B8D7FF"/>
<path d="M52.1101 14.4414H50.3091V16.2097H52.1101V14.4414Z" fill="black"/>
<path d="M1.68141 16.2097H-0.119629V17.978H1.68141V16.2097Z" fill="black"/>
<path d="M3.48171 16.2097H1.68066V17.978H3.48171V16.2097Z" fill="#1856C9"/>
<path d="M5.28346 16.2097H3.48242V17.978H5.28346V16.2097Z" fill="#0998FF"/>
<path d="M7.08424 16.2097H5.2832V17.978H7.08424V16.2097Z" fill="black"/>
<path d="M8.88454 16.2097H7.0835V17.978H8.88454V16.2097Z" fill="#0998FF"/>
<path d="M10.6863 16.2097H8.88525V17.978H10.6863V16.2097Z" fill="#6EAFFF"/>
<path d="M12.4866 16.2097H10.6855V17.978H12.4866V16.2097Z" fill="#6EAFFF"/>
<path d="M14.2883 16.2097H12.4873V17.978H14.2883V16.2097Z" fill="#B8D7FF"/>
<path d="M16.0891 16.2097H14.2881V17.978H16.0891V16.2097Z" fill="#6EAFFF"/>
<path d="M17.8909 16.2097H16.0898V17.978H17.8909V16.2097Z" fill="#B8D7FF"/>
<path d="M19.6912 16.2097H17.8901V17.978H19.6912V16.2097Z" fill="#6EAFFF"/>
<path d="M21.4929 16.2097H19.6919V17.978H21.4929V16.2097Z" fill="#B8D7FF"/>
<path d="M23.2932 16.2097H21.4922V17.978H23.2932V16.2097Z" fill="#6EAFFF"/>
<path d="M25.094 16.2097H23.293V17.978H25.094V16.2097Z" fill="#B8D7FF"/>
<path d="M26.8958 16.2097H25.0947V17.978H26.8958V16.2097Z" fill="#6EAFFF"/>
<path d="M28.6961 16.2097H26.895V17.978H28.6961V16.2097Z" fill="#B8D7FF"/>
<path d="M30.4978 16.2097H28.6968V17.978H30.4978V16.2097Z" fill="#6EAFFF"/>
<path d="M32.2986 16.2097H30.4976V17.978H32.2986V16.2097Z" fill="#B8D7FF"/>
<path d="M34.0999 16.2097H32.2988V17.978H34.0999V16.2097Z" fill="#6EAFFF"/>
<path d="M35.9007 16.2097H34.0996V17.978H35.9007V16.2097Z" fill="#B8D7FF"/>
<path d="M37.7024 16.2097H35.9014V17.978H37.7024V16.2097Z" fill="#6EAFFF"/>
<path d="M39.5027 16.2097H37.7017V17.978H39.5027V16.2097Z" fill="#B8D7FF"/>
<path d="M41.3035 16.2097H39.5024V17.978H41.3035V16.2097Z" fill="#6EAFFF"/>
<path d="M43.1052 16.2097H41.3042V17.978H43.1052V16.2097Z" fill="#B8D7FF"/>
<path d="M44.9055 16.2097H43.1045V17.978H44.9055V16.2097Z" fill="#6EAFFF"/>
<path d="M46.7073 16.2097H44.9062V17.978H46.7073V16.2097Z" fill="#B8D7FF"/>
<path d="M48.5076 16.2097H46.7065V17.978H48.5076V16.2097Z" fill="#6EAFFF"/>
<path d="M50.3093 16.2097H48.5083V17.978H50.3093V16.2097Z" fill="#B8D7FF"/>
<path d="M52.1101 16.2097H50.3091V17.978H52.1101V16.2097Z" fill="black"/>
<path d="M1.68141 17.978H-0.119629V19.7463H1.68141V17.978Z" fill="black"/>
<path d="M3.48171 17.978H1.68066V19.7463H3.48171V17.978Z" fill="#1856C9"/>
<path d="M5.28346 17.978H3.48242V19.7463H5.28346V17.978Z" fill="#0998FF"/>
<path d="M7.08424 17.978H5.2832V19.7463H7.08424V17.978Z" fill="black"/>
<path d="M8.88454 17.978H7.0835V19.7463H8.88454V17.978Z" fill="#0998FF"/>
<path d="M10.6863 17.978H8.88525V19.7463H10.6863V17.978Z" fill="#6EAFFF"/>
<path d="M12.4866 17.978H10.6855V19.7463H12.4866V17.978Z" fill="#6EAFFF"/>
<path d="M14.2883 17.978H12.4873V19.7463H14.2883V17.978Z" fill="#6EAFFF"/>
<path d="M16.0891 17.978H14.2881V19.7463H16.0891V17.978Z" fill="#6EAFFF"/>
<path d="M17.8909 17.978H16.0898V19.7463H17.8909V17.978Z" fill="#6EAFFF"/>
<path d="M19.6912 17.978H17.8901V19.7463H19.6912V17.978Z" fill="#6EAFFF"/>
<path d="M21.4929 17.978H19.6919V19.7463H21.4929V17.978Z" fill="#6EAFFF"/>
<path d="M23.2932 17.978H21.4922V19.7463H23.2932V17.978Z" fill="#6EAFFF"/>
<path d="M25.094 17.978H23.293V19.7463H25.094V17.978Z" fill="#6EAFFF"/>
<path d="M26.8958 17.978H25.0947V19.7463H26.8958V17.978Z" fill="#6EAFFF"/>
<path d="M28.6961 17.978H26.895V19.7463H28.6961V17.978Z" fill="#6EAFFF"/>
<path d="M30.4978 17.978H28.6968V19.7463H30.4978V17.978Z" fill="#6EAFFF"/>
<path d="M32.2986 17.978H30.4976V19.7463H32.2986V17.978Z" fill="#6EAFFF"/>
<path d="M34.0999 17.978H32.2988V19.7463H34.0999V17.978Z" fill="#6EAFFF"/>
<path d="M35.9007 17.978H34.0996V19.7463H35.9007V17.978Z" fill="#6EAFFF"/>
<path d="M37.7024 17.978H35.9014V19.7463H37.7024V17.978Z" fill="#6EAFFF"/>
<path d="M39.5027 17.978H37.7017V19.7463H39.5027V17.978Z" fill="#6EAFFF"/>
<path d="M41.3035 17.978H39.5024V19.7463H41.3035V17.978Z" fill="#6EAFFF"/>
<path d="M43.1052 17.978H41.3042V19.7463H43.1052V17.978Z" fill="#6EAFFF"/>
<path d="M44.9055 17.978H43.1045V19.7463H44.9055V17.978Z" fill="#6EAFFF"/>
<path d="M46.7073 17.978H44.9062V19.7463H46.7073V17.978Z" fill="#6EAFFF"/>
<path d="M48.5076 17.978H46.7065V19.7463H48.5076V17.978Z" fill="#6EAFFF"/>
<path d="M50.3093 17.978H48.5083V19.7463H50.3093V17.978Z" fill="#B8D7FF"/>
<path d="M52.1101 17.978H50.3091V19.7463H52.1101V17.978Z" fill="black"/>
<path d="M1.68141 19.7463H-0.119629V21.5146H1.68141V19.7463Z" fill="black"/>
<path d="M3.48171 19.7463H1.68066V21.5146H3.48171V19.7463Z" fill="#1856C9"/>
<path d="M5.28346 19.7463H3.48242V21.5146H5.28346V19.7463Z" fill="#0998FF"/>
<path d="M7.08424 19.7463H5.2832V21.5146H7.08424V19.7463Z" fill="black"/>
<path d="M8.88454 19.7463H7.0835V21.5146H8.88454V19.7463Z" fill="#0998FF"/>
<path d="M10.6863 19.7463H8.88525V21.5146H10.6863V19.7463Z" fill="#6EAFFF"/>
<path d="M12.4866 19.7463H10.6855V21.5146H12.4866V19.7463Z" fill="#6EAFFF"/>
<path d="M14.2883 19.7463H12.4873V21.5146H14.2883V19.7463Z" fill="#6EAFFF"/>
<path d="M16.0891 19.7463H14.2881V21.5146H16.0891V19.7463Z" fill="#6EAFFF"/>
<path d="M17.8909 19.7463H16.0898V21.5146H17.8909V19.7463Z" fill="#6EAFFF"/>
<path d="M19.6912 19.7463H17.8901V21.5146H19.6912V19.7463Z" fill="#6EAFFF"/>
<path d="M21.4929 19.7463H19.6919V21.5146H21.4929V19.7463Z" fill="#6EAFFF"/>
<path d="M23.2932 19.7463H21.4922V21.5146H23.2932V19.7463Z" fill="#6EAFFF"/>
<path d="M25.094 19.7463H23.293V21.5146H25.094V19.7463Z" fill="#6EAFFF"/>
<path d="M26.8958 19.7463H25.0947V21.5146H26.8958V19.7463Z" fill="#6EAFFF"/>
<path d="M28.6961 19.7463H26.895V21.5146H28.6961V19.7463Z" fill="#6EAFFF"/>
<path d="M30.4978 19.7463H28.6968V21.5146H30.4978V19.7463Z" fill="#6EAFFF"/>
<path d="M32.2986 19.7463H30.4976V21.5146H32.2986V19.7463Z" fill="#6EAFFF"/>
<path d="M34.0999 19.7463H32.2988V21.5146H34.0999V19.7463Z" fill="#6EAFFF"/>
<path d="M35.9007 19.7463H34.0996V21.5146H35.9007V19.7463Z" fill="#6EAFFF"/>
<path d="M37.7024 19.7463H35.9014V21.5146H37.7024V19.7463Z" fill="#6EAFFF"/>
<path d="M39.5027 19.7463H37.7017V21.5146H39.5027V19.7463Z" fill="#6EAFFF"/>
<path d="M41.3035 19.7463H39.5024V21.5146H41.3035V19.7463Z" fill="#6EAFFF"/>
<path d="M43.1052 19.7463H41.3042V21.5146H43.1052V19.7463Z" fill="#6EAFFF"/>
<path d="M44.9055 19.7463H43.1045V21.5146H44.9055V19.7463Z" fill="#6EAFFF"/>
<path d="M46.7073 19.7463H44.9062V21.5146H46.7073V19.7463Z" fill="#6EAFFF"/>
<path d="M48.5076 19.7463H46.7065V21.5146H48.5076V19.7463Z" fill="#6EAFFF"/>
<path d="M50.3093 19.7463H48.5083V21.5146H50.3093V19.7463Z" fill="#B8D7FF"/>
<path d="M52.1101 19.7463H50.3091V21.5146H52.1101V19.7463Z" fill="black"/>
<path d="M1.68141 21.5146H-0.119629V23.2829H1.68141V21.5146Z" fill="black"/>
<path d="M3.48171 21.5146H1.68066V23.2829H3.48171V21.5146Z" fill="#1856C9"/>
<path d="M5.28346 21.5146H3.48242V23.2829H5.28346V21.5146Z" fill="#0998FF"/>
<path d="M7.08424 21.5146H5.2832V23.2829H7.08424V21.5146Z" fill="black"/>
<path d="M8.88454 21.5146H7.0835V23.2829H8.88454V21.5146Z" fill="#0998FF"/>
<path d="M10.6863 21.5146H8.88525V23.2829H10.6863V21.5146Z" fill="#6EAFFF"/>
<path d="M12.4866 21.5146H10.6855V23.2829H12.4866V21.5146Z" fill="#6EAFFF"/>
<path d="M14.2883 21.5146H12.4873V23.2829H14.2883V21.5146Z" fill="#B8D7FF"/>
<path d="M16.0891 21.5146H14.2881V23.2829H16.0891V21.5146Z" fill="#6EAFFF"/>
<path d="M17.8909 21.5146H16.0898V23.2829H17.8909V21.5146Z" fill="#B8D7FF"/>
<path d="M19.6912 21.5146H17.8901V23.2829H19.6912V21.5146Z" fill="#6EAFFF"/>
<path d="M21.4929 21.5146H19.6919V23.2829H21.4929V21.5146Z" fill="#B8D7FF"/>
<path d="M23.2932 21.5146H21.4922V23.2829H23.2932V21.5146Z" fill="#6EAFFF"/>
<path d="M25.094 21.5146H23.293V23.2829H25.094V21.5146Z" fill="#6EAFFF"/>
<path d="M26.8958 21.5146H25.0947V23.2829H26.8958V21.5146Z" fill="#6EAFFF"/>
<path d="M28.6961 21.5146H26.895V23.2829H28.6961V21.5146Z" fill="#6EAFFF"/>
<path d="M30.4978 21.5146H28.6968V23.2829H30.4978V21.5146Z" fill="#6EAFFF"/>
<path d="M32.2986 21.5146H30.4976V23.2829H32.2986V21.5146Z" fill="#6EAFFF"/>
<path d="M34.0999 21.5146H32.2988V23.2829H34.0999V21.5146Z" fill="#6EAFFF"/>
<path d="M35.9007 21.5146H34.0996V23.2829H35.9007V21.5146Z" fill="#6EAFFF"/>
<path d="M37.7024 21.5146H35.9014V23.2829H37.7024V21.5146Z" fill="#6EAFFF"/>
<path d="M39.5027 21.5146H37.7017V23.2829H39.5027V21.5146Z" fill="#B8D7FF"/>
<path d="M41.3035 21.5146H39.5024V23.2829H41.3035V21.5146Z" fill="#6EAFFF"/>
<path d="M43.1052 21.5146H41.3042V23.2829H43.1052V21.5146Z" fill="#B8D7FF"/>
<path d="M44.9055 21.5146H43.1045V23.2829H44.9055V21.5146Z" fill="#6EAFFF"/>
<path d="M46.7073 21.5146H44.9062V23.2829H46.7073V21.5146Z" fill="#B8D7FF"/>
<path d="M48.5076 21.5146H46.7065V23.2829H48.5076V21.5146Z" fill="#6EAFFF"/>
<path d="M50.3093 21.5146H48.5083V23.2829H50.3093V21.5146Z" fill="#B8D7FF"/>
<path d="M52.1101 21.5146H50.3091V23.2829H52.1101V21.5146Z" fill="black"/>
<path d="M1.68141 23.2829H-0.119629V25.0512H1.68141V23.2829Z" fill="black"/>
<path d="M3.48171 23.2829H1.68066V25.0512H3.48171V23.2829Z" fill="#1856C9"/>
<path d="M5.28346 23.2829H3.48242V25.0512H5.28346V23.2829Z" fill="#0998FF"/>
<path d="M7.08424 23.2829H5.2832V25.0512H7.08424V23.2829Z" fill="black"/>
<path d="M8.88454 23.2829H7.0835V25.0512H8.88454V23.2829Z" fill="#0998FF"/>
<path d="M10.6863 23.2829H8.88525V25.0512H10.6863V23.2829Z" fill="#6EAFFF"/>
<path d="M12.4866 23.2829H10.6855V25.0512H12.4866V23.2829Z" fill="#B8D7FF"/>
<path d="M14.2883 23.2829H12.4873V25.0512H14.2883V23.2829Z" fill="#6EAFFF"/>
<path d="M16.0891 23.2829H14.2881V25.0512H16.0891V23.2829Z" fill="#B8D7FF"/>
<path d="M17.8909 23.2829H16.0898V25.0512H17.8909V23.2829Z" fill="#6EAFFF"/>
<path d="M19.6912 23.2829H17.8901V25.0512H19.6912V23.2829Z" fill="#B8D7FF"/>
<path d="M21.4929 23.2829H19.6919V25.0512H21.4929V23.2829Z" fill="#6EAFFF"/>
<path d="M23.2932 23.2829H21.4922V25.0512H23.2932V23.2829Z" fill="#6EAFFF"/>
<path d="M25.094 23.2829H23.293V25.0512H25.094V23.2829Z" fill="#6EAFFF"/>
<path d="M26.8958 23.2829H25.0947V25.0512H26.8958V23.2829Z" fill="black"/>
<path d="M28.6961 23.2829H26.895V25.0512H28.6961V23.2829Z" fill="black"/>
<path d="M30.4978 23.2829H28.6968V25.0512H30.4978V23.2829Z" fill="black"/>
<path d="M32.2986 23.2829H30.4976V25.0512H32.2986V23.2829Z" fill="black"/>
<path d="M34.0999 23.2829H32.2988V25.0512H34.0999V23.2829Z" fill="#6EAFFF"/>
<path d="M35.9007 23.2829H34.0996V25.0512H35.9007V23.2829Z" fill="#6EAFFF"/>
<path d="M37.7024 23.2829H35.9014V25.0512H37.7024V23.2829Z" fill="#B8D7FF"/>
<path d="M39.5027 23.2829H37.7017V25.0512H39.5027V23.2829Z" fill="#6EAFFF"/>
<path d="M41.3035 23.2829H39.5024V25.0512H41.3035V23.2829Z" fill="#B8D7FF"/>
<path d="M43.1052 23.2829H41.3042V25.0512H43.1052V23.2829Z" fill="#6EAFFF"/>
<path d="M44.9055 23.2829H43.1045V25.0512H44.9055V23.2829Z" fill="#B8D7FF"/>
<path d="M46.7073 23.2829H44.9062V25.0512H46.7073V23.2829Z" fill="#6EAFFF"/>
<path d="M48.5076 23.2829H46.7065V25.0512H48.5076V23.2829Z" fill="#6EAFFF"/>
<path d="M50.3093 23.2829H48.5083V25.0512H50.3093V23.2829Z" fill="#B8D7FF"/>
<path d="M52.1101 23.2829H50.3091V25.0512H52.1101V23.2829Z" fill="black"/>
<path d="M1.68141 25.0511H-0.119629V26.8194H1.68141V25.0511Z" fill="black"/>
<path d="M3.48171 25.0511H1.68066V26.8194H3.48171V25.0511Z" fill="#1856C9"/>
<path d="M5.28346 25.0511H3.48242V26.8194H5.28346V25.0511Z" fill="#0998FF"/>
<path d="M7.08424 25.0511H5.2832V26.8194H7.08424V25.0511Z" fill="black"/>
<path d="M8.88454 25.0511H7.0835V26.8194H8.88454V25.0511Z" fill="#0998FF"/>
<path d="M10.6863 25.0511H8.88525V26.8194H10.6863V25.0511Z" fill="#6EAFFF"/>
<path d="M12.4866 25.0511H10.6855V26.8194H12.4866V25.0511Z" fill="#6EAFFF"/>
<path d="M14.2883 25.0511H12.4873V26.8194H14.2883V25.0511Z" fill="#6EAFFF"/>
<path d="M16.0891 25.0511H14.2881V26.8194H16.0891V25.0511Z" fill="#6EAFFF"/>
<path d="M17.8909 25.0511H16.0898V26.8194H17.8909V25.0511Z" fill="#6EAFFF"/>
<path d="M19.6912 25.0511H17.8901V26.8194H19.6912V25.0511Z" fill="#6EAFFF"/>
<path d="M21.4929 25.0511H19.6919V26.8194H21.4929V25.0511Z" fill="#6EAFFF"/>
<path d="M23.2932 25.0511H21.4922V26.8194H23.2932V25.0511Z" fill="#6EAFFF"/>
<path d="M25.094 25.0511H23.293V26.8194H25.094V25.0511Z" fill="black"/>
<path d="M26.8958 25.0511H25.0947V26.8194H26.8958V25.0511Z" fill="#0998FF"/>
<path d="M28.6961 25.0511H26.895V26.8194H28.6961V25.0511Z" fill="#6EAFFF"/>
<path d="M30.4978 25.0511H28.6968V26.8194H30.4978V25.0511Z" fill="#6EAFFF"/>
<path d="M32.2986 25.0511H30.4976V26.8194H32.2986V25.0511Z" fill="#6EAFFF"/>
<path d="M34.0999 25.0511H32.2988V26.8194H34.0999V25.0511Z" fill="black"/>
<path d="M35.9007 25.0511H34.0996V26.8194H35.9007V25.0511Z" fill="#6EAFFF"/>
<path d="M37.7024 25.0511H35.9014V26.8194H37.7024V25.0511Z" fill="#6EAFFF"/>
<path d="M39.5027 25.0511H37.7017V26.8194H39.5027V25.0511Z" fill="#6EAFFF"/>
<path d="M41.3035 25.0511H39.5024V26.8194H41.3035V25.0511Z" fill="#6EAFFF"/>
<path d="M43.1052 25.0511H41.3042V26.8194H43.1052V25.0511Z" fill="#6EAFFF"/>
<path d="M44.9055 25.0511H43.1045V26.8194H44.9055V25.0511Z" fill="#6EAFFF"/>
<path d="M46.7073 25.0511H44.9062V26.8194H46.7073V25.0511Z" fill="#6EAFFF"/>
<path d="M48.5076 25.0511H46.7065V26.8194H48.5076V25.0511Z" fill="#6EAFFF"/>
<path d="M50.3093 25.0511H48.5083V26.8194H50.3093V25.0511Z" fill="#B8D7FF"/>
<path d="M52.1101 25.0511H50.3091V26.8194H52.1101V25.0511Z" fill="black"/>
<path d="M1.68141 26.8195H-0.119629V28.5878H1.68141V26.8195Z" fill="black"/>
<path d="M3.48171 26.8195H1.68066V28.5878H3.48171V26.8195Z" fill="#1856C9"/>
<path d="M5.28346 26.8195H3.48242V28.5878H5.28346V26.8195Z" fill="#0998FF"/>
<path d="M7.08424 26.8195H5.2832V28.5878H7.08424V26.8195Z" fill="black"/>
<path d="M8.88454 26.8195H7.0835V28.5878H8.88454V26.8195Z" fill="black"/>
<path d="M10.6863 26.8195H8.88525V28.5878H10.6863V26.8195Z" fill="#0998FF"/>
<path d="M12.4866 26.8195H10.6855V28.5878H12.4866V26.8195Z" fill="#0998FF"/>
<path d="M14.2883 26.8195H12.4873V28.5878H14.2883V26.8195Z" fill="#0998FF"/>
<path d="M16.0891 26.8195H14.2881V28.5878H16.0891V26.8195Z" fill="#0998FF"/>
<path d="M17.8909 26.8195H16.0898V28.5878H17.8909V26.8195Z" fill="#0998FF"/>
<path d="M19.6912 26.8195H17.8901V28.5878H19.6912V26.8195Z" fill="#0998FF"/>
<path d="M21.4929 26.8195H19.6919V28.5878H21.4929V26.8195Z" fill="#0998FF"/>
<path d="M23.2932 26.8195H21.4922V28.5878H23.2932V26.8195Z" fill="#0998FF"/>
<path d="M25.094 26.8195H23.293V28.5878H25.094V26.8195Z" fill="#1856C9"/>
<path d="M26.8958 26.8195H25.0947V28.5878H26.8958V26.8195Z" fill="black"/>
<path d="M28.6961 26.8195H26.895V28.5878H28.6961V26.8195Z" fill="#0998FF"/>
<path d="M30.4978 26.8195H28.6968V28.5878H30.4978V26.8195Z" fill="#6EAFFF"/>
<path d="M32.2986 26.8195H30.4976V28.5878H32.2986V26.8195Z" fill="#6EAFFF"/>
<path d="M34.0999 26.8195H32.2988V28.5878H34.0999V26.8195Z" fill="black"/>
<path d="M35.9007 26.8195H34.0996V28.5878H35.9007V26.8195Z" fill="#0998FF"/>
<path d="M37.7024 26.8195H35.9014V28.5878H37.7024V26.8195Z" fill="#0998FF"/>
<path d="M39.5027 26.8195H37.7017V28.5878H39.5027V26.8195Z" fill="#0998FF"/>
<path d="M41.3035 26.8195H39.5024V28.5878H41.3035V26.8195Z" fill="#0998FF"/>
<path d="M43.1052 26.8195H41.3042V28.5878H43.1052V26.8195Z" fill="#0998FF"/>
<path d="M44.9055 26.8195H43.1045V28.5878H44.9055V26.8195Z" fill="#0998FF"/>
<path d="M46.7073 26.8195H44.9062V28.5878H46.7073V26.8195Z" fill="#0998FF"/>
<path d="M48.5076 26.8195H46.7065V28.5878H48.5076V26.8195Z" fill="#0998FF"/>
<path d="M50.3093 26.8195H48.5083V28.5878H50.3093V26.8195Z" fill="black"/>
<path d="M52.1101 26.8195H50.3091V28.5878H52.1101V26.8195Z" fill="black"/>
<path d="M1.68141 28.5878H-0.119629V30.3561H1.68141V28.5878Z" fill="black"/>
<path d="M3.48171 28.5878H1.68066V30.3561H3.48171V28.5878Z" fill="#1856C9"/>
<path d="M5.28346 28.5878H3.48242V30.3561H5.28346V28.5878Z" fill="#0998FF"/>
<path d="M7.08424 28.5878H5.2832V30.3561H7.08424V28.5878Z" fill="black"/>
<path d="M8.88454 28.5878H7.0835V30.3561H8.88454V28.5878Z" fill="#1856C9"/>
<path d="M10.6863 28.5878H8.88525V30.3561H10.6863V28.5878Z" fill="black"/>
<path d="M12.4866 28.5878H10.6855V30.3561H12.4866V28.5878Z" fill="black"/>
<path d="M14.2883 28.5878H12.4873V30.3561H14.2883V28.5878Z" fill="black"/>
<path d="M16.0891 28.5878H14.2881V30.3561H16.0891V28.5878Z" fill="black"/>
<path d="M17.8909 28.5878H16.0898V30.3561H17.8909V28.5878Z" fill="black"/>
<path d="M19.6912 28.5878H17.8901V30.3561H19.6912V28.5878Z" fill="black"/>
<path d="M21.4929 28.5878H19.6919V30.3561H21.4929V28.5878Z" fill="black"/>
<path d="M23.2932 28.5878H21.4922V30.3561H23.2932V28.5878Z" fill="black"/>
<path d="M25.094 28.5878H23.293V30.3561H25.094V28.5878Z" fill="black"/>
<path d="M26.8958 28.5878H25.0947V30.3561H26.8958V28.5878Z" fill="black"/>
<path d="M28.6961 28.5878H26.895V30.3561H28.6961V28.5878Z" fill="#0998FF"/>
<path d="M30.4978 28.5878H28.6968V30.3561H30.4978V28.5878Z" fill="#6EAFFF"/>
<path d="M32.2986 28.5878H30.4976V30.3561H32.2986V28.5878Z" fill="#6EAFFF"/>
<path d="M34.0999 28.5878H32.2988V30.3561H34.0999V28.5878Z" fill="black"/>
<path d="M35.9007 28.5878H34.0996V30.3561H35.9007V28.5878Z" fill="black"/>
<path d="M37.7024 28.5878H35.9014V30.3561H37.7024V28.5878Z" fill="black"/>
<path d="M39.5027 28.5878H37.7017V30.3561H39.5027V28.5878Z" fill="black"/>
<path d="M41.3035 28.5878H39.5024V30.3561H41.3035V28.5878Z" fill="black"/>
<path d="M43.1052 28.5878H41.3042V30.3561H43.1052V28.5878Z" fill="black"/>
<path d="M44.9055 28.5878H43.1045V30.3561H44.9055V28.5878Z" fill="black"/>
<path d="M46.7073 28.5878H44.9062V30.3561H46.7073V28.5878Z" fill="black"/>
<path d="M48.5076 28.5878H46.7065V30.3561H48.5076V28.5878Z" fill="black"/>
<path d="M50.3093 28.5878H48.5083V30.3561H50.3093V28.5878Z" fill="#6EAFFF"/>
<path d="M52.1101 28.5878H50.3091V30.3561H52.1101V28.5878Z" fill="black"/>
<path d="M1.68141 30.3561H-0.119629V32.1244H1.68141V30.3561Z" fill="black"/>
<path d="M3.48171 30.3561H1.68066V32.1244H3.48171V30.3561Z" fill="#1856C9"/>
<path d="M5.28346 30.3561H3.48242V32.1244H5.28346V30.3561Z" fill="#0998FF"/>
<path d="M7.08424 30.3561H5.2832V32.1244H7.08424V30.3561Z" fill="black"/>
<path d="M8.88454 30.3561H7.0835V32.1244H8.88454V30.3561Z" fill="#0998FF"/>
<path d="M10.6863 30.3561H8.88525V32.1244H10.6863V30.3561Z" fill="#1856C9"/>
<path d="M12.4866 30.3561H10.6855V32.1244H12.4866V30.3561Z" fill="#1856C9"/>
<path d="M14.2883 30.3561H12.4873V32.1244H14.2883V30.3561Z" fill="#1856C9"/>
<path d="M16.0891 30.3561H14.2881V32.1244H16.0891V30.3561Z" fill="#1856C9"/>
<path d="M17.8909 30.3561H16.0898V32.1244H17.8909V30.3561Z" fill="#1856C9"/>
<path d="M19.6912 30.3561H17.8901V32.1244H19.6912V30.3561Z" fill="#1856C9"/>
<path d="M21.4929 30.3561H19.6919V32.1244H21.4929V30.3561Z" fill="#1856C9"/>
<path d="M23.2932 30.3561H21.4922V32.1244H23.2932V30.3561Z" fill="#1856C9"/>
<path d="M25.094 30.3561H23.293V32.1244H25.094V30.3561Z" fill="#1856C9"/>
<path d="M26.8958 30.3561H25.0947V32.1244H26.8958V30.3561Z" fill="black"/>
<path d="M28.6961 30.3561H26.895V32.1244H28.6961V30.3561Z" fill="#0998FF"/>
<path d="M30.4978 30.3561H28.6968V32.1244H30.4978V30.3561Z" fill="#0998FF"/>
<path d="M32.2986 30.3561H30.4976V32.1244H32.2986V30.3561Z" fill="#0998FF"/>
<path d="M34.0999 30.3561H32.2988V32.1244H34.0999V30.3561Z" fill="black"/>
<path d="M35.9007 30.3561H34.0996V32.1244H35.9007V30.3561Z" fill="#1856C9"/>
<path d="M37.7024 30.3561H35.9014V32.1244H37.7024V30.3561Z" fill="#1856C9"/>
<path d="M39.5027 30.3561H37.7017V32.1244H39.5027V30.3561Z" fill="#1856C9"/>
<path d="M41.3035 30.3561H39.5024V32.1244H41.3035V30.3561Z" fill="#1856C9"/>
<path d="M43.1052 30.3561H41.3042V32.1244H43.1052V30.3561Z" fill="#1856C9"/>
<path d="M44.9055 30.3561H43.1045V32.1244H44.9055V30.3561Z" fill="#1856C9"/>
<path d="M46.7073 30.3561H44.9062V32.1244H46.7073V30.3561Z" fill="#1856C9"/>
<path d="M48.5076 30.3561H46.7065V32.1244H48.5076V30.3561Z" fill="#1856C9"/>
<path d="M50.3093 30.3561H48.5083V32.1244H50.3093V30.3561Z" fill="#B8D7FF"/>
<path d="M52.1101 30.3561H50.3091V32.1244H52.1101V30.3561Z" fill="black"/>
<path d="M1.68141 32.1243H-0.119629V33.8926H1.68141V32.1243Z" fill="black"/>
<path d="M3.48171 32.1243H1.68066V33.8926H3.48171V32.1243Z" fill="#1856C9"/>
<path d="M5.28346 32.1243H3.48242V33.8926H5.28346V32.1243Z" fill="#0998FF"/>
<path d="M7.08424 32.1243H5.2832V33.8926H7.08424V32.1243Z" fill="black"/>
<path d="M8.88454 32.1243H7.0835V33.8926H8.88454V32.1243Z" fill="#0998FF"/>
<path d="M10.6863 32.1243H8.88525V33.8926H10.6863V32.1243Z" fill="#6EAFFF"/>
<path d="M12.4866 32.1243H10.6855V33.8926H12.4866V32.1243Z" fill="#6EAFFF"/>
<path d="M14.2883 32.1243H12.4873V33.8926H14.2883V32.1243Z" fill="#6EAFFF"/>
<path d="M16.0891 32.1243H14.2881V33.8926H16.0891V32.1243Z" fill="#6EAFFF"/>
<path d="M17.8909 32.1243H16.0898V33.8926H17.8909V32.1243Z" fill="#6EAFFF"/>
<path d="M19.6912 32.1243H17.8901V33.8926H19.6912V32.1243Z" fill="#6EAFFF"/>
<path d="M21.4929 32.1243H19.6919V33.8926H21.4929V32.1243Z" fill="#6EAFFF"/>
<path d="M23.2932 32.1243H21.4922V33.8926H23.2932V32.1243Z" fill="#6EAFFF"/>
<path d="M25.094 32.1243H23.293V33.8926H25.094V32.1243Z" fill="#6EAFFF"/>
<path d="M26.8958 32.1243H25.0947V33.8926H26.8958V32.1243Z" fill="#6EAFFF"/>
<path d="M28.6961 32.1243H26.895V33.8926H28.6961V32.1243Z" fill="black"/>
<path d="M30.4978 32.1243H28.6968V33.8926H30.4978V32.1243Z" fill="black"/>
<path d="M32.2986 32.1243H30.4976V33.8926H32.2986V32.1243Z" fill="black"/>
<path d="M34.0999 32.1243H32.2988V33.8926H34.0999V32.1243Z" fill="#6EAFFF"/>
<path d="M35.9007 32.1243H34.0996V33.8926H35.9007V32.1243Z" fill="#6EAFFF"/>
<path d="M37.7024 32.1243H35.9014V33.8926H37.7024V32.1243Z" fill="#6EAFFF"/>
<path d="M39.5027 32.1243H37.7017V33.8926H39.5027V32.1243Z" fill="#6EAFFF"/>
<path d="M41.3035 32.1243H39.5024V33.8926H41.3035V32.1243Z" fill="#6EAFFF"/>
<path d="M43.1052 32.1243H41.3042V33.8926H43.1052V32.1243Z" fill="#6EAFFF"/>
<path d="M44.9055 32.1243H43.1045V33.8926H44.9055V32.1243Z" fill="#6EAFFF"/>
<path d="M46.7073 32.1243H44.9062V33.8926H46.7073V32.1243Z" fill="#6EAFFF"/>
<path d="M48.5076 32.1243H46.7065V33.8926H48.5076V32.1243Z" fill="#6EAFFF"/>
<path d="M50.3093 32.1243H48.5083V33.8926H50.3093V32.1243Z" fill="#B8D7FF"/>
<path d="M52.1101 32.1243H50.3091V33.8926H52.1101V32.1243Z" fill="black"/>
<path d="M1.68141 33.8926H-0.119629V35.6609H1.68141V33.8926Z" fill="black"/>
<path d="M3.48171 33.8926H1.68066V35.6609H3.48171V33.8926Z" fill="#1856C9"/>
<path d="M5.28346 33.8926H3.48242V35.6609H5.28346V33.8926Z" fill="#0998FF"/>
<path d="M7.08424 33.8926H5.2832V35.6609H7.08424V33.8926Z" fill="black"/>
<path d="M8.88454 33.8926H7.0835V35.6609H8.88454V33.8926Z" fill="#0998FF"/>
<path d="M10.6863 33.8926H8.88525V35.6609H10.6863V33.8926Z" fill="#6EAFFF"/>
<path d="M12.4866 33.8926H10.6855V35.6609H12.4866V33.8926Z" fill="#0998FF"/>
<path d="M14.2883 33.8926H12.4873V35.6609H14.2883V33.8926Z" fill="#0998FF"/>
<path d="M16.0891 33.8926H14.2881V35.6609H16.0891V33.8926Z" fill="#0998FF"/>
<path d="M17.8909 33.8926H16.0898V35.6609H17.8909V33.8926Z" fill="#0998FF"/>
<path d="M19.6912 33.8926H17.8901V35.6609H19.6912V33.8926Z" fill="#0998FF"/>
<path d="M21.4929 33.8926H19.6919V35.6609H21.4929V33.8926Z" fill="#0998FF"/>
<path d="M23.2932 33.8926H21.4922V35.6609H23.2932V33.8926Z" fill="#0998FF"/>
<path d="M25.094 33.8926H23.293V35.6609H25.094V33.8926Z" fill="#6EAFFF"/>
<path d="M26.8958 33.8926H25.0947V35.6609H26.8958V33.8926Z" fill="#6EAFFF"/>
<path d="M28.6961 33.8926H26.895V35.6609H28.6961V33.8926Z" fill="#6EAFFF"/>
<path d="M30.4978 33.8926H28.6968V35.6609H30.4978V33.8926Z" fill="#6EAFFF"/>
<path d="M32.2986 33.8926H30.4976V35.6609H32.2986V33.8926Z" fill="#6EAFFF"/>
<path d="M34.0999 33.8926H32.2988V35.6609H34.0999V33.8926Z" fill="#6EAFFF"/>
<path d="M35.9007 33.8926H34.0996V35.6609H35.9007V33.8926Z" fill="#0998FF"/>
<path d="M37.7024 33.8926H35.9014V35.6609H37.7024V33.8926Z" fill="#0998FF"/>
<path d="M39.5027 33.8926H37.7017V35.6609H39.5027V33.8926Z" fill="#0998FF"/>
<path d="M41.3035 33.8926H39.5024V35.6609H41.3035V33.8926Z" fill="#0998FF"/>
<path d="M43.1052 33.8926H41.3042V35.6609H43.1052V33.8926Z" fill="#0998FF"/>
<path d="M44.9055 33.8926H43.1045V35.6609H44.9055V33.8926Z" fill="#0998FF"/>
<path d="M46.7073 33.8926H44.9062V35.6609H46.7073V33.8926Z" fill="#6EAFFF"/>
<path d="M48.5076 33.8926H46.7065V35.6609H48.5076V33.8926Z" fill="#6EAFFF"/>
<path d="M50.3093 33.8926H48.5083V35.6609H50.3093V33.8926Z" fill="#B8D7FF"/>
<path d="M52.1101 33.8926H50.3091V35.6609H52.1101V33.8926Z" fill="black"/>
<path d="M1.68141 35.6609H-0.119629V37.4292H1.68141V35.6609Z" fill="black"/>
<path d="M3.48171 35.6609H1.68066V37.4292H3.48171V35.6609Z" fill="#1856C9"/>
<path d="M5.28346 35.6609H3.48242V37.4292H5.28346V35.6609Z" fill="#0998FF"/>
<path d="M7.08424 35.6609H5.2832V37.4292H7.08424V35.6609Z" fill="black"/>
<path d="M8.88454 35.6609H7.0835V37.4292H8.88454V35.6609Z" fill="#0998FF"/>
<path d="M10.6863 35.6609H8.88525V37.4292H10.6863V35.6609Z" fill="#6EAFFF"/>
<path d="M12.4866 35.6609H10.6855V37.4292H12.4866V35.6609Z" fill="#0998FF"/>
<path d="M14.2883 35.6609H12.4873V37.4292H14.2883V35.6609Z" fill="#B8D7FF"/>
<path d="M16.0891 35.6609H14.2881V37.4292H16.0891V35.6609Z" fill="#B8D7FF"/>
<path d="M17.8909 35.6609H16.0898V37.4292H17.8909V35.6609Z" fill="#B8D7FF"/>
<path d="M19.6912 35.6609H17.8901V37.4292H19.6912V35.6609Z" fill="#B8D7FF"/>
<path d="M21.4929 35.6609H19.6919V37.4292H21.4929V35.6609Z" fill="#B8D7FF"/>
<path d="M23.2932 35.6609H21.4922V37.4292H23.2932V35.6609Z" fill="#B8D7FF"/>
<path d="M25.094 35.6609H23.293V37.4292H25.094V35.6609Z" fill="#0998FF"/>
<path d="M26.8958 35.6609H25.0947V37.4292H26.8958V35.6609Z" fill="#6EAFFF"/>
<path d="M28.6961 35.6609H26.895V37.4292H28.6961V35.6609Z" fill="#6EAFFF"/>
<path d="M30.4978 35.6609H28.6968V37.4292H30.4978V35.6609Z" fill="#6EAFFF"/>
<path d="M32.2986 35.6609H30.4976V37.4292H32.2986V35.6609Z" fill="#6EAFFF"/>
<path d="M34.0999 35.6609H32.2988V37.4292H34.0999V35.6609Z" fill="#6EAFFF"/>
<path d="M35.9007 35.6609H34.0996V37.4292H35.9007V35.6609Z" fill="#0998FF"/>
<path d="M37.7024 35.6609H35.9014V37.4292H37.7024V35.6609Z" fill="#B8D7FF"/>
<path d="M39.5027 35.6609H37.7017V37.4292H39.5027V35.6609Z" fill="#B8D7FF"/>
<path d="M41.3035 35.6609H39.5024V37.4292H41.3035V35.6609Z" fill="#B8D7FF"/>
<path d="M43.1052 35.6609H41.3042V37.4292H43.1052V35.6609Z" fill="#B8D7FF"/>
<path d="M44.9055 35.6609H43.1045V37.4292H44.9055V35.6609Z" fill="#B8D7FF"/>
<path d="M46.7073 35.6609H44.9062V37.4292H46.7073V35.6609Z" fill="#0998FF"/>
<path d="M48.5076 35.6609H46.7065V37.4292H48.5076V35.6609Z" fill="#6EAFFF"/>
<path d="M50.3093 35.6609H48.5083V37.4292H50.3093V35.6609Z" fill="#B8D7FF"/>
<path d="M52.1101 35.6609H50.3091V37.4292H52.1101V35.6609Z" fill="black"/>
<path d="M1.68141 37.4292H-0.119629V39.1975H1.68141V37.4292Z" fill="black"/>
<path d="M3.48171 37.4292H1.68066V39.1975H3.48171V37.4292Z" fill="#1856C9"/>
<path d="M5.28346 37.4292H3.48242V39.1975H5.28346V37.4292Z" fill="#0998FF"/>
<path d="M7.08424 37.4292H5.2832V39.1975H7.08424V37.4292Z" fill="black"/>
<path d="M8.88454 37.4292H7.0835V39.1975H8.88454V37.4292Z" fill="#0998FF"/>
<path d="M10.6863 37.4292H8.88525V39.1975H10.6863V37.4292Z" fill="#6EAFFF"/>
<path d="M12.4866 37.4292H10.6855V39.1975H12.4866V37.4292Z" fill="#0998FF"/>
<path d="M14.2883 37.4292H12.4873V39.1975H14.2883V37.4292Z" fill="#B8D7FF"/>
<path d="M16.0891 37.4292H14.2881V39.1975H16.0891V37.4292Z" fill="#6EAFFF"/>
<path d="M17.8909 37.4292H16.0898V39.1975H17.8909V37.4292Z" fill="#6EAFFF"/>
<path d="M19.6912 37.4292H17.8901V39.1975H19.6912V37.4292Z" fill="#6EAFFF"/>
<path d="M21.4929 37.4292H19.6919V39.1975H21.4929V37.4292Z" fill="#6EAFFF"/>
<path d="M23.2932 37.4292H21.4922V39.1975H23.2932V37.4292Z" fill="#6EAFFF"/>
<path d="M25.094 37.4292H23.293V39.1975H25.094V37.4292Z" fill="#0998FF"/>
<path d="M26.8958 37.4292H25.0947V39.1975H26.8958V37.4292Z" fill="#6EAFFF"/>
<path d="M28.6961 37.4292H26.895V39.1975H28.6961V37.4292Z" fill="#6EAFFF"/>
<path d="M30.4978 37.4292H28.6968V39.1975H30.4978V37.4292Z" fill="#6EAFFF"/>
<path d="M32.2986 37.4292H30.4976V39.1975H32.2986V37.4292Z" fill="#6EAFFF"/>
<path d="M34.0999 37.4292H32.2988V39.1975H34.0999V37.4292Z" fill="#6EAFFF"/>
<path d="M35.9007 37.4292H34.0996V39.1975H35.9007V37.4292Z" fill="#0998FF"/>
<path d="M37.7024 37.4292H35.9014V39.1975H37.7024V37.4292Z" fill="#B8D7FF"/>
<path d="M39.5027 37.4292H37.7017V39.1975H39.5027V37.4292Z" fill="#6EAFFF"/>
<path d="M41.3035 37.4292H39.5024V39.1975H41.3035V37.4292Z" fill="#6EAFFF"/>
<path d="M43.1052 37.4292H41.3042V39.1975H43.1052V37.4292Z" fill="#6EAFFF"/>
<path d="M44.9055 37.4292H43.1045V39.1975H44.9055V37.4292Z" fill="#6EAFFF"/>
<path d="M46.7073 37.4292H44.9062V39.1975H46.7073V37.4292Z" fill="#0998FF"/>
<path d="M48.5076 37.4292H46.7065V39.1975H48.5076V37.4292Z" fill="#6EAFFF"/>
<path d="M50.3093 37.4292H48.5083V39.1975H50.3093V37.4292Z" fill="#B8D7FF"/>
<path d="M52.1101 37.4292H50.3091V39.1975H52.1101V37.4292Z" fill="black"/>
<path d="M1.68141 39.1975H-0.119629V40.9658H1.68141V39.1975Z" fill="black"/>
<path d="M3.48171 39.1975H1.68066V40.9658H3.48171V39.1975Z" fill="#1856C9"/>
<path d="M5.28346 39.1975H3.48242V40.9658H5.28346V39.1975Z" fill="#0998FF"/>
<path d="M7.08424 39.1975H5.2832V40.9658H7.08424V39.1975Z" fill="black"/>
<path d="M8.88454 39.1975H7.0835V40.9658H8.88454V39.1975Z" fill="#0998FF"/>
<path d="M10.6863 39.1975H8.88525V40.9658H10.6863V39.1975Z" fill="#6EAFFF"/>
<path d="M12.4866 39.1975H10.6855V40.9658H12.4866V39.1975Z" fill="#0998FF"/>
<path d="M14.2883 39.1975H12.4873V40.9658H14.2883V39.1975Z" fill="#B8D7FF"/>
<path d="M16.0891 39.1975H14.2881V40.9658H16.0891V39.1975Z" fill="#6EAFFF"/>
<path d="M17.8909 39.1975H16.0898V40.9658H17.8909V39.1975Z" fill="#6EAFFF"/>
<path d="M19.6912 39.1975H17.8901V40.9658H19.6912V39.1975Z" fill="#6EAFFF"/>
<path d="M21.4929 39.1975H19.6919V40.9658H21.4929V39.1975Z" fill="#6EAFFF"/>
<path d="M23.2932 39.1975H21.4922V40.9658H23.2932V39.1975Z" fill="#6EAFFF"/>
<path d="M25.094 39.1975H23.293V40.9658H25.094V39.1975Z" fill="#0998FF"/>
<path d="M26.8958 39.1975H25.0947V40.9658H26.8958V39.1975Z" fill="#6EAFFF"/>
<path d="M28.6961 39.1975H26.895V40.9658H28.6961V39.1975Z" fill="#6EAFFF"/>
<path d="M30.4978 39.1975H28.6968V40.9658H30.4978V39.1975Z" fill="#6EAFFF"/>
<path d="M32.2986 39.1975H30.4976V40.9658H32.2986V39.1975Z" fill="#6EAFFF"/>
<path d="M34.0999 39.1975H32.2988V40.9658H34.0999V39.1975Z" fill="#6EAFFF"/>
<path d="M35.9007 39.1975H34.0996V40.9658H35.9007V39.1975Z" fill="#0998FF"/>
<path d="M37.7024 39.1975H35.9014V40.9658H37.7024V39.1975Z" fill="#B8D7FF"/>
<path d="M39.5027 39.1975H37.7017V40.9658H39.5027V39.1975Z" fill="#6EAFFF"/>
<path d="M41.3035 39.1975H39.5024V40.9658H41.3035V39.1975Z" fill="#6EAFFF"/>
<path d="M43.1052 39.1975H41.3042V40.9658H43.1052V39.1975Z" fill="#6EAFFF"/>
<path d="M44.9055 39.1975H43.1045V40.9658H44.9055V39.1975Z" fill="#6EAFFF"/>
<path d="M46.7073 39.1975H44.9062V40.9658H46.7073V39.1975Z" fill="#0998FF"/>
<path d="M48.5076 39.1975H46.7065V40.9658H48.5076V39.1975Z" fill="#6EAFFF"/>
<path d="M50.3093 39.1975H48.5083V40.9658H50.3093V39.1975Z" fill="#B8D7FF"/>
<path d="M52.1101 39.1975H50.3091V40.9658H52.1101V39.1975Z" fill="black"/>
<path d="M1.68141 40.9658H-0.119629V42.7341H1.68141V40.9658Z" fill="black"/>
<path d="M3.48171 40.9658H1.68066V42.7341H3.48171V40.9658Z" fill="#1856C9"/>
<path d="M5.28346 40.9658H3.48242V42.7341H5.28346V40.9658Z" fill="#0998FF"/>
<path d="M7.08424 40.9658H5.2832V42.7341H7.08424V40.9658Z" fill="black"/>
<path d="M8.88454 40.9658H7.0835V42.7341H8.88454V40.9658Z" fill="#0998FF"/>
<path d="M10.6863 40.9658H8.88525V42.7341H10.6863V40.9658Z" fill="#6EAFFF"/>
<path d="M12.4866 40.9658H10.6855V42.7341H12.4866V40.9658Z" fill="#6EAFFF"/>
<path d="M14.2883 40.9658H12.4873V42.7341H14.2883V40.9658Z" fill="#0998FF"/>
<path d="M16.0891 40.9658H14.2881V42.7341H16.0891V40.9658Z" fill="#0998FF"/>
<path d="M17.8909 40.9658H16.0898V42.7341H17.8909V40.9658Z" fill="#0998FF"/>
<path d="M19.6912 40.9658H17.8901V42.7341H19.6912V40.9658Z" fill="#0998FF"/>
<path d="M21.4929 40.9658H19.6919V42.7341H21.4929V40.9658Z" fill="#0998FF"/>
<path d="M23.2932 40.9658H21.4922V42.7341H23.2932V40.9658Z" fill="#0998FF"/>
<path d="M25.094 40.9658H23.293V42.7341H25.094V40.9658Z" fill="#0998FF"/>
<path d="M26.8958 40.9658H25.0947V42.7341H26.8958V40.9658Z" fill="#6EAFFF"/>
<path d="M28.6961 40.9658H26.895V42.7341H28.6961V40.9658Z" fill="#6EAFFF"/>
<path d="M30.4978 40.9658H28.6968V42.7341H30.4978V40.9658Z" fill="#6EAFFF"/>
<path d="M32.2986 40.9658H30.4976V42.7341H32.2986V40.9658Z" fill="#6EAFFF"/>
<path d="M34.0999 40.9658H32.2988V42.7341H34.0999V40.9658Z" fill="#6EAFFF"/>
<path d="M35.9007 40.9658H34.0996V42.7341H35.9007V40.9658Z" fill="#6EAFFF"/>
<path d="M37.7024 40.9658H35.9014V42.7341H37.7024V40.9658Z" fill="#0998FF"/>
<path d="M39.5027 40.9658H37.7017V42.7341H39.5027V40.9658Z" fill="#0998FF"/>
<path d="M41.3035 40.9658H39.5024V42.7341H41.3035V40.9658Z" fill="#0998FF"/>
<path d="M43.1052 40.9658H41.3042V42.7341H43.1052V40.9658Z" fill="#0998FF"/>
<path d="M44.9055 40.9658H43.1045V42.7341H44.9055V40.9658Z" fill="#0998FF"/>
<path d="M46.7073 40.9658H44.9062V42.7341H46.7073V40.9658Z" fill="#0998FF"/>
<path d="M48.5076 40.9658H46.7065V42.7341H48.5076V40.9658Z" fill="#6EAFFF"/>
<path d="M50.3093 40.9658H48.5083V42.7341H50.3093V40.9658Z" fill="#B8D7FF"/>
<path d="M52.1101 40.9658H50.3091V42.7341H52.1101V40.9658Z" fill="black"/>
<path d="M1.68141 42.7341H-0.119629V44.5024H1.68141V42.7341Z" fill="black"/>
<path d="M3.48171 42.7341H1.68066V44.5024H3.48171V42.7341Z" fill="#1856C9"/>
<path d="M5.28346 42.7341H3.48242V44.5024H5.28346V42.7341Z" fill="#0998FF"/>
<path d="M7.08424 42.7341H5.2832V44.5024H7.08424V42.7341Z" fill="black"/>
<path d="M8.88454 42.7341H7.0835V44.5024H8.88454V42.7341Z" fill="#0998FF"/>
<path d="M10.6863 42.7341H8.88525V44.5024H10.6863V42.7341Z" fill="#6EAFFF"/>
<path d="M12.4866 42.7341H10.6855V44.5024H12.4866V42.7341Z" fill="#6EAFFF"/>
<path d="M14.2883 42.7341H12.4873V44.5024H14.2883V42.7341Z" fill="#6EAFFF"/>
<path d="M16.0891 42.7341H14.2881V44.5024H16.0891V42.7341Z" fill="#6EAFFF"/>
<path d="M17.8909 42.7341H16.0898V44.5024H17.8909V42.7341Z" fill="#6EAFFF"/>
<path d="M19.6912 42.7341H17.8901V44.5024H19.6912V42.7341Z" fill="#6EAFFF"/>
<path d="M21.4929 42.7341H19.6919V44.5024H21.4929V42.7341Z" fill="#6EAFFF"/>
<path d="M23.2932 42.7341H21.4922V44.5024H23.2932V42.7341Z" fill="#6EAFFF"/>
<path d="M25.094 42.7341H23.293V44.5024H25.094V42.7341Z" fill="#6EAFFF"/>
<path d="M26.8958 42.7341H25.0947V44.5024H26.8958V42.7341Z" fill="#6EAFFF"/>
<path d="M28.6961 42.7341H26.895V44.5024H28.6961V42.7341Z" fill="#6EAFFF"/>
<path d="M30.4978 42.7341H28.6968V44.5024H30.4978V42.7341Z" fill="#6EAFFF"/>
<path d="M32.2986 42.7341H30.4976V44.5024H32.2986V42.7341Z" fill="#6EAFFF"/>
<path d="M34.0999 42.7341H32.2988V44.5024H34.0999V42.7341Z" fill="#6EAFFF"/>
<path d="M35.9007 42.7341H34.0996V44.5024H35.9007V42.7341Z" fill="#6EAFFF"/>
<path d="M37.7024 42.7341H35.9014V44.5024H37.7024V42.7341Z" fill="#6EAFFF"/>
<path d="M39.5027 42.7341H37.7017V44.5024H39.5027V42.7341Z" fill="#6EAFFF"/>
<path d="M41.3035 42.7341H39.5024V44.5024H41.3035V42.7341Z" fill="#6EAFFF"/>
<path d="M43.1052 42.7341H41.3042V44.5024H43.1052V42.7341Z" fill="#6EAFFF"/>
<path d="M44.9055 42.7341H43.1045V44.5024H44.9055V42.7341Z" fill="#6EAFFF"/>
<path d="M46.7073 42.7341H44.9062V44.5024H46.7073V42.7341Z" fill="#6EAFFF"/>
<path d="M48.5076 42.7341H46.7065V44.5024H48.5076V42.7341Z" fill="#6EAFFF"/>
<path d="M50.3093 42.7341H48.5083V44.5024H50.3093V42.7341Z" fill="#B8D7FF"/>
<path d="M52.1101 42.7341H50.3091V44.5024H52.1101V42.7341Z" fill="black"/>
<path d="M3.48171 44.5024H1.68066V46.2707H3.48171V44.5024Z" fill="black"/>
<path d="M5.28346 44.5024H3.48242V46.2707H5.28346V44.5024Z" fill="#0998FF"/>
<path d="M7.08424 44.5024H5.2832V46.2707H7.08424V44.5024Z" fill="#6EAFFF"/>
<path d="M8.88454 44.5024H7.0835V46.2707H8.88454V44.5024Z" fill="black"/>
<path d="M10.6863 44.5024H8.88525V46.2707H10.6863V44.5024Z" fill="#0998FF"/>
<path d="M12.4866 44.5024H10.6855V46.2707H12.4866V44.5024Z" fill="#0998FF"/>
<path d="M14.2883 44.5024H12.4873V46.2707H14.2883V44.5024Z" fill="#0998FF"/>
<path d="M16.0891 44.5024H14.2881V46.2707H16.0891V44.5024Z" fill="#0998FF"/>
<path d="M17.8909 44.5024H16.0898V46.2707H17.8909V44.5024Z" fill="#0998FF"/>
<path d="M19.6912 44.5024H17.8901V46.2707H19.6912V44.5024Z" fill="#0998FF"/>
<path d="M21.4929 44.5024H19.6919V46.2707H21.4929V44.5024Z" fill="#0998FF"/>
<path d="M23.2932 44.5024H21.4922V46.2707H23.2932V44.5024Z" fill="#0998FF"/>
<path d="M25.094 44.5024H23.293V46.2707H25.094V44.5024Z" fill="#0998FF"/>
<path d="M26.8958 44.5024H25.0947V46.2707H26.8958V44.5024Z" fill="#0998FF"/>
<path d="M28.6961 44.5024H26.895V46.2707H28.6961V44.5024Z" fill="#0998FF"/>
<path d="M30.4978 44.5024H28.6968V46.2707H30.4978V44.5024Z" fill="#0998FF"/>
<path d="M32.2986 44.5024H30.4976V46.2707H32.2986V44.5024Z" fill="#0998FF"/>
<path d="M34.0999 44.5024H32.2988V46.2707H34.0999V44.5024Z" fill="#0998FF"/>
<path d="M35.9007 44.5024H34.0996V46.2707H35.9007V44.5024Z" fill="#0998FF"/>
<path d="M37.7024 44.5024H35.9014V46.2707H37.7024V44.5024Z" fill="#0998FF"/>
<path d="M39.5027 44.5024H37.7017V46.2707H39.5027V44.5024Z" fill="#0998FF"/>
<path d="M41.3035 44.5024H39.5024V46.2707H41.3035V44.5024Z" fill="#0998FF"/>
<path d="M43.1052 44.5024H41.3042V46.2707H43.1052V44.5024Z" fill="#0998FF"/>
<path d="M44.9055 44.5024H43.1045V46.2707H44.9055V44.5024Z" fill="#0998FF"/>
<path d="M46.7073 44.5024H44.9062V46.2707H46.7073V44.5024Z" fill="#0998FF"/>
<path d="M48.5076 44.5024H46.7065V46.2707H48.5076V44.5024Z" fill="#0998FF"/>
<path d="M50.3093 44.5024H48.5083V46.2707H50.3093V44.5024Z" fill="black"/>
<path d="M5.28346 46.2707H3.48242V48.039H5.28346V46.2707Z" fill="black"/>
<path d="M7.08424 46.2707H5.2832V48.039H7.08424V46.2707Z" fill="black"/>
<path d="M8.88454 46.2707H7.0835V48.039H8.88454V46.2707Z" fill="black"/>
<path d="M10.6863 46.2707H8.88525V48.039H10.6863V46.2707Z" fill="black"/>
<path d="M12.4866 46.2707H10.6855V48.039H12.4866V46.2707Z" fill="black"/>
<path d="M14.2883 46.2707H12.4873V48.039H14.2883V46.2707Z" fill="black"/>
<path d="M16.0891 46.2707H14.2881V48.039H16.0891V46.2707Z" fill="black"/>
<path d="M17.8909 46.2707H16.0898V48.039H17.8909V46.2707Z" fill="black"/>
<path d="M19.6912 46.2707H17.8901V48.039H19.6912V46.2707Z" fill="black"/>
<path d="M21.4929 46.2707H19.6919V48.039H21.4929V46.2707Z" fill="black"/>
<path d="M23.2932 46.2707H21.4922V48.039H23.2932V46.2707Z" fill="black"/>
<path d="M25.094 46.2707H23.293V48.039H25.094V46.2707Z" fill="black"/>
<path d="M26.8958 46.2707H25.0947V48.039H26.8958V46.2707Z" fill="black"/>
<path d="M28.6961 46.2707H26.895V48.039H28.6961V46.2707Z" fill="black"/>
<path d="M30.4978 46.2707H28.6968V48.039H30.4978V46.2707Z" fill="black"/>
<path d="M32.2986 46.2707H30.4976V48.039H32.2986V46.2707Z" fill="black"/>
<path d="M34.0999 46.2707H32.2988V48.039H34.0999V46.2707Z" fill="black"/>
<path d="M35.9007 46.2707H34.0996V48.039H35.9007V46.2707Z" fill="black"/>
<path d="M37.7024 46.2707H35.9014V48.039H37.7024V46.2707Z" fill="black"/>
<path d="M39.5027 46.2707H37.7017V48.039H39.5027V46.2707Z" fill="black"/>
<path d="M41.3035 46.2707H39.5024V48.039H41.3035V46.2707Z" fill="black"/>
<path d="M43.1052 46.2707H41.3042V48.039H43.1052V46.2707Z" fill="black"/>
<path d="M44.9055 46.2707H43.1045V48.039H44.9055V46.2707Z" fill="black"/>
<path d="M46.7073 46.2707H44.9062V48.039H46.7073V46.2707Z" fill="black"/>
<path d="M48.5076 46.2707H46.7065V48.039H48.5076V46.2707Z" fill="black"/>
</g>
<defs>
<clipPath id="clip0_41_156103">
<rect width="51.87" height="47.1545" fill="white" transform="translate(0 0.430542)"/>
</clipPath>
</defs>
</svg>
