<svg width="48" height="48" viewBox="0 0 48 48" fill="none" xmlns="http://www.w3.org/2000/svg">
<path d="M17.9656 0L15.7212 0V2.24439H17.9656V0Z" fill="white"/>
<path d="M20.2104 0.000427246L17.9661 0.000427246V2.24481H20.2104V0.000427246Z" fill="white"/>
<path d="M22.4553 0L20.2109 0V2.24439H22.4553V0Z" fill="white"/>
<path d="M24.6992 0L22.4548 0V2.24439H24.6992V0Z" fill="white"/>
<path d="M26.9499 0L24.7056 0V2.24439H26.9499V0Z" fill="white"/>
<path d="M29.1936 0L26.9492 0V2.24439H29.1936V0Z" fill="white"/>
<path d="M31.4385 0L29.1941 0V2.24439H31.4385V0Z" fill="white"/>
<path d="M13.4724 2.24457H11.228V4.48895H13.4724V2.24457Z" fill="white"/>
<path d="M15.7219 2.24457H13.4775V4.48895H15.7219V2.24457Z" fill="white"/>
<path d="M17.9668 2.24457H15.7224V4.48895H17.9668V2.24457Z" fill="black"/>
<path d="M20.2104 2.24457H17.9661V4.48895H20.2104V2.24457Z" fill="black"/>
<path d="M22.4553 2.24457H20.2109V4.48895H22.4553V2.24457Z" fill="black"/>
<path d="M24.7004 2.24457H22.4561V4.48895H24.7004V2.24457Z" fill="black"/>
<path d="M26.9499 2.24457H24.7056V4.48895H26.9499V2.24457Z" fill="black"/>
<path d="M29.1936 2.24432H26.9492V4.48871H29.1936V2.24432Z" fill="black"/>
<path d="M31.4385 2.24414H29.1941V4.48852H31.4385V2.24414Z" fill="black"/>
<path d="M33.6824 2.24457H31.438V4.48895H33.6824V2.24457Z" fill="white"/>
<path d="M35.9272 2.24457H33.6829V4.48895H35.9272V2.24457Z" fill="white"/>
<path d="M11.2275 4.49445H8.98315V6.73883H11.2275V4.49445Z" fill="white"/>
<path d="M13.4724 4.49445H11.228V6.73883H13.4724V4.49445Z" fill="black"/>
<path d="M15.7219 4.49445H13.4775V6.73883H15.7219V4.49445Z" fill="black"/>
<path d="M17.9668 4.49445H15.7224V6.73883H17.9668V4.49445Z" fill="#F2DE98"/>
<path d="M20.2104 4.49445H17.9661V6.73883H20.2104V4.49445Z" fill="#F2DE98"/>
<path d="M22.4553 4.49445H20.2109V6.73883H22.4553V4.49445Z" fill="#F2DE98"/>
<path d="M24.6992 4.49445H22.4548V6.73883H24.6992V4.49445Z" fill="#F2DE98"/>
<path d="M26.9499 4.49445H24.7056V6.73883H26.9499V4.49445Z" fill="#F2DE98"/>
<path d="M29.1936 4.49445H26.9492V6.73883H29.1936V4.49445Z" fill="#F2DE98"/>
<path d="M31.4385 4.49445H29.1941V6.73883H31.4385V4.49445Z" fill="#F2DE98"/>
<path d="M33.6833 4.49445H31.439V6.73883H33.6833V4.49445Z" fill="black"/>
<path d="M35.9272 4.49445H33.6829V6.73883H35.9272V4.49445Z" fill="black"/>
<path d="M38.1777 4.49445H35.9333V6.73883H38.1777V4.49445Z" fill="white"/>
<path d="M8.98266 6.73895H6.73828V8.98334H8.98266V6.73895Z" fill="white"/>
<path d="M11.2275 6.73859H8.98315V8.98297H11.2275V6.73859Z" fill="black"/>
<path d="M13.4724 6.73859H11.228V8.98297H13.4724V6.73859Z" fill="#F2DE98"/>
<path d="M15.7219 6.73859H13.4775V8.98297H15.7219V6.73859Z" fill="#F2DE98"/>
<path d="M17.9668 6.73859H15.7224V8.98297H17.9668V6.73859Z" fill="#FFC522"/>
<path d="M20.2104 6.73895H17.9661V8.98334H20.2104V6.73895Z" fill="#FFC522"/>
<path d="M22.4553 6.73895H20.2109V8.98334H22.4553V6.73895Z" fill="#FFC522"/>
<path d="M24.7004 6.73859H22.4561V8.98297H24.7004V6.73859Z" fill="#FFC522"/>
<path d="M26.9499 6.73859H24.7056V8.98297H26.9499V6.73859Z" fill="#FFC522"/>
<path d="M29.1936 6.73877H26.9492V8.98315H29.1936V6.73877Z" fill="#FFC522"/>
<path d="M31.4385 6.73895H29.1941V8.98334H31.4385V6.73895Z" fill="#FFC522"/>
<path d="M33.6824 6.73859H31.438V8.98297H33.6824V6.73859Z" fill="#F2DE98"/>
<path d="M35.9272 6.73895H33.6829V8.98334H35.9272V6.73895Z" fill="#F2DE98"/>
<path d="M38.1768 6.73859H35.9324V8.98297H38.1768V6.73859Z" fill="black"/>
<path d="M40.4216 6.73895H38.1772V8.98334H40.4216V6.73895Z" fill="white"/>
<path d="M6.73877 8.98309H4.49438V11.2275H6.73877V8.98309Z" fill="white"/>
<path d="M8.98364 8.98352H6.73926V11.2279H8.98364V8.98352Z" fill="black"/>
<path d="M11.2275 8.98352H8.98315V11.2279H11.2275V8.98352Z" fill="#FF9605"/>
<path d="M13.4724 8.98309H11.228V11.2275H13.4724V8.98309Z" fill="#FFC522"/>
<path d="M15.7219 8.98352H13.4775V11.2279H15.7219V8.98352Z" fill="#FFC522"/>
<path d="M17.9668 8.98352H15.7224V11.2279H17.9668V8.98352Z" fill="#FFC522"/>
<path d="M20.2104 8.98352H17.9661V11.2279H20.2104V8.98352Z" fill="#FFC522"/>
<path d="M22.4553 8.98309H20.2109V11.2275H22.4553V8.98309Z" fill="#FFC522"/>
<path d="M24.6992 8.98309H22.4548V11.2275H24.6992V8.98309Z" fill="#FFC522"/>
<path d="M26.9499 8.98309H24.7056V11.2275H26.9499V8.98309Z" fill="white"/>
<path d="M29.1948 8.98309H26.9504V11.2275H29.1948V8.98309Z" fill="#FFC522"/>
<path d="M31.4385 8.98309H29.1941V11.2275H31.4385V8.98309Z" fill="white"/>
<path d="M33.6824 8.98309H31.438V11.2275H33.6824V8.98309Z" fill="#FFC522"/>
<path d="M35.9272 8.98309H33.6829V11.2275H35.9272V8.98309Z" fill="#FFC522"/>
<path d="M38.1768 8.98309H35.9324V11.2275H38.1768V8.98309Z" fill="#F2DE98"/>
<path d="M40.4216 8.98309H38.1772V11.2275H40.4216V8.98309Z" fill="black"/>
<path d="M42.6665 8.98352H40.4221V11.2279H42.6665V8.98352Z" fill="white"/>
<path d="M4.49389 11.2277H2.24951V13.472H4.49389V11.2277Z" fill="white"/>
<path d="M6.73877 11.2277H4.49438V13.472H6.73877V11.2277Z" fill="black"/>
<path d="M8.98364 11.2277H6.73926V13.472H8.98364V11.2277Z" fill="#FF9605"/>
<path d="M11.2275 11.2277H8.98315V13.472H11.2275V11.2277Z" fill="#FFC522"/>
<path d="M13.4724 11.2277H11.228V13.472H13.4724V11.2277Z" fill="#FFC522"/>
<path d="M15.7219 11.2277H13.4775V13.472H15.7219V11.2277Z" fill="#FFC522"/>
<path d="M17.9668 11.2277H15.7224V13.472H17.9668V11.2277Z" fill="#FFC522"/>
<path d="M20.2104 11.2277H17.9661V13.472H20.2104V11.2277Z" fill="#FFC522"/>
<path d="M22.4553 11.2277H20.2109V13.472H22.4553V11.2277Z" fill="#FFC522"/>
<path d="M24.6992 11.2277H22.4548V13.472H24.6992V11.2277Z" fill="#FFC522"/>
<path d="M26.9499 11.2277H24.7056V13.472H26.9499V11.2277Z" fill="#FFC522"/>
<path d="M29.1936 11.2274H26.9492V13.4718H29.1936V11.2274Z" fill="#FFC522"/>
<path d="M31.4385 11.2277H29.1941V13.472H31.4385V11.2277Z" fill="#FFC522"/>
<path d="M33.6833 11.2277H31.439V13.472H33.6833V11.2277Z" fill="white"/>
<path d="M35.9272 11.2277H33.6829V13.472H35.9272V11.2277Z" fill="#FFC522"/>
<path d="M38.1777 11.2277H35.9333V13.472H38.1777V11.2277Z" fill="#FFC522"/>
<path d="M40.4216 11.2277H38.1772V13.472H40.4216V11.2277Z" fill="#F2DE98"/>
<path d="M42.6653 11.2277H40.4209V13.472H42.6653V11.2277Z" fill="black"/>
<path d="M44.9102 11.2277H42.6658V13.472H44.9102V11.2277Z" fill="white"/>
<path d="M4.49511 13.4718H2.25073V15.7162H4.49511V13.4718Z" fill="white"/>
<path d="M6.73877 13.4722H4.49438V15.7166H6.73877V13.4722Z" fill="black"/>
<path d="M8.98364 13.4718H6.73926V15.7162H8.98364V13.4718Z" fill="#FF9605"/>
<path d="M11.2275 13.4718H8.98315V15.7162H11.2275V13.4718Z" fill="#FFC522"/>
<path d="M13.4724 13.4718H11.228V15.7162H13.4724V13.4718Z" fill="#FFC522"/>
<path d="M15.7219 13.4718H13.4775V15.7162H15.7219V13.4718Z" fill="#FFC522"/>
<path d="M17.9668 13.4722H15.7224V15.7166H17.9668V13.4722Z" fill="#FFC522"/>
<path d="M20.2104 13.4718H17.9661V15.7162H20.2104V13.4718Z" fill="#FFC522"/>
<path d="M22.4553 13.4722H20.2109V15.7166H22.4553V13.4722Z" fill="#FFC522"/>
<path d="M24.7004 13.4722H22.4561V15.7166H24.7004V13.4722Z" fill="#FFC522"/>
<path d="M26.9499 13.4722H24.7056V15.7166H26.9499V13.4722Z" fill="#FFC522"/>
<path d="M29.1936 13.4717H26.9492V15.7161H29.1936V13.4717Z" fill="#FFC522"/>
<path d="M31.4385 13.4718H29.1941V15.7162H31.4385V13.4718Z" fill="#FFC522"/>
<path d="M33.6824 13.4722H31.438V15.7166H33.6824V13.4722Z" fill="#FFC522"/>
<path d="M35.9272 13.4722H33.6829V15.7166H35.9272V13.4722Z" fill="#FFC522"/>
<path d="M38.1768 13.4722H35.9324V15.7166H38.1768V13.4722Z" fill="#FFC522"/>
<path d="M40.4216 13.4722H38.1772V15.7166H40.4216V13.4722Z" fill="#F2DE98"/>
<path d="M42.6653 13.4718H40.4209V15.7162H42.6653V13.4718Z" fill="black"/>
<path d="M44.9102 13.4722H42.6658V15.7166H44.9102V13.4722Z" fill="white"/>
<path d="M2.24438 15.7221H0L0 17.9665H2.24438V15.7221Z" fill="white"/>
<path d="M4.49389 15.7217H2.24951V17.9661H4.49389V15.7217Z" fill="black"/>
<path d="M6.73877 15.7221H4.49438V17.9665H6.73877V15.7221Z" fill="#1A1A1A"/>
<path d="M8.98364 15.7221H6.73926V17.9665H8.98364V15.7221Z" fill="#1A1A1A"/>
<path d="M11.2275 15.7221H8.98315V17.9665H11.2275V15.7221Z" fill="#1A1A1A"/>
<path d="M13.4724 15.7221H11.228V17.9665H13.4724V15.7221Z" fill="#1A1A1A"/>
<path d="M15.7219 15.7221H13.4775V17.9665H15.7219V15.7221Z" fill="#1A1A1A"/>
<path d="M17.9668 15.7221H15.7224V17.9665H17.9668V15.7221Z" fill="#1A1A1A"/>
<path d="M20.2104 15.7221H17.9661V17.9665H20.2104V15.7221Z" fill="#1A1A1A"/>
<path d="M22.4553 15.7217H20.2109V17.9661H22.4553V15.7217Z" fill="#1A1A1A"/>
<path d="M24.6992 15.7217H22.4548V17.9661H24.6992V15.7217Z" fill="#1A1A1A"/>
<path d="M26.9499 15.7221H24.7056V17.9665H26.9499V15.7221Z" fill="#1A1A1A"/>
<path d="M29.1936 15.7218H26.9492V17.9662H29.1936V15.7218Z" fill="#1A1A1A"/>
<path d="M31.4385 15.7221H29.1941V17.9665H31.4385V15.7221Z" fill="#1A1A1A"/>
<path d="M33.6833 15.7221H31.439V17.9665H33.6833V15.7221Z" fill="#1A1A1A"/>
<path d="M35.9272 15.7221H33.6829V17.9665H35.9272V15.7221Z" fill="#1A1A1A"/>
<path d="M38.1777 15.7221H35.9333V17.9665H38.1777V15.7221Z" fill="#1A1A1A"/>
<path d="M40.4216 15.7221H38.1772V17.9665H40.4216V15.7221Z" fill="#1A1A1A"/>
<path d="M42.6653 15.7221H40.4209V17.9665H42.6653V15.7221Z" fill="#1A1A1A"/>
<path d="M44.9102 15.7221H42.6658V17.9665H44.9102V15.7221Z" fill="black"/>
<path d="M47.1553 15.7221H44.9109V17.9665H47.1553V15.7221Z" fill="white"/>
<path d="M2.24438 17.9662H0L0 20.2106H2.24438V17.9662Z" fill="white"/>
<path d="M4.49511 17.9662H2.25073V20.2106H4.49511V17.9662Z" fill="black"/>
<path d="M6.73877 17.9662H4.49438V20.2106H6.73877V17.9662Z" fill="#FF9605"/>
<path d="M8.98364 17.9666H6.73926V20.211H8.98364V17.9666Z" fill="black"/>
<path d="M11.2275 17.9662H8.98315V20.2106H11.2275V17.9662Z" fill="black"/>
<path d="M13.4724 17.9662H11.228V20.2106H13.4724V17.9662Z" fill="black"/>
<path d="M15.7219 17.9662H13.4775V20.2106H15.7219V17.9662Z" fill="black"/>
<path d="M17.9668 17.9662H15.7224V20.2106H17.9668V17.9662Z" fill="black"/>
<path d="M20.2104 17.9662H17.9661V20.2106H20.2104V17.9662Z" fill="black"/>
<path d="M22.4553 17.9662H20.2109V20.2106H22.4553V17.9662Z" fill="black"/>
<path d="M24.7004 17.9662H22.4561V20.2106H24.7004V17.9662Z" fill="black"/>
<path d="M26.9499 17.9662H24.7056V20.2106H26.9499V17.9662Z" fill="black"/>
<path d="M29.1936 17.9662H26.9492V20.2106H29.1936V17.9662Z" fill="black"/>
<path d="M31.4385 17.9662H29.1941V20.2106H31.4385V17.9662Z" fill="black"/>
<path d="M33.6824 17.9662H31.438V20.2106H33.6824V17.9662Z" fill="black"/>
<path d="M35.9272 17.9666H33.6829V20.211H35.9272V17.9666Z" fill="black"/>
<path d="M38.1768 17.9662H35.9324V20.2106H38.1768V17.9662Z" fill="black"/>
<path d="M40.4216 17.9662H38.1772V20.2106H40.4216V17.9662Z" fill="black"/>
<path d="M42.6665 17.9662H40.4221V20.2106H42.6665V17.9662Z" fill="#F2DE98"/>
<path d="M44.9102 17.9662H42.6658V20.2106H44.9102V17.9662Z" fill="black"/>
<path d="M47.1553 17.9662H44.9109V20.2106H47.1553V17.9662Z" fill="white"/>
<path d="M2.24438 20.2108H0L0 22.4551H2.24438V20.2108Z" fill="white"/>
<path d="M4.49511 20.2108H2.25073V22.4551H4.49511V20.2108Z" fill="black"/>
<path d="M6.73877 20.2108H4.49438V22.4551H6.73877V20.2108Z" fill="#FF9605"/>
<path d="M8.98364 20.2108H6.73926V22.4551H8.98364V20.2108Z" fill="black"/>
<path d="M11.2275 20.2108H8.98315V22.4551H11.2275V20.2108Z" fill="black"/>
<path d="M13.4724 20.2108H11.228V22.4551H13.4724V20.2108Z" fill="black"/>
<path d="M15.7219 20.2108H13.4775V22.4551H15.7219V20.2108Z" fill="black"/>
<path d="M17.9668 20.2108H15.7224V22.4551H17.9668V20.2108Z" fill="black"/>
<path d="M20.2104 20.2108H17.9661V22.4551H20.2104V20.2108Z" fill="black"/>
<path d="M22.4553 20.2108H20.2109V22.4551H22.4553V20.2108Z" fill="#1A1A1A"/>
<path d="M24.6992 20.2108H22.4548V22.4551H24.6992V20.2108Z" fill="#FFC522"/>
<path d="M26.9499 20.2108H24.7056V22.4551H26.9499V20.2108Z" fill="black"/>
<path d="M29.1936 20.2105H26.9492V22.4549H29.1936V20.2105Z" fill="black"/>
<path d="M31.4385 20.2111H29.1941V22.4555H31.4385V20.2111Z" fill="black"/>
<path d="M33.6824 20.2108H31.438V22.4551H33.6824V20.2108Z" fill="black"/>
<path d="M35.9272 20.2108H33.6829V22.4551H35.9272V20.2108Z" fill="black"/>
<path d="M38.1768 20.2108H35.9324V22.4551H38.1768V20.2108Z" fill="black"/>
<path d="M40.4216 20.2108H38.1772V22.4551H40.4216V20.2108Z" fill="#1A1A1A"/>
<path d="M42.6665 20.2108H40.4221V22.4551H42.6665V20.2108Z" fill="#F2DE98"/>
<path d="M44.9102 20.2108H42.6658V22.4551H44.9102V20.2108Z" fill="black"/>
<path d="M47.1553 20.2108H44.9109V22.4551H47.1553V20.2108Z" fill="white"/>
<path d="M2.24438 22.4549H0L0 24.6993H2.24438V22.4549Z" fill="white"/>
<path d="M4.49389 22.4549H2.24951V24.6993H4.49389V22.4549Z" fill="black"/>
<path d="M6.73877 22.4549H4.49438V24.6993H6.73877V22.4549Z" fill="#FF9605"/>
<path d="M8.98364 22.4549H6.73926V24.6993H8.98364V22.4549Z" fill="#FFC522"/>
<path d="M11.2275 22.4549H8.98315V24.6993H11.2275V22.4549Z" fill="black"/>
<path d="M13.4724 22.4549H11.228V24.6993H13.4724V22.4549Z" fill="black"/>
<path d="M15.7219 22.4549H13.4775V24.6993H15.7219V22.4549Z" fill="black"/>
<path d="M17.9668 22.4553H15.7224V24.6996H17.9668V22.4553Z" fill="black"/>
<path d="M20.2104 22.4549H17.9661V24.6993H20.2104V22.4549Z" fill="#1A1A1A"/>
<path d="M22.4553 22.4549H20.2109V24.6993H22.4553V22.4549Z" fill="#FFC522"/>
<path d="M24.6992 22.4553H22.4548V24.6996H24.6992V22.4553Z" fill="#FFC522"/>
<path d="M26.9499 22.4549H24.7056V24.6993H26.9499V22.4549Z" fill="#FFC522"/>
<path d="M29.1936 22.4554H26.9492V24.6998H29.1936V22.4554Z" fill="black"/>
<path d="M31.4385 22.4549H29.1941V24.6993H31.4385V22.4549Z" fill="black"/>
<path d="M33.6833 22.4549H31.439V24.6993H33.6833V22.4549Z" fill="black"/>
<path d="M35.9272 22.4549H33.6829V24.6993H35.9272V22.4549Z" fill="black"/>
<path d="M38.1777 22.4549H35.9333V24.6993H38.1777V22.4549Z" fill="#1A1A1A"/>
<path d="M40.4216 22.4549H38.1772V24.6993H40.4216V22.4549Z" fill="#FFC522"/>
<path d="M42.6653 22.4549H40.4209V24.6993H42.6653V22.4549Z" fill="#F2DE98"/>
<path d="M44.9102 22.4549H42.6658V24.6993H44.9102V22.4549Z" fill="black"/>
<path d="M47.1553 22.4553H44.9109V24.6996H47.1553V22.4553Z" fill="white"/>
<path d="M2.24438 24.6995H0L0 26.9438H2.24438V24.6995Z" fill="white"/>
<path d="M4.49511 24.6995H2.25073V26.9438H4.49511V24.6995Z" fill="black"/>
<path d="M6.73877 24.6995H4.49438V26.9438H6.73877V24.6995Z" fill="#FF9605"/>
<path d="M8.98364 24.6995H6.73926V26.9438H8.98364V24.6995Z" fill="#FFC522"/>
<path d="M11.2275 24.6995H8.98315V26.9438H11.2275V24.6995Z" fill="#FFC522"/>
<path d="M13.4724 24.6995H11.228V26.9438H13.4724V24.6995Z" fill="#1A1A1A"/>
<path d="M15.7219 24.6995H13.4775V26.9438H15.7219V24.6995Z" fill="#1A1A1A"/>
<path d="M17.9668 24.6995H15.7224V26.9438H17.9668V24.6995Z" fill="#1A1A1A"/>
<path d="M20.2104 24.6995H17.9661V26.9438H20.2104V24.6995Z" fill="#FFC522"/>
<path d="M22.4553 24.6995H20.2109V26.9438H22.4553V24.6995Z" fill="#FFC522"/>
<path d="M24.7004 24.6995H22.4561V26.9438H24.7004V24.6995Z" fill="#FFC522"/>
<path d="M26.9499 24.6995H24.7056V26.9438H26.9499V24.6995Z" fill="#FFC522"/>
<path d="M29.1936 24.6992H26.9492V26.9435H29.1936V24.6992Z" fill="#FFC522"/>
<path d="M31.4385 24.6995H29.1941V26.9438H31.4385V24.6995Z" fill="#1A1A1A"/>
<path d="M33.6824 24.6995H31.438V26.9438H33.6824V24.6995Z" fill="#1A1A1A"/>
<path d="M35.9272 24.6995H33.6829V26.9438H35.9272V24.6995Z" fill="#1A1A1A"/>
<path d="M38.1768 24.6995H35.9324V26.9438H38.1768V24.6995Z" fill="#FFC522"/>
<path d="M40.4216 24.6995H38.1772V26.9438H40.4216V24.6995Z" fill="#FFC522"/>
<path d="M42.6665 24.6995H40.4221V26.9438H42.6665V24.6995Z" fill="#F2DE98"/>
<path d="M44.9102 24.6995H42.6658V26.9438H44.9102V24.6995Z" fill="black"/>
<path d="M47.1553 24.6995H44.9109V26.9438H47.1553V24.6995Z" fill="white"/>
<path d="M2.24438 26.9493H0L0 29.1937H2.24438V26.9493Z" fill="white"/>
<path d="M4.49389 26.9493H2.24951V29.1937H4.49389V26.9493Z" fill="black"/>
<path d="M6.73877 26.9493H4.49438V29.1937H6.73877V26.9493Z" fill="#FF9605"/>
<path d="M8.98364 26.9497H6.73926V29.1941H8.98364V26.9497Z" fill="#FFC522"/>
<path d="M11.2275 26.9493H8.98315V29.1937H11.2275V26.9493Z" fill="#FFC522"/>
<path d="M13.4724 26.9493H11.228V29.1937H13.4724V26.9493Z" fill="#FFC522"/>
<path d="M15.7219 26.9493H13.4775V29.1937H15.7219V26.9493Z" fill="#FFC522"/>
<path d="M17.9668 26.9493H15.7224V29.1937H17.9668V26.9493Z" fill="#FFC522"/>
<path d="M20.2104 26.9493H17.9661V29.1937H20.2104V26.9493Z" fill="#FFC522"/>
<path d="M22.4553 26.9493H20.2109V29.1937H22.4553V26.9493Z" fill="#FFC522"/>
<path d="M24.6992 26.9493H22.4548V29.1937H24.6992V26.9493Z" fill="#FFC522"/>
<path d="M26.9499 26.9493H24.7056V29.1937H26.9499V26.9493Z" fill="#FFC522"/>
<path d="M29.1936 26.9498H26.9492V29.1942H29.1936V26.9498Z" fill="#FFC522"/>
<path d="M31.4385 26.9497H29.1941V29.1941H31.4385V26.9497Z" fill="#FFC522"/>
<path d="M33.6833 26.9493H31.439V29.1937H33.6833V26.9493Z" fill="#FFC522"/>
<path d="M35.9272 26.9497H33.6829V29.1941H35.9272V26.9497Z" fill="#FFC522"/>
<path d="M38.1768 26.9493H35.9324V29.1937H38.1768V26.9493Z" fill="#FFC522"/>
<path d="M40.4216 26.9497H38.1772V29.1941H40.4216V26.9497Z" fill="#FFC522"/>
<path d="M42.6653 26.9493H40.4209V29.1937H42.6653V26.9493Z" fill="#F2DE98"/>
<path d="M44.9102 26.9493H42.6658V29.1937H44.9102V26.9493Z" fill="black"/>
<path d="M47.1553 26.9497H44.9109V29.1941H47.1553V26.9497Z" fill="white"/>
<path d="M2.24438 29.1938H0L0 31.4382H2.24438V29.1938Z" fill="white"/>
<path d="M4.49511 29.1938H2.25073V31.4382H4.49511V29.1938Z" fill="black"/>
<path d="M6.73877 29.1938H4.49438V31.4382H6.73877V29.1938Z" fill="#FF9605"/>
<path d="M8.98364 29.1938H6.73926V31.4382H8.98364V29.1938Z" fill="#FFC522"/>
<path d="M11.2275 29.1938H8.98315V31.4382H11.2275V29.1938Z" fill="#FFC522"/>
<path d="M13.4724 29.1938H11.228V31.4382H13.4724V29.1938Z" fill="#FFC522"/>
<path d="M15.7219 29.1938H13.4775V31.4382H15.7219V29.1938Z" fill="#FFC522"/>
<path d="M17.9668 29.1938H15.7224V31.4382H17.9668V29.1938Z" fill="#FFC522"/>
<path d="M20.2104 29.1938H17.9661V31.4382H20.2104V29.1938Z" fill="#FFC522"/>
<path d="M22.4553 29.1938H20.2109V31.4382H22.4553V29.1938Z" fill="#FFC522"/>
<path d="M24.6992 29.1938H22.4548V31.4382H24.6992V29.1938Z" fill="#FFC522"/>
<path d="M26.9499 29.1938H24.7056V31.4382H26.9499V29.1938Z" fill="#FFC522"/>
<path d="M29.1936 29.1942H26.9492V31.4385H29.1936V29.1942Z" fill="#FFC522"/>
<path d="M31.4385 29.1938H29.1941V31.4382H31.4385V29.1938Z" fill="#FFC522"/>
<path d="M33.6824 29.1938H31.438V31.4382H33.6824V29.1938Z" fill="#FFC522"/>
<path d="M35.9272 29.1938H33.6829V31.4382H35.9272V29.1938Z" fill="#FFC522"/>
<path d="M38.1768 29.1938H35.9324V31.4382H38.1768V29.1938Z" fill="#FFC522"/>
<path d="M40.4216 29.1938H38.1772V31.4382H40.4216V29.1938Z" fill="#FFC522"/>
<path d="M42.6665 29.1938H40.4221V31.4382H42.6665V29.1938Z" fill="#F2DE98"/>
<path d="M44.9102 29.1938H42.6658V31.4382H44.9102V29.1938Z" fill="black"/>
<path d="M47.1553 29.1938H44.9109V31.4382H47.1553V29.1938Z" fill="white"/>
<path d="M4.49511 31.438H2.25073V33.6824H4.49511V31.438Z" fill="white"/>
<path d="M6.73877 31.438H4.49438V33.6824H6.73877V31.438Z" fill="black"/>
<path d="M8.98364 31.438H6.73926V33.6824H8.98364V31.438Z" fill="#FF9605"/>
<path d="M11.2275 31.438H8.98315V33.6824H11.2275V31.438Z" fill="#FFC522"/>
<path d="M13.4724 31.438H11.228V33.6824H13.4724V31.438Z" fill="#FFC522"/>
<path d="M15.7219 31.438H13.4775V33.6824H15.7219V31.438Z" fill="#71382A"/>
<path d="M17.9668 31.438H15.7224V33.6824H17.9668V31.438Z" fill="#FFC522"/>
<path d="M20.2104 31.438H17.9661V33.6824H20.2104V31.438Z" fill="#FFC522"/>
<path d="M22.4553 31.438H20.2109V33.6824H22.4553V31.438Z" fill="#FFC522"/>
<path d="M24.6992 31.4384H22.4548V33.6828H24.6992V31.4384Z" fill="#FFC522"/>
<path d="M26.9499 31.438H24.7056V33.6824H26.9499V31.438Z" fill="#FFC522"/>
<path d="M29.1936 31.4379H26.9492V33.6823H29.1936V31.4379Z" fill="#FFC522"/>
<path d="M31.4385 31.438H29.1941V33.6824H31.4385V31.438Z" fill="#FFC522"/>
<path d="M33.6824 31.438H31.438V33.6824H33.6824V31.438Z" fill="#71382A"/>
<path d="M35.9272 31.438H33.6829V33.6824H35.9272V31.438Z" fill="#FFC522"/>
<path d="M38.1768 31.438H35.9324V33.6824H38.1768V31.438Z" fill="#FFC522"/>
<path d="M40.4216 31.438H38.1772V33.6824H40.4216V31.438Z" fill="#F2DE98"/>
<path d="M42.6665 31.438H40.4221V33.6824H42.6665V31.438Z" fill="black"/>
<path d="M44.9102 31.438H42.6658V33.6824H44.9102V31.438Z" fill="white"/>
<path d="M4.49389 33.6826H2.24951V35.9269H4.49389V33.6826Z" fill="white"/>
<path d="M6.73877 33.6826H4.49438V35.9269H6.73877V33.6826Z" fill="black"/>
<path d="M8.98364 33.6826H6.73926V35.9269H8.98364V33.6826Z" fill="#FF9605"/>
<path d="M11.2275 33.6826H8.98315V35.9269H11.2275V33.6826Z" fill="#FFC522"/>
<path d="M13.4724 33.6826H11.228V35.9269H13.4724V33.6826Z" fill="#FFC522"/>
<path d="M15.7219 33.6826H13.4775V35.9269H15.7219V33.6826Z" fill="#FFC522"/>
<path d="M17.9668 33.6822H15.7224V35.9265H17.9668V33.6822Z" fill="#71382A"/>
<path d="M20.2104 33.6826H17.9661V35.9269H20.2104V33.6826Z" fill="#71382A"/>
<path d="M22.4553 33.6826H20.2109V35.9269H22.4553V33.6826Z" fill="#71382A"/>
<path d="M24.6992 33.6822H22.4548V35.9265H24.6992V33.6822Z" fill="#71382A"/>
<path d="M26.9499 33.6826H24.7056V35.9269H26.9499V33.6826Z" fill="#71382A"/>
<path d="M29.1936 33.6828H26.9492V35.9272H29.1936V33.6828Z" fill="#71382A"/>
<path d="M31.4385 33.6826H29.1941V35.9269H31.4385V33.6826Z" fill="#71382A"/>
<path d="M33.6833 33.6826H31.439V35.9269H33.6833V33.6826Z" fill="#FFC522"/>
<path d="M35.9272 33.6829H33.6829V35.9273H35.9272V33.6829Z" fill="#FFC522"/>
<path d="M38.1768 33.6826H35.9324V35.9269H38.1768V33.6826Z" fill="#FFC522"/>
<path d="M40.4216 33.6829H38.1772V35.9273H40.4216V33.6829Z" fill="#F2DE98"/>
<path d="M42.6653 33.6826H40.4209V35.9269H42.6653V33.6826Z" fill="black"/>
<path d="M44.9102 33.6826H42.6658V35.9269H44.9102V33.6826Z" fill="white"/>
<path d="M4.49511 35.9271H2.25073V38.1714H4.49511V35.9271Z" fill="white"/>
<path d="M6.73877 35.9271H4.49438V38.1714H6.73877V35.9271Z" fill="white"/>
<path d="M8.98266 35.9271H6.73828V38.1714H8.98266V35.9271Z" fill="black"/>
<path d="M11.2275 35.9271H8.98315V38.1714H11.2275V35.9271Z" fill="#FF9605"/>
<path d="M13.4724 35.9271H11.228V38.1714H13.4724V35.9271Z" fill="#FFC522"/>
<path d="M15.7219 35.9271H13.4775V38.1714H15.7219V35.9271Z" fill="#FFC522"/>
<path d="M17.9668 35.9271H15.7224V38.1714H17.9668V35.9271Z" fill="#FFC522"/>
<path d="M20.2104 35.9267H17.9661V38.1711H20.2104V35.9267Z" fill="#FFC522"/>
<path d="M22.4553 35.9271H20.2109V38.1714H22.4553V35.9271Z" fill="#FFC522"/>
<path d="M24.6992 35.9267H22.4548V38.1711H24.6992V35.9267Z" fill="#FFC522"/>
<path d="M26.9499 35.9271H24.7056V38.1714H26.9499V35.9271Z" fill="#FFC522"/>
<path d="M29.1936 35.9266H26.9492V38.171H29.1936V35.9266Z" fill="#FFC522"/>
<path d="M31.4385 35.9267H29.1941V38.1711H31.4385V35.9267Z" fill="#FFC522"/>
<path d="M33.6824 35.9271H31.438V38.1714H33.6824V35.9271Z" fill="#FFC522"/>
<path d="M35.9272 35.9271H33.6829V38.1714H35.9272V35.9271Z" fill="#FFC522"/>
<path d="M38.1768 35.9271H35.9324V38.1714H38.1768V35.9271Z" fill="#F2DE98"/>
<path d="M40.4216 35.9271H38.1772V38.1714H40.4216V35.9271Z" fill="black"/>
<path d="M42.6665 35.9271H40.4221V38.1714H42.6665V35.9271Z" fill="white"/>
<path d="M44.9102 35.9271H42.6658V38.1714H44.9102V35.9271Z" fill="white"/>
<path d="M6.73877 38.177H4.49438V40.4214H6.73877V38.177Z" fill="white"/>
<path d="M8.98364 38.1766H6.73926V40.421H8.98364V38.1766Z" fill="white"/>
<path d="M11.2275 38.177H8.98315V40.4214H11.2275V38.177Z" fill="black"/>
<path d="M13.4724 38.177H11.228V40.4214H13.4724V38.177Z" fill="#FF9605"/>
<path d="M15.7219 38.177H13.4775V40.4214H15.7219V38.177Z" fill="#FF9605"/>
<path d="M17.9668 38.177H15.7224V40.4214H17.9668V38.177Z" fill="#FFC522"/>
<path d="M20.2104 38.177H17.9661V40.4214H20.2104V38.177Z" fill="#FFC522"/>
<path d="M22.4553 38.177H20.2109V40.4214H22.4553V38.177Z" fill="#FFC522"/>
<path d="M24.6992 38.177H22.4548V40.4214H24.6992V38.177Z" fill="#FFC522"/>
<path d="M26.9499 38.177H24.7056V40.4214H26.9499V38.177Z" fill="#FFC522"/>
<path d="M29.1936 38.1772H26.9492V40.4216H29.1936V38.1772Z" fill="#FFC522"/>
<path d="M31.4385 38.177H29.1941V40.4214H31.4385V38.177Z" fill="#FFC522"/>
<path d="M33.6833 38.177H31.439V40.4214H33.6833V38.177Z" fill="#F2DE98"/>
<path d="M35.9272 38.1766H33.6829V40.421H35.9272V38.1766Z" fill="#F2DE98"/>
<path d="M38.1777 38.177H35.9333V40.4214H38.1777V38.177Z" fill="black"/>
<path d="M40.4216 38.1766H38.1772V40.421H40.4216V38.1766Z" fill="white"/>
<path d="M42.6653 38.177H40.4209V40.4214H42.6653V38.177Z" fill="white"/>
<path d="M8.98364 40.4211H6.73926V42.6655H8.98364V40.4211Z" fill="white"/>
<path d="M11.2275 40.4211H8.98315V42.6655H11.2275V40.4211Z" fill="white"/>
<path d="M13.4724 40.4215H11.228V42.6659H13.4724V40.4215Z" fill="black"/>
<path d="M15.7219 40.4211H13.4775V42.6655H15.7219V40.4211Z" fill="black"/>
<path d="M17.9668 40.4215H15.7224V42.6659H17.9668V40.4215Z" fill="#FF9605"/>
<path d="M20.2104 40.4211H17.9661V42.6655H20.2104V40.4211Z" fill="#FF9605"/>
<path d="M22.4553 40.4211H20.2109V42.6655H22.4553V40.4211Z" fill="#FF9605"/>
<path d="M24.7004 40.4215H22.4561V42.6659H24.7004V40.4215Z" fill="#FF9605"/>
<path d="M26.9499 40.4211H24.7056V42.6655H26.9499V40.4211Z" fill="#FF9605"/>
<path d="M29.1936 40.421H26.9492V42.6653H29.1936V40.421Z" fill="#FF9605"/>
<path d="M31.4385 40.4211H29.1941V42.6655H31.4385V40.4211Z" fill="#FF9605"/>
<path d="M33.6824 40.4211H31.438V42.6655H33.6824V40.4211Z" fill="black"/>
<path d="M35.9272 40.4215H33.6829V42.6659H35.9272V40.4215Z" fill="black"/>
<path d="M38.1777 40.4211H35.9333V42.6655H38.1777V40.4211Z" fill="white"/>
<path d="M40.4216 40.4215H38.1772V42.6659H40.4216V40.4215Z" fill="white"/>
<path d="M11.2275 42.6656H8.98315V44.91H11.2275V42.6656Z" fill="white"/>
<path d="M13.4724 42.6656H11.228V44.91H13.4724V42.6656Z" fill="white"/>
<path d="M15.7219 42.6656H13.4775V44.91H15.7219V42.6656Z" fill="white"/>
<path d="M17.9668 42.6656H15.7224V44.91H17.9668V42.6656Z" fill="black"/>
<path d="M20.2104 42.6656H17.9661V44.91H20.2104V42.6656Z" fill="black"/>
<path d="M22.4553 42.6656H20.2109V44.91H22.4553V42.6656Z" fill="black"/>
<path d="M24.7004 42.6656H22.4561V44.91H24.7004V42.6656Z" fill="black"/>
<path d="M26.9499 42.6656H24.7056V44.91H26.9499V42.6656Z" fill="black"/>
<path d="M29.1948 42.6656H26.9504V44.91H29.1948V42.6656Z" fill="black"/>
<path d="M31.4385 42.6656H29.1941V44.91H31.4385V42.6656Z" fill="black"/>
<path d="M33.6824 42.6656H31.438V44.91H33.6824V42.6656Z" fill="white"/>
<path d="M35.9272 42.6656H33.6829V44.91H35.9272V42.6656Z" fill="white"/>
<path d="M38.1768 42.6656H35.9324V44.91H38.1768V42.6656Z" fill="white"/>
<path d="M15.7219 44.9102H13.4775V47.1546H15.7219V44.9102Z" fill="white"/>
<path d="M17.9668 44.9102H15.7224V47.1546H17.9668V44.9102Z" fill="white"/>
<path d="M20.2104 44.9102H17.9661V47.1546H20.2104V44.9102Z" fill="white"/>
<path d="M22.4553 44.9102H20.2109V47.1546H22.4553V44.9102Z" fill="white"/>
<path d="M24.6992 44.9102H22.4548V47.1546H24.6992V44.9102Z" fill="white"/>
<path d="M26.9499 44.9102H24.7056V47.1546H26.9499V44.9102Z" fill="white"/>
<path d="M29.1936 44.9102H26.9492V47.1546H29.1936V44.9102Z" fill="white"/>
<path d="M31.4385 44.9102H29.1941V47.1546H31.4385V44.9102Z" fill="white"/>
<path d="M33.6833 44.9102H31.439V47.1546H33.6833V44.9102Z" fill="white"/>
</svg>
