<svg width="47" height="64" viewBox="0 0 47 64" fill="none" xmlns="http://www.w3.org/2000/svg">
<path d="M12.781 0H10.2246V2.5485H12.781V0Z" fill="white"/>
<path d="M15.3388 0H12.7825V2.5485H15.3388V0Z" fill="white"/>
<path d="M17.8943 0H15.3379V2.5485H17.8943V0Z" fill="white"/>
<path d="M20.4514 0H17.895V2.5485H20.4514V0Z" fill="white"/>
<path d="M23.0066 0H20.4502V2.5485H23.0066V0Z" fill="white"/>
<path d="M25.5637 0H23.0073V2.5485H25.5637V0Z" fill="white"/>
<path d="M28.1206 0H25.5642V2.5485H28.1206V0Z" fill="white"/>
<path d="M30.676 0H28.1196V2.5485H30.676V0Z" fill="white"/>
<path d="M33.2331 0H30.6768V2.5485H33.2331V0Z" fill="white"/>
<path d="M35.7883 0H33.2319V2.5485H35.7883V0Z" fill="white"/>
<path d="M38.3462 0H35.7898V2.5485H38.3462V0Z" fill="white"/>
<path d="M40.9016 0H38.3452V2.5485H40.9016V0Z" fill="white"/>
<path d="M43.4585 0H40.9021V2.5485H43.4585V0Z" fill="white"/>
<path d="M10.2258 2.54843H7.66943V5.09693H10.2258V2.54843Z" fill="white"/>
<path d="M12.781 2.54852H10.2246V5.09702H12.781V2.54852Z" fill="black"/>
<path d="M15.3388 2.54852H12.7825V5.09702H15.3388V2.54852Z" fill="black"/>
<path d="M17.8943 2.54843H15.3379V5.09693H17.8943V2.54843Z" fill="black"/>
<path d="M20.4514 2.54843H17.895V5.09693H20.4514V2.54843Z" fill="black"/>
<path d="M23.0066 2.54843H20.4502V5.09693H23.0066V2.54843Z" fill="black"/>
<path d="M25.5637 2.54849H23.0073V5.09699H25.5637V2.54849Z" fill="black"/>
<path d="M28.1206 2.54843H25.5642V5.09693H28.1206V2.54843Z" fill="black"/>
<path d="M30.676 2.54843H28.1196V5.09693H30.676V2.54843Z" fill="black"/>
<path d="M33.2331 2.54843H30.6768V5.09693H33.2331V2.54843Z" fill="black"/>
<path d="M35.7883 2.54852H33.2319V5.09702H35.7883V2.54852Z" fill="black"/>
<path d="M38.3462 2.54852H35.7898V5.09702H38.3462V2.54852Z" fill="black"/>
<path d="M40.9016 2.54843H38.3452V5.09693H40.9016V2.54843Z" fill="black"/>
<path d="M43.4585 2.54843H40.9021V5.09693H43.4585V2.54843Z" fill="black"/>
<path d="M46.0139 2.54843H43.4575V5.09693H46.0139V2.54843Z" fill="white"/>
<path d="M10.2258 5.09686H7.66943V7.64536H10.2258V5.09686Z" fill="white"/>
<path d="M12.781 5.09686H10.2246V7.64536H12.781V5.09686Z" fill="black"/>
<path d="M15.3388 5.09686H12.7825V7.64536H15.3388V5.09686Z" fill="#E68E00"/>
<path d="M17.8943 5.09686H15.3379V7.64536H17.8943V5.09686Z" fill="#FFCC66"/>
<path d="M20.4514 5.09686H17.895V7.64536H20.4514V5.09686Z" fill="#FFCC66"/>
<path d="M23.0066 5.09686H20.4502V7.64536H23.0066V5.09686Z" fill="#FFCC66"/>
<path d="M25.5637 5.09686H23.0073V7.64536H25.5637V5.09686Z" fill="#FFCC66"/>
<path d="M28.1206 5.09686H25.5642V7.64536H28.1206V5.09686Z" fill="#FFCC66"/>
<path d="M30.676 5.09686H28.1196V7.64536H30.676V5.09686Z" fill="#FFCC66"/>
<path d="M33.2331 5.09686H30.6768V7.64536H33.2331V5.09686Z" fill="#FFCC66"/>
<path d="M35.7883 5.09686H33.2319V7.64536H35.7883V5.09686Z" fill="#FFCC66"/>
<path d="M38.3462 5.09686H35.7898V7.64536H38.3462V5.09686Z" fill="#FFCC66"/>
<path d="M40.9016 5.09686H38.3452V7.64536H40.9016V5.09686Z" fill="#FFCC66"/>
<path d="M43.4585 5.09686H40.9021V7.64536H43.4585V5.09686Z" fill="black"/>
<path d="M46.0139 5.09686H43.4575V7.64536H46.0139V5.09686Z" fill="white"/>
<path d="M10.2258 7.64529H7.66943V10.1938H10.2258V7.64529Z" fill="white"/>
<path d="M12.781 7.64529H10.2246V10.1938H12.781V7.64529Z" fill="black"/>
<path d="M15.3388 7.64529H12.7825V10.1938H15.3388V7.64529Z" fill="#E68E00"/>
<path d="M17.8943 7.64529H15.3379V10.1938H17.8943V7.64529Z" fill="#FFAF19"/>
<path d="M20.4514 7.64529H17.895V10.1938H20.4514V7.64529Z" fill="#FFAF19"/>
<path d="M23.0066 7.64529H20.4502V10.1938H23.0066V7.64529Z" fill="#FFAF19"/>
<path d="M25.5637 7.64529H23.0073V10.1938H25.5637V7.64529Z" fill="#FFAF19"/>
<path d="M28.1206 7.64529H25.5642V10.1938H28.1206V7.64529Z" fill="#FFAF19"/>
<path d="M30.676 7.64529H28.1196V10.1938H30.676V7.64529Z" fill="#FFAF19"/>
<path d="M33.2331 7.64529H30.6768V10.1938H33.2331V7.64529Z" fill="#FFAF19"/>
<path d="M35.7883 7.64529H33.2319V10.1938H35.7883V7.64529Z" fill="#FFAF19"/>
<path d="M38.3462 7.64529H35.7898V10.1938H38.3462V7.64529Z" fill="#FFCC66"/>
<path d="M40.9016 7.64529H38.3452V10.1938H40.9016V7.64529Z" fill="black"/>
<path d="M43.4585 7.64529H40.9021V10.1938H43.4585V7.64529Z" fill="white"/>
<path d="M7.66867 10.1937H5.1123V12.7422H7.66867V10.1937Z" fill="white"/>
<path d="M10.2258 10.1937H7.66943V12.7422H10.2258V10.1937Z" fill="black"/>
<path d="M12.781 10.1937H10.2246V12.7422H12.781V10.1937Z" fill="#E68E00"/>
<path d="M15.3388 10.1937H12.7825V12.7422H15.3388V10.1937Z" fill="#FFAF19"/>
<path d="M17.8943 10.1937H15.3379V12.7422H17.8943V10.1937Z" fill="#FFAF19"/>
<path d="M20.4514 10.1937H17.895V12.7422H20.4514V10.1937Z" fill="#FFAF19"/>
<path d="M23.0066 10.1937H20.4502V12.7422H23.0066V10.1937Z" fill="#FFAF19"/>
<path d="M25.5637 10.1937H23.0073V12.7422H25.5637V10.1937Z" fill="#FFAF19"/>
<path d="M28.1206 10.1937H25.5642V12.7422H28.1206V10.1937Z" fill="white"/>
<path d="M30.676 10.1937H28.1196V12.7422H30.676V10.1937Z" fill="#FFAF19"/>
<path d="M33.2331 10.1937H30.6768V12.7422H33.2331V10.1937Z" fill="#FFAF19"/>
<path d="M35.7883 10.1937H33.2319V12.7422H35.7883V10.1937Z" fill="#FFCC66"/>
<path d="M38.3462 10.1937H35.7898V12.7422H38.3462V10.1937Z" fill="black"/>
<path d="M40.9016 10.1937H38.3452V12.7422H40.9016V10.1937Z" fill="white"/>
<path d="M7.66867 12.7422H5.1123V15.2907H7.66867V12.7422Z" fill="white"/>
<path d="M10.2258 12.7422H7.66943V15.2907H10.2258V12.7422Z" fill="black"/>
<path d="M12.781 12.7422H10.2246V15.2907H12.781V12.7422Z" fill="#E68E00"/>
<path d="M15.3388 12.7422H12.7825V15.2907H15.3388V12.7422Z" fill="#FFAF19"/>
<path d="M17.8943 12.7422H15.3379V15.2907H17.8943V12.7422Z" fill="#FFAF19"/>
<path d="M20.4514 12.7422H17.895V15.2907H20.4514V12.7422Z" fill="#FFAF19"/>
<path d="M23.0066 12.7422H20.4502V15.2907H23.0066V12.7422Z" fill="#FFAF19"/>
<path d="M25.5637 12.7422H23.0073V15.2907H25.5637V12.7422Z" fill="white"/>
<path d="M28.1206 12.7422H25.5642V15.2907H28.1206V12.7422Z" fill="#FFAF19"/>
<path d="M30.676 12.7422H28.1196V15.2907H30.676V12.7422Z" fill="#FFAF19"/>
<path d="M33.2331 12.7422H30.6768V15.2907H33.2331V12.7422Z" fill="#FFCC66"/>
<path d="M35.7883 12.7422H33.2319V15.2907H35.7883V12.7422Z" fill="black"/>
<path d="M38.3462 12.7422H35.7898V15.2907H38.3462V12.7422Z" fill="white"/>
<path d="M7.66867 15.2906H5.1123V17.8391H7.66867V15.2906Z" fill="white"/>
<path d="M10.2258 15.2906H7.66943V17.8391H10.2258V15.2906Z" fill="black"/>
<path d="M12.781 15.2906H10.2246V17.8391H12.781V15.2906Z" fill="#E68E00"/>
<path d="M15.3388 15.2906H12.7825V17.8391H15.3388V15.2906Z" fill="#FFAF19"/>
<path d="M17.8943 15.2906H15.3379V17.8391H17.8943V15.2906Z" fill="#FFAF19"/>
<path d="M20.4514 15.2906H17.895V17.8391H20.4514V15.2906Z" fill="#FFAF19"/>
<path d="M23.0066 15.2906H20.4502V17.8391H23.0066V15.2906Z" fill="#FFAF19"/>
<path d="M25.5637 15.2906H23.0073V17.8391H25.5637V15.2906Z" fill="#FFAF19"/>
<path d="M28.1206 15.2906H25.5642V17.8391H28.1206V15.2906Z" fill="#FFAF19"/>
<path d="M30.676 15.2906H28.1196V17.8391H30.676V15.2906Z" fill="#FFCC66"/>
<path d="M33.2331 15.2906H30.6768V17.8391H33.2331V15.2906Z" fill="black"/>
<path d="M35.7883 15.2906H33.2319V17.8391H35.7883V15.2906Z" fill="white"/>
<path d="M5.11349 17.8407H2.55713V20.3892H5.11349V17.8407Z" fill="white"/>
<path d="M7.66867 17.8407H5.1123V20.3892H7.66867V17.8407Z" fill="black"/>
<path d="M10.2258 17.8407H7.66943V20.3892H10.2258V17.8407Z" fill="#E68E00"/>
<path d="M12.781 17.8407H10.2246V20.3892H12.781V17.8407Z" fill="#FFAF19"/>
<path d="M15.3388 17.8407H12.7825V20.3892H15.3388V17.8407Z" fill="#FFAF19"/>
<path d="M17.8943 17.8407H15.3379V20.3892H17.8943V17.8407Z" fill="#FFAF19"/>
<path d="M20.4514 17.8407H17.895V20.3892H20.4514V17.8407Z" fill="#FFAF19"/>
<path d="M23.0066 17.8407H20.4502V20.3892H23.0066V17.8407Z" fill="#FFAF19"/>
<path d="M25.5637 17.8407H23.0073V20.3892H25.5637V17.8407Z" fill="#FFAF19"/>
<path d="M28.1206 17.8407H25.5642V20.3892H28.1206V17.8407Z" fill="#FFCC66"/>
<path d="M30.676 17.8407H28.1196V20.3892H30.676V17.8407Z" fill="black"/>
<path d="M33.2331 17.8407H30.6768V20.3892H33.2331V17.8407Z" fill="white"/>
<path d="M5.11349 20.3874H2.55713V22.9359H5.11349V20.3874Z" fill="white"/>
<path d="M7.66867 20.3874H5.1123V22.9359H7.66867V20.3874Z" fill="black"/>
<path d="M10.2258 20.3874H7.66943V22.9359H10.2258V20.3874Z" fill="#E68E00"/>
<path d="M12.781 20.3874H10.2246V22.9359H12.781V20.3874Z" fill="#FFAF19"/>
<path d="M15.3388 20.3874H12.7825V22.9359H15.3388V20.3874Z" fill="#FFAF19"/>
<path d="M17.8943 20.3874H15.3379V22.9359H17.8943V20.3874Z" fill="#FFAF19"/>
<path d="M20.4514 20.3874H17.895V22.9359H20.4514V20.3874Z" fill="#FFAF19"/>
<path d="M23.0066 20.3874H20.4502V22.9359H23.0066V20.3874Z" fill="#FFAF19"/>
<path d="M25.5637 20.3874H23.0073V22.9359H25.5637V20.3874Z" fill="#FFCC66"/>
<path d="M28.1206 20.3874H25.5642V22.9359H28.1206V20.3874Z" fill="black"/>
<path d="M30.676 20.3874H28.1196V22.9359H30.676V20.3874Z" fill="white"/>
<path d="M33.2331 20.3874H30.6768V22.9359H33.2331V20.3874Z" fill="white"/>
<path d="M35.7883 20.3874H33.2319V22.9359H35.7883V20.3874Z" fill="white"/>
<path d="M38.3462 20.3874H35.7898V22.9359H38.3462V20.3874Z" fill="white"/>
<path d="M5.11349 22.9376H2.55713V25.4861H5.11349V22.9376Z" fill="white"/>
<path d="M7.66867 22.9376H5.1123V25.4861H7.66867V22.9376Z" fill="black"/>
<path d="M10.2258 22.9376H7.66943V25.4861H10.2258V22.9376Z" fill="#E68E00"/>
<path d="M12.781 22.9376H10.2246V25.4861H12.781V22.9376Z" fill="#FFAF19"/>
<path d="M15.3388 22.9376H12.7825V25.4861H15.3388V22.9376Z" fill="#FFAF19"/>
<path d="M17.8943 22.9376H15.3379V25.4861H17.8943V22.9376Z" fill="#FFAF19"/>
<path d="M20.4514 22.9376H17.895V25.4861H20.4514V22.9376Z" fill="#FFAF19"/>
<path d="M23.0066 22.9376H20.4502V25.4861H23.0066V22.9376Z" fill="#FFCC66"/>
<path d="M25.5637 22.9376H23.0073V25.4861H25.5637V22.9376Z" fill="black"/>
<path d="M28.1206 22.9376H25.5642V25.4861H28.1206V22.9376Z" fill="black"/>
<path d="M30.676 22.9376H28.1196V25.4861H30.676V22.9376Z" fill="black"/>
<path d="M33.2331 22.9376H30.6768V25.4861H33.2331V22.9376Z" fill="black"/>
<path d="M35.7883 22.9376H33.2319V25.4861H35.7883V22.9376Z" fill="black"/>
<path d="M38.3462 22.9376H35.7898V25.4861H38.3462V22.9376Z" fill="black"/>
<path d="M40.9016 22.9376H38.3452V25.4861H40.9016V22.9376Z" fill="white"/>
<path d="M2.55636 25.4843H0V28.0328H2.55636V25.4843Z" fill="white"/>
<path d="M5.11349 25.4843H2.55713V28.0328H5.11349V25.4843Z" fill="black"/>
<path d="M7.66867 25.4843H5.1123V28.0328H7.66867V25.4843Z" fill="#E68E00"/>
<path d="M10.2258 25.4843H7.66943V28.0328H10.2258V25.4843Z" fill="#FFAF19"/>
<path d="M12.781 25.4843H10.2246V28.0328H12.781V25.4843Z" fill="#FFAF19"/>
<path d="M15.3388 25.4843H12.7825V28.0328H15.3388V25.4843Z" fill="#FFAF19"/>
<path d="M17.8943 25.4843H15.3379V28.0328H17.8943V25.4843Z" fill="#FFAF19"/>
<path d="M20.4514 25.4843H17.895V28.0328H20.4514V25.4843Z" fill="#FFAF19"/>
<path d="M23.0066 25.4843H20.4502V28.0328H23.0066V25.4843Z" fill="#FFAF19"/>
<path d="M25.5637 25.4843H23.0073V28.0328H25.5637V25.4843Z" fill="#FFAF19"/>
<path d="M28.1206 25.4843H25.5642V28.0328H28.1206V25.4843Z" fill="#FFAF19"/>
<path d="M30.676 25.4843H28.1196V28.0328H30.676V25.4843Z" fill="#FFAF19"/>
<path d="M33.2331 25.4843H30.6768V28.0328H33.2331V25.4843Z" fill="#FFAF19"/>
<path d="M35.7883 25.4843H33.2319V28.0328H35.7883V25.4843Z" fill="#FFAF19"/>
<path d="M38.3462 25.4843H35.7898V28.0328H38.3462V25.4843Z" fill="#FFCC66"/>
<path d="M40.9016 25.4843H38.3452V28.0328H40.9016V25.4843Z" fill="black"/>
<path d="M43.4585 25.4843H40.9021V28.0328H43.4585V25.4843Z" fill="white"/>
<path d="M2.55636 28.0344H0V30.5829H2.55636V28.0344Z" fill="white"/>
<path d="M5.11349 28.0344H2.55713V30.5829H5.11349V28.0344Z" fill="black"/>
<path d="M7.66867 28.0344H5.1123V30.5829H7.66867V28.0344Z" fill="#E68E00"/>
<path d="M10.2258 28.0344H7.66943V30.5829H10.2258V28.0344Z" fill="#E68E00"/>
<path d="M12.781 28.0344H10.2246V30.5829H12.781V28.0344Z" fill="#E68E00"/>
<path d="M15.3388 28.0344H12.7825V30.5829H15.3388V28.0344Z" fill="#E68E00"/>
<path d="M17.8943 28.0344H15.3379V30.5829H17.8943V28.0344Z" fill="#E68E00"/>
<path d="M20.4514 28.0344H17.895V30.5829H20.4514V28.0344Z" fill="#FFAF19"/>
<path d="M23.0066 28.0344H20.4502V30.5829H23.0066V28.0344Z" fill="#FFAF19"/>
<path d="M25.5637 28.0344H23.0073V30.5829H25.5637V28.0344Z" fill="#FFAF19"/>
<path d="M28.1206 28.0344H25.5642V30.5829H28.1206V28.0344Z" fill="#FFAF19"/>
<path d="M30.676 28.0344H28.1196V30.5829H30.676V28.0344Z" fill="white"/>
<path d="M33.2331 28.0344H30.6768V30.5829H33.2331V28.0344Z" fill="#FFAF19"/>
<path d="M35.7883 28.0344H33.2319V30.5829H35.7883V28.0344Z" fill="#FFAF19"/>
<path d="M38.3462 28.0344H35.7898V30.5829H38.3462V28.0344Z" fill="#FFCC66"/>
<path d="M40.9016 28.0344H38.3452V30.5829H40.9016V28.0344Z" fill="black"/>
<path d="M43.4585 28.0344H40.9021V30.5829H43.4585V28.0344Z" fill="white"/>
<path d="M2.55636 30.5811H0V33.1296H2.55636V30.5811Z" fill="white"/>
<path d="M5.11349 30.5811H2.55713V33.1296H5.11349V30.5811Z" fill="black"/>
<path d="M7.66867 30.5811H5.1123V33.1296H7.66867V30.5811Z" fill="black"/>
<path d="M10.2258 30.5811H7.66943V33.1296H10.2258V30.5811Z" fill="black"/>
<path d="M12.781 30.5811H10.2246V33.1296H12.781V30.5811Z" fill="black"/>
<path d="M15.3388 30.5811H12.7825V33.1296H15.3388V30.5811Z" fill="black"/>
<path d="M17.8943 30.5811H15.3379V33.1296H17.8943V30.5811Z" fill="#E68E00"/>
<path d="M20.4514 30.5811H17.895V33.1296H20.4514V30.5811Z" fill="#FFAF19"/>
<path d="M23.0066 30.5811H20.4502V33.1296H23.0066V30.5811Z" fill="#FFAF19"/>
<path d="M25.5637 30.5811H23.0073V33.1296H25.5637V30.5811Z" fill="#FFAF19"/>
<path d="M28.1206 30.5811H25.5642V33.1296H28.1206V30.5811Z" fill="white"/>
<path d="M30.676 30.5811H28.1196V33.1296H30.676V30.5811Z" fill="#FFAF19"/>
<path d="M33.2331 30.5811H30.6768V33.1296H33.2331V30.5811Z" fill="#FFAF19"/>
<path d="M35.7883 30.5811H33.2319V33.1296H35.7883V30.5811Z" fill="#FFCC66"/>
<path d="M38.3462 30.5811H35.7898V33.1296H38.3462V30.5811Z" fill="black"/>
<path d="M40.9016 30.5811H38.3452V33.1296H40.9016V30.5811Z" fill="white"/>
<path d="M43.4585 30.5811H40.9021V33.1296H43.4585V30.5811Z" fill="white"/>
<path d="M5.11349 33.1313H2.55713V35.6798H5.11349V33.1313Z" fill="white"/>
<path d="M7.66867 33.1313H5.1123V35.6798H7.66867V33.1313Z" fill="white"/>
<path d="M10.2258 33.1313H7.66943V35.6798H10.2258V33.1313Z" fill="white"/>
<path d="M12.781 33.1313H10.2246V35.6798H12.781V33.1313Z" fill="white"/>
<path d="M15.3388 33.1313H12.7825V35.6798H15.3388V33.1313Z" fill="black"/>
<path d="M17.8943 33.1313H15.3379V35.6798H17.8943V33.1313Z" fill="#E68E00"/>
<path d="M20.4514 33.1313H17.895V35.6798H20.4514V33.1313Z" fill="#FFAF19"/>
<path d="M23.0066 33.1313H20.4502V35.6798H23.0066V33.1313Z" fill="#FFAF19"/>
<path d="M25.5637 33.1313H23.0073V35.6798H25.5637V33.1313Z" fill="#FFAF19"/>
<path d="M28.1206 33.1313H25.5642V35.6798H28.1206V33.1313Z" fill="#FFAF19"/>
<path d="M30.676 33.1313H28.1196V35.6798H30.676V33.1313Z" fill="#FFAF19"/>
<path d="M33.2331 33.1313H30.6768V35.6798H33.2331V33.1313Z" fill="#FFCC66"/>
<path d="M35.7883 33.1313H33.2319V35.6798H35.7883V33.1313Z" fill="black"/>
<path d="M38.3462 33.1313H35.7898V35.6798H38.3462V33.1313Z" fill="white"/>
<path d="M40.9016 33.1313H38.3452V35.6798H40.9016V33.1313Z" fill="white"/>
<path d="M12.781 35.678H10.2246V38.2265H12.781V35.678Z" fill="white"/>
<path d="M15.3388 35.678H12.7825V38.2265H15.3388V35.678Z" fill="black"/>
<path d="M17.8943 35.678H15.3379V38.2265H17.8943V35.678Z" fill="#E68E00"/>
<path d="M20.4514 35.678H17.895V38.2265H20.4514V35.678Z" fill="#FFAF19"/>
<path d="M23.0066 35.678H20.4502V38.2265H23.0066V35.678Z" fill="#FFAF19"/>
<path d="M25.5637 35.678H23.0073V38.2265H25.5637V35.678Z" fill="#FFAF19"/>
<path d="M28.1206 35.678H25.5642V38.2265H28.1206V35.678Z" fill="#FFAF19"/>
<path d="M30.676 35.678H28.1196V38.2265H30.676V35.678Z" fill="#FFCC66"/>
<path d="M33.2331 35.678H30.6768V38.2265H33.2331V35.678Z" fill="black"/>
<path d="M35.7883 35.678H33.2319V38.2265H35.7883V35.678Z" fill="white"/>
<path d="M38.3462 35.678H35.7898V38.2265H38.3462V35.678Z" fill="white"/>
<path d="M10.2258 38.2281H7.66943V40.7766H10.2258V38.2281Z" fill="white"/>
<path d="M12.781 38.2281H10.2246V40.7766H12.781V38.2281Z" fill="black"/>
<path d="M15.3388 38.2281H12.7825V40.7766H15.3388V38.2281Z" fill="#E68E00"/>
<path d="M17.8943 38.2281H15.3379V40.7766H17.8943V38.2281Z" fill="#E68E00"/>
<path d="M20.4514 38.2281H17.895V40.7766H20.4514V38.2281Z" fill="#FFAF19"/>
<path d="M23.0066 38.2281H20.4502V40.7766H23.0066V38.2281Z" fill="#FFAF19"/>
<path d="M25.5637 38.2281H23.0073V40.7766H25.5637V38.2281Z" fill="#FFAF19"/>
<path d="M28.1206 38.2281H25.5642V40.7766H28.1206V38.2281Z" fill="#FFCC66"/>
<path d="M30.676 38.2281H28.1196V40.7766H30.676V38.2281Z" fill="black"/>
<path d="M33.2331 38.2281H30.6768V40.7766H33.2331V38.2281Z" fill="white"/>
<path d="M35.7883 38.2281H33.2319V40.7766H35.7883V38.2281Z" fill="white"/>
<path d="M10.2258 40.7749H7.66943V43.3234H10.2258V40.7749Z" fill="white"/>
<path d="M12.781 40.7749H10.2246V43.3234H12.781V40.7749Z" fill="black"/>
<path d="M15.3388 40.7749H12.7825V43.3234H15.3388V40.7749Z" fill="#E68E00"/>
<path d="M17.8943 40.7749H15.3379V43.3234H17.8943V40.7749Z" fill="#FFAF19"/>
<path d="M20.4514 40.7749H17.895V43.3234H20.4514V40.7749Z" fill="#FFAF19"/>
<path d="M23.0066 40.7749H20.4502V43.3234H23.0066V40.7749Z" fill="#FFAF19"/>
<path d="M25.5637 40.7749H23.0073V43.3234H25.5637V40.7749Z" fill="#FFCC66"/>
<path d="M28.1206 40.7749H25.5642V43.3234H28.1206V40.7749Z" fill="black"/>
<path d="M30.676 40.7749H28.1196V43.3234H30.676V40.7749Z" fill="white"/>
<path d="M33.2331 40.7749H30.6768V43.3234H33.2331V40.7749Z" fill="white"/>
<path d="M10.2258 43.325H7.66943V45.8735H10.2258V43.325Z" fill="white"/>
<path d="M12.781 43.325H10.2246V45.8735H12.781V43.325Z" fill="black"/>
<path d="M15.3388 43.325H12.7825V45.8735H15.3388V43.325Z" fill="#E68E00"/>
<path d="M17.8943 43.325H15.3379V45.8735H17.8943V43.325Z" fill="#FFAF19"/>
<path d="M20.4514 43.325H17.895V45.8735H20.4514V43.325Z" fill="#FFAF19"/>
<path d="M23.0066 43.325H20.4502V45.8735H23.0066V43.325Z" fill="#FFCC66"/>
<path d="M25.5637 43.325H23.0073V45.8735H25.5637V43.325Z" fill="black"/>
<path d="M28.1206 43.325H25.5642V45.8735H28.1206V43.325Z" fill="white"/>
<path d="M30.676 43.325H28.1196V45.8735H30.676V43.325Z" fill="white"/>
<path d="M7.66867 45.8717H5.1123V48.4202H7.66867V45.8717Z" fill="white"/>
<path d="M10.2258 45.8717H7.66943V48.4202H10.2258V45.8717Z" fill="black"/>
<path d="M12.781 45.8717H10.2246V48.4202H12.781V45.8717Z" fill="#E68E00"/>
<path d="M15.3388 45.8717H12.7825V48.4202H15.3388V45.8717Z" fill="#E68E00"/>
<path d="M17.8943 45.8717H15.3379V48.4202H17.8943V45.8717Z" fill="#FFAF19"/>
<path d="M20.4514 45.8717H17.895V48.4202H20.4514V45.8717Z" fill="#FFCC66"/>
<path d="M23.0066 45.8717H20.4502V48.4202H23.0066V45.8717Z" fill="black"/>
<path d="M25.5637 45.8717H23.0073V48.4202H25.5637V45.8717Z" fill="white"/>
<path d="M28.1206 45.8717H25.5642V48.4202H28.1206V45.8717Z" fill="white"/>
<path d="M7.66867 48.4218H5.1123V50.9703H7.66867V48.4218Z" fill="white"/>
<path d="M10.2258 48.4218H7.66943V50.9703H10.2258V48.4218Z" fill="black"/>
<path d="M12.781 48.4218H10.2246V50.9703H12.781V48.4218Z" fill="#E68E00"/>
<path d="M15.3388 48.4218H12.7825V50.9703H15.3388V48.4218Z" fill="#FFAF19"/>
<path d="M17.8943 48.4218H15.3379V50.9703H17.8943V48.4218Z" fill="#FFCC66"/>
<path d="M20.4514 48.4218H17.895V50.9703H20.4514V48.4218Z" fill="black"/>
<path d="M23.0066 48.4218H20.4502V50.9703H23.0066V48.4218Z" fill="white"/>
<path d="M25.5637 48.4218H23.0073V50.9703H25.5637V48.4218Z" fill="white"/>
<path d="M7.66867 50.9703H5.1123V53.5188H7.66867V50.9703Z" fill="white"/>
<path d="M10.2258 50.9703H7.66943V53.5188H10.2258V50.9703Z" fill="black"/>
<path d="M12.781 50.9703H10.2246V53.5188H12.781V50.9703Z" fill="#E68E00"/>
<path d="M15.3388 50.9703H12.7825V53.5188H15.3388V50.9703Z" fill="#FFCC66"/>
<path d="M17.8943 50.9703H15.3379V53.5188H17.8943V50.9703Z" fill="black"/>
<path d="M20.4514 50.9703H17.895V53.5188H20.4514V50.9703Z" fill="white"/>
<path d="M23.0066 50.9703H20.4502V53.5188H23.0066V50.9703Z" fill="white"/>
<path d="M5.11349 53.5187H2.55713V56.0672H5.11349V53.5187Z" fill="white"/>
<path d="M7.66867 53.5187H5.1123V56.0672H7.66867V53.5187Z" fill="black"/>
<path d="M10.2258 53.5187H7.66943V56.0672H10.2258V53.5187Z" fill="#E68E00"/>
<path d="M12.781 53.5187H10.2246V56.0672H12.781V53.5187Z" fill="#E68E00"/>
<path d="M15.3388 53.5187H12.7825V56.0672H15.3388V53.5187Z" fill="black"/>
<path d="M17.8943 53.5187H15.3379V56.0672H17.8943V53.5187Z" fill="white"/>
<path d="M20.4514 53.5187H17.895V56.0672H20.4514V53.5187Z" fill="white"/>
<path d="M5.11349 56.0671H2.55713V58.6156H5.11349V56.0671Z" fill="white"/>
<path d="M7.66867 56.0671H5.1123V58.6156H7.66867V56.0671Z" fill="black"/>
<path d="M10.2258 56.0671H7.66943V58.6156H10.2258V56.0671Z" fill="#E68E00"/>
<path d="M12.781 56.0671H10.2246V58.6156H12.781V56.0671Z" fill="black"/>
<path d="M15.3388 56.0671H12.7825V58.6156H15.3388V56.0671Z" fill="white"/>
<path d="M17.8943 56.0671H15.3379V58.6156H17.8943V56.0671Z" fill="white"/>
<path d="M5.11349 58.6156H2.55713V61.1641H5.11349V58.6156Z" fill="white"/>
<path d="M7.66867 58.6156H5.1123V61.1641H7.66867V58.6156Z" fill="black"/>
<path d="M10.2258 58.6156H7.66943V61.1641H10.2258V58.6156Z" fill="black"/>
<path d="M12.781 58.6156H10.2246V61.1641H12.781V58.6156Z" fill="white"/>
<path d="M15.3388 58.6156H12.7825V61.1641H15.3388V58.6156Z" fill="white"/>
<path d="M5.11349 61.164H2.55713V63.7125H5.11349V61.164Z" fill="white"/>
<path d="M7.66867 61.164H5.1123V63.7125H7.66867V61.164Z" fill="white"/>
<path d="M10.2258 61.164H7.66943V63.7125H10.2258V61.164Z" fill="white"/>
<path d="M12.781 61.1639H10.2246V63.7124H12.781V61.1639Z" fill="white"/>
</svg>
